<?xml version="1.0" standalone="no"?>
<!DOCTYPE svg PUBLIC "-//W3C//DTD SVG 1.1//EN" "http://www.w3.org/Graphics/SVG/1.1/DTD/svg11.dtd" >
<svg>
<metadata>
Created by FontForge 20090914 at Fri Jun 17 18:31:37 2016
 By www-data
Copyright (c) 2002, 2005 Parachute&#194;&#168;, www.parachute.gr.  All rights reserved.
</metadata>
<defs>
<font id="PFDinTextPro-LightItalic" horiz-adv-x="1818" >
  <font-face 
    font-family="PF DinText Pro Light"
    font-weight="300"
    font-style="italic"
    font-stretch="normal"
    units-per-em="1000"
    panose-1="2 0 5 6 0 0 0 9 0 4"
    ascent="750"
    descent="-250"
    x-height="494"
    cap-height="696"
    bbox="-279 -267.006 1760 916"
    underline-thickness="50"
    underline-position="-50"
    slope="-12"
    unicode-range="U+0020-U+FB05"
  />
<missing-glyph horiz-adv-x="436" 
d="M0 700h436v-700h-436v700zM368 659h-300l150 -272zM396 72v557l-153 -279zM368 41l-150 272l-150 -272h300zM40 73l153 277l-153 277v-554z" />
    <glyph glyph-name="fj" unicode="fj" horiz-adv-x="454" 
d="M139 496l19 90.999c5.33301 28 13.333 51.333 24 70s23.167 33.5 37.5 44.5s30.333 18.833 48 23.5s36.167 7 55.5 7c63.333 0 108.666 -19.667 135.999 -59l-44 -43c-11.333 14.667 -24.833 25.167 -40.5 31.5s-35.5 9.5 -59.5 9.5c-28 0 -49.167 -6.66699 -63.5 -20
s-24.166 -34.666 -29.499 -63.999l-18 -91h224l-106 -567c-7.33301 -38.667 -22 -70.167 -44 -94.5s-54.333 -36.5 -97 -36.5h-41l11 57h5.5h9.5h9.5c3 0 4.5 0.333008 4.5 1c43.333 2 70 28 80 78l95 507h-162l-116 -601h-65l117 601h-61l11 55h60z" />
    <glyph glyph-name="ffj" unicode="ffj" horiz-adv-x="688" 
d="M432 496l226.001 0.00195312l-107 -567c-4 -19.333 -9.5 -37 -16.5 -53s-16.167 -29.833 -27.5 -41.5s-25.333 -20.667 -42 -27s-36.667 -9.5 -60 -9.5h-37l12 57h5.5h9.5h9c2.66699 0 4.33398 0.333008 5.00098 1c43.333 2 69.666 28 78.999 78l98 507h-164l-117 -601
h-63l116 601h-165l-117 -601h-64l117 601h-60l10 55h61l13 69c5.33301 28 13.833 51.333 25.5 70s25.167 33.5 40.5 44.5s32.166 18.833 50.499 23.5s37.166 7 56.499 7c21.333 0 41.833 -2.16699 61.5 -6.5s35.834 -10.833 48.501 -19.5
c18 17.333 36.167 29.166 54.5 35.499s39.833 9.5 64.5 9.5c64 0 110 -19.333 138 -58l-47 -44c-12.667 15.333 -26.5 26.166 -41.5 32.499s-34.167 9.5 -57.5 9.5c-25.333 0 -46.5 -6.66699 -63.5 -20s-28.167 -35 -33.5 -65zM320.001 650.002
c-28.667 0 -51.5 -6.66699 -68.5 -20s-28.5 -35 -34.5 -65l-13 -69h165l18 88c1.33301 8 2.83301 15.667 4.5 23s4.16699 14.333 7.5 21c-10.667 8 -22.5 13.667 -35.5 17s-27.5 5 -43.5 5z" />
    <glyph glyph-name="ff" unicode="ff" horiz-adv-x="497" 
d="M529 731l10 -0.000976562h20c7.33301 0 14 -0.166992 20 -0.5s9.66699 -0.5 11 -0.5l-11 -59c-1.33301 0 -4.33301 0.166992 -9 0.5s-9.83398 0.5 -15.501 0.5h-15.5h-8c-14 0 -25.5 -2.33301 -34.5 -7s-16.5 -10.667 -22.5 -18s-10.5 -15.5 -13.5 -24.5
s-5.5 -18.167 -7.5 -27.5l-20 -99h110l-11 -54h-110l-116 -601h-63l116 601h-165l-116 -601h-64l116 601h-61l11 54h60l15 74c5.33301 28 13.666 51.333 24.999 70s24.833 33.5 40.5 44.5s32.834 18.833 51.501 23.5s38 7 58 7s39.333 -2.16699 58 -6.5
s34 -10.166 46 -17.499c13.333 13.333 27.333 23.333 42 30s32.334 10 53.001 10zM205 495.999l164.999 0.000976562l22 109c0.666992 9.33301 3.33398 19 8.00098 29c-10.667 7.33301 -23 12.666 -37 15.999s-28.667 5 -44 5c-54.667 0 -88 -28.333 -100 -85z" />
    <glyph glyph-name="fi" unicode="fi" horiz-adv-x="454" 
d="M276 0l85.001 440.999h-165l-117 -601h-64l117 601h-61l11 55h60l18 91c6 29.333 14.5 53.5 25.5 72.5s24 33.833 39 44.5s31.333 18 49 22s36.167 6 55.5 6c32 0 60.167 -5 84.5 -15s43.166 -24.667 56.499 -44l-51 -43c-10.667 15.333 -24 26 -40 32s-35.667 9 -59 9
c-24.667 0 -45.5 -6.66699 -62.5 -20s-28.167 -34.666 -33.5 -63.999l-17 -91h228l-96 -496h-63z" />
    <glyph glyph-name="fl" unicode="fl" horiz-adv-x="471" 
d="M392 0c-35.333 0 -62.001 9.16699 -80.001 27.5s-23 47.166 -15 86.499l108 544c-14 5.33301 -28.167 9 -42.5 11s-26.166 3 -35.499 3c-32 0 -55.833 -6.83301 -71.5 -20.5s-26.167 -35.167 -31.5 -64.5l-17 -91h112l-10 -55h-113l-117 -601h-64l117 601h-61l11 55h60
l18 91c5.33301 28 13.333 51.333 24 70s23.5 33.5 38.5 44.5s32 18.833 51 23.5s39.5 7 61.5 7c11.333 0 28.833 -1.5 52.5 -4.5s52.834 -9.83301 87.501 -20.5l-114 -587c-4 -19.333 -2.33301 -34.666 5 -45.999s22.666 -17 45.999 -17h16l-12 -57h-24z" />
    <glyph glyph-name="ffi" unicode="ffi" horiz-adv-x="688" 
d="M504 0l84.998 441h-165l-116 -601h-64l117 601h-165l-117 -601h-64l117 601h-61l11 55h60l14 69c5.33301 28 13.666 51.333 24.999 70s24.833 33.5 40.5 44.5s32.834 18.833 51.501 23.5s38 7 58 7c21.333 0 41.5 -2.16699 60.5 -6.5s34.833 -10.833 47.5 -19.5
c17.333 17.333 35.333 29.166 54 35.499s40.334 9.5 65.001 9.5c66.667 0 114.334 -19.333 143.001 -58l-52 -44c-11.333 14.667 -24.833 25.334 -40.5 32.001s-35.167 10 -58.5 10c-26 0 -47.5 -6.66699 -64.5 -20s-28.167 -35 -33.5 -65l-17 -88h229l-96 -496h-64z
M321.998 650c-28 0 -50.668 -6.66699 -68.001 -20s-28.666 -35 -33.999 -65l-13 -69h165l17 88c1.33301 8 2.83301 15.667 4.5 23s4.16699 14.333 7.5 21c-10.667 8 -22.5 13.667 -35.5 17s-27.5 5 -43.5 5z" />
    <glyph glyph-name="ffl" unicode="ffl" horiz-adv-x="700" 
d="M322 650c-28 0 -50.666 -6.66699 -67.999 -20s-28.666 -35 -33.999 -65l-13 -69h165l17 91c3.33301 15.333 7.33301 29 12 41c-10.667 8 -23.834 13.667 -39.501 17s-28.834 5 -39.501 5zM564.001 732c11.333 0 28.833 -1.5 52.5 -4.5s52.834 -9.83301 87.501 -20.5
l-114 -587c-4 -19.333 -2.33301 -34.666 5 -45.999s22.666 -17 45.999 -17h16l-12 -57h-24c-35.333 0 -62 9.16699 -80 27.5s-23 47.166 -15 86.499l108 544c-14 5.33301 -28.167 9 -42.5 11s-26.5 3 -36.5 3c-57.333 0 -91.333 -28.333 -102 -85l-18 -91h111l-10 -55h-112
l-116 -601h-64l117 601h-165l-117 -601h-64l117 601h-61l11 55h60l14 69c5.33301 28 13.5 51.333 24.5 70s24 33.5 39 44.5s31.667 18.833 50 23.5s37.5 7 57.5 7c21.333 0 40.833 -2.16699 58.5 -6.5s35.167 -10.5 52.5 -18.5c17.333 17.333 36.333 29.5 57 36.5
s43.667 10.5 69 10.5z" />
    <glyph glyph-name="ft" unicode="ft" horiz-adv-x="492" 
d="M196 442l-116.998 -600.999h-64l117 601h-61l11 54h60l22 109c7.33301 40.667 22.5 71.834 45.5 93.501s53.833 32.5 92.5 32.5h10h20c7.33301 0 14 -0.166992 20 -0.5s9.33301 -0.5 10 -0.5l-11 -59c-0.666992 0 -3.5 0.166992 -8.5 0.5s-10.167 0.5 -15.5 0.5h-15h-8
c-14 0 -25.5 -2.33301 -34.5 -7s-16.5 -10.667 -22.5 -18s-10.5 -15.5 -13.5 -24.5s-5.5 -18.167 -7.5 -27.5l-20 -99h166l24 127h63l-24 -127h84l-11 -54h-84l-61 -313c-2 -10 -3 -19.333 -3 -28s1.66699 -16.334 5 -23.001s8.5 -11.834 15.5 -15.501
s16.833 -5.5 29.5 -5.5h37l-10 -57h-52c-32.667 0 -57.334 9.5 -74.001 28.5s-21.334 46.5 -14.001 82.5l64 331h-165z" />
    <glyph glyph-name=".notdef" horiz-adv-x="436" 
d="M0 700h436v-700h-436v700zM368 659h-300l150 -272zM396 72v557l-153 -279zM368 41l-150 272l-150 -272h300zM40 73l153 277l-153 277v-554z" />
    <glyph glyph-name="space" unicode=" " horiz-adv-x="215" 
 />
    <glyph glyph-name="exclam" unicode="!" horiz-adv-x="226" 
d="M131 182h-46l92 514h62zM37 0l16 79h72l-16 -79h-72z" />
    <glyph glyph-name="quotedbl" unicode="&#x22;" horiz-adv-x="275" 
d="M225 503l37 193h49l-37 -193h-49zM117 503l38 193h49l-37 -193h-50z" />
    <glyph glyph-name="numbersign" unicode="#" horiz-adv-x="489" 
d="M26 264h100l56 170h-95l9 45h101l71 215h47l-72 -215h129l71 215h47l-71 -215h100l-8 -45h-106l-56 -170h100l-9 -44h-107l-70 -220h-48l71 220h-128l-72 -220h-48l72 220h-94zM173 264h129l55 170h-128z" />
    <glyph glyph-name="dollar" unicode="$" horiz-adv-x="484" 
d="M98 485c0 30.667 5.66504 58.6641 16.998 83.9971s27 47.166 47 65.499s43.167 32.666 69.5 42.999s54.5 15.833 84.5 16.5l15 78h40c-2.66699 -13.333 -5.16699 -26.666 -7.5 -39.999s-5.16602 -26.666 -8.49902 -39.999c25.333 -2.66699 50.5 -8.33398 75.5 -17.001
s46.167 -20 63.5 -34l-36 -52c-16 11.333 -33.667 21 -53 29s-39.333 13.333 -60 16l-51 -261c20 -6.66699 39.5 -14.167 58.5 -22.5s35.667 -19.166 50 -32.499s26 -29.833 35 -49.5s13.5 -44.167 13.5 -73.5c-1.33301 -31.333 -8.33301 -59.166 -21 -83.499
s-29.5 -45 -50.5 -62s-45 -30.167 -72 -39.5s-55.5 -14.333 -85.5 -15l-21 -113h-41l22 114c-32.667 2.66699 -63.167 9.66699 -91.5 21s-55.166 28.666 -80.499 51.999l41 48c21.333 -18.667 43 -33.5 65 -44.5s47.667 -17.5 77 -19.5l25.5 134.5
c8.33301 45 17.166 89.833 26.499 134.5c-17.333 6 -34.666 13.333 -51.999 22s-33 19.334 -47 32.001s-25.5 27.834 -34.5 45.501s-13.5 38.834 -13.5 63.501zM281.998 307.997l-24 -127.498l-25 -127.5c20.667 2 40.167 6.5 58.5 13.5s34.5 16.667 48.5 29
s25 27.166 33 44.499s12 36.666 12 57.999c0 16 -3 30 -9 42s-14 22.333 -24 31s-21.167 16 -33.5 22s-24.5 11 -36.5 15zM256.998 386.999l24 124.501c8 41 15.667 82.5 23 124.5c-18 -4.66699 -35.333 -10.5 -52 -17.5s-31.5 -16.333 -44.5 -28
s-23.333 -25.834 -31 -42.501s-11.5 -37 -11.5 -61c0 -14 2.66699 -26.333 8 -37s12.333 -20 21 -28s18.5 -14.833 29.5 -20.5s22.167 -10.5 33.5 -14.5z" />
    <glyph glyph-name="percent" unicode="%" horiz-adv-x="760" 
d="M614 420c20 0 37.501 -3.5 52.501 -10.5s27.167 -16.333 36.5 -28s15.666 -25.167 18.999 -40.5s3.33301 -31.333 0 -48l-36 -182c-7.33301 -35.333 -21.833 -63.166 -43.5 -83.499s-53.5 -30.5 -95.5 -30.5c-19.333 0 -36.5 3.16699 -51.5 9.5s-27 15.166 -36 26.499
s-15.167 24.833 -18.5 40.5s-3.33301 33.167 0 52.5l33 178c6.66699 34 22 61.833 46 83.5s55.333 32.5 94 32.5zM610.001 375c-25.333 0 -44.668 -7.5 -58.001 -22.5s-22.666 -32.833 -27.999 -53.5l-33 -177c-4.66699 -23.333 -1.83398 -42.5 8.49902 -57.5
s26.5 -22.5 48.5 -22.5c14 0 26.167 2 36.5 6s19 9.5 26 16.5s12.5 15.167 16.5 24.5s7.33301 19.333 10 30l35 173c2 8.66699 2.83301 17.834 2.5 27.501s-2.66602 18.667 -6.99902 27s-11 15.166 -20 20.499s-21.5 8 -37.5 8zM254.999 699c20 0 37.501 -3.5 52.501 -10.5
s27.167 -16.333 36.5 -28s15.666 -25.167 18.999 -40.5s3.33301 -31.333 0 -48l-36 -182c-7.33301 -35.333 -21.833 -63.166 -43.5 -83.499s-53.5 -30.5 -95.5 -30.5c-19.333 0 -36.5 3.16699 -51.5 9.5s-27 15.166 -36 26.499s-15.167 24.833 -18.5 40.5
s-3.33301 33.167 0 52.5l33 178c6.66699 34 22 61.833 46 83.5s55.333 32.5 94 32.5zM251 654c-25.333 0 -44.668 -7.5 -58.001 -22.5s-22.666 -32.833 -27.999 -53.5l-33 -177c-4.66699 -23.333 -1.83398 -42.5 8.49902 -57.5s26.5 -22.5 48.5 -22.5c14 0 26.167 2 36.5 6
s19 9.5 26 16.5s12.5 15.167 16.5 24.5s7.33301 19.333 10 30l35 173c2 8.66699 2.83301 17.834 2.5 27.501s-2.66602 18.667 -6.99902 27s-11 15.166 -20 20.499s-21.5 8 -37.5 8zM144.998 -17h-50l574 739h51z" />
    <glyph glyph-name="ampersand" unicode="&#x26;" horiz-adv-x="568" 
d="M352 704c30 0 57.0049 -4.83398 81.0049 -14.501s44.333 -25.834 61 -48.501l-49 -38c-11.333 15.333 -25.333 26.166 -42 32.499s-36 9.5 -58 9.5c-18 0 -33.5 -3 -46.5 -9s-23.833 -13.833 -32.5 -23.5s-15.167 -20.334 -19.5 -32.001s-6.5 -23.5 -6.5 -35.5
c0 -17.333 5.66699 -40.333 17 -69s25.333 -60 42 -94l53.5 -104.5l51.5 -100.5c14.667 18.667 26.667 38.834 36 60.501s16.666 42.167 21.999 61.5c9.33301 -1.33301 18.666 -2.16602 27.999 -2.49902s18.666 -0.833008 27.999 -1.5
c-8.66699 -29.333 -19.834 -58.666 -33.501 -87.999s-30.834 -57.666 -51.501 -84.999l33 -61.5l33 -60.5h-73l-42 75c-32 -28.667 -63.333 -49.334 -94 -62.001s-63 -19 -97 -19c-47.333 0 -83.333 13 -108 39s-37 61.667 -37 107c0 51.333 15.5 96.5 46.5 135.5
s74.5 75.5 130.5 109.5c-12.667 27.333 -24 52.833 -34 76.5s-15 49.834 -15 78.501c0 20.667 4 41 12 61s19.5 37.5 34.5 52.5s33.333 27.167 55 36.5s46.5 14 74.5 14zM249.005 335.999c-44.667 -29.333 -79.168 -59.167 -103.501 -89.5s-36.5 -63.833 -36.5 -100.5
c0 -30 8.66699 -53.5 26 -70.5s41.333 -25.5 72 -25.5c26 0 52.833 6.83301 80.5 20.5s51.834 30.5 72.501 50.5l-55.5 107.5z" />
    <glyph glyph-name="quotesingle" unicode="'" horiz-adv-x="214" 
d="M139 503l37 193h49l-37 -193h-49z" />
    <glyph glyph-name="parenleft" unicode="(" horiz-adv-x="271" 
d="M166 -120c-32 47.333 -56.6689 98.3311 -74.002 152.998s-26 110.334 -26 167.001c0 50 7 99.333 21 148s32.833 95.5 56.5 140.5s51.334 87.333 83.001 127s65.167 76.167 100.5 109.5l29 -21c-32 -35.333 -61.5 -73.166 -88.5 -113.499s-50.333 -82.5 -70 -126.5
s-35 -89.5 -46 -136.5s-16.5 -94.5 -16.5 -142.5s5.33301 -96 16 -144s27.334 -93.667 50.001 -137l-35 -24v0z" />
    <glyph glyph-name="parenright" unicode=")" horiz-adv-x="271" 
d="M-49 -97c31.333 34.667 60.5 72.332 87.5 112.999s50.5 83.167 70.5 127.5s35.667 90 47 137s17 94.167 17 141.5c0 48 -5.5 96 -16.5 144s-27.833 93.667 -50.5 137l38 21c31.333 -46 55.333 -95.667 72 -149s25 -108.333 25 -165c0 -51.333 -7 -101.5 -21 -150.5
s-33 -96 -57 -141s-52 -87.667 -84 -128s-66 -77.166 -102 -110.499z" />
    <glyph glyph-name="asterisk" unicode="*" horiz-adv-x="352" 
d="M335 444c-7.33301 -5.33301 -16 -11.332 -26 -17.999s-19 -12.334 -27 -17.001l-44 106l-19 -22.5l-24.5 -30.5l-24.5 -30.5c-8 -9.66699 -14 -17.5 -18 -23.5l-40 36l97 93c-6 1.33301 -13.833 3.5 -23.5 6.5l-31 10c-11 3.66699 -21.5 7 -31.5 10s-18 5.16699 -24 6.5
l27 54l104 -48c0.666992 6.66699 1.83398 15.5 3.50098 26.5s3.16699 22.5 4.5 34.5l4 34.5c1.33301 11 2.66602 19.833 3.99902 26.5h55l-33 -122l26.5 10.5l35 13.5l35.5 13.5l27 10.5c0.666992 -7.33301 1.66699 -16.5 3 -27.5s2.33301 -20.167 3 -27.5l-124 -32z" />
    <glyph glyph-name="plus" unicode="+" horiz-adv-x="484" 
d="M277 262l-38 -193h-50l37 193h-188l10 51h189l37 191h50l-37 -191h188l-10 -51h-188z" />
    <glyph glyph-name="comma" unicode="," horiz-adv-x="213" 
d="M34 -106h-39l49 106h-22l17 89h81l-16 -83z" />
    <glyph glyph-name="hyphen" unicode="-" horiz-adv-x="381" 
d="M58 237l12 60h276l-12 -60h-276z" />
    <glyph glyph-name="period" unicode="." horiz-adv-x="205" 
d="M23 0l17 88h81l-17 -88h-81z" />
    <glyph glyph-name="slash" unicode="/" horiz-adv-x="305" 
d="M-1 -42h-49l399 767h50z" />
    <glyph glyph-name="zero" unicode="0" horiz-adv-x="484" 
d="M186 -6c-22 0 -43 3.33008 -63 9.99707s-37.5 16.334 -52.5 29.001s-27 28.334 -36 47.001s-13.5 39.667 -13.5 63c0 14.667 1.33301 28.667 4 42l63 326c11.333 57.333 34.666 103.5 69.999 138.5s82.333 52.5 141 52.5c20.667 0 40.834 -3.33301 60.501 -10
s37.167 -16.5 52.5 -29.5s27.5 -28.667 36.5 -47s13.5 -39.166 13.5 -62.499c0 -15.333 -1.33301 -29.333 -4 -42l-63 -326c-11.333 -59.333 -34.5 -106 -69.5 -140s-81.5 -51 -139.5 -51zM292 641.997c-40 0 -72.168 -12.834 -96.501 -38.501s-40.166 -58.5 -47.499 -98.5
l-61 -314c-1.33301 -6 -2.33301 -11.833 -3 -17.5s-1 -11.167 -1 -16.5c0 -32 9.83301 -57.5 29.5 -76.5s45.5 -28.5 77.5 -28.5c20 0 38.167 3.5 54.5 10.5s30.5 16.833 42.5 29.5s22 27.334 30 44.001s14 35 18 55l61 314c2 10 3 19.333 3 28
c0 30.667 -9.16699 56.5 -27.5 77.5s-44.833 31.5 -79.5 31.5z" />
    <glyph glyph-name="one" unicode="1" horiz-adv-x="484" 
d="M204 0h-61l122 629l-107 -67l14 68l105 66h63z" />
    <glyph glyph-name="two" unicode="2" horiz-adv-x="484" 
d="M-12 0l12 63.001l346 358c40 42 60 82.667 60 122c0 28 -9 51.167 -27 69.5s-44.333 27.5 -79 27.5c-33.333 0 -62.166 -10 -86.499 -30s-42.833 -46 -55.5 -78l-63 13c8.66699 24 20.167 45.5 34.5 64.5s30.666 35.333 48.999 49s38.333 24 60 31s44.167 10.5 67.5 10.5
c22 0 43 -3.16699 63 -9.5s37.667 -15.833 53 -28.5s27.5 -28.334 36.5 -47.001s13.5 -40.334 13.5 -65.001c0 -26.667 -7 -53.667 -21 -81s-32 -52.666 -54 -75.999l-321 -331h299l-12 -62h-375z" />
    <glyph glyph-name="three" unicode="3" horiz-adv-x="484" 
d="M291 701c54 0 95.002 -13.4971 123.002 -40.4971s42 -62.167 42 -105.5c0 -17.333 -2.33301 -35 -7 -53s-12.167 -35.333 -22.5 -52s-23.5 -32.334 -39.5 -47.001s-35.333 -27.334 -58 -38.001c28 -14 47.333 -31.833 58 -53.5s16 -45.167 16 -70.5
c0 -36 -6.33301 -69.167 -19 -99.5s-30 -56.5 -52 -78.5s-47.5 -39.167 -76.5 -51.5s-59.833 -18.5 -92.5 -18.5c-20 0 -39.333 2.33301 -58 7s-35.334 12.334 -50.001 23.001s-26.667 24.5 -36 41.5s-15 37.833 -17 62.5l63 11c3.33301 -30 14.333 -52 33 -66
s42 -21 70 -21c23.333 0 45.333 4.5 66 13.5s38.834 21.5 54.501 37.5s28 35 37 57s13.5 46 13.5 72c0 33.333 -8.83301 59 -26.5 77s-42.834 27 -75.501 27h-47l11 57h38c21.333 0 41.166 4 59.499 12s34.333 18.667 48 32s24.5 29.166 32.5 47.499s12 38.166 12 59.499
c0 30.667 -9.5 54.834 -28.5 72.501s-44.167 26.5 -75.5 26.5c-26 0 -51.833 -7.83301 -77.5 -23.5s-45.167 -37.834 -58.5 -66.501l-60 11c8 21.333 18.833 40.5 32.5 57.5s29.167 31.5 46.5 43.5s36.333 21.167 57 27.5s42 9.5 64 9.5z" />
    <glyph glyph-name="four" unicode="4" horiz-adv-x="484" 
d="M366 109l-21 -109h-61l21 109h-305l12 61l342 526h66l-341 -527h237l41 210h62l-41 -210h58l-11 -60h-59z" />
    <glyph glyph-name="five" unicode="5" horiz-adv-x="484" 
d="M79 139c3.33301 -28.667 13.9971 -50.6689 31.9971 -66.002s42 -23 72 -23c32.667 0 60.334 7.66699 83.001 23s40.834 35 54.501 59s23.5 50.833 29.5 80.5s9 58.834 9 87.501c0 29.333 -7.5 53.833 -22.5 73.5s-41.167 29.5 -78.5 29.5
c-24.667 0 -48.167 -5.66699 -70.5 -17s-41.5 -26.666 -57.5 -45.999h-61c10 60 21.167 119.333 33.5 178s24.166 118 35.499 178h350l-12 -62h-291l-44 -222c22.667 17.333 45.834 30 69.501 38s47.167 12 70.5 12c47.333 0 83 -13 107 -39s36 -61 36 -105
c0 -40 -4.16699 -79.5 -12.5 -118.5s-22 -73.667 -41 -104s-44.167 -54.833 -75.5 -73.5s-70 -28 -116 -28c-21.333 0 -41.666 2.5 -60.999 7.5s-36.333 12.833 -51 23.5s-26.5 24.5 -35.5 41.5s-14.167 37.5 -15.5 61.5z" />
    <glyph glyph-name="six" unicode="6" horiz-adv-x="484" 
d="M188 -6c-22.667 0 -43.334 3.83398 -62.001 11.501s-34.834 18.5 -48.501 32.5s-24.167 30.5 -31.5 49.5s-11 40.167 -11 63.5c0 27.333 4.5 55.333 13.5 84s21.167 54.334 36.5 77.001l268 384h69l-221 -318l1 -1c12 6.66699 25.5 11.834 40.5 15.501
s29.167 5.5 42.5 5.5c22.667 0 42.667 -3.83301 60 -11.5s32 -18.334 44 -32.001s21 -29.667 27 -48s9 -38.5 9 -60.5c0 -34.667 -5.66699 -67.334 -17 -98.001s-27.166 -57.334 -47.499 -80.001s-45.166 -40.667 -74.499 -54s-62 -20 -98 -20zM360 237.001
c0 32 -8.49707 57.668 -25.4971 77.001s-42.5 29 -76.5 29c-24.667 0 -46.834 -5.33301 -66.501 -16s-36.334 -24.667 -50.001 -42s-24.167 -37 -31.5 -59s-11 -44.333 -11 -67c0 -32.667 8.66699 -58.834 26 -78.501s42.666 -29.5 75.999 -29.5c24 0 45.833 5.5 65.5 16.5
s36.5 25.5 50.5 43.5s24.667 38 32 60s11 44 11 66z" />
    <glyph glyph-name="seven" unicode="7" horiz-adv-x="484" 
d="M96 0h-69l367 634h-244l-20 -107h-63l33 169h373l-12 -65z" />
    <glyph glyph-name="eight" unicode="8" horiz-adv-x="484" 
d="M174 -6c-24 0 -46.001 3.83594 -66.001 11.5029s-37.333 18.5 -52 32.5s-26.167 30.833 -34.5 50.5s-12.5 41.5 -12.5 65.5c0 22 3.33301 43.833 10 65.5s16.334 41.667 29.001 60s27.667 34.666 45 48.999s36.666 25.166 57.999 32.499
c-21.333 12 -37.666 27.833 -48.999 47.5s-17 41.834 -17 66.501c0 30.667 6.16699 59.667 18.5 87s28.833 51.333 49.5 72s44.667 37 72 49s56.333 18 87 18c45.333 0 82.333 -13.833 111 -41.5s43 -64.5 43 -110.5c0 -21.333 -3.16699 -41.833 -9.5 -61.5
s-15.333 -37.834 -27 -54.501s-25.167 -31.334 -40.5 -44.001s-32 -22.667 -50 -30c28 -11.333 48 -29.333 60 -54s18 -51 18 -79c0 -34 -6.33301 -65.167 -19 -93.5s-30 -52.833 -52 -73.5s-47.833 -36.667 -77.5 -48s-61.167 -17 -94.5 -17zM403.999 542.003
c0 31.333 -9.50098 56.334 -28.501 75.001s-43.833 28 -74.5 28c-22 0 -42.333 -4.5 -61 -13.5s-34.834 -21 -48.501 -36s-24.5 -32.333 -32.5 -52s-12 -39.834 -12 -60.501c0 -30.667 9.83301 -54.5 29.5 -71.5s44.5 -25.5 74.5 -25.5c22 0 42.333 4.16699 61 12.5
s34.834 19.5 48.501 33.5s24.334 30.5 32.001 49.5s11.5 39.167 11.5 60.5zM354.998 222.004c0 33.333 -11 60 -33 80s-49.333 30 -82 30c-22 0 -43.167 -4.5 -63.5 -13.5s-38.333 -21 -54 -36s-28.167 -32.5 -37.5 -52.5s-14 -41 -14 -63
c0 -33.333 10.833 -60.833 32.5 -82.5s49.167 -32.5 82.5 -32.5c22.667 0 44.167 4.66699 64.5 14s38.333 21.666 54 36.999s28 33.333 37 54s13.5 42.334 13.5 65.001z" />
    <glyph glyph-name="nine" unicode="9" horiz-adv-x="484" 
d="M290 702c24 0 45.6689 -3.83203 65.002 -11.499s35.833 -18.5 49.5 -32.5s24.167 -30.667 31.5 -50s11 -40.333 11 -63c0 -27.333 -4.83301 -55.166 -14.5 -83.499s-22.167 -53.833 -37.5 -76.5l-269 -385h-71l225 322l-3 1c-23.333 -13.333 -49.333 -20 -78 -20
c-22 0 -42 3.66699 -60 11s-33.333 17.666 -46 30.999s-22.334 29.166 -29.001 47.499s-10 38.166 -10 59.499c0 34.667 5.33301 67.334 16 98.001s26.167 57.167 46.5 79.5s45.166 40 74.499 53s62.333 19.5 99 19.5zM118.002 459.001
c0 -32 8.66992 -57.668 26.0029 -77.001s42.666 -29 75.999 -29c24.667 0 46.667 5.33301 66 16s35.833 24.667 49.5 42s24.167 37 31.5 59s11 44.333 11 67c0 32.667 -8.66699 58.834 -26 78.501s-42.333 29.5 -75 29.5c-24 0 -45.833 -5.5 -65.5 -16.5
s-36.334 -25.5 -50.001 -43.5s-24.334 -38 -32.001 -60s-11.5 -44 -11.5 -66z" />
    <glyph glyph-name="colon" unicode=":" horiz-adv-x="206" 
d="M21 0l16 88h81l-16 -88h-81zM78 299l17 89h81l-17 -89h-81z" />
    <glyph glyph-name="semicolon" unicode=";" horiz-adv-x="206" 
d="M34 -106h-40l49 106h-21l17 89h81l-16 -83zM80 299l17 89h81l-17 -89h-81z" />
    <glyph glyph-name="less" unicode="&#x3c;" horiz-adv-x="484" 
d="M415 71l-367 193l9 48l441 192l-11 -58l-372 -161c6 -2.66699 17 -8.16699 33 -16.5l55.5 -29l66.5 -34.5l66.5 -34.5l55.5 -28.5c16 -8 27.333 -13.333 34 -16z" />
    <glyph glyph-name="equal" unicode="=" horiz-adv-x="484" 
d="M55 349l10 52h427l-10 -52h-427zM19 164l11 53h426l-10 -53h-427z" />
    <glyph glyph-name="greater" unicode="&#x3e;" horiz-adv-x="484" 
d="M23 130c7.33301 2.66699 20.5 8.16699 39.5 16.5l66.5 28.5l79.5 34.5l79.5 35l66.5 28.5c19 8 32.167 13.667 39.5 17l-309 160l11 54l367 -192l-10 -48l-441 -193z" />
    <glyph glyph-name="question" unicode="?" horiz-adv-x="471" 
d="M325 700c25.333 0 48.5029 -3.66797 69.5029 -11.001s39 -17.5 54 -30.5s26.667 -28.5 35 -46.5s12.5 -37.667 12.5 -59c0 -24.667 -3.5 -46.5 -10.5 -65.5s-16.333 -36.333 -28 -52s-24.667 -30 -39 -43l-42.5 -37.5c-21.333 -19.333 -41.166 -38.666 -59.499 -57.999
s-30.5 -41.333 -36.5 -66l-12 -58h-66l12 60c5.33301 25.333 16 48.833 32 70.5s35 42.167 57 61.5c12 12.667 25.333 25.5 40 38.5s28.167 26.5 40.5 40.5s22.666 28.833 30.999 44.5s12.5 32.167 12.5 49.5c0 11.333 -1.83301 23 -5.5 35s-9.83398 22.833 -18.501 32.5
s-19.834 17.667 -33.501 24s-30.834 9.5 -51.501 9.5c-22.667 0 -43 -4.16699 -61 -12.5s-33.5 -18.833 -46.5 -31.5s-23.5 -26.5 -31.5 -41.5s-13.667 -28.833 -17 -41.5l-67 16c21.333 60.667 51.5 104.5 90.5 131.5s85.5 40.5 139.5 40.5zM167.003 -0.000976562l16 80h72
l-15 -80h-73z" />
    <glyph glyph-name="at" unicode="@" horiz-adv-x="796" 
d="M597 513c-4.66699 -22 -10.4971 -45.166 -17.4971 -69.499s-13.667 -48.833 -20 -73.5s-11.666 -49 -15.999 -73s-6.5 -46.667 -6.5 -68c0 -14.667 3.66699 -27.167 11 -37.5s18.333 -15.5 33 -15.5c18 0 36 5.5 54 16.5s34.5 27.333 49.5 49s27.167 48 36.5 79
s14 66.5 14 106.5c0 37.333 -6.66699 70.5 -20 99.5s-31.5 53.333 -54.5 73s-49.667 34.5 -80 44.5s-62.166 15 -95.499 15c-53.333 0 -102.5 -10 -147.5 -30s-83.833 -47.333 -116.5 -82s-58.167 -74.834 -76.5 -120.501s-27.5 -94.5 -27.5 -146.5
c0 -85.333 24.167 -152.166 72.5 -200.499s116.5 -72.5 204.5 -72.5c34 0 68.167 3.83301 102.5 11.5s68.5 18.5 102.5 32.5l14 -48c-35.333 -12 -71.333 -22 -108 -30s-74.667 -12 -114 -12c-48 0 -92.167 7 -132.5 21s-74.833 34.333 -103.5 61s-51 59.334 -67 98.001
s-24 82.667 -24 132c0 59.333 10.5 115.333 31.5 168s50.167 98.5 87.5 137.5s81.666 69.833 132.999 92.5s107.333 34 168 34c43.333 0 83.666 -6.33301 120.999 -19s69.5 -30.834 96.5 -54.501s48.167 -52.5 63.5 -86.5s23 -72.333 23 -115c0 -46.667 -6 -88.5 -18 -125.5
s-27.833 -68.5 -47.5 -94.5s-42.167 -46 -67.5 -60s-51 -21 -77 -21c-25.333 0 -46.333 6 -63 18s-25.667 28.333 -27 49h-3c-12 -16 -28.333 -30.5 -49 -43.5s-45 -19.5 -73 -19.5c-38 0 -66.333 11.167 -85 33.5s-28 50.833 -28 85.5c0 27.333 3.66699 56.5 11 87.5
s18.666 59.667 33.999 86s35.166 48.166 59.499 65.499s53.166 26 86.499 26c42.667 0 73.667 -18 93 -54h2l11 50h50zM513.003 382.001c0 25.333 -4.83203 46.1689 -14.499 62.502s-28.834 24.5 -57.501 24.5c-25.333 0 -46.666 -7.5 -63.999 -22.5
s-31.5 -33.167 -42.5 -54.5s-19 -43.833 -24 -67.5s-7.5 -44.167 -7.5 -61.5c0 -11.333 1 -22 3 -32s5.83301 -18.833 11.5 -26.5s13.167 -13.667 22.5 -18s21.666 -6.5 36.999 -6.5c24 0 44.5 7 61.5 21s31 31.167 42 51.5s19 42.166 24 65.499s7.83301 44.666 8.5 63.999z
" />
    <glyph glyph-name="A" unicode="A" horiz-adv-x="580" 
d="M459 0l-12 82.5c-4 27 -8.33301 54.5 -13 82.5h-305l-89 -165h-71l191.5 348l192.5 348h62l114 -696h-70zM368 616l-20.5 -39.5l-37 -69.5l-45.5 -85l-45.5 -85.5l-38 -71.5l-22.5 -42h268l-7.5 53l-10 69l-11 77l-11 76.5l-10 67l-7.5 50.5h-2z" />
    <glyph glyph-name="B" unicode="B" horiz-adv-x="580" 
d="M35 0l136.001 696h235c56 0 100.833 -13.5 134.5 -40.5s49.5 -67.5 47.5 -121.5c-1.33301 -41.333 -14.333 -78 -39 -110s-60 -54 -106 -66l-1 -3c18 -4.66699 33.5 -12 46.5 -22s23.667 -21.5 32 -34.5s14.333 -27.333 18 -43s5.16699 -31.834 4.5 -48.501
c-1.33301 -31.333 -8 -59.666 -20 -84.999s-28 -47 -48 -65s-42.833 -32 -68.5 -42s-52.834 -15 -81.501 -15h-290zM226.001 637l-50.001 -251.001h179c20.667 0 40.834 3.33301 60.501 10s37 16 52 28s27.333 26.667 37 44s15.167 36.666 16.5 57.999
c0.666992 18 -2 33.833 -8 47.5s-14.833 25.334 -26.5 35.001s-25.5 16.834 -41.5 21.501s-33.333 7 -52 7h-167zM166 326.999l-53 -264.999h200c22 0 42.667 3.5 62 10.5s36.333 17 51 30s26.334 28.667 35.001 47s13.667 38.5 15 60.5
c1.33301 35.333 -8.83398 63.666 -30.501 84.999s-51.167 32 -88.5 32h-191z" />
    <glyph glyph-name="C" unicode="C" horiz-adv-x="536" 
d="M517 138c-26.667 -46.667 -62.1631 -82.333 -106.496 -107s-93.5 -37 -147.5 -37c-41.333 0 -76.333 7.16699 -105 21.5s-51.334 33.5 -68.001 57.5s-27.5 51.833 -32.5 83.5s-3.83301 64.5 3.5 98.5l39 198c6.66699 33.333 17.167 65 31.5 95s33 56.333 56 79
s50.167 40.667 81.5 54s67.666 20 108.999 20c54 0 98.5 -12.667 133.5 -38s59.5 -59 73.5 -101l-67 -29c-7.33301 30 -23.166 54.833 -47.499 74.5s-54.5 29.5 -90.5 29.5c-32.667 0 -61.334 -5.33301 -86.001 -16s-45.667 -24.834 -63 -42.501s-31.5 -38.167 -42.5 -61.5
s-18.833 -47.333 -23.5 -72l-37 -193c-5.33301 -25.333 -6.83301 -49.666 -4.5 -72.999s9 -44 20 -62s26.667 -32.5 47 -43.5s46.166 -16.5 77.499 -16.5c39.333 0 75.166 10 107.499 30s58.833 47 79.5 81z" />
    <glyph glyph-name="D" unicode="D" horiz-adv-x="604" 
d="M393 696c28 0 54.667 -3.33105 80 -9.99805s47.5 -17.334 66.5 -32.001s34.167 -33.667 45.5 -57s17 -51.333 17 -84c0 -30 -2.66699 -64.167 -8 -102.5s-12 -75.833 -20 -112.5s-16.833 -70.167 -26.5 -100.5s-18.5 -52.5 -26.5 -66.5
c-16 -26.667 -33.333 -48.5 -52 -65.5s-38.5 -30.333 -59.5 -40s-43 -16.334 -66 -20.001s-46.5 -5.5 -70.5 -5.5h-237l135 696h222zM226 634.002l-112 -572h160c35.333 0 65.833 5 91.5 15s47.5 24.333 65.5 43s32.667 41.167 44 67.5s20 55.833 26 88.5l24 127
c6 30 9 57.667 9 83c0 48 -12.333 84.667 -37 110s-65 38 -121 38h-150z" />
    <glyph glyph-name="E" unicode="E" horiz-adv-x="525" 
d="M35 0l136 696h410l-12 -62h-344l-48 -252h304l-12 -60h-304l-51 -260h373l-12 -62h-440z" />
    <glyph glyph-name="F" unicode="F" horiz-adv-x="506" 
d="M226 634l-49 -255h303l-12 -60h-303l-62 -319h-68l136 696h415l-12 -62h-348z" />
    <glyph glyph-name="G" unicode="G" horiz-adv-x="580" 
d="M257 55c27.333 0 52.6689 4.66699 76.002 14s44.166 22.333 62.499 39s33.666 36 45.999 58s21.166 46 26.499 72l13 63h-150l12 61h217l-26 -127c-6.66699 -35.333 -18 -67.833 -34 -97.5s-36.333 -55.167 -61 -76.5s-53 -37.833 -85 -49.5s-67.333 -17.5 -106 -17.5
c-41.333 0 -76.166 7 -104.499 21s-50.666 33 -66.999 57s-26.666 51.667 -30.999 83s-2.83301 64 4.5 98l39 198c6.66699 33.333 17.167 65 31.5 95s33 56.333 56 79s50.167 40.667 81.5 54s67.666 20 108.999 20c54 0 98.5 -12.667 133.5 -38s59.5 -59 73.5 -101l-67 -29
c-7.33301 30 -23.166 54.833 -47.499 74.5s-54.5 29.5 -90.5 29.5c-32.667 0 -61.334 -5.33301 -86.001 -16s-45.667 -24.834 -63 -42.501s-31.5 -38.167 -42.5 -61.5s-18.833 -47.333 -23.5 -72l-37 -193c-5.33301 -25.333 -6.83301 -49.666 -4.5 -72.999s9 -44 20 -62
s26.667 -32.5 47 -43.5s46.166 -16.5 77.499 -16.5z" />
    <glyph glyph-name="H" unicode="H" horiz-adv-x="629" 
d="M436 0l62 322h-333l-63 -322h-67l136 696h66l-61 -314h334l61 314h67l-136 -696h-66z" />
    <glyph glyph-name="I" unicode="I" horiz-adv-x="222" 
d="M37 0l136 696h66l-135 -696h-67z" />
    <glyph glyph-name="J" unicode="J" horiz-adv-x="449" 
d="M381 205c-8 -40 -19.167 -73.499 -33.5 -100.499s-31.833 -48.667 -52.5 -65s-43.667 -28 -69 -35s-53 -10.5 -83 -10.5c-30.667 0 -58.667 5.83301 -84 17.5s-45.333 27.167 -60 46.5l49 45c26 -31.333 56.667 -47 92 -47c20 0 39.5 2.5 58.5 7.5s36.167 14 51.5 27
s29 30.167 41 51.5s21 48.666 27 81.999l92 472h66z" />
    <glyph glyph-name="K" unicode="K" horiz-adv-x="600" 
d="M469 0l-70.5 188l-70.5 188l-191 -190l-36 -186h-66l136 696h65l-39.5 -205l-39.5 -205h2l27 27l156 160l223 223h80l-266 -268l82 -214l81 -214h-73v0z" />
    <glyph glyph-name="L" unicode="L" horiz-adv-x="525" 
d="M35 0l136 696h66l-124 -634h357l-11 -62h-424z" />
    <glyph glyph-name="M" unicode="M" horiz-adv-x="730" 
d="M664 542h-3.00098l-99 -158l-183 -278h-57c-7.33301 30 -17.166 67.667 -29.499 113l-37.5 142l-47 181h-2l-105 -542h-66l136 696h65l40 -154.5l40 -153.5l49 -200h2l118 185l208 323h66l-136 -696h-65z" />
    <glyph glyph-name="N" unicode="N" horiz-adv-x="655" 
d="M475 0l-21 47.5l-31 70l-36 81l-36 81l-31 69.5l-22 48l-81 189h-2l-14 -72.5l-20 -103l-22.5 -118l-22.5 -118l-19.5 -102.5l-13.5 -72h-67l136 696h66l20.5 -46.5l30 -68.5l35 -79l35 -79l30 -68.5c9 -20.333 16.167 -35.833 21.5 -46.5l85 -198h2l14 72l20 102.5
l23 118l23 118l19.5 103l13.5 72.5h65l-135 -696h-65z" />
    <glyph glyph-name="O" unicode="O" horiz-adv-x="573" 
d="M361 701c41.333 0 77.165 -6.99902 107.498 -20.999s54.5 -32.833 72.5 -56.5s30 -50.834 36 -81.501s5.66699 -63 -1 -97l-19 -98l-20 -99c-8 -38 -19 -72.667 -33 -104s-31.833 -58.166 -53.5 -80.499s-47.667 -39.5 -78 -51.5s-66.166 -18 -107.499 -18
c-36 0 -67.667 5.16699 -95 15.5s-50.166 24.5 -68.499 42.5s-32.166 39.167 -41.499 63.5s-14 50.5 -14 78.5c0 16.667 1.5 35.5 4.5 56.5s6.66699 42.833 11 65.5s9.16602 45.5 14.499 68.5l15 65.5c6.66699 33.333 16.667 65.166 30 95.499s30.666 57 51.999 80
s47.333 41.333 78 55s67.334 20.5 110.001 20.5zM354.999 640.001c-31.333 0 -58.501 -5.50098 -81.501 -16.501s-42.5 -25.667 -58.5 -44s-29 -39.166 -39 -62.499s-17.333 -47 -22 -71l-38 -196c-4.66699 -25.333 -5.66699 -49.666 -3 -72.999s10 -44.333 22 -63
s29.333 -33.5 52 -44.5s51.334 -16.5 86.001 -16.5c28.667 0 54 5 76 15s41 23.833 57 41.5s29.5 38.667 40.5 63s19.5 50.833 25.5 79.5l12.5 56l12.5 58c4 19.333 7.5 38 10.5 56s5.16699 35 6.5 51c3.33301 22.667 1.83301 44.167 -4.5 64.5s-16.5 38.166 -30.5 53.499
s-31.667 27.333 -53 36s-45 13 -71 13z" />
    <glyph glyph-name="P" unicode="P" horiz-adv-x="553" 
d="M103 0l-67 0.000976562l136 696h238c27.333 0 52.5 -3.5 75.5 -10.5s43 -17.5 60 -31.5s30.167 -31.833 39.5 -53.5s14 -46.834 14 -75.501c0 -35.333 -6.5 -67.333 -19.5 -96s-30.667 -53.5 -53 -74.5s-48.5 -37.167 -78.5 -48.5s-62 -17 -96 -17h-193zM529 516.001
c0 40 -12 69.668 -36 89.001s-55 29 -93 29h-174l-55 -282h185c24 0 46.5 4 67.5 12s39.333 19.167 55 33.5s28 31.666 37 51.999s13.5 42.5 13.5 66.5z" />
    <glyph glyph-name="Q" unicode="Q" horiz-adv-x="580" 
d="M361 701c41.333 0 77.1631 -6.99707 107.496 -20.9971s54.5 -32.833 72.5 -56.5s30 -50.834 36 -81.501s5.66699 -63 -1 -97l-19 -98l-20 -99c-6 -29.333 -13.667 -56.333 -23 -81s-20.666 -47.334 -33.999 -68.001l67 -65l-45 -44l-64 61
c-21.333 -18 -46.166 -32 -74.499 -42s-61.166 -15 -98.499 -15c-36 0 -67.667 5.16699 -95 15.5s-50.166 24.5 -68.499 42.5s-32.166 39.167 -41.499 63.5s-14 50.5 -14 78.5c0 16.667 1.5 35.5 4.5 56.5s6.66699 42.833 11 65.5s9.16602 45.5 14.499 68.5l15 65.5
c6.66699 33.333 16.667 65.166 30 95.499s30.666 57 51.999 80s47.333 41.333 78 55s67.334 20.5 110.001 20.5zM354.997 640.003c-31.333 0 -58.501 -5.50098 -81.501 -16.501s-42.5 -25.667 -58.5 -44s-29 -39.166 -39 -62.499s-17.333 -47 -22 -71l-38 -196
c-4.66699 -25.333 -5.66699 -49.666 -3 -72.999s10 -44.333 22 -63s29.333 -33.5 52 -44.5s51.334 -16.5 86.001 -16.5c24.667 0 46.834 3.83301 66.501 11.5s37.167 18.167 52.5 31.5l-94 90l47 45l87 -85c9.33301 15.333 17.166 31.833 23.499 49.5s11.833 36.5 16.5 56.5
l12.5 56l12.5 58c4 19.333 7.5 38 10.5 56s5.16699 35 6.5 51c3.33301 22.667 1.83301 44.167 -4.5 64.5s-16.5 38.166 -30.5 53.499s-31.667 27.333 -53 36s-45 13 -71 13z" />
    <glyph glyph-name="R" unicode="R" horiz-adv-x="580" 
d="M434 0l-95.001 314h-175l-61 -314h-67l136 696h263c26.667 0 50.834 -4 72.501 -12s40 -19.667 55 -35s26 -34 33 -56s9.5 -47 7.5 -75c-4 -56.667 -23.667 -101.667 -59 -135s-80 -54.333 -134 -63l101 -320h-77zM535.999 518
c1.33301 20.667 -0.835938 38.668 -6.50293 54.001s-14.167 27.666 -25.5 36.999s-25.166 16.333 -41.499 21s-33.833 7 -52.5 7h-183l-52 -263h192c21.333 0 41.833 3.16699 61.5 9.5s37.334 15.5 53.001 27.5s28.334 27 38.001 45s15.167 38.667 16.5 62z" />
    <glyph glyph-name="S" unicode="S" horiz-adv-x="527" 
d="M346 702c35.333 0 70.3301 -4.83594 104.997 -14.5029s65 -23.5 91 -41.5l-40 -55c-22 15.333 -47.167 27 -75.5 35s-57.5 12 -87.5 12c-19.333 0 -38.833 -2.66699 -58.5 -8s-37.5 -13.666 -53.5 -24.999s-29.167 -25.833 -39.5 -43.5s-15.5 -38.5 -15.5 -62.5
c0 -18.667 4.5 -34.5 13.5 -47.5s20 -23.667 33 -32s26.833 -15 41.5 -20s27.667 -8.83301 39 -11.5c24 -6 48 -13.167 72 -21.5s45.833 -19.166 65.5 -32.499s35.667 -30.5 48 -51.5s18.5 -46.833 18.5 -77.5c0 -35.333 -7.16699 -66.333 -21.5 -93
s-33.666 -48.667 -57.999 -66s-52.666 -30.333 -84.999 -39s-66.5 -13 -102.5 -13c-44.667 0 -87 6.33301 -127 19s-75 33 -105 61l45 50c24.667 -21.333 53.334 -37.666 86.001 -48.999s67 -17 103 -17c24.667 0 48.667 2.83301 72 8.5s43.833 14.167 61.5 25.5
s31.834 26 42.501 44s16 39 16 63c0 19.333 -4 35.833 -12 49.5s-18.5 25.167 -31.5 34.5s-27.833 17 -44.5 23s-33.334 11 -50.001 15c-21.333 4.66699 -43.166 10.667 -65.499 18s-42.5 17.333 -60.5 30s-32.667 28.5 -44 47.5s-17 42.833 -17 71.5
c0 32.667 5.83301 62.167 17.5 88.5s28.167 48.833 49.5 67.5s46.666 33 75.999 43s62 15 98 15z" />
    <glyph glyph-name="T" unicode="T" horiz-adv-x="473" 
d="M354 637l-124 -637h-66l123 637h-199l11 59h465l-11 -59h-199z" />
    <glyph glyph-name="U" unicode="U" horiz-adv-x="600" 
d="M542 229c-7.33301 -35.333 -18.833 -67.499 -34.5 -96.499s-35.167 -53.667 -58.5 -74s-50.5 -36.166 -81.5 -47.499s-64.833 -17 -101.5 -17c-33.333 0 -63.666 5.83301 -90.999 17.5s-50 28.167 -68 49.5s-30.667 47 -38 77s-7.33301 63.667 0 101l89 457h66l-87 -445
c-5.33301 -28 -6.5 -53.833 -3.5 -77.5s10.333 -44.334 22 -62.001s27.167 -31.334 46.5 -41.001s42.666 -14.5 69.999 -14.5c52 0 96.333 16.5 133 49.5s60.667 78.167 72 135.5l89 455h67l-91 -467v0z" />
    <glyph glyph-name="V" unicode="V" horiz-adv-x="525" 
d="M192 0l-89 696h68l9.5 -79l12 -101l13 -111l12.5 -111c4.66699 -37.333 8.66699 -72 12 -104s6.33301 -59 9 -81h4l100 203l193 384h74l-181 -348l-181 -348h-56z" />
    <glyph glyph-name="W" unicode="W" horiz-adv-x="800" 
d="M573 0l-60.001 -0.000976562l-27 361l-15 212h-2l-87 -190l-88.5 -192l-88.5 -191h-60l-16.5 348l-17.5 348h66c2.66699 -85.333 5.16699 -157.5 7.5 -216.5l6 -152c1.66699 -42.333 3 -78.666 4 -108.999s2.16699 -59.833 3.5 -88.5h3l103 227l79.5 169.5l78.5 169.5h61
l26 -332c2 -24 3.83301 -47.667 5.5 -71s3.33398 -45.333 5.00098 -66s3 -39.5 4 -56.5s2.16699 -30.833 3.5 -41.5h3l77 186l80.5 190l79.5 191h70z" />
    <glyph glyph-name="X" unicode="X" horiz-adv-x="502" 
d="M386 0l-113 305l-230 -305h-74l278 358l-129 338h70l102 -285l213 285h74l-261 -339l141 -357h-71z" />
    <glyph glyph-name="Y" unicode="Y" horiz-adv-x="482" 
d="M231 0h-63l56 287l-62 204.5l-63 204.5h65c9.33301 -33.333 19.333 -67.333 30 -102l36 -120l19 -69c6.66699 -24 11.667 -43 15 -57l96 143l15 22l25 36.5l30 44l30 44l24.5 36.5l14.5 22h71l-141 -204.5l-142 -204.5z" />
    <glyph glyph-name="Z" unicode="Z" horiz-adv-x="487" 
d="M-8 0l12 60l459 577h-333l11 59h409l-11 -55l-460 -579h348l-12 -62h-423z" />
    <glyph glyph-name="bracketleft" unicode="[" horiz-adv-x="243" 
d="M12 -107l156 805h153l-8 -46h-95l-138 -714h94l-9 -45h-153z" />
    <glyph glyph-name="backslash" unicode="\" horiz-adv-x="305" 
d="M98 725h50l103 -767h-51z" />
    <glyph glyph-name="bracketright" unicode="]" horiz-adv-x="243" 
d="M-31 -107l9 45h94l138 714h-93l9 46h152l-157 -805h-152z" />
    <glyph glyph-name="asciicircum" unicode="^" horiz-adv-x="484" 
d="M57 330l258 364h48l115 -363h-53l-95 304l-22 -32.5l-38 -54.5l-46 -65.5l-46 -65l-38.5 -54.5c-11 -16 -18.167 -27 -21.5 -33h-61z" />
    <glyph glyph-name="underscore" unicode="_" horiz-adv-x="487" 
d="M-63 -118l10 49h487l-10 -49h-487z" />
    <glyph glyph-name="grave" unicode="`" horiz-adv-x="483" 
d="M316 559l-95 163l54 19l79 -168z" />
    <glyph glyph-name="a" unicode="a" horiz-adv-x="493" 
d="M286 501c12.667 0 25.5 -1.50391 38.5 -4.50391s25.167 -7.66699 36.5 -14s21.5 -14.166 30.5 -23.499s15.5 -20.333 19.5 -33l3 1l15 68h60l-97 -495h-62l14 65l-3 2c-20 -24.667 -41.5 -43 -64.5 -55s-50.5 -18 -82.5 -18c-26 0 -48.167 4.33301 -66.5 13
s-33.333 20.834 -45 36.501s-20.167 34 -25.5 55s-8 43.5 -8 67.5c0 23.333 2 47.833 6 73.5s10 50.834 18 75.501s18.5 48.334 31.5 71.001s28.167 42.5 45.5 59.5s37.333 30.5 60 40.5s48 15 76 15zM111 167.996c0 -14 1.66797 -27.8301 5.00098 -41.4971
s9 -25.834 17 -36.501s18.333 -19.334 31 -26.001s28.667 -10 48 -10c31.333 0 58.166 9.33301 80.499 28s40.833 41.834 55.5 69.501s25.334 57.167 32.001 88.5s10 59.666 10 84.999c0 34 -8 62.5 -24 85.5s-41.667 34.5 -77 34.5s-64.333 -10.167 -87 -30.5
s-40.834 -45 -54.501 -74s-23.167 -59.333 -28.5 -91s-8 -58.834 -8 -81.501z" />
    <glyph glyph-name="b" unicode="b" horiz-adv-x="471" 
d="M216 -6c-28.667 0 -53.6689 5 -75.002 15s-38.666 28 -51.999 54h-2l-15 -63h-60l141 725h61l-55 -293h2c20 23.333 42.833 40.666 68.5 51.999s52.5 17 80.5 17c25.333 0 47 -4 65 -12s32.833 -19 44.5 -33s20.167 -30.667 25.5 -50s8 -40.333 8 -63
c0 -37.333 -4.16699 -76.5 -12.5 -117.5s-21.833 -78.667 -40.5 -113s-43.167 -62.666 -73.5 -84.999s-67.166 -33.5 -110.499 -33.5zM285.998 443c-32 0 -59.001 -9.33203 -81.001 -27.999s-39.833 -41.834 -53.5 -69.501s-23.5 -57.334 -29.5 -89.001s-9 -60.5 -9 -86.5
c0 -16.667 1.66699 -32.167 5 -46.5s8.83301 -26.833 16.5 -37.5s17.834 -19.167 30.501 -25.5s28 -9.5 46 -9.5c32 0 59.167 9.16699 81.5 27.5s40.5 41.333 54.5 69s24.167 57.334 30.5 89.001s9.5 61.167 9.5 88.5c0 34 -7.33301 62.167 -22 84.5s-41 33.5 -79 33.5z" />
    <glyph glyph-name="c" unicode="c" horiz-adv-x="414" 
d="M371 56c-23.333 -19.333 -48.998 -34.499 -76.998 -45.499s-57.333 -16.5 -88 -16.5c-60 0 -104.167 17.5 -132.5 52.5s-42.5 81.167 -42.5 138.5c0 40 5.5 79 16.5 117s27.5 71.667 49.5 101s49.5 53 82.5 71s71.5 27 115.5 27c28 0 55.167 -5.16699 81.5 -15.5
s48.5 -25.833 66.5 -46.5l-50 -46c-13.333 14 -29 25.5 -47 34.5s-36.667 13.5 -56 13.5c-34 0 -63.333 -7.33301 -88 -22s-45 -33.834 -61 -57.501s-27.833 -50.334 -35.5 -80.001s-11.5 -59.5 -11.5 -89.5c0 -43.333 10 -77.166 30 -101.499s52.667 -36.5 98 -36.5
c19.333 0 39.666 5.16699 60.999 15.5s39.666 20.833 54.999 31.5l33 -45v0z" />
    <glyph glyph-name="d" unicode="d" horiz-adv-x="471" 
d="M320 0c2 11.333 4.33301 22.168 7 32.501s5 21.166 7 32.499c-0.666992 0 -1 0.166992 -1 0.5s-0.333008 0.5 -1 0.5c-20.667 -23.333 -44 -41.166 -70 -53.499s-55 -18.5 -87 -18.5c-26 0 -47.667 4.16699 -65 12.5s-31.333 19.666 -42 33.999
s-18.334 31.5 -23.001 51.5s-7 41.667 -7 65c0 36 4 74.167 12 114.5s21.333 77.5 40 111.5s42.834 62 72.501 84s66.5 33 110.5 33c30 0 56.167 -6.83301 78.5 -20.5s38.833 -32.167 49.5 -55.5h1l60 302h61l-142 -726h-61zM274 442.002
c-24 0 -44.834 -4.8291 -62.501 -14.4961s-32.834 -22.5 -45.501 -38.5s-23.167 -33.833 -31.5 -53.5s-14.833 -39.334 -19.5 -59.001s-7.83398 -38.5 -9.50098 -56.5s-2.5 -33 -2.5 -45c0 -18 1.5 -34.333 4.5 -49s8.16699 -27.334 15.5 -38.001s17.5 -19 30.5 -25
s29.5 -9 49.5 -9c22 0 41.5 4.66699 58.5 14s31.833 21.666 44.5 36.999s23.334 32.5 32.001 51.5s15.834 38.167 21.501 57.5s9.66699 37.833 12 55.5s3.5 32.5 3.5 44.5c0 15.333 -1.5 30.666 -4.5 45.999s-8.16699 29 -15.5 41s-17.666 21.833 -30.999 29.5
s-30 11.5 -50 11.5z" />
    <glyph glyph-name="e" unicode="e" horiz-adv-x="462" 
d="M285 501c54 0 95.6641 -12.002 124.997 -36.002s44 -56 44 -96c0 -21.333 -4.33301 -41.833 -13 -61.5s-24 -37 -46 -52s-51.667 -27 -89 -36s-85 -13.5 -143 -13.5c-7.33301 0 -16.666 0.166992 -27.999 0.5s-21.666 0.833008 -30.999 1.5
c-2 -17.333 -3 -29.666 -3 -36.999c0 -43.333 9.66699 -74.166 29 -92.499s47 -27.5 83 -27.5c10 0 21 1.16699 33 3.5s24 5.5 36 9.5s23.833 8.66699 35.5 14s21.834 11 30.501 17l31 -45c-24 -17.333 -51.5 -31 -82.5 -41s-61.5 -15 -91.5 -15
c-56.667 0 -98.167 15 -124.5 45s-39.5 74 -39.5 132c0 38 4.5 76.5 13.5 115.5s23.333 74.5 43 106.5s45 58 76 78s68.167 30 111.5 30zM281.997 443.998c-27.333 0 -50.666 -5.33301 -69.999 -16s-35.666 -24.5 -48.999 -41.5s-23.833 -36.167 -31.5 -57.5
s-13.5 -43 -17.5 -65c11.333 -1.33301 22.666 -2 33.999 -2h29c46.667 0 84 3.5 112 10.5s49.5 15.5 64.5 25.5s24.833 20.833 29.5 32.5s7 22.167 7 31.5c0 25.333 -9.33301 45.333 -28 60s-45.334 22 -80.001 22z" />
    <glyph glyph-name="f" unicode="f" horiz-adv-x="261" 
d="M92 -79c-7.33301 -36 -22.9971 -66.334 -46.9971 -91.001s-57.333 -37 -100 -37c-14.667 0 -28.667 1.33301 -42 4l12 56c5.33301 -1.33301 10.5 -1.83301 15.5 -1.5s9.83301 0.5 14.5 0.5c16 0 29.167 2.5 39.5 7.5s18.666 11.5 24.999 19.5s11 16.667 14 26
s5.5 18.333 7.5 27l100 509h-69l10 54h70l22 108c4 18 9.5 34.833 16.5 50.5s16.333 29.334 28 41.001s25.667 20.667 42 27s35.833 9.5 58.5 9.5c15.333 0 29.666 -1.33301 42.999 -4l-10 -56c-6.66699 1.33301 -12.834 1.83301 -18.501 1.5s-11.167 -0.5 -16.5 -0.5
c-16 0 -29 -2.5 -39 -7.5s-18 -11.5 -24 -19.5s-10.333 -16.667 -13 -26s-5 -18.333 -7 -27l-20 -97h99l-11 -54h-98z" />
    <glyph glyph-name="g" unicode="g" horiz-adv-x="495" 
d="M484 496l-46.998 -247.998l-48 -248c-6 -32 -14.667 -60.667 -26 -86s-26.166 -47 -44.499 -65s-40.5 -31.833 -66.5 -41.5s-57 -14.5 -93 -14.5c-12 0 -24.833 1.16699 -38.5 3.5s-27.167 6 -40.5 11s-25.833 11 -37.5 18s-21.834 15.167 -30.501 24.5
c7.33301 7.33301 14 14.833 20 22.5s12.667 15.5 20 23.5c15.333 -13.333 32.666 -24 51.999 -32s39 -12 59 -12c24.667 0 46 3.66699 64 11s33.5 17.5 46.5 30.5s23.5 28.5 31.5 46.5s14.667 37.667 20 59c3.33301 12 6 24.167 8 36.5s4.66699 24.833 8 37.5h-2
c-21.333 -28 -45 -48 -71 -60s-54.667 -18 -86 -18c-26 0 -47.667 4.16699 -65 12.5s-31.333 19.666 -42 33.999s-18.334 31.5 -23.001 51.5s-7 41.667 -7 65c0 24 1.66699 49.167 5 75.5s9 52.166 17 77.499s18 49.5 30 72.5s26.667 43.333 44 61s37.333 31.667 60 42
s48.667 15.5 78 15.5c28.667 0 54.167 -6.16699 76.5 -18.5s39.833 -31.833 52.5 -58.5h1l14 71h61zM383.002 323.002c0 16.667 -2.00195 32.334 -6.00195 47.001s-10.167 27.5 -18.5 38.5s-19.166 19.667 -32.499 26s-29 9.5 -47 9.5c-32 0 -58.833 -9.16699 -80.5 -27.5
s-39.167 -41.333 -52.5 -69s-22.833 -57.5 -28.5 -89.5s-8.5 -61.333 -8.5 -88c0 -17.333 1.33301 -33 4 -47s7.66699 -26 15 -36s17 -17.833 29 -23.5s27.667 -8.5 47 -8.5c32 0 59.167 9.16699 81.5 27.5s40.833 41 55.5 68s25.334 56.167 32.001 87.5
s10 59.666 10 84.999z" />
    <glyph glyph-name="h" unicode="h" horiz-adv-x="512" 
d="M343 0l60 306.999c7.33301 38.667 3.83301 70.334 -10.5 95.001s-42.166 37 -83.499 37c-18.667 0 -36.834 -3.33301 -54.501 -10s-33.667 -16 -48 -28s-26.833 -26.5 -37.5 -43.5s-18 -36.167 -22 -57.5l-59 -300h-61l141 727h61l-59 -303h3
c21.333 26.667 46.333 46.167 75 58.5s56.667 18.5 84 18.5c22.667 0 43.667 -3.66699 63 -11s35.333 -18.5 48 -33.5s21.5 -33.667 26.5 -56s4.5 -48.5 -1.5 -78.5l-62 -322h-63z" />
    <glyph glyph-name="i" unicode="i" horiz-adv-x="208" 
d="M154 631l13 65h64l-13 -65h-64zM33 0l96 495h62l-96 -495h-62z" />
    <glyph glyph-name="j" unicode="j" horiz-adv-x="226" 
d="M92 -72c-7.33301 -40 -23.998 -71.833 -49.998 -95.5s-59 -35.5 -99 -35.5h-30l10 57c1.33301 0 5.5 -0.166992 12.5 -0.5s10.833 -0.166016 11.5 0.500977c21.333 0.666992 39.166 7.66699 53.499 21s24.166 32.666 29.499 57.999l109 562h63zM166.002 631
c0 2 0.666992 6.16699 2 12.5l4 20c1.33301 7 2.5 13.667 3.5 20s1.83301 10.5 2.5 12.5h65l-13 -65h-64z" />
    <glyph glyph-name="k" unicode="k" horiz-adv-x="483" 
d="M249 265l-67 -63l-66 -63l-27 -139h-61l141 727h61l-97 -500h2l23 22l56.5 54l74 69l74 69l56.5 54h75l-198 -190l68.5 -153l68.5 -152h-66z" />
    <glyph glyph-name="l" unicode="l" horiz-adv-x="226" 
d="M143 0c-35.333 0 -61.999 9.16699 -79.999 27.5s-23 47.166 -15 86.499l120 611h62l-118 -605c-4 -19.333 -2.33301 -34.666 5 -45.999s22.666 -17 45.999 -17h16l-12 -57h-24z" />
    <glyph glyph-name="m" unicode="m" horiz-adv-x="838" 
d="M723 307c3.33301 18 4.99707 34.998 4.99707 50.998s-3.16699 30 -9.5 42s-16.5 21.5 -30.5 28.5s-33 10.5 -57 10.5c-18.667 0 -37 -3.33301 -55 -10s-34.333 -16 -49 -28s-27.167 -26.5 -37.5 -43.5s-17.5 -36.167 -21.5 -57.5l-58 -300h-62l59 307
c3.33301 16.667 4.83301 33 4.5 49s-3.66602 30.167 -9.99902 42.5s-16.666 22.333 -30.999 30s-33.833 11.5 -58.5 11.5c-18.667 0 -36.667 -3.33301 -54 -10s-33 -16 -47 -28s-26.167 -26.667 -36.5 -44s-17.5 -36.666 -21.5 -57.999l-59 -300h-61l96 495h61l-6 -35
c-2 -12 -4.33301 -23.667 -7 -35h2c21.333 26.667 46 45.834 74 57.501s55.333 17.5 82 17.5c36.667 0 66.334 -7.5 89.001 -22.5s38.667 -35.833 48 -62.5v1c0.666992 0 1 -0.333008 1 -1c26 31.333 53.5 53.333 82.5 66s60.833 19 95.5 19c26 0 48.667 -4.66699 68 -14
s35 -22 47 -38s20 -34.667 24 -56s3.66699 -44 -1 -68l-64 -324h-62z" />
    <glyph glyph-name="n" unicode="n" horiz-adv-x="506" 
d="M339 0l59.999 306.997c4 19.333 5.83301 37.166 5.5 53.499s-4 30.333 -11 42s-17.833 20.834 -32.5 27.501s-34.667 10 -60 10c-18 0 -35.667 -3.33301 -53 -10s-33.166 -16.167 -47.499 -28.5s-26.5 -27.166 -36.5 -44.499s-17 -36.333 -21 -57l-58 -300h-61l96 495h61
l-13 -69h2c21.333 26.667 46.5 45.834 75.5 57.501s57.167 17.5 84.5 17.5c22.667 0 43.5 -3.83301 62.5 -11.5s34.833 -18.667 47.5 -33s21.5 -32.166 26.5 -53.499s4.83301 -45.333 -0.5 -72l-64 -331h-63z" />
    <glyph glyph-name="o" unicode="o" horiz-adv-x="489" 
d="M287 501c26 0 49.502 -4.16699 70.502 -12.5s39 -20 54 -35s26.667 -33 35 -54s12.5 -44.5 12.5 -70.5c0 -39.333 -4 -79 -12 -119s-21.333 -76 -40 -108s-43.334 -58 -74.001 -78s-68.334 -30 -113.001 -30c-57.333 0 -101.5 14.333 -132.5 43s-46.5 70 -46.5 124
c0 44.667 4.83301 87.5 14.5 128.5s24.5 77.167 44.5 108.5s45.5 56.333 76.5 75s67.833 28 110.5 28zM278.002 445c-33.333 0 -61.333 -9.33301 -84 -28s-40.667 -41.834 -54 -69.501s-22.833 -57.667 -28.5 -90s-8.5 -62.166 -8.5 -89.499
c0 -11.333 1.5 -23.833 4.5 -37.5s8.66699 -26.5 17 -38.5s20 -22 35 -30s34.167 -12 57.5 -12c32.667 0 60.334 8.16699 83.001 24.5s41 37.5 55 63.5s24.167 55.167 30.5 87.5s9.5 64.833 9.5 97.5c0 42 -11.333 72.833 -34 92.5s-50.334 29.5 -83.001 29.5z" />
    <glyph glyph-name="p" unicode="p" horiz-adv-x="494" 
d="M181 495l-13.0029 -67.998l2 -1c20.667 23.333 43.834 41.666 69.501 54.999s54.5 20 86.5 20c24.667 0 45.667 -4.33301 63 -13s31.5 -20.334 42.5 -35.001s19 -32.167 24 -52.5s7.5 -41.833 7.5 -64.5c0 -36 -4 -74 -12 -114s-21 -77 -39 -111s-41.667 -62 -71 -84
s-65 -33 -107 -33c-29.333 0 -55.666 6.5 -78.999 19.5s-41.666 32.167 -54.999 57.5l-1 -1l-53 -271h-61l135 696h61zM125.997 179.002c0 -16 1.66699 -31.5 5 -46.5s8.83301 -28.167 16.5 -39.5s17.834 -20.333 30.501 -27s28.334 -10 47.001 -10c34 0 62.167 9 84.5 27
s40 40.5 53 67.5s22 56.167 27 87.5s7.5 60.333 7.5 87c0 34 -7.33301 61.833 -22 83.5s-40.334 32.5 -77.001 32.5c-31.333 0 -57.833 -8.83301 -79.5 -26.5s-39.334 -39.834 -53.001 -66.501s-23.667 -55.167 -30 -85.5s-9.5 -58.166 -9.5 -83.499z" />
    <glyph glyph-name="q" unicode="q" horiz-adv-x="494" 
d="M285 501c30.667 0 56.502 -6.66602 77.502 -19.999s37.167 -31.666 48.5 -54.999l2 1l14 68h62l-131 -696h-67l53 271l-1 1c-20.667 -23.333 -43 -42 -67 -56s-51.667 -21 -83 -21c-26 0 -48.167 4.5 -66.5 13.5s-33.333 21.167 -45 36.5s-20.167 33.166 -25.5 53.499
s-8 42.166 -8 65.499c0 36 4.16699 73.833 12.5 113.5s21.666 76.167 39.999 109.5s42.666 60.833 72.999 82.5s67.5 32.5 111.5 32.5zM116.002 172.001c0 -16.667 1.66016 -32.168 4.99316 -46.501s9 -26.666 17 -36.999s18.333 -18.333 31 -24s28.334 -8.5 47.001 -8.5
c30.667 0 56.834 9.16699 78.501 27.5s39.334 41 53.001 68s23.667 55.833 30 86.5s9.5 58.667 9.5 84c0 16.667 -1.66699 32.334 -5 47.001s-8.66602 27.5 -15.999 38.5s-17.166 19.667 -29.499 26s-27.833 9.5 -46.5 9.5c-33.333 0 -61.166 -9.16699 -83.499 -27.5
s-40.166 -41 -53.499 -68s-22.833 -56.333 -28.5 -88s-8.5 -60.834 -8.5 -87.501z" />
    <glyph glyph-name="r" unicode="r" horiz-adv-x="349" 
d="M365 424c-9.33301 5.33301 -19.998 9.33301 -31.998 12s-22 4 -30 4c-19.333 0 -37.5 -3.5 -54.5 -10.5s-32.333 -17 -46 -30s-25.334 -28.5 -35.001 -46.5s-16.5 -38 -20.5 -60l-57 -293h-62l96 495h62l-15 -76h3c21.333 32 46.333 53.833 75 65.5s57 17.167 85 16.5
c29.333 -1.33301 50.666 -6.33301 63.999 -15z" />
    <glyph glyph-name="s" unicode="s" horiz-adv-x="437" 
d="M192 -6c-17.333 0 -34.834 1.49609 -52.501 4.49609s-35 7.33301 -52 13s-33.167 12.834 -48.5 21.501s-29 18.667 -41 30l42 48c18.667 -20.667 41.667 -35.667 69 -45s55.333 -14 84 -14c16.667 0 33.167 1.5 49.5 4.5s30.833 7.83301 43.5 14.5
s22.834 15.334 30.501 26.001s11.5 24 11.5 40c0 26.667 -8.66699 46 -26 58s-40 21.667 -68 29c-17.333 4 -35.166 8.5 -53.499 13.5s-35.166 12 -50.499 21s-28 21 -38 36s-15 34.833 -15 59.5c0 26.667 5.33301 49.334 16 68.001s24.667 33.834 42 45.501
s37.5 20.167 60.5 25.5s46.5 8 70.5 8c27.333 0 55.166 -3.83301 83.499 -11.5s53.166 -21.167 74.499 -40.5l-39 -49c-19.333 14.667 -38.833 25.5 -58.5 32.5s-41.167 10.5 -64.5 10.5c-14 0 -28.167 -1.33301 -42.5 -4s-27.333 -7.5 -39 -14.5
s-21.167 -16.167 -28.5 -27.5s-11 -25.333 -11 -42c0 -12 3.16699 -22.167 9.5 -30.5s14.833 -15.166 25.5 -20.499s22.667 -10 36 -14s27 -7.66699 41 -11c17.333 -4 34.333 -8.83301 51 -14.5s31.5 -13.334 44.5 -23.001s23.5 -22 31.5 -37s12 -33.833 12 -56.5
c0 -26 -5.16699 -48.667 -15.5 -68s-24.5 -35.333 -42.5 -48s-39.167 -22.167 -63.5 -28.5s-50.5 -9.5 -78.5 -9.5z" />
    <glyph glyph-name="t" unicode="t" horiz-adv-x="266" 
d="M152 0c-27.333 0 -48.999 6.66797 -64.999 20.001s-24.333 33 -25 59c0 9.33301 1 19.666 3 30.999l32.5 165.5c10.333 55 21.166 109.833 32.499 164.5h-64l11 55h63c4.66699 21.333 9 42.666 13 63.999l12 64h62c-4.66699 -21.333 -9 -42.666 -13 -63.999l-12 -64h83
l-10 -55h-84l-61 -312c-2 -10 -3 -19.667 -3 -29c0 -12.667 3.5 -23.167 10.5 -31.5s20.167 -12.5 39.5 -12.5h36l-11 -55h-50z" />
    <glyph glyph-name="u" unicode="u" horiz-adv-x="515" 
d="M343 0l14.0029 68.001h-3c-21.333 -26.667 -46 -45.667 -74 -57s-55.333 -17 -82 -17c-50.667 0 -88.834 16 -114.501 48s-32.834 78 -21.501 138l61 315h61l-59 -306c-8 -42.667 -4.33301 -75.834 11 -99.501s45.666 -35.5 90.999 -35.5c18 0 35.333 3.33301 52 10
s32 16.334 46 29.001s26 27.667 36 45s17 36.666 21 57.999l58 299h62l-96 -495h-63z" />
    <glyph glyph-name="v" unicode="v" horiz-adv-x="424" 
d="M455 494c-43.333 -94.667 -87.668 -182.167 -133.001 -262.5s-93.333 -157.5 -144 -231.5h-53l-83 494h65l38 -236c4.66699 -29.333 8.83398 -59.5 12.501 -90.5s6.5 -61.833 8.5 -92.5h3l59.5 101l55 101l52 104.5l51.5 112.5h68z" />
    <glyph glyph-name="w" unicode="w" horiz-adv-x="697" 
d="M368 416l-49.002 -111.5l-49 -103c-16.667 -33.667 -34 -67 -52 -100l-57 -101.5h-61l-56 496h64l26 -291c1.33301 -19.333 2.66602 -40.666 3.99902 -63.999l4 -68h3c35.333 62.667 68.833 129.167 100.5 199.5l100.5 223.5h71l31 -278c2.66699 -21.333 5 -44.333 7 -69
s3 -50.667 3 -78h2c36.667 66.667 72 136.667 106 210s65.333 145 94 215h66c-19.333 -47.333 -38.666 -91.833 -57.999 -133.5s-39.166 -82.334 -59.499 -122.001l-63.5 -118.5l-70 -122h-60l-33 275c-1.33301 16 -3.16602 36.5 -5.49902 61.5s-3.83301 51.5 -4.5 79.5h-4z
" />
    <glyph glyph-name="x" unicode="x" horiz-adv-x="433" 
d="M298 0l-86.001 206l-35 -42.5l-48 -60l-48 -60c-15.333 -19 -26.666 -33.5 -33.999 -43.5h-77l214 255l-109 241h71l79 -197l33 41l45.5 57l45 57.5l32.5 41.5h78l-206 -244l116 -252h-71z" />
    <glyph glyph-name="y" unicode="y" horiz-adv-x="409" 
d="M453 495c-38 -103.333 -76.333 -197.167 -115 -281.5s-78 -158.833 -118 -223.5c-14.667 -23.333 -31 -45.833 -49 -67.5s-38 -41 -60 -58s-46.5 -31 -73.5 -42s-56.833 -17.5 -89.5 -19.5l-2 55c34.667 4 68.167 15 100.5 33s62.5 46.667 90.5 86l-82 518h66l34 -238
l14.5 -108c5 -38.667 8.16699 -77 9.5 -115h3c44 74.667 82.833 151.667 116.5 231s63.5 156 89.5 230h65z" />
    <glyph glyph-name="z" unicode="z" horiz-adv-x="419" 
d="M-14 0l11 52l353 388h-263l10 55h337l-10 -54l-349 -383h274l-11 -58h-352z" />
    <glyph glyph-name="braceleft" unicode="{" horiz-adv-x="243" 
d="M127 -106c-25.333 0 -45.3301 9.5 -59.9971 28.5s-19 44.5 -13 76.5l27 139c8 39.333 9 70.833 3 94.5s-22.333 38.167 -49 43.5l7 39c14.667 2.66699 27.5 8.5 38.5 17.5s20.667 20 29 33s15.166 27.167 20.499 42.5s9.66602 31 12.999 47l26 135
c6.66699 32 19.667 57.667 39 77s41.666 29 66.999 29h56l-8 -42h-37c-10.667 0 -19.834 -2.83301 -27.501 -8.5s-14.167 -13 -19.5 -22s-9.5 -18.667 -12.5 -29s-5.5 -20.5 -7.5 -30.5l-26 -130c-4 -21.333 -9.83301 -40 -17.5 -56s-16.167 -29.5 -25.5 -40.5
s-18.666 -19.833 -27.999 -26.5s-17.333 -11 -24 -13l-1 -2c6 -2 12.5 -6.33301 19.5 -13s12.833 -15.5 17.5 -26.5s8 -24.333 10 -40s1 -33.5 -3 -53.5l-27 -137c-2 -10 -3.33301 -20.333 -4 -31s0 -20.5 2 -29.5s5.66699 -16.333 11 -22s13 -8.5 23 -8.5h37l-8 -41h-48z
" />
    <glyph glyph-name="bar" unicode="|" horiz-adv-x="189" 
d="M71 -162v878h50v-878h-50z" />
    <glyph glyph-name="braceright" unicode="}" horiz-adv-x="243" 
d="M242 276c-28.667 -5.33301 -50.667 -19.833 -66 -43.5s-26.666 -55.167 -33.999 -94.5l-27 -139c-6 -32 -18.667 -57.5 -38 -76.5s-41.666 -28.5 -66.999 -28.5h-57l8 41h38c10 0 18.667 2.83301 26 8.5s13.666 13 18.999 22s9.66602 18.833 12.999 29.5s6 21 8 31
l27 137c4 20 9.83301 37.833 17.5 53.5s16.167 29 25.5 40s18.666 19.833 27.999 26.5s17.666 11 24.999 13l1 2c-6 2 -12.5 6.33301 -19.5 13s-13 15.5 -18 26.5s-8.33301 24.5 -10 40.5s-0.5 34.667 3.5 56l25 130c2 10 3.66699 20.167 5 30.5s1.33301 20 0 29
s-4.66602 16.333 -9.99902 22s-14 8.5 -26 8.5h-38l7 39h55c28.667 0 48.5 -9.66699 59.5 -29s13.5 -44 7.5 -74l-27 -135c-3.33301 -16 -5.16602 -31.667 -5.49902 -47s1 -29.5 4 -42.5s8.33301 -24 16 -33s18.167 -14.833 31.5 -17.5l-7 -39v0z" />
    <glyph glyph-name="asciitilde" unicode="~" horiz-adv-x="484" 
d="M475 296c-16.667 -27.333 -34.8301 -47.835 -54.4971 -61.502s-43.5 -20.5 -71.5 -20.5c-15.333 0 -31.333 3.33301 -48 10s-33.334 13.834 -50.001 21.501s-33 14.834 -49 21.501s-31.333 10 -46 10c-17.333 0 -32.333 -4.16699 -45 -12.5s-26.667 -20.166 -42 -35.499
l-35 27c20 27.333 41.167 47 63.5 59s45.166 18 68.499 18c16.667 0 33 -3.33301 49 -10s32 -13.834 48 -21.501l47 -21.5c15.333 -6.66699 31 -10 47 -10c15.333 0 29.166 4 41.499 12s25.833 21.667 40.5 41z" />
    <glyph glyph-name="exclamdown" unicode="&#xa1;" horiz-adv-x="226" 
d="M127 312h45l-92 -514h-63zM219 494l-15 -79h-72l15 79h72z" />
    <glyph glyph-name="cent" unicode="&#xa2;" horiz-adv-x="484" 
d="M401 56c-22.667 -18.667 -47.498 -33.334 -74.498 -44.001s-55.5 -16.667 -85.5 -18l-21 -109h-36l21 111c-49.333 5.33301 -85.666 25 -108.999 59s-35 77.333 -35 130c0 38 5.16699 75.333 15.5 112s25.666 69.5 45.999 98.5s45.666 52.833 75.999 71.5
s65.5 29.667 105.5 33l20 104h36l-21 -104c25.333 -1.33301 49.833 -7.16602 73.5 -17.499s43.834 -24.833 60.501 -43.5l-50 -46c-12 13.333 -26.333 24.333 -43 33s-34 13.667 -52 15l-76 -387c19.333 0 39.666 5.16699 60.999 15.5s39.666 20.833 54.999 31.5z
M124.002 192c0 -37.333 7.33301 -67.667 22 -91s38.334 -38 71.001 -44l75 382c-29.333 -4 -54.5 -14 -75.5 -30s-38.333 -35.5 -52 -58.5s-23.834 -48.167 -30.501 -75.5s-10 -55 -10 -83z" />
    <glyph glyph-name="sterling" unicode="&#xa3;" horiz-adv-x="484" 
d="M209 298c-9.33301 -44 -22.499 -85.9961 -39.499 -125.996s-41.833 -77.667 -74.5 -113h320c0 -2 -0.5 -5.83301 -1.5 -11.5s-2.16699 -11.834 -3.5 -18.501s-2.5 -12.834 -3.5 -18.501s-1.83301 -9.16699 -2.5 -10.5h-398l10 51c32 34 59.667 71.333 83 112
s40 85.667 50 135h-90l10 50h80c-0.666992 23.333 -3.33398 47.166 -8.00098 71.499s-7 49.166 -7 74.499c0 26.667 4.5 52.5 13.5 77.5s22.167 47 39.5 66s38.5 34.167 63.5 45.5s53.167 17 84.5 17c42 0 77 -7.16699 105 -21.5s50.667 -40.166 68 -77.499l-55 -28
c-11.333 25.333 -26.666 43.166 -45.999 53.499s-44.333 15.5 -75 15.5c-19.333 0 -36.833 -3.66699 -52.5 -11s-29.334 -17.833 -41.001 -31.5s-20.667 -29.667 -27 -48s-9.5 -38.5 -9.5 -60.5c0 -23.333 2.16699 -46 6.5 -68s6.5 -47 6.5 -75h147l-10 -50h-143z" />
    <glyph glyph-name="currency" unicode="&#xa4;" horiz-adv-x="535" 
d="M59 498c6 6.66699 12.334 13.166 19.001 19.499l19 18.5l63 -63c35.333 25.333 73.666 38 114.999 38c38.667 0 76 -12.333 112 -37l63 63l38 -39l-63 -62c26.667 -38 40 -76.333 40 -115c0 -20 -3.33301 -39.333 -10 -58s-16 -37 -28 -55l13.5 -13.5l18 -17.5l18 -17
c5.66699 -5.33301 10.167 -10 13.5 -14c-12.667 -13.333 -25.667 -26.333 -39 -39l-62 63c-33.333 -25.333 -71.333 -38.666 -114 -39.999c-42 1.33301 -80.667 15 -116 41l-63 -63l-19.5 19.5c-7.66699 7.66699 -13.834 14.167 -18.501 19.5l63 62
c-24 36 -36 73.333 -36 112c-0.666992 20 2.33301 39.5 9 58.5s16.334 37.5 29.001 55.5zM141.001 320.999c0 -18.667 3.5 -36 10.5 -52s16.5 -30 28.5 -42s26 -21.5 42 -28.5s33.333 -10.5 52 -10.5s36.167 3.5 52.5 10.5s30.5 16.5 42.5 28.5s21.5 26 28.5 42
s10.5 33.333 10.5 52s-3.5 36.167 -10.5 52.5s-16.5 30.5 -28.5 42.5s-26.167 21.5 -42.5 28.5s-33.833 10.5 -52.5 10.5s-36 -3.5 -52 -10.5s-30 -16.5 -42 -28.5s-21.5 -26.167 -28.5 -42.5s-10.5 -33.833 -10.5 -52.5z" />
    <glyph glyph-name="yen" unicode="&#xa5;" horiz-adv-x="484" 
d="M402 206c-2 -7.33301 -3.66699 -14.5 -5 -21.5l-4 -21.5h-162l-16 -82l-16 -81h-60l16 81l16 82h-159l4 21.5l4 21.5h159l16 81l-6 23h-150c2 7.33301 3.66699 14.5 5 21.5l4 21.5h128l-51 171l-51 172h65l27.5 -97.5l27.5 -97.5l42 -158l96 150l68.5 101.5l67.5 101.5
h68l-117.5 -172l-117.5 -171h129l-9 -43h-149l-16 -23c-3.33301 -13.333 -6 -26.833 -8 -40.5s-4.66699 -27.167 -8 -40.5h162v0z" />
    <glyph glyph-name="brokenbar" unicode="&#xa6;" horiz-adv-x="189" 
d="M71 304v412h50v-412h-50zM121 247v-409h-50v409h50z" />
    <glyph glyph-name="section" unicode="&#xa7;" horiz-adv-x="457" 
d="M317 647c-17.333 0 -33.333 -2.49512 -48 -7.49512s-27.667 -12 -39 -21s-20.166 -19.833 -26.499 -32.5s-9.5 -26.334 -9.5 -41.001c0 -13.333 3.5 -24.833 10.5 -34.5s16 -18.334 27 -26.001s23.667 -14.667 38 -21s29.166 -12.166 44.499 -17.499
c14.667 -5.33301 29.834 -11.833 45.501 -19.5s29.834 -17 42.501 -28s23 -24 31 -39s12 -32.5 12 -52.5c0 -28.667 -6.83301 -53.834 -20.5 -75.501s-31.5 -41.5 -53.5 -59.5c6 -10.667 10.833 -22 14.5 -34s5.5 -24.667 5.5 -38c0 -24.667 -5 -47.667 -15 -69
s-24.333 -40 -43 -56s-40.834 -28.667 -66.501 -38s-54.5 -14 -86.5 -14c-17.333 0 -34.166 1.83301 -50.499 5.5s-31.833 8.66699 -46.5 15s-27.834 13.833 -39.501 22.5s-21.5 18 -29.5 28c6 6.66699 12.333 13.167 19 19.5l20 19.5
c16.667 -19.333 36.167 -33.333 58.5 -42s45.5 -13 69.5 -13c19.333 0 38 2.33301 56 7s33.833 11.667 47.5 21s24.667 21.166 33 35.499s12.5 31.5 12.5 51.5c0 24 -10 43.333 -30 58s-48 28.667 -84 42c-44 16.667 -77.667 34.834 -101 54.501s-35 44.834 -35 75.501
c0 27.333 6.16699 52.666 18.5 75.999s32.166 44.666 59.499 63.999c-9.33301 11.333 -16.833 22.666 -22.5 33.999s-8.5 25.666 -8.5 42.999c0 26 5.5 49.167 16.5 69.5s25.333 37.333 43 51s38 24 61 31s46.5 10.5 70.5 10.5c32 0 62.167 -4.66699 90.5 -14
s51.833 -23.333 70.5 -42c-7.33301 -7.33301 -14 -15 -20 -23s-12.667 -15.667 -20 -23c-18 17.333 -37.5 29.5 -58.5 36.5s-42.167 10.5 -63.5 10.5zM139 338.005c0 -18.667 7.66602 -34.502 22.999 -47.502s33.5 -24.333 54.5 -34s42.333 -18.334 64 -26.001
s38.834 -15.5 51.501 -23.5c16 11.333 28.833 25.333 38.5 42s14.5 34.334 14.5 53.001c0 18 -5 32 -15 42s-23.5 19.167 -40.5 27.5s-36.667 16.833 -59 25.5s-45.5 20.667 -69.5 36c-18 -11.333 -32.833 -25.666 -44.5 -42.999s-17.5 -34.666 -17.5 -51.999z" />
    <glyph glyph-name="dieresis" unicode="&#xa8;" horiz-adv-x="480" 
d="M346 602l13 72h71l-14 -72h-70zM163 602l14 72h70l-14 -72h-70z" />
    <glyph glyph-name="copyright" unicode="&#xa9;" horiz-adv-x="792" 
d="M542 213c-11.333 -29.333 -29.001 -52.167 -53.001 -68.5s-53 -24.5 -87 -24.5c-25.333 0 -47.333 4.16699 -66 12.5s-34.334 19.833 -47.001 34.5s-22 31.5 -28 50.5s-9 39.167 -9 60.5v118c0 20.667 3.16699 40.5 9.5 59.5s15.833 35.667 28.5 50
s28.334 25.666 47.001 33.999s40.334 12.5 65.001 12.5c34 0 62.833 -8 86.5 -24s41.167 -37.667 52.5 -65l-47 -22c-8 18 -19.833 32.833 -35.5 44.5s-34.167 17.5 -55.5 17.5c-17.333 0 -32.166 -3 -44.499 -9s-22.833 -14 -31.5 -24s-15 -21.667 -19 -35s-6 -27 -6 -41
v-114c0 -14 2 -27.833 6 -41.5s10.333 -25.667 19 -36s19.167 -18.666 31.5 -24.999s27.166 -9.5 44.499 -9.5c22 0 40.667 6.16699 56 18.5s27 28.5 35 48.5zM398.999 -9.00098c-49.333 0 -95.167 8.83301 -137.5 26.5s-78.833 42.167 -109.5 73.5s-54.667 68.333 -72 111
s-26 89 -26 139s8.83301 96.5 26.5 139.5s42 80.167 73 111.5s67.5 55.833 109.5 73.5s87.333 26.5 136 26.5s94.167 -8.83301 136.5 -26.5s79 -42.167 110 -73.5s55.333 -68.5 73 -111.5s26.5 -89.5 26.5 -139.5s-8.83301 -96.333 -26.5 -139s-42 -79.667 -73 -111
s-67.667 -55.833 -110 -73.5s-87.833 -26.5 -136.5 -26.5zM398.998 643.999c-42 0 -80.833 -7.66699 -116.5 -23s-66.667 -36.666 -93 -63.999s-47 -59.5 -62 -96.5s-22.5 -76.833 -22.5 -119.5s7.5 -82.334 22.5 -119.001s35.667 -68.5 62 -95.5s57.333 -48.333 93 -64
s74.5 -23.5 116.5 -23.5s81 7.83301 117 23.5s67 37 93 64s46.5 58.833 61.5 95.5s22.5 76.334 22.5 119.001s-7.5 82.5 -22.5 119.5s-35.5 69.167 -61.5 96.5s-57 48.666 -93 63.999s-75 23 -117 23z" />
    <glyph glyph-name="ordfeminine" unicode="&#xaa;" horiz-adv-x="341" 
d="M224 610c17.333 0 33.668 -3.49902 49.001 -10.499s28 -17.5 38 -31.5l8 38h48l-60 -326h-51l8 46c-12.667 -15.333 -27 -27.5 -43 -36.5s-34 -13.5 -54 -13.5c-36.667 0 -63.167 11 -79.5 33s-24.833 49.333 -25.5 82c0 22.667 3 47 9 73s15.5 49.667 28.5 71
s29.667 39.166 50 53.499s45.166 21.5 74.499 21.5zM115.002 392.001c0 -8.66699 1.16895 -16.999 3.50195 -24.999s6 -15.167 11 -21.5s11.5 -11.5 19.5 -15.5s18.333 -6 31 -6c19.333 0 36.166 5.66699 50.499 17s26 25.5 35 42.5s15.5 35.333 19.5 55s6 37.834 6 54.501
c0 20.667 -5 37.5 -15 50.5s-26 19.5 -48 19.5s-40.167 -6.16699 -54.5 -18.5s-25.833 -27.333 -34.5 -45s-14.834 -36.334 -18.501 -56.001s-5.5 -36.834 -5.5 -51.501z" />
    <glyph glyph-name="guillemotleft" unicode="&#xab;" horiz-adv-x="433" 
d="M298 46l-86 180l153 179h64l-154 -180l83 -179h-60zM143 46l-86 180l153 179h65l-154 -180l83 -179h-61z" />
    <glyph glyph-name="logicalnot" unicode="&#xac;" horiz-adv-x="484" 
d="M427 69h-60l37 193h-366l10 51h427z" />
    <glyph glyph-name="sfthyphen" unicode="&#xad;" horiz-adv-x="381" 
d="M58 237l12 60h276l-12 -60h-276z" />
    <glyph glyph-name="registered" unicode="&#xae;" horiz-adv-x="553" 
d="M484 492c0 -30 -5.16699 -57.667 -15.5 -83s-24.833 -47.166 -43.5 -65.499s-40.5 -32.833 -65.5 -43.5s-52.5 -16 -82.5 -16c-29.333 0 -56.666 5.33301 -81.999 16s-47.333 25.167 -66 43.5s-33.167 40.166 -43.5 65.499s-15.5 53 -15.5 83s5.33301 57.833 16 83.5
s25.334 47.834 44.001 66.501s40.5 33.334 65.5 44.001s52.167 16 81.5 16s56.666 -5.33301 81.999 -16s47.166 -25.334 65.499 -44.001s32.833 -40.834 43.5 -66.501s16 -53.5 16 -83.5zM451 492c0 25.333 -4.49805 49 -13.498 71s-21.333 41 -37 57s-34 28.667 -55 38
s-43.833 14 -68.5 14s-47.5 -4.66699 -68.5 -14s-39.333 -22 -55 -38s-27.834 -35 -36.501 -57s-13 -45.667 -13 -71s4.33301 -48.833 13 -70.5s20.667 -40.5 36 -56.5s33.5 -28.5 54.5 -37.5s44.167 -13.5 69.5 -13.5c24.667 0 47.667 4.5 69 13.5s39.666 21.5 54.999 37.5
s27.5 34.833 36.5 56.5s13.5 45.167 13.5 70.5zM285.002 475l-51.002 0.000976562v-104h-34v242h99c20.667 0 37.834 -6 51.501 -18s20.5 -28.333 20.5 -49c0 -16 -4.66699 -29.833 -14 -41.5s-21.666 -19.834 -36.999 -24.501l57 -109h-39zM234 583.001v-76.001h59
c12.667 0 23.167 3.33301 31.5 10s12.5 16.334 12.5 29.001c0 13.333 -4.16699 22.833 -12.5 28.5s-18.5 8.5 -30.5 8.5h-60z" />
    <glyph glyph-name="macron" unicode="&#xaf;" horiz-adv-x="485" 
d="M196 603l11 59h262l-12 -59h-261z" />
    <glyph glyph-name="degree" unicode="&#xb0;" horiz-adv-x="374" 
d="M315 572c0 -18 -3.33203 -34.667 -9.99902 -50s-15.834 -28.833 -27.501 -40.5s-25.167 -20.834 -40.5 -27.501s-32 -10 -50 -10s-34.833 3.33301 -50.5 10s-29.334 15.834 -41.001 27.501s-20.834 25.167 -27.501 40.5s-10 32 -10 50s3.33301 34.833 10 50.5
s15.834 29.334 27.501 41.001s25.334 20.834 41.001 27.501s32.5 10 50.5 10c19.333 0 36.833 -3.33301 52.5 -10s29.167 -15.834 40.5 -27.501s20 -25.334 26 -41.001s9 -32.5 9 -50.5zM272.001 572c0 12 -2.16699 23.166 -6.5 33.499s-10.333 19.333 -18 27
s-16.667 13.834 -27 18.501s-21.5 7 -33.5 7s-23.167 -2.33301 -33.5 -7s-19.333 -10.834 -27 -18.501s-13.667 -16.667 -18 -27s-6.5 -21.5 -6.5 -33.5c0 -23.333 8 -43.166 24 -59.499s36.333 -24.5 61 -24.5c23.333 0 43.333 8 60 24s25 36 25 60z" />
    <glyph glyph-name="plusminus" unicode="&#xb1;" horiz-adv-x="484" 
d="M283 281l-35 -181h-50l35 181h-185l10 51h185l35 180h50l-35 -180h185l-10 -51h-185zM-6 0l9 51h421l-9 -51h-421z" />
    <glyph glyph-name="twosuperior" unicode="&#xb2;" horiz-adv-x="299" 
d="M15 370l8.99805 45.999l218 209c24 22 36 44.333 36 67c0 14.667 -5.66699 26.667 -17 36s-26.666 14 -45.999 14s-36.666 -6.16699 -51.999 -18.5s-27 -27.833 -35 -46.5l-53 12c12.667 30 31.667 54 57 72s54 27 86 27c32.667 0 59.834 -7.66699 81.501 -23
s32.5 -38.333 32.5 -69c0 -19.333 -4.33301 -36.666 -13 -51.999s-20.334 -30 -35.001 -44c-10.667 -9.33301 -24.667 -22.333 -42 -39l-54 -52l-54 -51.5l-42 -39.5h184l-9 -48h-252z" />
    <glyph glyph-name="threesuperior" unicode="&#xb3;" horiz-adv-x="299" 
d="M216 789c36 0 63.834 -8.66895 83.501 -26.002s29.5 -39.333 29.5 -66c0 -19.333 -5.33301 -39 -16 -59s-30 -36.667 -58 -50c15.333 -8.66699 26.333 -19.667 33 -33s10 -27 10 -41c0 -22 -3.83301 -42 -11.5 -60s-18.5 -33.5 -32.5 -46.5s-30.5 -23.167 -49.5 -30.5
s-39.833 -11 -62.5 -11c-12.667 0 -25.334 1.5 -38.001 4.5s-24 8 -34 15s-18.5 16.167 -25.5 27.5s-11.167 25 -12.5 41l51 9c2 -17.333 8.83301 -30.166 20.5 -38.499s25.834 -12.5 42.501 -12.5c28 0 51.667 9 71 27s29 41.667 29 71c0 17.333 -5.33301 30.833 -16 40.5
s-25.667 14.5 -45 14.5h-37l9 44h30c25.333 0 46.5 7.66699 63.5 23s25.5 34 25.5 56c0 16.667 -5.5 30.167 -16.5 40.5s-26.167 15.5 -45.5 15.5c-16 0 -31.667 -4.66699 -47 -14s-26.666 -22.666 -33.999 -39.999l-51 9c11.333 28 29.166 50 53.499 66
s51.166 24 80.499 24z" />
    <glyph glyph-name="acute" unicode="&#xb4;" horiz-adv-x="487" 
d="M296 573l98 166l61 -22l-122 -160z" />
    <glyph glyph-name="mu" unicode="&#xb5;" horiz-adv-x="508" 
d="M-10 -200l67 347.502l67 347.5h61l-60 -307c-8.66699 -46 -3.83398 -80.167 14.499 -102.5s47.5 -33.5 87.5 -33.5c37.333 0 70.5 13.167 99.5 39.5s47.833 60.833 56.5 103.5l58 300h61l-96 -495h-61l6 34c2 11.333 4.33301 22.666 7 33.999h-3
c-21.333 -26.667 -46 -45.5 -74 -56.5s-55.333 -16.5 -82 -16.5c-21.333 0 -40.666 3.66699 -57.999 11s-31.333 17.666 -42 30.999h-3l-46 -237h-60z" />
    <glyph glyph-name="mu" unicode="&#x3bc;" horiz-adv-x="508" 
d="M-10 -200l67 347.502l67 347.5h61l-60 -307c-8.66699 -46 -3.83398 -80.167 14.499 -102.5s47.5 -33.5 87.5 -33.5c37.333 0 70.5 13.167 99.5 39.5s47.833 60.833 56.5 103.5l58 300h61l-96 -495h-61l6 34c2 11.333 4.33301 22.666 7 33.999h-3
c-21.333 -26.667 -46 -45.5 -74 -56.5s-55.333 -16.5 -82 -16.5c-21.333 0 -40.666 3.66699 -57.999 11s-31.333 17.666 -42 30.999h-3l-46 -237h-60z" />
    <glyph glyph-name="paragraph" unicode="&#xb6;" horiz-adv-x="529" 
d="M341 661l-47.002 -371.502l-47 -370.5h-60l25.5 211c8.33301 70 17.166 140.333 26.499 211c-54 0 -95.5 13 -124.5 39s-43.5 64 -43.5 114c0 26 4.5 52.167 13.5 78.5s22.333 50 40 71s39.334 38 65.001 51s55.5 19.5 89.5 19.5h275
c-1.33301 -9.33301 -2.66602 -18.166 -3.99902 -26.499s-2.66602 -17.166 -3.99902 -26.499h-53l-93 -742h-60l93 742h-92z" />
    <glyph glyph-name="periodcentered" unicode="&#xb7;" horiz-adv-x="206" 
d="M74 224l17 89h81l-17 -89h-81z" />
    <glyph glyph-name="cedilla" unicode="&#xb8;" horiz-adv-x="423" 
d="M223 -117c0 16 -7.49707 27.334 -22.4971 34.001s-30.5 9.66699 -46.5 9l-13 12l45 92l36 -3l-33 -68c16 -1.33301 29.5 -4.33301 40.5 -9s19.833 -10.334 26.5 -17.001s11.5 -14 14.5 -22s4.5 -15.667 4.5 -23c0 -10 -2.33301 -20.333 -7 -31
s-11.834 -20.167 -21.501 -28.5s-21.667 -15.333 -36 -21s-31.5 -8.5 -51.5 -8.5c-8.66699 0 -21.334 0.666992 -38.001 2s-32.667 5.33301 -48 12l16 37c12.667 -5.33301 25.5 -8.83301 38.5 -10.5s24.167 -2.5 33.5 -2.5c6 0 12.5 0.833008 19.5 2.5
s13.667 4.16699 20 7.5s11.666 8 15.999 14s6.5 13.333 6.5 22z" />
    <glyph glyph-name="onesuperior" unicode="&#xb9;" horiz-adv-x="248" 
d="M157 370h-52l71 360l-69 -40l13 55l69 41h49z" />
    <glyph glyph-name="ordmasculine" unicode="&#xba;" horiz-adv-x="338" 
d="M234 610c36.667 0 66.332 -10.334 88.999 -31.001s34.334 -48.667 35.001 -84c0.666992 -25.333 -1.66602 -50.833 -6.99902 -76.5s-14.333 -49.167 -27 -70.5s-29.667 -38.666 -51 -51.999s-47.666 -20 -78.999 -20c-44.667 0 -77 10.667 -97 32s-30.333 48 -31 80
c-0.666992 29.333 2.16602 57.5 8.49902 84.5s16.5 50.667 30.5 71s31.667 36.5 53 48.5s46.666 18 75.999 18zM229.998 565.999c-22 0 -40.3291 -5.83105 -54.9961 -17.498s-26.334 -26.334 -35.001 -44.001s-14.667 -36.667 -18 -57s-5 -38.833 -5 -55.5
c0 -7.33301 1 -15 3 -23s5.83301 -15.667 11.5 -23s13.167 -13.333 22.5 -18s21.666 -7 36.999 -7c22 0 40.5 4.66699 55.5 14s27 21.666 36 36.999s15.333 33.333 19 54s5.16699 42.667 4.5 66c-0.666992 25.333 -8.33398 44 -23.001 56s-32.334 18 -53.001 18z" />
    <glyph glyph-name="guillemotright" unicode="&#xbb;" horiz-adv-x="433" 
d="M22 46l154 179l-84 179h62l86 -179l-156 -179h-62zM176 46l155 179l-84 179h60l87 -179l-156 -179h-62z" />
    <glyph glyph-name="onequarter" unicode="&#xbc;" horiz-adv-x="770" 
d="M198 280h-52l71 360l-69 -40l13 55l69 41h49zM123 -17h-50l574 739h51zM632 63c-0.666992 -3.33301 -1.66797 -7.83301 -3.00098 -13.5s-2.66602 -11.667 -3.99902 -18l-4 -18.5c-1.33301 -6 -2 -10.333 -2 -13h-51l12 63h-195l9 44l214 309h58l-213 -307h135l5.5 26
l7 35c2.33301 12 4.5 23.667 6.5 35s3.66699 20 5 26h52l-24 -122h38l-9 -46h-37z" />
    <glyph glyph-name="onehalf" unicode="&#xbd;" horiz-adv-x="770" 
d="M195 280h-52l71 360l-69 -40l13 55l69 41h49zM94 -17h-50l574 739h51zM407 0l8.99805 44.999l218 210c24 22.667 36 44.667 36 66c0 14.667 -5.66699 26.834 -17 36.501s-26.666 14.5 -45.999 14.5s-36.666 -6.16699 -51.999 -18.5s-27 -27.833 -35 -46.5l-53 11
c12.667 30.667 31.667 55 57 73s54 27 86 27c32.667 0 59.834 -7.66699 81.501 -23s32.5 -38.333 32.5 -69c0 -19.333 -4.33301 -36.833 -13 -52.5s-20.334 -30.167 -35.001 -43.5l-42 -39.5l-54 -51.5l-54 -51.5l-42 -39.5h184l-9 -48h-252z" />
    <glyph glyph-name="threequarters" unicode="&#xbe;" horiz-adv-x="770" 
d="M222 699c36 0 63.834 -8.66895 83.501 -26.002s29.5 -39.333 29.5 -66c0 -19.333 -5.33301 -39 -16 -59s-30 -36.667 -58 -50c15.333 -8.66699 26.333 -19.667 33 -33s10 -27 10 -41c0 -22 -3.83301 -42 -11.5 -60s-18.5 -33.5 -32.5 -46.5s-30.5 -23.167 -49.5 -30.5
s-39.833 -11 -62.5 -11c-12.667 0 -25.334 1.5 -38.001 4.5s-24 8 -34 15s-18.5 16.167 -25.5 27.5s-11.167 25 -12.5 41l51 9c2 -17.333 8.83301 -30.166 20.5 -38.499s25.834 -12.5 42.501 -12.5c28 0 51.667 9 71 27s29 41.667 29 71c0 17.333 -5.33301 30.833 -16 40.5
s-25.667 14.5 -45 14.5h-37l9 44h30c25.333 0 46.5 7.66699 63.5 23s25.5 34 25.5 56c0 16.667 -5.5 30.167 -16.5 40.5s-26.167 15.5 -45.5 15.5c-16 0 -31.667 -4.66699 -47 -14s-26.666 -22.666 -33.999 -39.999l-51 9c11.333 28 29.166 50 53.499 66
s51.166 24 80.499 24zM158.001 -17.002h-50l574 739h51zM667.001 62.998c-0.666992 -3.33301 -1.66797 -7.83301 -3.00098 -13.5s-2.66602 -11.667 -3.99902 -18l-4 -18.5c-1.33301 -6 -2 -10.333 -2 -13h-51l12 63h-195l9 44l214 309h58l-213 -307h135l5.5 26l7 35
c2.33301 12 4.5 23.667 6.5 35s3.66699 20 5 26h52l-24 -122h38l-9 -46h-37z" />
    <glyph glyph-name="questiondown" unicode="&#xbf;" horiz-adv-x="471" 
d="M441 -29c-9.33301 -32 -21.502 -59.1689 -36.502 -81.502s-32.333 -40.333 -52 -54s-41.334 -23.5 -65.001 -29.5s-49.167 -9 -76.5 -9c-25.333 0 -48.5 3.66699 -69.5 11s-39 17.5 -54 30.5s-26.667 28.5 -35 46.5s-12.5 38 -12.5 60c0 24 3.5 45.333 10.5 64
s16.333 35.834 28 51.501s24.667 30 39 43l42.5 38.5c21.333 18.667 41.333 37.834 60 57.501s30.667 42.167 36 67.5l12 58h66l-12 -60c-4.66699 -23.333 -13.667 -45 -27 -65s-29.666 -38.667 -48.999 -56l-28.5 -27.5l-29.5 -27.5
c-10 -9.33301 -19.667 -18.833 -29 -28.5s-17.666 -20 -24.999 -31s-13.333 -22.333 -18 -34s-7 -23.5 -7 -35.5c0 -11.333 1.83301 -23 5.5 -35s9.83398 -22.833 18.501 -32.5s20 -17.667 34 -24s31.333 -9.5 52 -9.5c22.667 0 43 4.16699 61 12.5s33.5 19 46.5 32
s23.333 26.833 31 41.5s13.167 28.667 16.5 42zM368.998 496.998l-15 -80h-73l16 80h72z" />
    <glyph glyph-name="Agrave" unicode="&#xc0;" horiz-adv-x="580" 
d="M459 0l-12 82.5c-4 27 -8.33301 54.5 -13 82.5h-305l-89 -165h-71l191.5 348l192.5 348h62l114 -696h-70zM368 616l-20.5 -39.5l-37 -69.5l-45.5 -85l-45.5 -85.5l-38 -71.5l-22.5 -42h268l-7.5 53l-10 69l-11 77l-11 76.5l-10 67l-7.5 50.5h-2zM392 734l-174 98l38 50
l160 -115z" />
    <glyph glyph-name="Aacute" unicode="&#xc1;" horiz-adv-x="580" 
d="M459 0l-12 82.5c-4 27 -8.33301 54.5 -13 82.5h-305l-89 -165h-71l191.5 348l192.5 348h62l114 -696h-70zM368 616l-87 -166l-122 -227h268l-7.5 53l-10 69l-11 77l-11 76.5l-10 67l-7.5 50.5h-2zM351 766l81.5 57.5l81.5 57.5l19 -25.5
c6 -8.33301 12.333 -16.5 19 -24.5l-178 -98z" />
    <glyph glyph-name="Acircumflex" unicode="&#xc2;" horiz-adv-x="580" 
d="M459 0l-12 82.5c-4 27 -8.33301 54.5 -13 82.5h-305l-89 -165h-71l191.5 348l192.5 348h62l114 -696h-70zM368 616l-20.5 -39.5l-37 -69.5l-45.5 -85l-45.5 -85.5l-38 -71.5l-22.5 -42h268l-7.5 53l-10 69l-11 77l-11 76.5l-10 67l-7.5 50.5h-2zM405 822l-161 -87l-17 30
l165 120h45l111 -119l-30 -29z" />
    <glyph glyph-name="Atilde" unicode="&#xc3;" horiz-adv-x="580" 
d="M459 0l-12 82.5c-4 27 -8.33301 54.5 -13 82.5h-305l-89 -165h-71l191.5 348l192.5 348h62l114 -696h-70zM368 616l-20.5 -39.5l-37 -69.5l-45.5 -85l-45.5 -85.5l-38 -71.5l-22.5 -42h268l-7.5 53l-10 69l-11 77l-11 76.5l-10 67l-7.5 50.5h-2zM333 845
c12 0 23.833 -2.33105 35.5 -6.99805s23.167 -9.66699 34.5 -15l33 -15c10.667 -4.66699 21 -7 31 -7s19.833 3 29.5 9s20.834 16.667 33.501 32l36 -23c-14.667 -28 -31.167 -47.5 -49.5 -58.5s-37.166 -16.5 -56.499 -16.5c-12 0 -23.833 2.16699 -35.5 6.5
s-23.334 9.16602 -35.001 14.499s-22.834 10.166 -33.501 14.499s-20.667 6.5 -30 6.5c-12 0 -22.333 -2.66699 -31 -8s-20 -14.666 -34 -27.999l-34 23c16 25.333 33 43.666 51 54.999s36.333 17 55 17z" />
    <glyph glyph-name="Adieresis" unicode="&#xc4;" horiz-adv-x="580" 
d="M459 0l-12 82.5c-4 27 -8.33301 54.5 -13 82.5h-305l-89 -165h-71l191.5 348l192.5 348h62l114 -696h-70zM368 616l-20.5 -39.5l-37 -69.5l-45.5 -85l-45.5 -85.5l-38 -71.5l-22.5 -42h268l-7.5 53l-10 69l-11 77l-11 76.5l-10 67l-7.5 50.5h-2zM449 751l14 71h72
l-14 -71h-72zM270 751l14 71h72l-14 -71h-72z" />
    <glyph glyph-name="Aring" unicode="&#xc5;" horiz-adv-x="580" 
d="M459 0l-12 82.5c-4 27 -8.33301 54.5 -13 82.5h-305l-89 -165h-71l191.5 348l192.5 348h62l114 -696h-70zM368 616l-20.5 -39.5l-37 -69.5l-45.5 -85l-45.5 -85.5l-38 -71.5l-22.5 -42h268l-7.5 53l-10 69l-11 77l-11 76.5l-10 67l-7.5 50.5h-2zM392 713
c-23.333 0 -42.332 7.33496 -56.999 22.002s-22 32.667 -22 54c0 15.333 3 29.833 9 43.5s14 25.667 24 36s22 18.5 36 24.5s29 9 45 9c23.333 0 42.5 -7.5 57.5 -22.5s22.5 -33.5 22.5 -55.5c0 -16.667 -3.33301 -31.834 -10 -45.501s-15.334 -25.334 -26.001 -35.001
s-23 -17.167 -37 -22.5s-28 -8 -42 -8zM420.001 866.002c-18.667 0 -35.0029 -7 -49.0029 -21s-21 -30.333 -21 -49c0 -13.333 4.33301 -24.5 13 -33.5s20.334 -13.5 35.001 -13.5c8.66699 0 17.334 1.83301 26.001 5.5s16.334 8.83398 23.001 15.501s12 14.167 16 22.5
s6 17.166 6 26.499c0 13.333 -4.5 24.5 -13.5 33.5s-20.833 13.5 -35.5 13.5z" />
    <glyph glyph-name="AE" unicode="&#xc6;" horiz-adv-x="949" 
d="M448 0l27 195h-276l-150 -195h-72l539 696h460l-8 -62h-363l-36 -252h310l-8 -60h-310l-37 -260h364l-9 -62h-431zM245 253h238l54 378z" />
    <glyph glyph-name="Ccedilla" unicode="&#xc7;" horiz-adv-x="536" 
d="M284 -117c0 16 -7.49414 27.335 -22.4941 34.002s-30.5 9.66699 -46.5 9l-13 12l13.5 29.5c4.33301 9.66699 9.16602 19.167 14.499 28.5c-35.333 4 -65.166 13.667 -89.499 29s-43.5 34.666 -57.5 57.999s-22.833 49.833 -26.5 79.5s-2.16699 60.5 4.5 92.5l39 198
c6.66699 33.333 17.167 65 31.5 95s33 56.333 56 79s50.167 40.667 81.5 54s67.666 20 108.999 20c54 0 98.5 -12.667 133.5 -38s59.5 -59 73.5 -101l-67 -29c-7.33301 30 -23.166 54.833 -47.499 74.5s-54.5 29.5 -90.5 29.5c-32.667 0 -61.334 -5.33301 -86.001 -16
s-45.667 -24.834 -63 -42.501s-31.5 -38.167 -42.5 -61.5s-18.833 -47.333 -23.5 -72l-37 -193c-5.33301 -25.333 -6.83301 -49.666 -4.5 -72.999s9 -44 20 -62s26.667 -32.5 47 -43.5s46.166 -16.5 77.499 -16.5c39.333 0 75.166 10 107.499 30s58.833 47 79.5 81l62 -30
c-26.667 -46 -61.667 -81.167 -105 -105.5s-91.666 -37.166 -144.999 -38.499c-6.66699 -12.667 -12.334 -24.334 -17.001 -35.001c16 -1.33301 29.5 -4.33301 40.5 -9s19.833 -10.334 26.5 -17.001s11.5 -14 14.5 -22s4.5 -15.667 4.5 -23c0 -10 -2.33301 -20.333 -7 -31
s-11.834 -20.167 -21.501 -28.5s-21.667 -15.333 -36 -21s-31.5 -8.5 -51.5 -8.5c-8.66699 0 -21.334 0.666992 -38.001 2s-32.667 5.33301 -48 12l16 37c12.667 -5.33301 25.5 -8.83301 38.5 -10.5s24.167 -2.5 33.5 -2.5c6 0 12.5 0.833008 19.5 2.5
s13.667 4.16699 20 7.5s11.666 8 15.999 14s6.5 13.333 6.5 22z" />
    <glyph glyph-name="Egrave" unicode="&#xc8;" horiz-adv-x="525" 
d="M35 0l136 696h410l-12 -62h-344l-48 -252h304l-12 -60h-304l-51 -260h373l-12 -62h-440zM401 734l-174 98l38 50l160 -115z" />
    <glyph glyph-name="Eacute" unicode="&#xc9;" horiz-adv-x="525" 
d="M339 767l163 115l38 -50l-178 -98zM35 0l136 696h423l-12 -62h-357l-48 -252h304l-12 -60h-304l-51 -260h356l-11 -62h-424z" />
    <glyph glyph-name="Ecircumflex" unicode="&#xca;" horiz-adv-x="525" 
d="M35 0l136 696h410l-12 -62h-344l-48 -252h304l-12 -60h-304l-51 -260h373l-12 -62h-440zM410 822l-161 -87l-17 30l165 120h45l111 -119l-30 -29z" />
    <glyph glyph-name="Edieresis" unicode="&#xcb;" horiz-adv-x="525" 
d="M35 0l136 696h410l-12 -62h-344l-48 -252h304l-12 -60h-304l-51 -260h373l-12 -62h-440zM440 751l14 71h72l-14 -71h-72zM261 751l14 71h72l-14 -71h-72z" />
    <glyph glyph-name="Igrave" unicode="&#xcc;" horiz-adv-x="222" 
d="M37 0l136 696h66l-135 -696h-67zM218 734l-174 98l38 50l160 -115z" />
    <glyph glyph-name="Iacute" unicode="&#xcd;" horiz-adv-x="222" 
d="M190 767l163 115l38 -50l-178 -98zM37 0l136 696h66l-135 -696h-67z" />
    <glyph glyph-name="Icircumflex" unicode="&#xce;" horiz-adv-x="222" 
d="M37 0l136 696h66l-135 -696h-67zM235 822l-161 -87l-17 30l165 120h45l111 -119l-30 -29z" />
    <glyph glyph-name="Idieresis" unicode="&#xcf;" horiz-adv-x="222" 
d="M37 0l136 696h66l-135 -696h-67zM271 763l15 70h70l-13 -70h-72zM95 763l14 70h70l-14 -70h-70z" />
    <glyph glyph-name="Eth" unicode="&#xd0;" horiz-adv-x="604" 
d="M22 341c1.33301 8.66699 2.83301 17.002 4.5 25.002s3.5 16.333 5.5 25h79l60 305h222c28 0 54.667 -3.33301 80 -10s47.5 -17.334 66.5 -32.001s34.167 -33.667 45.5 -57s17 -51.333 17 -84c0 -30 -2.66699 -64.167 -8 -102.5s-12 -75.833 -20 -112.5
s-16.833 -70.167 -26.5 -100.5s-18.5 -52.5 -26.5 -66.5c-16 -26.667 -33.333 -48.5 -52 -65.5s-38.5 -30.333 -59.5 -40s-43 -16.334 -66 -20.001s-46.5 -5.5 -70.5 -5.5h-237l66 341h-80zM226 634.002l-48 -243h137l-11 -50h-135l-55 -279h160c35.333 0 65.833 5 91.5 15
s47.5 24.333 65.5 43s32.667 41.167 44 67.5s20 55.833 26 88.5l24 127c6 30 9 57.667 9 83c0 48 -12.333 84.667 -37 110s-65 38 -121 38h-150z" />
    <glyph glyph-name="Ntilde" unicode="&#xd1;" horiz-adv-x="655" 
d="M475 0l-21 47.5l-31 70l-36 81l-36 81l-31 69.5l-22 48l-81 189h-2l-14 -72.5l-20 -103l-22.5 -118l-22.5 -118l-19.5 -102.5l-13.5 -72h-67l136 696h66l20.5 -46.5l30 -68.5l35 -79l35 -79l30 -68.5c9 -20.333 16.167 -35.833 21.5 -46.5l85 -198h2l14 72l20 102.5
l23 118l23 118l19.5 103l13.5 72.5h65l-135 -696h-65zM378 838c12 0 23.833 -2.33105 35.5 -6.99805s23.167 -9.66699 34.5 -15l33 -15c10.667 -4.66699 21 -7 31 -7s19.833 3 29.5 9s20.834 16.667 33.501 32l36 -23c-14.667 -28 -31.167 -47.5 -49.5 -58.5
s-37.166 -16.5 -56.499 -16.5c-12 0 -23.833 2.16699 -35.5 6.5s-23.334 9.16602 -35.001 14.499s-22.834 10.166 -33.501 14.499s-20.667 6.5 -30 6.5c-12 0 -22.333 -2.66699 -31 -8s-20 -14.666 -34 -27.999l-34 23c16 25.333 33 43.666 51 54.999s36.333 17 55 17z" />
    <glyph glyph-name="Ograve" unicode="&#xd2;" horiz-adv-x="573" 
d="M361 701c41.333 0 77.165 -6.99902 107.498 -20.999s54.5 -32.833 72.5 -56.5s30 -50.834 36 -81.501s5.66699 -63 -1 -97l-19 -98l-20 -99c-8 -38 -19 -72.667 -33 -104s-31.833 -58.166 -53.5 -80.499s-47.667 -39.5 -78 -51.5s-66.166 -18 -107.499 -18
c-36 0 -67.667 5.16699 -95 15.5s-50.166 24.5 -68.499 42.5s-32.166 39.167 -41.499 63.5s-14 50.5 -14 78.5c0 16.667 1.5 35.5 4.5 56.5s6.66699 42.833 11 65.5s9.16602 45.5 14.499 68.5l15 65.5c6.66699 33.333 16.667 65.166 30 95.499s30.666 57 51.999 80
s47.333 41.333 78 55s67.334 20.5 110.001 20.5zM354.999 640.001c-31.333 0 -58.501 -5.50098 -81.501 -16.501s-42.5 -25.667 -58.5 -44s-29 -39.166 -39 -62.499s-17.333 -47 -22 -71l-38 -196c-4.66699 -25.333 -5.66699 -49.666 -3 -72.999s10 -44.333 22 -63
s29.333 -33.5 52 -44.5s51.334 -16.5 86.001 -16.5c28.667 0 54 5 76 15s41 23.833 57 41.5s29.5 38.667 40.5 63s19.5 50.833 25.5 79.5l12.5 56l12.5 58c4 19.333 7.5 38 10.5 56s5.16699 35 6.5 51c3.33301 22.667 1.83301 44.167 -4.5 64.5s-16.5 38.166 -30.5 53.499
s-31.667 27.333 -53 36s-45 13 -71 13zM438.998 734l-174 98l38 50l160 -115z" />
    <glyph glyph-name="Oacute" unicode="&#xd3;" horiz-adv-x="573" 
d="M361 701c41.333 0 77.165 -6.99902 107.498 -20.999s54.5 -32.833 72.5 -56.5s30 -50.834 36 -81.501s5.66699 -63 -1 -97l-19 -98l-20 -99c-8 -38 -19 -72.667 -33 -104s-31.833 -58.166 -53.5 -80.499s-47.667 -39.5 -78 -51.5s-66.166 -18 -107.499 -18
c-36 0 -67.667 5.16699 -95 15.5s-50.166 24.5 -68.499 42.5s-32.166 39.167 -41.499 63.5s-14 50.5 -14 78.5c0 16.667 1.5 35.5 4.5 56.5s6.66699 42.833 11 65.5s9.16602 45.5 14.499 68.5l15 65.5c6.66699 33.333 16.667 65.166 30 95.499s30.666 57 51.999 80
s47.333 41.333 78 55s67.334 20.5 110.001 20.5zM354.999 640.001c-31.333 0 -58.501 -5.50098 -81.501 -16.501s-42.5 -25.667 -58.5 -44s-29 -39.166 -39 -62.499s-17.333 -47 -22 -71l-38 -196c-4.66699 -25.333 -5.66699 -49.666 -3 -72.999s10 -44.333 22 -63
s29.333 -33.5 52 -44.5s51.334 -16.5 86.001 -16.5c28.667 0 54 5 76 15s41 23.833 57 41.5s29.5 38.667 40.5 63s19.5 50.833 25.5 79.5l12.5 56l12.5 58c4 19.333 7.5 38 10.5 56s5.16699 35 6.5 51c3.33301 22.667 1.83301 44.167 -4.5 64.5s-16.5 38.166 -30.5 53.499
s-31.667 27.333 -53 36s-45 13 -71 13zM344.998 766l81.5 57.5l81.5 57.5l19 -25.5c6 -8.33301 12.333 -16.5 19 -24.5l-178 -98z" />
    <glyph glyph-name="Ocircumflex" unicode="&#xd4;" horiz-adv-x="573" 
d="M361 701c41.333 0 77.165 -6.99902 107.498 -20.999s54.5 -32.833 72.5 -56.5s30 -50.834 36 -81.501s5.66699 -63 -1 -97l-19 -98l-20 -99c-8 -38 -19 -72.667 -33 -104s-31.833 -58.166 -53.5 -80.499s-47.667 -39.5 -78 -51.5s-66.166 -18 -107.499 -18
c-36 0 -67.667 5.16699 -95 15.5s-50.166 24.5 -68.499 42.5s-32.166 39.167 -41.499 63.5s-14 50.5 -14 78.5c0 16.667 1.5 35.5 4.5 56.5s6.66699 42.833 11 65.5s9.16602 45.5 14.499 68.5l15 65.5c6.66699 33.333 16.667 65.166 30 95.499s30.666 57 51.999 80
s47.333 41.333 78 55s67.334 20.5 110.001 20.5zM354.999 640.001c-31.333 0 -58.501 -5.50098 -81.501 -16.501s-42.5 -25.667 -58.5 -44s-29 -39.166 -39 -62.499s-17.333 -47 -22 -71l-38 -196c-4.66699 -25.333 -5.66699 -49.666 -3 -72.999s10 -44.333 22 -63
s29.333 -33.5 52 -44.5s51.334 -16.5 86.001 -16.5c28.667 0 54 5 76 15s41 23.833 57 41.5s29.5 38.667 40.5 63s19.5 50.833 25.5 79.5l12.5 56l12.5 58c4 19.333 7.5 38 10.5 56s5.16699 35 6.5 51c3.33301 22.667 1.83301 44.167 -4.5 64.5s-16.5 38.166 -30.5 53.499
s-31.667 27.333 -53 36s-45 13 -71 13zM411.998 822l-161 -87l-17 30l165 120h45l111 -119l-30 -29z" />
    <glyph glyph-name="Otilde" unicode="&#xd5;" horiz-adv-x="573" 
d="M361 701c41.333 0 77.165 -6.99902 107.498 -20.999s54.5 -32.833 72.5 -56.5s30 -50.834 36 -81.501s5.66699 -63 -1 -97l-19 -98l-20 -99c-8 -38 -19 -72.667 -33 -104s-31.833 -58.166 -53.5 -80.499s-47.667 -39.5 -78 -51.5s-66.166 -18 -107.499 -18
c-36 0 -67.667 5.16699 -95 15.5s-50.166 24.5 -68.499 42.5s-32.166 39.167 -41.499 63.5s-14 50.5 -14 78.5c0 16.667 1.5 35.5 4.5 56.5s6.66699 42.833 11 65.5s9.16602 45.5 14.499 68.5l15 65.5c6.66699 33.333 16.667 65.166 30 95.499s30.666 57 51.999 80
s47.333 41.333 78 55s67.334 20.5 110.001 20.5zM354.999 640.001c-31.333 0 -58.501 -5.50098 -81.501 -16.501s-42.5 -25.667 -58.5 -44s-29 -39.166 -39 -62.499s-17.333 -47 -22 -71l-38 -196c-4.66699 -25.333 -5.66699 -49.666 -3 -72.999s10 -44.333 22 -63
s29.333 -33.5 52 -44.5s51.334 -16.5 86.001 -16.5c28.667 0 54 5 76 15s41 23.833 57 41.5s29.5 38.667 40.5 63s19.5 50.833 25.5 79.5l12.5 56l12.5 58c4 19.333 7.5 38 10.5 56s5.16699 35 6.5 51c3.33301 22.667 1.83301 44.167 -4.5 64.5s-16.5 38.166 -30.5 53.499
s-31.667 27.333 -53 36s-45 13 -71 13zM348.998 845c12 0 23.833 -2.33105 35.5 -6.99805s23.167 -9.66699 34.5 -15l33 -15c10.667 -4.66699 21 -7 31 -7s19.833 3 29.5 9s20.834 16.667 33.501 32l36 -23c-14.667 -28 -31.167 -47.5 -49.5 -58.5
s-37.166 -16.5 -56.499 -16.5c-12 0 -23.833 2.16699 -35.5 6.5s-23.334 9.16602 -35.001 14.499s-22.834 10.166 -33.501 14.499s-20.667 6.5 -30 6.5c-12 0 -22.333 -2.66699 -31 -8s-20 -14.666 -34 -27.999l-34 23c16 25.333 33 43.666 51 54.999s36.333 17 55 17z" />
    <glyph glyph-name="Odieresis" unicode="&#xd6;" horiz-adv-x="573" 
d="M361 701c41.333 0 77.165 -6.99902 107.498 -20.999s54.5 -32.833 72.5 -56.5s30 -50.834 36 -81.501s5.66699 -63 -1 -97l-19 -98l-20 -99c-8 -38 -19 -72.667 -33 -104s-31.833 -58.166 -53.5 -80.499s-47.667 -39.5 -78 -51.5s-66.166 -18 -107.499 -18
c-36 0 -67.667 5.16699 -95 15.5s-50.166 24.5 -68.499 42.5s-32.166 39.167 -41.499 63.5s-14 50.5 -14 78.5c0 16.667 1.5 35.5 4.5 56.5s6.66699 42.833 11 65.5s9.16602 45.5 14.499 68.5l15 65.5c6.66699 33.333 16.667 65.166 30 95.499s30.666 57 51.999 80
s47.333 41.333 78 55s67.334 20.5 110.001 20.5zM354.999 640.001c-31.333 0 -58.501 -5.50098 -81.501 -16.501s-42.5 -25.667 -58.5 -44s-29 -39.166 -39 -62.499s-17.333 -47 -22 -71l-38 -196c-4.66699 -25.333 -5.66699 -49.666 -3 -72.999s10 -44.333 22 -63
s29.333 -33.5 52 -44.5s51.334 -16.5 86.001 -16.5c28.667 0 54 5 76 15s41 23.833 57 41.5s29.5 38.667 40.5 63s19.5 50.833 25.5 79.5l12.5 56l12.5 58c4 19.333 7.5 38 10.5 56s5.16699 35 6.5 51c3.33301 22.667 1.83301 44.167 -4.5 64.5s-16.5 38.166 -30.5 53.499
s-31.667 27.333 -53 36s-45 13 -71 13zM450.998 751l14 71h72l-14 -71h-72zM271.998 751l14 71h72l-14 -71h-72z" />
    <glyph glyph-name="multiply" unicode="&#xd7;" horiz-adv-x="541" 
d="M314 245l131 -167l-40 -30l-131 167l-194 -159l-30 39l194 159l-126 162l39 31l127 -162l193 158l30 -40z" />
    <glyph glyph-name="Oslash" unicode="&#xd8;" horiz-adv-x="583" 
d="M372 701c36 0 67.168 -5.33203 93.501 -15.999s48.166 -25.334 65.499 -44.001l49 58l30 -23l-56 -66c13.333 -22.667 21.833 -48.167 25.5 -76.5s2.5 -57.833 -3.5 -88.5l-19 -98l-20 -99c-8 -38 -20 -72.667 -36 -104s-35.667 -58.166 -59 -80.499
s-50.666 -39.5 -81.999 -51.5s-66.333 -18 -105 -18c-38 0 -71 6.33301 -99 19s-50.667 29.667 -68 51l-56 -66l-30 23l65 76c-14 28.667 -21 61 -21 97c0 16.667 1.5 35.5 4.5 56.5s6.66699 42.833 11 65.5s9.16602 45.5 14.499 68.5l15 65.5
c6.66699 33.333 17.167 65.166 31.5 95.499s32.833 57 55.5 80s50 41.333 82 55s69.333 20.5 112 20.5zM514.001 473.001c4 28.667 1.33301 55.332 -8 79.999l-373 -437c11.333 -19.333 27.666 -34.666 48.999 -45.999s48.333 -17 81 -17c26.667 0 51.5 5 74.5 15
s43.333 23.833 61 41.5s32.834 38.667 45.501 63s22 50.833 28 79.5l12.5 56l12.5 58c4 19.333 7.5 38 10.5 56s5.16699 35 6.5 51zM365.001 639.999c-31.333 0 -59 -5.49902 -83 -16.499s-44.667 -25.667 -62 -44s-31.5 -39.166 -42.5 -62.499s-18.833 -47 -23.5 -71
l-38 -196c-3.33301 -16.667 -5 -32.834 -5 -48.501s2 -30.834 6 -45.501l369 432c-13.333 16 -30 28.667 -50 38s-43.667 14 -71 14z" />
    <glyph glyph-name="Ugrave" unicode="&#xd9;" horiz-adv-x="600" 
d="M542 229c-7.33301 -35.333 -18.833 -67.499 -34.5 -96.499s-35.167 -53.667 -58.5 -74s-50.5 -36.166 -81.5 -47.499s-64.833 -17 -101.5 -17c-33.333 0 -63.666 5.83301 -90.999 17.5s-50 28.167 -68 49.5s-30.667 47 -38 77s-7.33301 63.667 0 101l89 457h66l-87 -445
c-5.33301 -28 -6.5 -53.833 -3.5 -77.5s10.333 -44.334 22 -62.001s27.167 -31.334 46.5 -41.001s42.666 -14.5 69.999 -14.5c52 0 96.333 16.5 133 49.5s60.667 78.167 72 135.5l89 455h67zM435 734.001l-174 98l38 50l160 -115z" />
    <glyph glyph-name="Uacute" unicode="&#xda;" horiz-adv-x="600" 
d="M339 767l163 115l38 -50l-178 -98zM542 229c-7.33301 -35.333 -18.833 -67.499 -34.5 -96.499s-35.167 -53.667 -58.5 -74s-50.5 -36.166 -81.5 -47.499s-64.833 -17 -101.5 -17c-33.333 0 -63.666 5.83301 -90.999 17.5s-50 28.167 -68 49.5s-30.667 47 -38 77
s-7.33301 63.667 0 101l89 457h66l-87 -445c-5.33301 -28 -6.5 -53.833 -3.5 -77.5s10.333 -44.334 22 -62.001s27.167 -31.334 46.5 -41.001s42.666 -14.5 69.999 -14.5c52 0 96.333 16.5 133 49.5s60.667 78.167 72 135.5l89 455h67z" />
    <glyph glyph-name="Ucircumflex" unicode="&#xdb;" horiz-adv-x="600" 
d="M542 229c-7.33301 -35.333 -18.833 -67.499 -34.5 -96.499s-35.167 -53.667 -58.5 -74s-50.5 -36.166 -81.5 -47.499s-64.833 -17 -101.5 -17c-33.333 0 -63.666 5.83301 -90.999 17.5s-50 28.167 -68 49.5s-30.667 47 -38 77s-7.33301 63.667 0 101l89 457h66l-87 -445
c-5.33301 -28 -6.5 -53.833 -3.5 -77.5s10.333 -44.334 22 -62.001s27.167 -31.334 46.5 -41.001s42.666 -14.5 69.999 -14.5c52 0 96.333 16.5 133 49.5s60.667 78.167 72 135.5l89 455h67zM425 822.001l-161 -87l-17 30l165 120h45l111 -119l-30 -29z" />
    <glyph glyph-name="Udieresis" unicode="&#xdc;" horiz-adv-x="600" 
d="M542 229c-7.33301 -35.333 -18.833 -67.499 -34.5 -96.499s-35.167 -53.667 -58.5 -74s-50.5 -36.166 -81.5 -47.499s-64.833 -17 -101.5 -17c-33.333 0 -63.666 5.83301 -90.999 17.5s-50 28.167 -68 49.5s-30.667 47 -38 77s-7.33301 63.667 0 101l89 457h66l-87 -445
c-5.33301 -28 -6.5 -53.833 -3.5 -77.5s10.333 -44.334 22 -62.001s27.167 -31.334 46.5 -41.001s42.666 -14.5 69.999 -14.5c52 0 96.333 16.5 133 49.5s60.667 78.167 72 135.5l89 455h67zM451 751.001l14 71h72l-14 -71h-72zM272 751.001l14 71h72l-14 -71h-72z" />
    <glyph glyph-name="Yacute" unicode="&#xdd;" horiz-adv-x="482" 
d="M231 0h-63l56 287l-62 204.5l-63 204.5h65c9.33301 -33.333 19.333 -67.333 30 -102l36 -120l19 -69c6.66699 -24 11.667 -43 15 -57l96 143l15 22l25 36.5l30 44l30 44l24.5 36.5l14.5 22h71l-141 -204.5l-142 -204.5zM288 766l81.5 57.5l81.5 57.5l19 -25.5
c6 -8.33301 12.333 -16.5 19 -24.5l-178 -98z" />
    <glyph glyph-name="Thorn" unicode="&#xde;" horiz-adv-x="564" 
d="M171 694h67.998l-26 -135h183c24.667 0 48.167 -3.33301 70.5 -10s41.833 -17 58.5 -31s29.834 -31.333 39.501 -52s14.5 -45 14.5 -73c0 -26 -5.16699 -53.167 -15.5 -81.5s-25.666 -54.333 -45.999 -78s-46 -43.167 -77 -58.5s-67.5 -23 -109.5 -23h-197l-29 -152h-68z
M335.998 214c26.667 0 50.667 5.16797 72 15.501s39.333 23.666 54 39.999s25.834 34.5 33.501 54.5s11.5 39.333 11.5 58c0 36 -10.833 64.167 -32.5 84.5s-50.834 30.5 -87.501 30.5h-185l-55 -283h189z" />
    <glyph glyph-name="germandbls" unicode="&#xdf;" horiz-adv-x="503" 
d="M341 722c26 0 48.6641 -4.16602 67.9971 -12.499s35.166 -19.333 47.499 -33s21.5 -29.5 27.5 -47.5s9 -36.667 9 -56c0 -14 -2 -29 -6 -45s-10.333 -31.5 -19 -46.5s-19.667 -28.667 -33 -41s-29.333 -21.833 -48 -28.5c28 -10 47.667 -26.667 59 -50s17 -50 17 -80
c0 -37.333 -5.33301 -73.333 -16 -108s-26 -65.167 -46 -91.5s-44.167 -47.333 -72.5 -63s-60.166 -23.5 -95.499 -23.5c-7.33301 0 -14.166 0.5 -20.499 1.5s-12.833 2.16699 -19.5 3.5l9 57c7.33301 -2.66699 17 -4 29 -4c28 0 52.5 7.66699 73.5 23
s38.667 34.666 53 57.999s25.166 48.333 32.499 75s11 51.667 11 75c0 29.333 -7.33301 53 -22 71s-38 27 -70 27h-27l11 54c22.667 0 42.5 3.83301 59.5 11.5s31.333 17.667 43 30s20.334 26.333 26.001 42s8.5 31.167 8.5 46.5c0 12.667 -1.83301 25 -5.5 37
s-9.5 22.667 -17.5 32s-18.167 16.833 -30.5 22.5s-27.166 8.5 -44.499 8.5c-21.333 0 -39.666 -3.66699 -54.999 -11s-28.5 -16.833 -39.5 -28.5s-19.833 -24.5 -26.5 -38.5s-11.667 -27.333 -15 -40l-13.5 -67.5l-18.5 -94.5l-21 -108.5l-21.5 -109.5l-19 -97.5
l-13.5 -71.5h-63l103 532c10.667 57.333 33.667 103.333 69 138s83 52 143 52z" />
    <glyph glyph-name="agrave" unicode="&#xe0;" horiz-adv-x="493" 
d="M286 501c12.667 0 25.5 -1.50391 38.5 -4.50391s25.167 -7.66699 36.5 -14s21.5 -14.166 30.5 -23.499s15.5 -20.333 19.5 -33l3 1l15 68h60l-97 -495h-62l14 65l-3 2c-20 -24.667 -41.5 -43 -64.5 -55s-50.5 -18 -82.5 -18c-26 0 -48.167 4.33301 -66.5 13
s-33.333 20.834 -45 36.501s-20.167 34 -25.5 55s-8 43.5 -8 67.5c0 23.333 2 47.833 6 73.5s10 50.834 18 75.501s18.5 48.334 31.5 71.001s28.167 42.5 45.5 59.5s37.333 30.5 60 40.5s48 15 76 15zM111 167.996c0 -14 1.66797 -27.8301 5.00098 -41.4971
s9 -25.834 17 -36.501s18.333 -19.334 31 -26.001s28.667 -10 48 -10c31.333 0 58.166 9.33301 80.499 28s40.833 41.834 55.5 69.501s25.334 57.167 32.001 88.5s10 59.666 10 84.999c0 34 -8 62.5 -24 85.5s-41.667 34.5 -77 34.5s-64.333 -10.167 -87 -30.5
s-40.834 -45 -54.501 -74s-23.167 -59.333 -28.5 -91s-8 -58.834 -8 -81.501zM331.001 558.999l-95 163l54 19l79 -168z" />
    <glyph glyph-name="aacute" unicode="&#xe1;" horiz-adv-x="493" 
d="M286 501c12.667 0 25.5 -1.50391 38.5 -4.50391s25.167 -7.66699 36.5 -14s21.5 -14.166 30.5 -23.499s15.5 -20.333 19.5 -33l3 1l15 68h60l-97 -495h-62l14 65l-3 2c-20 -24.667 -41.5 -43 -64.5 -55s-50.5 -18 -82.5 -18c-26 0 -48.167 4.33301 -66.5 13
s-33.333 20.834 -45 36.501s-20.167 34 -25.5 55s-8 43.5 -8 67.5c0 23.333 2 47.833 6 73.5s10 50.834 18 75.501s18.5 48.334 31.5 71.001s28.167 42.5 45.5 59.5s37.333 30.5 60 40.5s48 15 76 15zM111 167.996c0 -14 1.66797 -27.8301 5.00098 -41.4971
s9 -25.834 17 -36.501s18.333 -19.334 31 -26.001s28.667 -10 48 -10c31.333 0 58.166 9.33301 80.499 28s40.833 41.834 55.5 69.501s25.334 57.167 32.001 88.5s10 59.666 10 84.999c0 34 -8 62.5 -24 85.5s-41.667 34.5 -77 34.5s-64.333 -10.167 -87 -30.5
s-40.834 -45 -54.501 -74s-23.167 -59.333 -28.5 -91s-8 -58.834 -8 -81.501zM277.001 572.999l98 166l61 -22l-122 -160z" />
    <glyph glyph-name="acircumflex" unicode="&#xe2;" horiz-adv-x="493" 
d="M286 501c12.667 0 25.5 -1.50391 38.5 -4.50391s25.167 -7.66699 36.5 -14s21.5 -14.166 30.5 -23.499s15.5 -20.333 19.5 -33l3 1l15 68h60l-97 -495h-62l14 65l-3 2c-20 -24.667 -41.5 -43 -64.5 -55s-50.5 -18 -82.5 -18c-26 0 -48.167 4.33301 -66.5 13
s-33.333 20.834 -45 36.501s-20.167 34 -25.5 55s-8 43.5 -8 67.5c0 23.333 2 47.833 6 73.5s10 50.834 18 75.501s18.5 48.334 31.5 71.001s28.167 42.5 45.5 59.5s37.333 30.5 60 40.5s48 15 76 15zM111 167.996c0 -14 1.66797 -27.8301 5.00098 -41.4971
s9 -25.834 17 -36.501s18.333 -19.334 31 -26.001s28.667 -10 48 -10c31.333 0 58.166 9.33301 80.499 28s40.833 41.834 55.5 69.501s25.334 57.167 32.001 88.5s10 59.666 10 84.999c0 34 -8 62.5 -24 85.5s-41.667 34.5 -77 34.5s-64.333 -10.167 -87 -30.5
s-40.834 -45 -54.501 -74s-23.167 -59.333 -28.5 -91s-8 -58.834 -8 -81.501zM351.001 664.999l-157 -105l-25 30l168 139h46l108 -137l-37 -31z" />
    <glyph glyph-name="atilde" unicode="&#xe3;" horiz-adv-x="493" 
d="M286 501c12.667 0 25.5 -1.50391 38.5 -4.50391s25.167 -7.66699 36.5 -14s21.5 -14.166 30.5 -23.499s15.5 -20.333 19.5 -33l3 1l15 68h60l-97 -495h-62l14 65l-3 2c-20 -24.667 -41.5 -43 -64.5 -55s-50.5 -18 -82.5 -18c-26 0 -48.167 4.33301 -66.5 13
s-33.333 20.834 -45 36.501s-20.167 34 -25.5 55s-8 43.5 -8 67.5c0 23.333 2 47.833 6 73.5s10 50.834 18 75.501s18.5 48.334 31.5 71.001s28.167 42.5 45.5 59.5s37.333 30.5 60 40.5s48 15 76 15zM111 167.996c0 -14 1.66797 -27.8301 5.00098 -41.4971
s9 -25.834 17 -36.501s18.333 -19.334 31 -26.001s28.667 -10 48 -10c31.333 0 58.166 9.33301 80.499 28s40.833 41.834 55.5 69.501s25.334 57.167 32.001 88.5s10 59.666 10 84.999c0 34 -8 62.5 -24 85.5s-41.667 34.5 -77 34.5s-64.333 -10.167 -87 -30.5
s-40.834 -45 -54.501 -74s-23.167 -59.333 -28.5 -91s-8 -58.834 -8 -81.501zM278.001 688.999c12 0 23.833 -2.33105 35.5 -6.99805s23.167 -9.66699 34.5 -15l33 -15c10.667 -4.66699 21 -7 31 -7s19.833 3 29.5 9s20.834 16.667 33.501 32l36 -23
c-14.667 -28 -31.167 -47.5 -49.5 -58.5s-37.166 -16.5 -56.499 -16.5c-12 0 -23.833 2.16699 -35.5 6.5s-23.334 9.16602 -35.001 14.499s-22.834 10.166 -33.501 14.499s-20.667 6.5 -30 6.5c-12 0 -22.333 -2.66699 -31 -8s-20 -14.666 -34 -27.999l-34 23
c16 25.333 33 43.666 51 54.999s36.333 17 55 17z" />
    <glyph glyph-name="adieresis" unicode="&#xe4;" horiz-adv-x="493" 
d="M286 501c12.667 0 25.5 -1.50391 38.5 -4.50391s25.167 -7.66699 36.5 -14s21.5 -14.166 30.5 -23.499s15.5 -20.333 19.5 -33l3 1l15 68h60l-97 -495h-62l14 65l-3 2c-20 -24.667 -41.5 -43 -64.5 -55s-50.5 -18 -82.5 -18c-26 0 -48.167 4.33301 -66.5 13
s-33.333 20.834 -45 36.501s-20.167 34 -25.5 55s-8 43.5 -8 67.5c0 23.333 2 47.833 6 73.5s10 50.834 18 75.501s18.5 48.334 31.5 71.001s28.167 42.5 45.5 59.5s37.333 30.5 60 40.5s48 15 76 15zM111 167.996c0 -14 1.66797 -27.8301 5.00098 -41.4971
s9 -25.834 17 -36.501s18.333 -19.334 31 -26.001s28.667 -10 48 -10c31.333 0 58.166 9.33301 80.499 28s40.833 41.834 55.5 69.501s25.334 57.167 32.001 88.5s10 59.666 10 84.999c0 34 -8 62.5 -24 85.5s-41.667 34.5 -77 34.5s-64.333 -10.167 -87 -30.5
s-40.834 -45 -54.501 -74s-23.167 -59.333 -28.5 -91s-8 -58.834 -8 -81.501zM382.001 601.999l13 72h71l-14 -72h-70zM199.001 601.999l14 72h70l-14 -72h-70z" />
    <glyph glyph-name="aring" unicode="&#xe5;" horiz-adv-x="493" 
d="M286 501c12.667 0 25.5 -1.50391 38.5 -4.50391s25.167 -7.66699 36.5 -14s21.5 -14.166 30.5 -23.499s15.5 -20.333 19.5 -33l3 1l15 68h60l-97 -495h-62l14 65l-3 2c-20 -24.667 -41.5 -43 -64.5 -55s-50.5 -18 -82.5 -18c-26 0 -48.167 4.33301 -66.5 13
s-33.333 20.834 -45 36.501s-20.167 34 -25.5 55s-8 43.5 -8 67.5c0 23.333 2 47.833 6 73.5s10 50.834 18 75.501s18.5 48.334 31.5 71.001s28.167 42.5 45.5 59.5s37.333 30.5 60 40.5s48 15 76 15zM111 167.996c0 -14 1.66797 -27.8301 5.00098 -41.4971
s9 -25.834 17 -36.501s18.333 -19.334 31 -26.001s28.667 -10 48 -10c31.333 0 58.166 9.33301 80.499 28s40.833 41.834 55.5 69.501s25.334 57.167 32.001 88.5s10 59.666 10 84.999c0 34 -8 62.5 -24 85.5s-41.667 34.5 -77 34.5s-64.333 -10.167 -87 -30.5
s-40.834 -45 -54.501 -74s-23.167 -59.333 -28.5 -91s-8 -58.834 -8 -81.501zM322.001 548.999c-23.333 0 -42.332 7.33496 -56.999 22.002s-22 32.667 -22 54c0 15.333 3 29.833 9 43.5s14 25.667 24 36s22 18.5 36 24.5s29 9 45 9c23.333 0 42.5 -7.5 57.5 -22.5
s22.5 -33.5 22.5 -55.5c0 -16.667 -3.33301 -31.834 -10 -45.501s-15.334 -25.334 -26.001 -35.001s-23 -17.167 -37 -22.5s-28 -8 -42 -8zM350.002 702.001c-18.667 0 -35.0029 -7 -49.0029 -21s-21 -30.333 -21 -49c0 -13.333 4.33301 -24.5 13 -33.5
s20.334 -13.5 35.001 -13.5c8.66699 0 17.334 1.83301 26.001 5.5s16.334 8.83398 23.001 15.501s12 14.167 16 22.5s6 17.166 6 26.499c0 13.333 -4.5 24.5 -13.5 33.5s-20.833 13.5 -35.5 13.5z" />
    <glyph glyph-name="ae" unicode="&#xe6;" horiz-adv-x="804" 
d="M711 49c-24 -17.333 -51.4971 -30.832 -82.4971 -40.499s-61.5 -14.5 -91.5 -14.5c-43.333 0 -77.5 8.5 -102.5 25.5s-42.167 41.833 -51.5 74.5c-21.333 -32 -49.333 -56.667 -84 -74s-77.334 -26 -128.001 -26c-20.667 0 -39.667 3.16699 -57 9.5s-32.5 15 -45.5 26
s-23.167 24.167 -30.5 39.5s-11 32.333 -11 51c0 25.333 4.66699 48 14 68s22.166 37 38.499 51s36 24.667 59 32s48.167 11 75.5 11c17.333 0 32.666 -0.333008 45.999 -1s26.333 -1.66699 39 -3s25.334 -2.83301 38.001 -4.5s27.334 -3.5 44.001 -5.5l11 53.5
c3.33301 15.667 5 30.5 5 44.5c0 25.333 -8 44.333 -24 57s-43.333 19 -82 19c-31.333 0 -58.333 -3.83301 -81 -11.5s-42.667 -18.5 -60 -32.5l-35 43c26 21.333 55 36.666 87 45.999s63 14 93 14c18.667 0 36.667 -1.16699 54 -3.5s33 -6.5 47 -12.5
s26.167 -13.833 36.5 -23.5s18.166 -21.834 23.499 -36.501c19.333 22.667 42.166 41 68.499 55s57.166 21 92.499 21c54 0 95.5 -11.833 124.5 -35.5s43.5 -55.5 43.5 -95.5c0 -21.333 -4.33301 -41.666 -13 -60.999s-23.167 -36.5 -43.5 -51.5s-47 -27.167 -80 -36.5
s-73.833 -14.333 -122.5 -15c-14 0 -28.333 0.166992 -43 0.5s-30.334 0.833008 -47.001 1.5c-1.33301 -8.66699 -2.16602 -16 -2.49902 -22s-0.5 -11.333 -0.5 -16c0 -46 9.5 -77.333 28.5 -94s46.833 -25 83.5 -25c19.333 0 41.333 3.5 66 10.5s48.334 18.167 71.001 33.5
zM87.0029 133.001c0 -25.333 7.83203 -45.502 23.499 -60.502s43.167 -22.5 82.5 -22.5c18.667 0 37.334 2.66699 56.001 8s35.5 12.833 50.5 22.5s27.833 21.334 38.5 35.001s17.667 28.834 21 45.501l11 56l-40 5.5c-12 1.66699 -23.667 3.16699 -35 4.5
s-22.833 2.33301 -34.5 3s-24.5 1 -38.5 1c-37.333 0 -68.333 -8.66699 -93 -26s-38.667 -41.333 -42 -72zM614.002 442.999c-27.333 0 -50.6689 -5.33203 -70.002 -15.999s-35.666 -24.5 -48.999 -41.5s-23.833 -36.167 -31.5 -57.5s-13.5 -43 -17.5 -65
c28.667 -2 55.334 -3 80.001 -3c38.667 0.666992 70.667 4 96 10s45.5 13.833 60.5 23.5s25.5 20.5 31.5 32.5s9 24 9 36c0 25.333 -9.33301 45.166 -28 59.499s-45.667 21.5 -81 21.5z" />
    <glyph glyph-name="ccedilla" unicode="&#xe7;" horiz-adv-x="414" 
d="M223 -117c0 16 -7.49512 27.3359 -22.4951 34.0029s-30.5 9.66699 -46.5 9l-13 12l28 59c-47.333 6.66699 -82.166 26.667 -104.499 60s-33.5 76 -33.5 128c0 40 5.5 79 16.5 117s27.5 71.667 49.5 101s49.5 53 82.5 71s71.5 27 115.5 27
c28 0 55.167 -5.16699 81.5 -15.5s48.5 -25.833 66.5 -46.5l-50 -46c-13.333 14 -29 25.5 -47 34.5s-36.667 13.5 -56 13.5c-34 0 -63.333 -7.33301 -88 -22s-45 -33.834 -61 -57.501s-27.833 -50.334 -35.5 -80.001s-11.5 -59.5 -11.5 -89.5
c0 -43.333 10 -77.166 30 -101.499s52.667 -36.5 98 -36.5c19.333 0 39.666 5.16699 60.999 15.5s39.666 20.833 54.999 31.5l33 -45c-23.333 -19.333 -49 -34.5 -77 -45.5s-57.333 -16.5 -88 -16.5c-6.66699 -12.667 -12.334 -24.334 -17.001 -35.001
c16 -1.33301 29.5 -4.33301 40.5 -9s19.833 -10.334 26.5 -17.001s11.5 -14 14.5 -22s4.5 -15.667 4.5 -23c0 -10 -2.33301 -20.333 -7 -31s-11.834 -20.167 -21.501 -28.5s-21.667 -15.333 -36 -21s-31.5 -8.5 -51.5 -8.5c-8.66699 0 -21.334 0.666992 -38.001 2
s-32.667 5.33301 -48 12l16 37c12.667 -5.33301 25.5 -8.83301 38.5 -10.5s24.167 -2.5 33.5 -2.5c6 0 12.5 0.833008 19.5 2.5s13.667 4.16699 20 7.5s11.666 8 15.999 14s6.5 13.333 6.5 22z" />
    <glyph glyph-name="egrave" unicode="&#xe8;" horiz-adv-x="462" 
d="M285 501c54 0 95.6641 -12.002 124.997 -36.002s44 -56 44 -96c0 -21.333 -4.33301 -41.833 -13 -61.5s-24 -37 -46 -52s-51.667 -27 -89 -36s-85 -13.5 -143 -13.5c-7.33301 0 -16.666 0.166992 -27.999 0.5s-21.666 0.833008 -30.999 1.5
c-2 -17.333 -3 -29.666 -3 -36.999c0 -43.333 9.66699 -74.166 29 -92.499s47 -27.5 83 -27.5c10 0 21 1.16699 33 3.5s24 5.5 36 9.5s23.833 8.66699 35.5 14s21.834 11 30.501 17l31 -45c-24 -17.333 -51.5 -31 -82.5 -41s-61.5 -15 -91.5 -15
c-56.667 0 -98.167 15 -124.5 45s-39.5 74 -39.5 132c0 38 4.5 76.5 13.5 115.5s23.333 74.5 43 106.5s45 58 76 78s68.167 30 111.5 30zM281.997 443.998c-27.333 0 -50.666 -5.33301 -69.999 -16s-35.666 -24.5 -48.999 -41.5s-23.833 -36.167 -31.5 -57.5
s-13.5 -43 -17.5 -65c11.333 -1.33301 22.666 -2 33.999 -2h29c46.667 0 84 3.5 112 10.5s49.5 15.5 64.5 25.5s24.833 20.833 29.5 32.5s7 22.167 7 31.5c0 25.333 -9.33301 45.333 -28 60s-45.334 22 -80.001 22zM306.997 558.998l-95 163l54 19l79 -168z" />
    <glyph glyph-name="eacute" unicode="&#xe9;" horiz-adv-x="462" 
d="M285 501c54 0 95.6641 -12.002 124.997 -36.002s44 -56 44 -96c0 -21.333 -4.33301 -41.833 -13 -61.5s-24 -37 -46 -52s-51.667 -27 -89 -36s-85 -13.5 -143 -13.5c-7.33301 0 -16.666 0.166992 -27.999 0.5s-21.666 0.833008 -30.999 1.5
c-2 -17.333 -3 -29.666 -3 -36.999c0 -43.333 9.66699 -74.166 29 -92.499s47 -27.5 83 -27.5c10 0 21 1.16699 33 3.5s24 5.5 36 9.5s23.833 8.66699 35.5 14s21.834 11 30.501 17l31 -45c-24 -17.333 -51.5 -31 -82.5 -41s-61.5 -15 -91.5 -15
c-56.667 0 -98.167 15 -124.5 45s-39.5 74 -39.5 132c0 38 4.5 76.5 13.5 115.5s23.333 74.5 43 106.5s45 58 76 78s68.167 30 111.5 30zM281.997 443.998c-27.333 0 -50.666 -5.33301 -69.999 -16s-35.666 -24.5 -48.999 -41.5s-23.833 -36.167 -31.5 -57.5
s-13.5 -43 -17.5 -65c11.333 -1.33301 22.666 -2 33.999 -2h29c46.667 0 84 3.5 112 10.5s49.5 15.5 64.5 25.5s24.833 20.833 29.5 32.5s7 22.167 7 31.5c0 25.333 -9.33301 45.333 -28 60s-45.334 22 -80.001 22zM266.997 572.998l98 166l61 -22l-122 -160z" />
    <glyph glyph-name="ecircumflex" unicode="&#xea;" horiz-adv-x="462" 
d="M285 501c54 0 95.6641 -12.002 124.997 -36.002s44 -56 44 -96c0 -21.333 -4.33301 -41.833 -13 -61.5s-24 -37 -46 -52s-51.667 -27 -89 -36s-85 -13.5 -143 -13.5c-7.33301 0 -16.666 0.166992 -27.999 0.5s-21.666 0.833008 -30.999 1.5
c-2 -17.333 -3 -29.666 -3 -36.999c0 -43.333 9.66699 -74.166 29 -92.499s47 -27.5 83 -27.5c10 0 21 1.16699 33 3.5s24 5.5 36 9.5s23.833 8.66699 35.5 14s21.834 11 30.501 17l31 -45c-24 -17.333 -51.5 -31 -82.5 -41s-61.5 -15 -91.5 -15
c-56.667 0 -98.167 15 -124.5 45s-39.5 74 -39.5 132c0 38 4.5 76.5 13.5 115.5s23.333 74.5 43 106.5s45 58 76 78s68.167 30 111.5 30zM281.997 443.998c-27.333 0 -50.666 -5.33301 -69.999 -16s-35.666 -24.5 -48.999 -41.5s-23.833 -36.167 -31.5 -57.5
s-13.5 -43 -17.5 -65c11.333 -1.33301 22.666 -2 33.999 -2h29c46.667 0 84 3.5 112 10.5s49.5 15.5 64.5 25.5s24.833 20.833 29.5 32.5s7 22.167 7 31.5c0 25.333 -9.33301 45.333 -28 60s-45.334 22 -80.001 22zM328.997 664.998l-157 -105l-25 30l168 139h46l108 -137
l-37 -31z" />
    <glyph glyph-name="edieresis" unicode="&#xeb;" horiz-adv-x="462" 
d="M285 501c54 0 95.6641 -12.002 124.997 -36.002s44 -56 44 -96c0 -21.333 -4.33301 -41.833 -13 -61.5s-24 -37 -46 -52s-51.667 -27 -89 -36s-85 -13.5 -143 -13.5c-7.33301 0 -16.666 0.166992 -27.999 0.5s-21.666 0.833008 -30.999 1.5
c-2 -17.333 -3 -29.666 -3 -36.999c0 -43.333 9.66699 -74.166 29 -92.499s47 -27.5 83 -27.5c10 0 21 1.16699 33 3.5s24 5.5 36 9.5s23.833 8.66699 35.5 14s21.834 11 30.501 17l31 -45c-24 -17.333 -51.5 -31 -82.5 -41s-61.5 -15 -91.5 -15
c-56.667 0 -98.167 15 -124.5 45s-39.5 74 -39.5 132c0 38 4.5 76.5 13.5 115.5s23.333 74.5 43 106.5s45 58 76 78s68.167 30 111.5 30zM281.997 443.998c-27.333 0 -50.666 -5.33301 -69.999 -16s-35.666 -24.5 -48.999 -41.5s-23.833 -36.167 -31.5 -57.5
s-13.5 -43 -17.5 -65c11.333 -1.33301 22.666 -2 33.999 -2h29c46.667 0 84 3.5 112 10.5s49.5 15.5 64.5 25.5s24.833 20.833 29.5 32.5s7 22.167 7 31.5c0 25.333 -9.33301 45.333 -28 60s-45.334 22 -80.001 22zM370.997 601.998l13 72h71l-14 -72h-70zM187.997 601.998
l14 72h70l-14 -72h-70z" />
    <glyph glyph-name="igrave" unicode="&#xec;" horiz-adv-x="208" 
d="M53 0l96 495h62l-96 -495h-62zM171 559l-95 163l54 19l79 -168z" />
    <glyph glyph-name="iacute" unicode="&#xed;" horiz-adv-x="208" 
d="M33 0l96 495h62l-96 -495h-62zM146 573l98 166l61 -22l-122 -160z" />
    <glyph glyph-name="icircumflex" unicode="&#xee;" horiz-adv-x="244" 
d="M53 0l96 495h62l-96 -495h-62zM217 665l-157 -105l-25 30l168 139h46l108 -137l-37 -31z" />
    <glyph glyph-name="idieresis" unicode="&#xef;" horiz-adv-x="208" 
d="M33 0l96 495h62l-96 -495h-62zM234 602l13 72h71l-14 -72h-70zM51 602l14 72h70l-14 -72h-70z" />
    <glyph glyph-name="eth" unicode="&#xf0;" horiz-adv-x="493" 
d="M270 476c16 0 31.833 -2.50195 47.5 -7.50195s30 -12 43 -21s24 -20 33 -33s15.167 -27.167 18.5 -42.5h4c1.33301 10 2.33301 19.667 3 29s1 19 1 29c0 26.667 -2.16699 52 -6.5 76s-11.166 46.333 -20.499 67l-68 -44l-9 14l-9 13l70 44c-14 21.333 -32 38.5 -54 51.5
s-49 20.833 -81 23.5c5.33301 17.333 11 34.333 17 51c41.333 -4 76.166 -14 104.499 -30s51.166 -36.667 68.499 -62l88 56l17 -27l-89 -56c11.333 -22 19.5 -46.167 24.5 -72.5s7.5 -53.5 7.5 -81.5c0 -26.667 -1.16699 -56.5 -3.5 -89.5s-7 -66.5 -14 -100.5
s-16.667 -67.167 -29 -99.5s-28.5 -61 -48.5 -86s-44.5 -45.167 -73.5 -60.5s-63.5 -23 -103.5 -23c-54 0 -96.333 13.833 -127 41.5s-46.667 66.5 -48 116.5c0 46.667 5 89.834 15 129.501s24.833 73.834 44.5 102.501s44.334 51.167 74.001 67.5s64.167 24.5 103.5 24.5z
M268 419.998c-33.333 0 -61.168 -8.16602 -83.501 -24.499s-40.166 -37 -53.499 -62s-23 -52.333 -29 -82s-9 -58.167 -9 -85.5c0 -34.667 9.66699 -62.834 29 -84.501s49 -32.5 89 -32.5c28.667 0 53.834 6.5 75.501 19.5s39.667 31 54 54s25.166 50.167 32.499 81.5
s11 65 11 101s-11 64.167 -33 84.5s-49.667 30.5 -83 30.5z" />
    <glyph glyph-name="ntilde" unicode="&#xf1;" horiz-adv-x="506" 
d="M339 0l59.999 306.997c4 19.333 5.83301 37.166 5.5 53.499s-4 30.333 -11 42s-17.833 20.834 -32.5 27.501s-34.667 10 -60 10c-18 0 -35.667 -3.33301 -53 -10s-33.166 -16.167 -47.499 -28.5s-26.5 -27.166 -36.5 -44.499s-17 -36.333 -21 -57l-58 -300h-61l96 495h61
l-13 -69h2c21.333 26.667 46.5 45.834 75.5 57.501s57.167 17.5 84.5 17.5c22.667 0 43.5 -3.83301 62.5 -11.5s34.833 -18.667 47.5 -33s21.5 -32.166 26.5 -53.499s4.83301 -45.333 -0.5 -72l-64 -331h-63zM267.999 688.997c12 0 23.833 -2.33105 35.5 -6.99805
s23.167 -9.66699 34.5 -15l33 -15c10.667 -4.66699 21 -7 31 -7s19.833 3 29.5 9s20.834 16.667 33.501 32l36 -23c-14.667 -28 -31.167 -47.5 -49.5 -58.5s-37.166 -16.5 -56.499 -16.5c-12 0 -23.833 2.16699 -35.5 6.5s-23.334 9.16602 -35.001 14.499
s-22.834 10.166 -33.501 14.499s-20.667 6.5 -30 6.5c-12 0 -22.333 -2.66699 -31 -8s-20 -14.666 -34 -27.999l-34 23c16 25.333 33 43.666 51 54.999s36.333 17 55 17z" />
    <glyph glyph-name="ograve" unicode="&#xf2;" horiz-adv-x="489" 
d="M303 559l-95 163l54 19l79 -168zM287 501c26 0 49.502 -4.16699 70.502 -12.5s39 -20 54 -35s26.667 -33 35 -54s12.5 -44.5 12.5 -70.5c0 -39.333 -4 -79 -12 -119s-21.333 -76 -40 -108s-43.334 -58 -74.001 -78s-68.334 -30 -113.001 -30
c-57.333 0 -101.5 14.333 -132.5 43s-46.5 70 -46.5 124c0 44.667 4.83301 87.5 14.5 128.5s24.5 77.167 44.5 108.5s45.5 56.333 76.5 75s67.833 28 110.5 28zM278.002 445c-33.333 0 -61.333 -9.33301 -84 -28s-40.667 -41.834 -54 -69.501s-22.833 -57.667 -28.5 -90
s-8.5 -62.166 -8.5 -89.499c0 -11.333 1.5 -23.833 4.5 -37.5s8.66699 -26.5 17 -38.5s20 -22 35 -30s34.167 -12 57.5 -12c32.667 0 60.334 8.16699 83.001 24.5s41 37.5 55 63.5s24.167 55.167 30.5 87.5s9.5 64.833 9.5 97.5c0 42 -11.333 72.833 -34 92.5
s-50.334 29.5 -83.001 29.5z" />
    <glyph glyph-name="oacute" unicode="&#xf3;" horiz-adv-x="489" 
d="M286 573l98 166l61 -22l-122 -160zM287 501c26 0 49.502 -4.16699 70.502 -12.5s39 -20 54 -35s26.667 -33 35 -54s12.5 -44.5 12.5 -70.5c0 -39.333 -4 -79 -12 -119s-21.333 -76 -40 -108s-43.334 -58 -74.001 -78s-68.334 -30 -113.001 -30
c-57.333 0 -101.5 14.333 -132.5 43s-46.5 70 -46.5 124c0 44.667 4.83301 87.5 14.5 128.5s24.5 77.167 44.5 108.5s45.5 56.333 76.5 75s67.833 28 110.5 28zM278.002 445c-33.333 0 -61.333 -9.33301 -84 -28s-40.667 -41.834 -54 -69.501s-22.833 -57.667 -28.5 -90
s-8.5 -62.166 -8.5 -89.499c0 -11.333 1.5 -23.833 4.5 -37.5s8.66699 -26.5 17 -38.5s20 -22 35 -30s34.167 -12 57.5 -12c32.667 0 60.334 8.16699 83.001 24.5s41 37.5 55 63.5s24.167 55.167 30.5 87.5s9.5 64.833 9.5 97.5c0 42 -11.333 72.833 -34 92.5
s-50.334 29.5 -83.001 29.5z" />
    <glyph glyph-name="ocircumflex" unicode="&#xf4;" horiz-adv-x="489" 
d="M348 665l-157 -105l-25 30l168 139h46l108 -137l-37 -31zM287 501c26 0 49.502 -4.16699 70.502 -12.5s39 -20 54 -35s26.667 -33 35 -54s12.5 -44.5 12.5 -70.5c0 -39.333 -4 -79 -12 -119s-21.333 -76 -40 -108s-43.334 -58 -74.001 -78s-68.334 -30 -113.001 -30
c-57.333 0 -101.5 14.333 -132.5 43s-46.5 70 -46.5 124c0 44.667 4.83301 87.5 14.5 128.5s24.5 77.167 44.5 108.5s45.5 56.333 76.5 75s67.833 28 110.5 28zM278.002 445c-33.333 0 -61.333 -9.33301 -84 -28s-40.667 -41.834 -54 -69.501s-22.833 -57.667 -28.5 -90
s-8.5 -62.166 -8.5 -89.499c0 -11.333 1.5 -23.833 4.5 -37.5s8.66699 -26.5 17 -38.5s20 -22 35 -30s34.167 -12 57.5 -12c32.667 0 60.334 8.16699 83.001 24.5s41 37.5 55 63.5s24.167 55.167 30.5 87.5s9.5 64.833 9.5 97.5c0 42 -11.333 72.833 -34 92.5
s-50.334 29.5 -83.001 29.5z" />
    <glyph glyph-name="otilde" unicode="&#xf5;" horiz-adv-x="489" 
d="M268 689c12 0 23.833 -2.33105 35.5 -6.99805s23.167 -9.66699 34.5 -15l33 -15c10.667 -4.66699 21 -7 31 -7s19.833 3 29.5 9s20.834 16.667 33.501 32l36 -23c-14.667 -28 -31.167 -47.5 -49.5 -58.5s-37.166 -16.5 -56.499 -16.5c-12 0 -23.833 2.16699 -35.5 6.5
s-23.334 9.16602 -35.001 14.499s-22.834 10.166 -33.501 14.499s-20.667 6.5 -30 6.5c-12 0 -22.333 -2.66699 -31 -8s-20 -14.666 -34 -27.999l-34 23c16 25.333 33 43.666 51 54.999s36.333 17 55 17zM287 501.002c26 0 49.502 -4.16699 70.502 -12.5s39 -20 54 -35
s26.667 -33 35 -54s12.5 -44.5 12.5 -70.5c0 -39.333 -4 -79 -12 -119s-21.333 -76 -40 -108s-43.334 -58 -74.001 -78s-68.334 -30 -113.001 -30c-57.333 0 -101.5 14.333 -132.5 43s-46.5 70 -46.5 124c0 44.667 4.83301 87.5 14.5 128.5s24.5 77.167 44.5 108.5
s45.5 56.333 76.5 75s67.833 28 110.5 28zM278.002 445.002c-33.333 0 -61.333 -9.33301 -84 -28s-40.667 -41.834 -54 -69.501s-22.833 -57.667 -28.5 -90s-8.5 -62.166 -8.5 -89.499c0 -11.333 1.5 -23.833 4.5 -37.5s8.66699 -26.5 17 -38.5s20 -22 35 -30
s34.167 -12 57.5 -12c32.667 0 60.334 8.16699 83.001 24.5s41 37.5 55 63.5s24.167 55.167 30.5 87.5s9.5 64.833 9.5 97.5c0 42 -11.333 72.833 -34 92.5s-50.334 29.5 -83.001 29.5z" />
    <glyph glyph-name="odieresis" unicode="&#xf6;" horiz-adv-x="489" 
d="M364 602l13 72h71l-14 -72h-70zM181 602l14 72h70l-14 -72h-70zM287 501c26 0 49.502 -4.16699 70.502 -12.5s39 -20 54 -35s26.667 -33 35 -54s12.5 -44.5 12.5 -70.5c0 -39.333 -4 -79 -12 -119s-21.333 -76 -40 -108s-43.334 -58 -74.001 -78
s-68.334 -30 -113.001 -30c-57.333 0 -101.5 14.333 -132.5 43s-46.5 70 -46.5 124c0 44.667 4.83301 87.5 14.5 128.5s24.5 77.167 44.5 108.5s45.5 56.333 76.5 75s67.833 28 110.5 28zM278.002 445c-33.333 0 -61.333 -9.33301 -84 -28s-40.667 -41.834 -54 -69.501
s-22.833 -57.667 -28.5 -90s-8.5 -62.166 -8.5 -89.499c0 -11.333 1.5 -23.833 4.5 -37.5s8.66699 -26.5 17 -38.5s20 -22 35 -30s34.167 -12 57.5 -12c32.667 0 60.334 8.16699 83.001 24.5s41 37.5 55 63.5s24.167 55.167 30.5 87.5s9.5 64.833 9.5 97.5
c0 42 -11.333 72.833 -34 92.5s-50.334 29.5 -83.001 29.5z" />
    <glyph glyph-name="divide" unicode="&#xf7;" horiz-adv-x="484" 
d="M304 508c11.333 0 20.501 -3.5 27.501 -10.5s10.5 -16.167 10.5 -27.5c0 -15.333 -5.83301 -28.666 -17.5 -39.999s-24.834 -17 -39.501 -17c-12 0 -21.667 3.66699 -29 11s-11 16.666 -11 27.999c0 15.333 6.16699 28.5 18.5 39.5s25.833 16.5 40.5 16.5zM37.001 262
l10 50h434l-11 -50h-433zM236.001 160c11.333 0 20.668 -3.33203 28.001 -9.99902s11 -15.667 11 -27c0 -16 -5.83301 -29.667 -17.5 -41s-24.834 -17 -39.501 -17c-12 0 -21.667 3.66699 -29 11s-11 16.666 -11 27.999c0 15.333 6 28.5 18 39.5s25.333 16.5 40 16.5z" />
    <glyph glyph-name="oslash" unicode="&#xf8;" horiz-adv-x="502" 
d="M287 501c26.667 0 50.835 -4.33301 72.502 -13s40.167 -21 55.5 -37l59 65l26 -22l-64 -71c15.333 -26.667 23 -58 23 -94c0 -39.333 -4 -79 -12 -119s-21.333 -76 -40 -108s-43.334 -58 -74.001 -78s-68.334 -30 -113.001 -30c-58 0 -102.333 14.667 -133 44l-51 -56
l-26 23l55 60c-16 26 -24 58 -24 96c0 44.667 4.83301 87.5 14.5 128.5s24.5 77.167 44.5 108.5s45.5 56.333 76.5 75s67.833 28 110.5 28zM278.001 445c-33.333 0 -61.333 -9.33203 -84 -27.999s-40.667 -41.834 -54 -69.501s-22.833 -57.667 -28.5 -90
s-8.5 -62.166 -8.5 -89.499c0 -8 0.5 -16.333 1.5 -25s3.16699 -17.334 6.5 -26.001l260 286c-10.667 14 -24 24.5 -40 31.5s-33.667 10.5 -53 10.5zM395.001 323.001c0 18 -2.33398 33.667 -7.00098 47l-258 -285c8.66699 -10 20 -18.333 34 -25s31.667 -10 53 -10
c32.667 0 60.334 8.16699 83.001 24.5s41 37.5 55 63.5s24.167 55.167 30.5 87.5s9.5 64.833 9.5 97.5z" />
    <glyph glyph-name="ugrave" unicode="&#xf9;" horiz-adv-x="515" 
d="M318 559l-95 163l55 19l77 -168zM343 0l14.0029 68.001h-3c-21.333 -26.667 -46 -45.667 -74 -57s-55.333 -17 -82 -17c-50.667 0 -88.834 16 -114.501 48s-32.834 78 -21.501 138l61 315h61l-59 -306c-8 -42.667 -4.33301 -75.834 11 -99.501s45.666 -35.5 90.999 -35.5
c18 0 35.333 3.33301 52 10s32 16.334 46 29.001s26 27.667 36 45s17 36.666 21 57.999l58 299h62l-96 -495h-63z" />
    <glyph glyph-name="uacute" unicode="&#xfa;" horiz-adv-x="515" 
d="M343 0l14.0029 68.001h-3c-21.333 -26.667 -46 -45.667 -74 -57s-55.333 -17 -82 -17c-50.667 0 -88.834 16 -114.501 48s-32.834 78 -21.501 138l61 315h61l-59 -306c-8 -42.667 -4.33301 -75.834 11 -99.501s45.666 -35.5 90.999 -35.5c18 0 35.333 3.33301 52 10
s32 16.334 46 29.001s26 27.667 36 45s17 36.666 21 57.999l58 299h62l-96 -495h-63zM281.003 573.001l98 166l61 -22l-122 -160z" />
    <glyph glyph-name="ucircumflex" unicode="&#xfb;" horiz-adv-x="515" 
d="M343 0l14.0029 68.001h-3c-21.333 -26.667 -46 -45.667 -74 -57s-55.333 -17 -82 -17c-50.667 0 -88.834 16 -114.501 48s-32.834 78 -21.501 138l61 315h61l-59 -306c-8 -42.667 -4.33301 -75.834 11 -99.501s45.666 -35.5 90.999 -35.5c18 0 35.333 3.33301 52 10
s32 16.334 46 29.001s26 27.667 36 45s17 36.666 21 57.999l58 299h62l-96 -495h-63zM347.003 665.001l-157 -105l-25 30l168 139h46l108 -137l-37 -31z" />
    <glyph glyph-name="udieresis" unicode="&#xfc;" horiz-adv-x="515" 
d="M343 0l14.0029 68.001h-3c-21.333 -26.667 -46 -45.667 -74 -57s-55.333 -17 -82 -17c-50.667 0 -88.834 16 -114.501 48s-32.834 78 -21.501 138l61 315h61l-59 -306c-8 -42.667 -4.33301 -75.834 11 -99.501s45.666 -35.5 90.999 -35.5c18 0 35.333 3.33301 52 10
s32 16.334 46 29.001s26 27.667 36 45s17 36.666 21 57.999l58 299h62l-96 -495h-63zM383.003 602.001l13 72h71l-14 -72h-70zM200.003 602.001l14 72h70l-14 -72h-70z" />
    <glyph glyph-name="yacute" unicode="&#xfd;" horiz-adv-x="409" 
d="M453 495c-38 -103.333 -76.333 -197.167 -115 -281.5s-78 -158.833 -118 -223.5c-14.667 -23.333 -31 -45.833 -49 -67.5s-38 -41 -60 -58s-46.5 -31 -73.5 -42s-56.833 -17.5 -89.5 -19.5l-2 55c34.667 4 68.167 15 100.5 33s62.5 46.667 90.5 86l-82 518h66l34 -238
l14.5 -108c5 -38.667 8.16699 -77 9.5 -115h3c44 74.667 82.833 151.667 116.5 231s63.5 156 89.5 230h65zM225 572.999l98 166l61 -22l-122 -160z" />
    <glyph glyph-name="thorn" unicode="&#xfe;" horiz-adv-x="497" 
d="M220 696l-52.999 -269.999c0.666992 0 1.16699 -0.166992 1.5 -0.5s0.833008 -0.5 1.5 -0.5c23.333 28 48.166 47.667 74.499 59s53.5 17 81.5 17c26 0 47.833 -4.33301 65.5 -13s31.667 -20.5 42 -35.5s17.833 -32.667 22.5 -53s7 -41.833 7 -64.5
c0 -35.333 -4.16699 -72.833 -12.5 -112.5s-21.833 -76.334 -40.5 -110.001s-43.167 -61.667 -73.5 -84s-67.5 -33.5 -111.5 -33.5c-32 0 -57.667 6.83301 -77 20.5s-35.333 32.167 -48 55.5c-0.666992 0 -1 -0.166992 -1 -0.5s-0.333008 -0.5 -1 -0.5l-52 -270h-61
l86 447.5l87 448.5h62zM301.001 440.001c-22 0 -41.665 -4.50098 -58.998 -13.501s-32.5 -21 -45.5 -36s-24 -31.833 -33 -50.5s-16.333 -37.5 -22 -56.5s-9.66699 -37.667 -12 -56s-3.5 -34.166 -3.5 -47.499c0 -17.333 1.66699 -33.5 5 -48.5
s8.66602 -28.167 15.999 -39.5s17.333 -20.166 30 -26.499s28 -9.5 46 -9.5c34.667 0 63.167 9.5 85.5 28.5s40.166 42.167 53.499 69.5s22.666 56.5 27.999 87.5s8 58.5 8 82.5c0 16 -1.66699 31.167 -5 45.5s-8.66602 26.666 -15.999 36.999s-17.333 18.5 -30 24.5
s-28 9 -46 9z" />
    <glyph glyph-name="ydieresis" unicode="&#xff;" horiz-adv-x="409" 
d="M453 495c-38 -103.333 -76.333 -197.167 -115 -281.5s-78 -158.833 -118 -223.5c-14.667 -23.333 -31 -45.833 -49 -67.5s-38 -41 -60 -58s-46.5 -31 -73.5 -42s-56.833 -17.5 -89.5 -19.5l-2 55c34.667 4 68.167 15 100.5 33s62.5 46.667 90.5 86l-82 518h66l34 -238
l14.5 -108c5 -38.667 8.16699 -77 9.5 -115h3c44 74.667 82.833 151.667 116.5 231s63.5 156 89.5 230h65zM311 601.999l13 72h71l-14 -72h-70zM128 601.999l14 72h70l-14 -72h-70z" />
    <glyph glyph-name="Amacron" unicode="&#x100;" horiz-adv-x="580" 
d="M459 0l-12 82.5c-4 27 -8.33301 54.5 -13 82.5h-305l-89 -165h-71l191.5 348l192.5 348h62l114 -696h-70zM368 616l-20.5 -39.5l-37 -69.5l-45.5 -85l-45.5 -85.5l-38 -71.5l-22.5 -42h268l-7.5 53l-10 69l-11 77l-11 76.5l-10 67l-7.5 50.5h-2zM266 768l12 57h261
l-11 -57h-262z" />
    <glyph glyph-name="amacron" unicode="&#x101;" horiz-adv-x="493" 
d="M286 501c12.667 0 25.5 -1.50391 38.5 -4.50391s25.167 -7.66699 36.5 -14s21.5 -14.166 30.5 -23.499s15.5 -20.333 19.5 -33l3 1l15 68h60l-97 -495h-62l14 65l-3 2c-20 -24.667 -41.5 -43 -64.5 -55s-50.5 -18 -82.5 -18c-26 0 -48.167 4.33301 -66.5 13
s-33.333 20.834 -45 36.501s-20.167 34 -25.5 55s-8 43.5 -8 67.5c0 23.333 2 47.833 6 73.5s10 50.834 18 75.501s18.5 48.334 31.5 71.001s28.167 42.5 45.5 59.5s37.333 30.5 60 40.5s48 15 76 15zM111 167.996c0 -14 1.66797 -27.8301 5.00098 -41.4971
s9 -25.834 17 -36.501s18.333 -19.334 31 -26.001s28.667 -10 48 -10c31.333 0 58.166 9.33301 80.499 28s40.833 41.834 55.5 69.501s25.334 57.167 32.001 88.5s10 59.666 10 84.999c0 34 -8 62.5 -24 85.5s-41.667 34.5 -77 34.5s-64.333 -10.167 -87 -30.5
s-40.834 -45 -54.501 -74s-23.167 -59.333 -28.5 -91s-8 -58.834 -8 -81.501zM193.001 602.999l11 59h262l-12 -59h-261z" />
    <glyph glyph-name="Abreve" unicode="&#x102;" horiz-adv-x="580" 
d="M459 0l-12 82.5c-4 27 -8.33301 54.5 -13 82.5h-305l-89 -165h-71l191.5 348l192.5 348h62l114 -696h-70zM368 616l-20.5 -39.5l-37 -69.5l-45.5 -85l-45.5 -85.5l-38 -71.5l-22.5 -42h268l-7.5 53l-10 69l-11 77l-11 76.5l-10 67l-7.5 50.5h-2zM332 857
c-2.66699 -19.333 1.83203 -35.5 13.499 -48.5s28.5 -19.5 50.5 -19.5c25.333 0 46 7 62 21s26.333 29.667 31 47h59c-3.33301 -14 -9 -28 -17 -42s-18.5 -26.833 -31.5 -38.5s-28.667 -21.167 -47 -28.5s-39.5 -11 -63.5 -11c-23.333 0 -42.666 3.83301 -57.999 11.5
s-27.333 17.5 -36 29.5s-14.5 25 -17.5 39s-3.5 27.333 -1.5 40h56z" />
    <glyph glyph-name="abreve" unicode="&#x103;" horiz-adv-x="493" 
d="M286 501c12.667 0 25.5 -1.50391 38.5 -4.50391s25.167 -7.66699 36.5 -14s21.5 -14.166 30.5 -23.499s15.5 -20.333 19.5 -33l3 1l15 68h60l-97 -495h-62l14 65l-3 2c-20 -24.667 -41.5 -43 -64.5 -55s-50.5 -18 -82.5 -18c-26 0 -48.167 4.33301 -66.5 13
s-33.333 20.834 -45 36.501s-20.167 34 -25.5 55s-8 43.5 -8 67.5c0 23.333 2 47.833 6 73.5s10 50.834 18 75.501s18.5 48.334 31.5 71.001s28.167 42.5 45.5 59.5s37.333 30.5 60 40.5s48 15 76 15zM111 167.996c0 -14 1.66797 -27.8301 5.00098 -41.4971
s9 -25.834 17 -36.501s18.333 -19.334 31 -26.001s28.667 -10 48 -10c31.333 0 58.166 9.33301 80.499 28s40.833 41.834 55.5 69.501s25.334 57.167 32.001 88.5s10 59.666 10 84.999c0 34 -8 62.5 -24 85.5s-41.667 34.5 -77 34.5s-64.333 -10.167 -87 -30.5
s-40.834 -45 -54.501 -74s-23.167 -59.333 -28.5 -91s-8 -58.834 -8 -81.501zM264.001 702.999c-1.33301 -16.667 3.83203 -32.667 15.499 -48s29.167 -23 52.5 -23s43.5 7.16699 60.5 21.5s27.833 30.833 32.5 49.5h59c-4 -14.667 -10 -29.5 -18 -44.5
s-18.333 -28.5 -31 -40.5s-27.667 -21.667 -45 -29s-37.666 -11 -60.999 -11c-45.333 0 -77.5 12 -96.5 36s-26.833 53.667 -23.5 89h55z" />
    <glyph glyph-name="Aogonek" unicode="&#x104;" horiz-adv-x="580" 
d="M477 -177c-24 0 -42.668 6.66797 -56.001 20.001s-20 29.666 -20 48.999c0 14.667 4.16699 30.834 12.5 48.501s23.5 37.5 45.5 59.5l-12 82.5c-4 27 -8.33301 54.5 -13 82.5h-305l-89 -165h-71l191.5 348l192.5 348h62l114 -696h-22
c-17.333 -18 -30.166 -35 -38.499 -51s-12.5 -30.667 -12.5 -44c0 -23.333 14.333 -35 43 -35c8 0 17 1.16699 27 3.5s20.667 6.16602 32 11.499l9 -39c-13.333 -7.33301 -27.833 -13 -43.5 -17s-31.167 -6 -46.5 -6zM367.999 616.001l-20.5 -39.5l-37 -69.5l-45.5 -85
l-45.5 -85.5l-38 -71.5l-22.5 -42h268l-7.5 53l-10 69l-11 77l-11 76.5l-10 67l-7.5 50.5h-2z" />
    <glyph glyph-name="aogonek" unicode="&#x105;" horiz-adv-x="493" 
d="M348 -177c-24 0 -42.668 6.66406 -56.001 19.9971s-20 29.666 -20 48.999c0 14.667 4.16699 30.834 12.5 48.501s23.5 37.5 45.5 59.5l14 65l-3 2c-20 -24.667 -41.5 -43 -64.5 -55s-50.5 -18 -82.5 -18c-26 0 -48.167 4.33301 -66.5 13s-33.333 20.834 -45 36.501
s-20.167 34 -25.5 55s-8 43.5 -8 67.5c0 23.333 2 47.833 6 73.5s10 50.834 18 75.501s18.5 48.334 31.5 71.001s28.167 42.5 45.5 59.5s37.333 30.5 60 40.5s48 15 76 15c12.667 0 25.5 -1.5 38.5 -4.5s25.167 -7.66699 36.5 -14s21.5 -14.166 30.5 -23.499
s15.5 -20.333 19.5 -33l3 1l15 68h60l-97 -495h-14c-17.333 -18 -30.166 -35 -38.499 -51s-12.5 -30.667 -12.5 -44c0 -23.333 14.333 -35 43 -35c8 0 17 1.16699 27 3.5s20.667 6.16602 32 11.499l9 -39c-13.333 -7.33301 -27.833 -13 -43.5 -17s-31.167 -6 -46.5 -6z
M110.999 167.997c0 -14 1.66797 -27.8301 5.00098 -41.4971s9 -25.834 17 -36.501s18.333 -19.334 31 -26.001s28.667 -10 48 -10c31.333 0 58.166 9.33301 80.499 28s40.833 41.834 55.5 69.501s25.334 57.167 32.001 88.5s10 59.666 10 84.999c0 34 -8 62.5 -24 85.5
s-41.667 34.5 -77 34.5s-64.333 -10.167 -87 -30.5s-40.834 -45 -54.501 -74s-23.167 -59.333 -28.5 -91s-8 -58.834 -8 -81.501z" />
    <glyph glyph-name="Cacute" unicode="&#x106;" horiz-adv-x="536" 
d="M333 767l163 115l38 -50l-178 -98zM517 138c-26.667 -46.667 -62.166 -82.333 -106.499 -107s-93.5 -37 -147.5 -37c-41.333 0 -76.333 7.16699 -105 21.5s-51.334 33.5 -68.001 57.5s-27.5 51.833 -32.5 83.5s-3.83301 64.5 3.5 98.5l39 198
c6.66699 33.333 17.167 65 31.5 95s33 56.333 56 79s50.167 40.667 81.5 54s67.666 20 108.999 20c54 0 98.5 -12.667 133.5 -38s59.5 -59 73.5 -101l-67 -29c-7.33301 30 -23.166 54.833 -47.499 74.5s-54.5 29.5 -90.5 29.5c-32 0 -60.333 -5.33301 -85 -16
s-45.667 -24.834 -63 -42.501s-31.666 -38.167 -42.999 -61.5s-19.333 -47.333 -24 -72l-37 -193c-5.33301 -25.333 -6.5 -49.666 -3.5 -72.999s10 -44 21 -62s26.667 -32.5 47 -43.5s45.5 -16.5 75.5 -16.5c39.333 0 75.166 10 107.499 30s58.833 47 79.5 81z" />
    <glyph glyph-name="cacute" unicode="&#x107;" horiz-adv-x="414" 
d="M371 56c-23.333 -19.333 -48.998 -34.499 -76.998 -45.499s-57.333 -16.5 -88 -16.5c-60 0 -104.167 17.5 -132.5 52.5s-42.5 81.167 -42.5 138.5c0 40 5.5 79 16.5 117s27.5 71.667 49.5 101s49.5 53 82.5 71s71.5 27 115.5 27c28 0 55.167 -5.16699 81.5 -15.5
s48.5 -25.833 66.5 -46.5l-50 -46c-13.333 14 -29 25.5 -47 34.5s-36.667 13.5 -56 13.5c-34 0 -63.333 -7.33301 -88 -22s-45 -33.834 -61 -57.501s-27.833 -50.334 -35.5 -80.001s-11.5 -59.5 -11.5 -89.5c0 -43.333 10 -77.166 30 -101.499s52.667 -36.5 98 -36.5
c19.333 0 39.666 5.16699 60.999 15.5s39.666 20.833 54.999 31.5zM253.002 573.001l98 166l61 -22l-122 -160z" />
    <glyph glyph-name="Ccircumflex" unicode="&#x108;" horiz-adv-x="536" 
d="M517 138c-26.667 -46.667 -62.1631 -82.333 -106.496 -107s-93.5 -37 -147.5 -37c-41.333 0 -76.333 7.16699 -105 21.5s-51.334 33.5 -68.001 57.5s-27.5 51.833 -32.5 83.5s-3.83301 64.5 3.5 98.5l39 198c6.66699 33.333 17.167 65 31.5 95s33 56.333 56 79
s50.167 40.667 81.5 54s67.666 20 108.999 20c54 0 98.5 -12.667 133.5 -38s59.5 -59 73.5 -101l-67 -29c-7.33301 30 -23.166 54.833 -47.499 74.5s-54.5 29.5 -90.5 29.5c-32.667 0 -61.334 -5.33301 -86.001 -16s-45.667 -24.834 -63 -42.501s-31.5 -38.167 -42.5 -61.5
s-18.833 -47.333 -23.5 -72l-37 -193c-5.33301 -25.333 -6.83301 -49.666 -4.5 -72.999s9 -44 20 -62s26.667 -32.5 47 -43.5s46.166 -16.5 77.499 -16.5c39.333 0 75.166 10 107.499 30s58.833 47 79.5 81zM414.004 822.001l-161 -87l-17 30l165 120h45l111 -119l-30 -29z
" />
    <glyph glyph-name="ccircumflex" unicode="&#x109;" horiz-adv-x="414" 
d="M371 56c-23.333 -19.333 -48.998 -34.499 -76.998 -45.499s-57.333 -16.5 -88 -16.5c-60 0 -104.167 17.5 -132.5 52.5s-42.5 81.167 -42.5 138.5c0 40 5.5 79 16.5 117s27.5 71.667 49.5 101s49.5 53 82.5 71s71.5 27 115.5 27c28 0 55.167 -5.16699 81.5 -15.5
s48.5 -25.833 66.5 -46.5l-50 -46c-13.333 14 -29 25.5 -47 34.5s-36.667 13.5 -56 13.5c-34 0 -63.333 -7.33301 -88 -22s-45 -33.834 -61 -57.501s-27.833 -50.334 -35.5 -80.001s-11.5 -59.5 -11.5 -89.5c0 -43.333 10 -77.166 30 -101.499s52.667 -36.5 98 -36.5
c19.333 0 39.666 5.16699 60.999 15.5s39.666 20.833 54.999 31.5zM330.002 665.001l-157 -105l-25 30l168 139h46l108 -137l-37 -31z" />
    <glyph glyph-name="Cdotaccent" unicode="&#x10a;" horiz-adv-x="536" 
d="M517 138c-26.667 -46.667 -62.1631 -82.333 -106.496 -107s-93.5 -37 -147.5 -37c-41.333 0 -76.333 7.16699 -105 21.5s-51.334 33.5 -68.001 57.5s-27.5 51.833 -32.5 83.5s-3.83301 64.5 3.5 98.5l39 198c6.66699 33.333 17.167 65 31.5 95s33 56.333 56 79
s50.167 40.667 81.5 54s67.666 20 108.999 20c54 0 98.5 -12.667 133.5 -38s59.5 -59 73.5 -101l-67 -29c-7.33301 30 -23.166 54.833 -47.499 74.5s-54.5 29.5 -90.5 29.5c-32.667 0 -61.334 -5.33301 -86.001 -16s-45.667 -24.834 -63 -42.501s-31.5 -38.167 -42.5 -61.5
s-18.833 -47.333 -23.5 -72l-37 -193c-5.33301 -25.333 -6.83301 -49.666 -4.5 -72.999s9 -44 20 -62s26.667 -32.5 47 -43.5s46.166 -16.5 77.499 -16.5c39.333 0 75.166 10 107.499 30s58.833 47 79.5 81zM371.004 752.001l14 72h71l-14 -72h-71z" />
    <glyph glyph-name="cdotaccent" unicode="&#x10b;" horiz-adv-x="414" 
d="M371 56c-23.333 -19.333 -48.998 -34.499 -76.998 -45.499s-57.333 -16.5 -88 -16.5c-60 0 -104.167 17.5 -132.5 52.5s-42.5 81.167 -42.5 138.5c0 40 5.5 79 16.5 117s27.5 71.667 49.5 101s49.5 53 82.5 71s71.5 27 115.5 27c28 0 55.167 -5.16699 81.5 -15.5
s48.5 -25.833 66.5 -46.5l-50 -46c-13.333 14 -29 25.5 -47 34.5s-36.667 13.5 -56 13.5c-34 0 -63.333 -7.33301 -88 -22s-45 -33.834 -61 -57.501s-27.833 -50.334 -35.5 -80.001s-11.5 -59.5 -11.5 -89.5c0 -43.333 10 -77.166 30 -101.499s52.667 -36.5 98 -36.5
c19.333 0 39.666 5.16699 60.999 15.5s39.666 20.833 54.999 31.5zM273.002 602.001l14 72h71l-14 -72h-71z" />
    <glyph glyph-name="Ccaron" unicode="&#x10c;" horiz-adv-x="536" 
d="M517 138c-26.667 -46.667 -62.1631 -82.333 -106.496 -107s-93.5 -37 -147.5 -37c-41.333 0 -76.333 7.16699 -105 21.5s-51.334 33.5 -68.001 57.5s-27.5 51.833 -32.5 83.5s-3.83301 64.5 3.5 98.5l39 198c6.66699 33.333 17.167 65 31.5 95s33 56.333 56 79
s50.167 40.667 81.5 54s67.666 20 108.999 20c54 0 98.5 -12.667 133.5 -38s59.5 -59 73.5 -101l-67 -29c-7.33301 30 -23.166 54.833 -47.499 74.5s-54.5 29.5 -90.5 29.5c-32.667 0 -61.334 -5.33301 -86.001 -16s-45.667 -24.834 -63 -42.501s-31.5 -38.167 -42.5 -61.5
s-18.833 -47.333 -23.5 -72l-37 -193c-5.33301 -25.333 -6.83301 -49.666 -4.5 -72.999s9 -44 20 -62s26.667 -32.5 47 -43.5s46.166 -16.5 77.499 -16.5c39.333 0 75.166 10 107.499 30s58.833 47 79.5 81zM394.004 799.001l163 87l18 -30l-165 -120h-45l-112 119l29 27z
" />
    <glyph glyph-name="ccaron" unicode="&#x10d;" horiz-adv-x="414" 
d="M371 56c-23.333 -19.333 -48.998 -34.499 -76.998 -45.499s-57.333 -16.5 -88 -16.5c-60 0 -104.167 17.5 -132.5 52.5s-42.5 81.167 -42.5 138.5c0 40 5.5 79 16.5 117s27.5 71.667 49.5 101s49.5 53 82.5 71s71.5 27 115.5 27c28 0 55.167 -5.16699 81.5 -15.5
s48.5 -25.833 66.5 -46.5l-50 -46c-13.333 14 -29 25.5 -47 34.5s-36.667 13.5 -56 13.5c-34 0 -63.333 -7.33301 -88 -22s-45 -33.834 -61 -57.501s-27.833 -50.334 -35.5 -80.001s-11.5 -59.5 -11.5 -89.5c0 -43.333 10 -77.166 30 -101.499s52.667 -36.5 98 -36.5
c19.333 0 39.666 5.16699 60.999 15.5s39.666 20.833 54.999 31.5zM463.002 722.001l24 -29l-161 -138h-45l-114 139l36 29l108 -104z" />
    <glyph glyph-name="Dcaron" unicode="&#x10e;" horiz-adv-x="604" 
d="M393 696c28 0 54.667 -3.33105 80 -9.99805s47.5 -17.334 66.5 -32.001s34.167 -33.667 45.5 -57s17 -51.333 17 -84c0 -30 -2.66699 -64.167 -8 -102.5s-12 -75.833 -20 -112.5s-16.833 -70.167 -26.5 -100.5s-18.5 -52.5 -26.5 -66.5
c-16 -26.667 -33.333 -48.5 -52 -65.5s-38.5 -30.333 -59.5 -40s-43 -16.334 -66 -20.001s-46.5 -5.5 -70.5 -5.5h-237l135 696h222zM226 634.002l-112 -572h160c35.333 0 65.833 5 91.5 15s47.5 24.333 65.5 43s32.667 41.167 44 67.5s20 55.833 26 88.5l24 127
c6 30 9 57.667 9 83c0 48 -12.333 84.667 -37 110s-65 38 -121 38h-150zM372 799.002l163 87l18 -30l-165 -120h-45l-112 119l29 27z" />
    <glyph glyph-name="dcaron" unicode="&#x10f;" horiz-adv-x="548" 
d="M332 0c2 11.333 4.33301 22.168 7 32.501s5 21.166 7 32.499c-0.666992 0 -1 0.166992 -1 0.5s-0.333008 0.5 -1 0.5c-20.667 -23.333 -44 -41.166 -70 -53.499s-55 -18.5 -87 -18.5c-26 0 -47.667 4.16699 -65 12.5s-31.333 19.666 -42 33.999
s-18.334 31.5 -23.001 51.5s-7 41.667 -7 65c0 36 4 74.167 12 114.5s21.333 77.5 40 111.5s42.834 62 72.501 84s66.5 33 110.5 33c30 0 56.167 -6.83301 78.5 -20.5s38.833 -32.167 49.5 -55.5h1l60 302h61l-142 -726h-61zM286 442.002
c-24 0 -44.834 -4.8291 -62.501 -14.4961s-32.834 -22.5 -45.501 -38.5s-23.167 -33.833 -31.5 -53.5s-14.833 -39.334 -19.5 -59.001s-7.83398 -38.5 -9.50098 -56.5s-2.5 -33 -2.5 -45c0 -18 1.5 -34.333 4.5 -49s8.16699 -27.334 15.5 -38.001s17.5 -19 30.5 -25
s29.5 -9 49.5 -9c22 0 41.5 4.66699 58.5 14s31.833 21.666 44.5 36.999s23.334 32.5 32.001 51.5s15.834 38.167 21.501 57.5s9.66699 37.833 12 55.5s3.5 32.5 3.5 44.5c0 15.333 -1.5 30.666 -4.5 45.999s-8.16699 29 -15.5 41s-17.666 21.833 -30.999 29.5
s-30 11.5 -50 11.5zM578.999 544.006h-39l51 90h-27l17 89h82l-17 -87z" />
    <glyph glyph-name="Dcroat" unicode="&#x110;" horiz-adv-x="604" 
d="M22 341c1.33301 8.66699 2.83301 17.002 4.5 25.002s3.5 16.333 5.5 25h79l60 305h222c28 0 54.667 -3.33301 80 -10s47.5 -17.334 66.5 -32.001s34.167 -33.667 45.5 -57s17 -51.333 17 -84c0 -30 -2.66699 -64.167 -8 -102.5s-12 -75.833 -20 -112.5
s-16.833 -70.167 -26.5 -100.5s-18.5 -52.5 -26.5 -66.5c-16 -26.667 -33.333 -48.5 -52 -65.5s-38.5 -30.333 -59.5 -40s-43 -16.334 -66 -20.001s-46.5 -5.5 -70.5 -5.5h-237l66 341h-80zM226 634.002l-48 -243h137l-11 -50h-135l-55 -279h160c35.333 0 65.833 5 91.5 15
s47.5 24.333 65.5 43s32.667 41.167 44 67.5s20 55.833 26 88.5l24 127c6 30 9 57.667 9 83c0 48 -12.333 84.667 -37 110s-65 38 -121 38h-150z" />
    <glyph glyph-name="dcroat" unicode="&#x111;" horiz-adv-x="471" 
d="M339 617h101.002l22 109h61l-21 -109h61l-8 -44h-62l-56.5 -286.5l-55.5 -286.5h-61l13 68c-0.666992 0 -1 0.166992 -1 0.5s-0.333008 0.5 -1 0.5c-20.667 -23.333 -43.834 -41.666 -69.501 -54.999s-54.5 -20 -86.5 -20c-26 0 -47.667 4.16699 -65 12.5
s-31.333 19.666 -42 33.999s-18.334 31.5 -23.001 51.5s-7 41.667 -7 65c0 36 4.16699 74.167 12.5 114.5s22 77.5 41 111.5s43.667 62 74 84s67.5 33 111.5 33c30 0 54.833 -6.33301 74.5 -19s36.167 -31.667 49.5 -57h1l29 149h-100zM278.002 439
c-36 0 -65.167 -9.83203 -87.5 -29.499s-39.666 -43.334 -51.999 -71.001s-21 -56.5 -26 -86.5s-8.16699 -55.667 -9.5 -77c0 -16.667 1.5 -32.334 4.5 -47.001s8.16699 -27.5 15.5 -38.5s17.5 -19.667 30.5 -26s29.5 -9.5 49.5 -9.5c22.667 0 42.667 4.66699 60 14
s32.5 21.5 45.5 36.5s23.667 31.833 32 50.5s15.166 37.5 20.499 56.5s9 37.333 11 55s3 32.834 3 45.501c0 16 -1.33301 31.667 -4 47s-7.5 28.833 -14.5 40.5s-16.833 21.167 -29.5 28.5s-29 11 -49 11z" />
    <glyph glyph-name="Emacron" unicode="&#x112;" horiz-adv-x="525" 
d="M35 0l136 696h410l-12 -62h-344l-48 -252h304l-12 -60h-304l-51 -260h373l-12 -62h-440zM263 768l12 57h261l-11 -57h-262z" />
    <glyph glyph-name="emacron" unicode="&#x113;" horiz-adv-x="462" 
d="M285 501c54 0 95.6641 -12.002 124.997 -36.002s44 -56 44 -96c0 -21.333 -4.33301 -41.833 -13 -61.5s-24 -37 -46 -52s-51.667 -27 -89 -36s-85 -13.5 -143 -13.5c-7.33301 0 -16.666 0.166992 -27.999 0.5s-21.666 0.833008 -30.999 1.5
c-2 -17.333 -3 -29.666 -3 -36.999c0 -43.333 9.66699 -74.166 29 -92.499s47 -27.5 83 -27.5c10 0 21 1.16699 33 3.5s24 5.5 36 9.5s23.833 8.66699 35.5 14s21.834 11 30.501 17l31 -45c-24 -17.333 -51.5 -31 -82.5 -41s-61.5 -15 -91.5 -15
c-56.667 0 -98.167 15 -124.5 45s-39.5 74 -39.5 132c0 38 4.5 76.5 13.5 115.5s23.333 74.5 43 106.5s45 58 76 78s68.167 30 111.5 30zM281.997 443.998c-27.333 0 -50.666 -5.33301 -69.999 -16s-35.666 -24.5 -48.999 -41.5s-23.833 -36.167 -31.5 -57.5
s-13.5 -43 -17.5 -65c11.333 -1.33301 22.666 -2 33.999 -2h29c46.667 0 84 3.5 112 10.5s49.5 15.5 64.5 25.5s24.833 20.833 29.5 32.5s7 22.167 7 31.5c0 25.333 -9.33301 45.333 -28 60s-45.334 22 -80.001 22zM178.997 602.998l11 59h262l-12 -59h-261z" />
    <glyph glyph-name="Ebreve" unicode="&#x114;" horiz-adv-x="525" 
d="M35 0l136 696h410l-12 -62h-344l-48 -252h304l-12 -60h-304l-51 -260h373l-12 -62h-440zM323 857c-2.66699 -19.333 1.83203 -35.5 13.499 -48.5s28.5 -19.5 50.5 -19.5c25.333 0 46 7 62 21s26.333 29.667 31 47h59c-3.33301 -14 -9 -28 -17 -42
s-18.5 -26.833 -31.5 -38.5s-28.667 -21.167 -47 -28.5s-39.5 -11 -63.5 -11c-23.333 0 -42.666 3.83301 -57.999 11.5s-27.333 17.5 -36 29.5s-14.5 25 -17.5 39s-3.5 27.333 -1.5 40h56z" />
    <glyph glyph-name="ebreve" unicode="&#x115;" horiz-adv-x="462" 
d="M285 501c54 0 95.6641 -12.002 124.997 -36.002s44 -56 44 -96c0 -21.333 -4.33301 -41.833 -13 -61.5s-24 -37 -46 -52s-51.667 -27 -89 -36s-85 -13.5 -143 -13.5c-7.33301 0 -16.666 0.166992 -27.999 0.5s-21.666 0.833008 -30.999 1.5
c-2 -17.333 -3 -29.666 -3 -36.999c0 -43.333 9.66699 -74.166 29 -92.499s47 -27.5 83 -27.5c10 0 21 1.16699 33 3.5s24 5.5 36 9.5s23.833 8.66699 35.5 14s21.834 11 30.501 17l31 -45c-24 -17.333 -51.5 -31 -82.5 -41s-61.5 -15 -91.5 -15
c-56.667 0 -98.167 15 -124.5 45s-39.5 74 -39.5 132c0 38 4.5 76.5 13.5 115.5s23.333 74.5 43 106.5s45 58 76 78s68.167 30 111.5 30zM281.997 443.998c-27.333 0 -50.666 -5.33301 -69.999 -16s-35.666 -24.5 -48.999 -41.5s-23.833 -36.167 -31.5 -57.5
s-13.5 -43 -17.5 -65c11.333 -1.33301 22.666 -2 33.999 -2h29c46.667 0 84 3.5 112 10.5s49.5 15.5 64.5 25.5s24.833 20.833 29.5 32.5s7 22.167 7 31.5c0 25.333 -9.33301 45.333 -28 60s-45.334 22 -80.001 22zM240.997 702.998
c-1.33301 -16.667 3.83203 -32.667 15.499 -48s29.167 -23 52.5 -23s43.5 7.16699 60.5 21.5s27.833 30.833 32.5 49.5h59c-4 -14.667 -10 -29.5 -18 -44.5s-18.333 -28.5 -31 -40.5s-27.667 -21.667 -45 -29s-37.666 -11 -60.999 -11c-45.333 0 -77.5 12 -96.5 36
s-26.833 53.667 -23.5 89h55z" />
    <glyph glyph-name="Edotaccent" unicode="&#x116;" horiz-adv-x="525" 
d="M35 0l136 696h410l-12 -62h-344l-48 -252h304l-12 -60h-304l-51 -260h373l-12 -62h-440zM347 761l14 72h71l-14 -72h-71z" />
    <glyph glyph-name="edotaccent" unicode="&#x117;" horiz-adv-x="462" 
d="M285 501c54 0 95.6641 -12.002 124.997 -36.002s44 -56 44 -96c0 -21.333 -4.33301 -41.833 -13 -61.5s-24 -37 -46 -52s-51.667 -27 -89 -36s-85 -13.5 -143 -13.5c-7.33301 0 -16.666 0.166992 -27.999 0.5s-21.666 0.833008 -30.999 1.5
c-2 -17.333 -3 -29.666 -3 -36.999c0 -43.333 9.66699 -74.166 29 -92.499s47 -27.5 83 -27.5c10 0 21 1.16699 33 3.5s24 5.5 36 9.5s23.833 8.66699 35.5 14s21.834 11 30.501 17l31 -45c-24 -17.333 -51.5 -31 -82.5 -41s-61.5 -15 -91.5 -15
c-56.667 0 -98.167 15 -124.5 45s-39.5 74 -39.5 132c0 38 4.5 76.5 13.5 115.5s23.333 74.5 43 106.5s45 58 76 78s68.167 30 111.5 30zM281.997 443.998c-27.333 0 -50.666 -5.33301 -69.999 -16s-35.666 -24.5 -48.999 -41.5s-23.833 -36.167 -31.5 -57.5
s-13.5 -43 -17.5 -65c11.333 -1.33301 22.666 -2 33.999 -2h29c46.667 0 84 3.5 112 10.5s49.5 15.5 64.5 25.5s24.833 20.833 29.5 32.5s7 22.167 7 31.5c0 25.333 -9.33301 45.333 -28 60s-45.334 22 -80.001 22zM262.997 601.998l14 72h71l-14 -72h-71z" />
    <glyph glyph-name="Eogonek" unicode="&#x118;" horiz-adv-x="525" 
d="M427 -177c-24 0 -42.668 6.66797 -56.001 20.001s-20 29.666 -20 48.999c0 14.667 4.16699 30.834 12.5 48.501s23.5 37.5 45.5 59.5h-374l136 696h410l-12 -62h-344l-48 -252h304l-12 -60h-304l-51 -260h373l-12 -62h-18c-17.333 -18 -30.166 -35 -38.499 -51
s-12.5 -30.667 -12.5 -44c0 -23.333 14.333 -35 43 -35c8 0 17 1.16699 27 3.5s20.667 6.16602 32 11.499l9 -39c-13.333 -7.33301 -27.833 -13 -43.5 -17s-31.167 -6 -46.5 -6z" />
    <glyph glyph-name="eogonek" unicode="&#x119;" horiz-adv-x="462" 
d="M307 -153c-24 0 -42.6699 6.66602 -56.0029 19.999s-20 29.666 -20 48.999c0 12 2.66699 25 8 39s15 29.333 29 46c-10.667 -2 -21.334 -3.66699 -32.001 -5s-21 -2 -31 -2c-56.667 0 -98.167 15 -124.5 45s-39.5 74 -39.5 132c0 38 4.5 76.5 13.5 115.5
s23.333 74.5 43 106.5s45 58 76 78s68.167 30 111.5 30c54 0 95.667 -12 125 -36s44 -56 44 -96c0 -21.333 -4.33301 -41.833 -13 -61.5s-24 -37 -46 -52s-51.667 -27 -89 -36s-85 -13.5 -143 -13.5c-7.33301 0 -16.666 0.166992 -27.999 0.5s-21.666 0.833008 -30.999 1.5
c-2 -17.333 -3 -29.666 -3 -36.999c0 -43.333 9.66699 -74.166 29 -92.499s47 -27.5 83 -27.5c10 0 21 1.16699 33 3.5s24 5.5 36 9.5s23.833 8.66699 35.5 14s21.834 11 30.501 17l31 -45c-12 -9.33301 -26 -17.666 -42 -24.999v-1c-17.333 -18 -30.166 -35 -38.499 -51
s-12.5 -30.667 -12.5 -44c0 -23.333 14.333 -35 43 -35c8 0 17 1.16699 27 3.5s20.667 6.16602 32 11.499l9 -39c-13.333 -7.33301 -27.833 -13 -43.5 -17s-31.167 -6 -46.5 -6zM281.997 443.999c-27.333 0 -50.666 -5.33301 -69.999 -16s-35.666 -24.5 -48.999 -41.5
s-23.833 -36.167 -31.5 -57.5s-13.5 -43 -17.5 -65c11.333 -1.33301 22.666 -2 33.999 -2h29c46.667 0 84 3.5 112 10.5s49.5 15.5 64.5 25.5s24.833 20.833 29.5 32.5s7 22.167 7 31.5c0 25.333 -9.33301 45.333 -28 60s-45.334 22 -80.001 22z" />
    <glyph glyph-name="Ecaron" unicode="&#x11a;" horiz-adv-x="525" 
d="M35 0l136 696h410l-12 -62h-344l-48 -252h304l-12 -60h-304l-51 -260h373l-12 -62h-440zM376 799l163 87l18 -30l-165 -120h-45l-112 119l29 27z" />
    <glyph glyph-name="ecaron" unicode="&#x11b;" horiz-adv-x="462" 
d="M285 501c54 0 95.6641 -12.002 124.997 -36.002s44 -56 44 -96c0 -21.333 -4.33301 -41.833 -13 -61.5s-24 -37 -46 -52s-51.667 -27 -89 -36s-85 -13.5 -143 -13.5c-7.33301 0 -16.666 0.166992 -27.999 0.5s-21.666 0.833008 -30.999 1.5
c-2 -17.333 -3 -29.666 -3 -36.999c0 -43.333 9.66699 -74.166 29 -92.499s47 -27.5 83 -27.5c10 0 21 1.16699 33 3.5s24 5.5 36 9.5s23.833 8.66699 35.5 14s21.834 11 30.501 17l31 -45c-24 -17.333 -51.5 -31 -82.5 -41s-61.5 -15 -91.5 -15
c-56.667 0 -98.167 15 -124.5 45s-39.5 74 -39.5 132c0 38 4.5 76.5 13.5 115.5s23.333 74.5 43 106.5s45 58 76 78s68.167 30 111.5 30zM281.997 443.998c-27.333 0 -50.666 -5.33301 -69.999 -16s-35.666 -24.5 -48.999 -41.5s-23.833 -36.167 -31.5 -57.5
s-13.5 -43 -17.5 -65c11.333 -1.33301 22.666 -2 33.999 -2h29c46.667 0 84 3.5 112 10.5s49.5 15.5 64.5 25.5s24.833 20.833 29.5 32.5s7 22.167 7 31.5c0 25.333 -9.33301 45.333 -28 60s-45.334 22 -80.001 22zM459.997 721.998l24 -29l-161 -138h-45l-114 139l36 29
l108 -104z" />
    <glyph glyph-name="Gcircumflex" unicode="&#x11c;" horiz-adv-x="580" 
d="M257 55c27.333 0 52.6689 4.66699 76.002 14s44.166 22.333 62.499 39s33.666 36 45.999 58s21.166 46 26.499 72l13 63h-150l12 61h217l-26 -127c-6.66699 -35.333 -18 -67.833 -34 -97.5s-36.333 -55.167 -61 -76.5s-53 -37.833 -85 -49.5s-67.333 -17.5 -106 -17.5
c-41.333 0 -76.166 7 -104.499 21s-50.666 33 -66.999 57s-26.666 51.667 -30.999 83s-2.83301 64 4.5 98l39 198c6.66699 33.333 17.167 65 31.5 95s33 56.333 56 79s50.167 40.667 81.5 54s67.666 20 108.999 20c54 0 98.5 -12.667 133.5 -38s59.5 -59 73.5 -101l-67 -29
c-7.33301 30 -23.166 54.833 -47.499 74.5s-54.5 29.5 -90.5 29.5c-32.667 0 -61.334 -5.33301 -86.001 -16s-45.667 -24.834 -63 -42.501s-31.5 -38.167 -42.5 -61.5s-18.833 -47.333 -23.5 -72l-37 -193c-5.33301 -25.333 -6.83301 -49.666 -4.5 -72.999s9 -44 20 -62
s26.667 -32.5 47 -43.5s46.166 -16.5 77.499 -16.5zM403.003 822l-161 -87l-17 30l165 120h45l111 -119l-30 -29z" />
    <glyph glyph-name="gcircumflex" unicode="&#x11d;" horiz-adv-x="495" 
d="M484 496l-46.998 -247.998l-48 -248c-6 -32 -14.667 -60.667 -26 -86s-26.166 -47 -44.499 -65s-40.5 -31.833 -66.5 -41.5s-57 -14.5 -93 -14.5c-12 0 -24.833 1.16699 -38.5 3.5s-27.167 6 -40.5 11s-25.833 11 -37.5 18s-21.834 15.167 -30.501 24.5
c7.33301 7.33301 14 14.833 20 22.5s12.667 15.5 20 23.5c15.333 -13.333 32.666 -24 51.999 -32s39 -12 59 -12c24.667 0 46 3.66699 64 11s33.5 17.5 46.5 30.5s23.5 28.5 31.5 46.5s14.667 37.667 20 59c3.33301 12 6 24.167 8 36.5s4.66699 24.833 8 37.5h-2
c-21.333 -28 -45 -48 -71 -60s-54.667 -18 -86 -18c-26 0 -47.667 4.16699 -65 12.5s-31.333 19.666 -42 33.999s-18.334 31.5 -23.001 51.5s-7 41.667 -7 65c0 24 1.66699 49.167 5 75.5s9 52.166 17 77.499s18 49.5 30 72.5s26.667 43.333 44 61s37.333 31.667 60 42
s48.667 15.5 78 15.5c28.667 0 54.167 -6.16699 76.5 -18.5s39.833 -31.833 52.5 -58.5h1l14 71h61zM383.002 323.002c0 16.667 -2.00195 32.334 -6.00195 47.001s-10.167 27.5 -18.5 38.5s-19.166 19.667 -32.499 26s-29 9.5 -47 9.5c-32 0 -58.833 -9.16699 -80.5 -27.5
s-39.167 -41.333 -52.5 -69s-22.833 -57.5 -28.5 -89.5s-8.5 -61.333 -8.5 -88c0 -17.333 1.33301 -33 4 -47s7.66699 -26 15 -36s17 -17.833 29 -23.5s27.667 -8.5 47 -8.5c32 0 59.167 9.16699 81.5 27.5s40.833 41 55.5 68s25.334 56.167 32.001 87.5
s10 59.666 10 84.999zM340 665.002l-157 -105l-25 30l168 139h46l108 -137l-37 -31z" />
    <glyph glyph-name="Gbreve" unicode="&#x11e;" horiz-adv-x="580" 
d="M257 55c27.333 0 52.6689 4.66699 76.002 14s44.166 22.333 62.499 39s33.666 36 45.999 58s21.166 46 26.499 72l13 63h-150l12 61h217l-26 -127c-6.66699 -35.333 -18 -67.833 -34 -97.5s-36.333 -55.167 -61 -76.5s-53 -37.833 -85 -49.5s-67.333 -17.5 -106 -17.5
c-41.333 0 -76.166 7 -104.499 21s-50.666 33 -66.999 57s-26.666 51.667 -30.999 83s-2.83301 64 4.5 98l39 198c6.66699 33.333 17.167 65 31.5 95s33 56.333 56 79s50.167 40.667 81.5 54s67.666 20 108.999 20c54 0 98.5 -12.667 133.5 -38s59.5 -59 73.5 -101l-67 -29
c-7.33301 30 -23.166 54.833 -47.499 74.5s-54.5 29.5 -90.5 29.5c-32.667 0 -61.334 -5.33301 -86.001 -16s-45.667 -24.834 -63 -42.501s-31.5 -38.167 -42.5 -61.5s-18.833 -47.333 -23.5 -72l-37 -193c-5.33301 -25.333 -6.83301 -49.666 -4.5 -72.999s9 -44 20 -62
s26.667 -32.5 47 -43.5s46.166 -16.5 77.499 -16.5zM333.003 857c-2.66699 -19.333 1.83203 -35.5 13.499 -48.5s28.5 -19.5 50.5 -19.5c25.333 0 46 7 62 21s26.333 29.667 31 47h59c-3.33301 -14 -9 -28 -17 -42s-18.5 -26.833 -31.5 -38.5s-28.667 -21.167 -47 -28.5
s-39.5 -11 -63.5 -11c-23.333 0 -42.666 3.83301 -57.999 11.5s-27.333 17.5 -36 29.5s-14.5 25 -17.5 39s-3.5 27.333 -1.5 40h56z" />
    <glyph glyph-name="gbreve" unicode="&#x11f;" horiz-adv-x="495" 
d="M484 496l-46.998 -247.998l-48 -248c-6 -32 -14.667 -60.667 -26 -86s-26.166 -47 -44.499 -65s-40.5 -31.833 -66.5 -41.5s-57 -14.5 -93 -14.5c-12 0 -24.833 1.16699 -38.5 3.5s-27.167 6 -40.5 11s-25.833 11 -37.5 18s-21.834 15.167 -30.501 24.5
c7.33301 7.33301 14 14.833 20 22.5s12.667 15.5 20 23.5c15.333 -13.333 32.666 -24 51.999 -32s39 -12 59 -12c24.667 0 46 3.66699 64 11s33.5 17.5 46.5 30.5s23.5 28.5 31.5 46.5s14.667 37.667 20 59c3.33301 12 6 24.167 8 36.5s4.66699 24.833 8 37.5h-2
c-21.333 -28 -45 -48 -71 -60s-54.667 -18 -86 -18c-26 0 -47.667 4.16699 -65 12.5s-31.333 19.666 -42 33.999s-18.334 31.5 -23.001 51.5s-7 41.667 -7 65c0 24 1.66699 49.167 5 75.5s9 52.166 17 77.499s18 49.5 30 72.5s26.667 43.333 44 61s37.333 31.667 60 42
s48.667 15.5 78 15.5c28.667 0 54.167 -6.16699 76.5 -18.5s39.833 -31.833 52.5 -58.5h1l14 71h61zM383.002 323.002c0 16.667 -2.00195 32.334 -6.00195 47.001s-10.167 27.5 -18.5 38.5s-19.166 19.667 -32.499 26s-29 9.5 -47 9.5c-32 0 -58.833 -9.16699 -80.5 -27.5
s-39.167 -41.333 -52.5 -69s-22.833 -57.5 -28.5 -89.5s-8.5 -61.333 -8.5 -88c0 -17.333 1.33301 -33 4 -47s7.66699 -26 15 -36s17 -17.833 29 -23.5s27.667 -8.5 47 -8.5c32 0 59.167 9.16699 81.5 27.5s40.833 41 55.5 68s25.334 56.167 32.001 87.5
s10 59.666 10 84.999zM254 703.002c-1.33301 -16.667 3.83203 -32.667 15.499 -48s29.167 -23 52.5 -23s43.5 7.16699 60.5 21.5s27.833 30.833 32.5 49.5h59c-4 -14.667 -10 -29.5 -18 -44.5s-18.333 -28.5 -31 -40.5s-27.667 -21.667 -45 -29s-37.666 -11 -60.999 -11
c-45.333 0 -77.5 12 -96.5 36s-26.833 53.667 -23.5 89h55z" />
    <glyph glyph-name="Gdotaccent" unicode="&#x120;" horiz-adv-x="580" 
d="M257 55c27.333 0 52.6689 4.66699 76.002 14s44.166 22.333 62.499 39s33.666 36 45.999 58s21.166 46 26.499 72l13 63h-150l12 61h217l-26 -127c-6.66699 -35.333 -18 -67.833 -34 -97.5s-36.333 -55.167 -61 -76.5s-53 -37.833 -85 -49.5s-67.333 -17.5 -106 -17.5
c-41.333 0 -76.166 7 -104.499 21s-50.666 33 -66.999 57s-26.666 51.667 -30.999 83s-2.83301 64 4.5 98l39 198c6.66699 33.333 17.167 65 31.5 95s33 56.333 56 79s50.167 40.667 81.5 54s67.666 20 108.999 20c54 0 98.5 -12.667 133.5 -38s59.5 -59 73.5 -101l-67 -29
c-7.33301 30 -23.166 54.833 -47.499 74.5s-54.5 29.5 -90.5 29.5c-32.667 0 -61.334 -5.33301 -86.001 -16s-45.667 -24.834 -63 -42.501s-31.5 -38.167 -42.5 -61.5s-18.833 -47.333 -23.5 -72l-37 -193c-5.33301 -25.333 -6.83301 -49.666 -4.5 -72.999s9 -44 20 -62
s26.667 -32.5 47 -43.5s46.166 -16.5 77.499 -16.5zM351.003 752l14 72h71l-14 -72h-71z" />
    <glyph glyph-name="gdotaccent" unicode="&#x121;" horiz-adv-x="495" 
d="M484 496l-46.998 -247.998l-48 -248c-6 -32 -14.667 -60.667 -26 -86s-26.166 -47 -44.499 -65s-40.5 -31.833 -66.5 -41.5s-57 -14.5 -93 -14.5c-12 0 -24.833 1.16699 -38.5 3.5s-27.167 6 -40.5 11s-25.833 11 -37.5 18s-21.834 15.167 -30.501 24.5
c7.33301 7.33301 14 14.833 20 22.5s12.667 15.5 20 23.5c15.333 -13.333 32.666 -24 51.999 -32s39 -12 59 -12c24.667 0 46 3.66699 64 11s33.5 17.5 46.5 30.5s23.5 28.5 31.5 46.5s14.667 37.667 20 59c3.33301 12 6 24.167 8 36.5s4.66699 24.833 8 37.5h-2
c-21.333 -28 -45 -48 -71 -60s-54.667 -18 -86 -18c-26 0 -47.667 4.16699 -65 12.5s-31.333 19.666 -42 33.999s-18.334 31.5 -23.001 51.5s-7 41.667 -7 65c0 24 1.66699 49.167 5 75.5s9 52.166 17 77.499s18 49.5 30 72.5s26.667 43.333 44 61s37.333 31.667 60 42
s48.667 15.5 78 15.5c28.667 0 54.167 -6.16699 76.5 -18.5s39.833 -31.833 52.5 -58.5h1l14 71h61zM383.002 323.002c0 16.667 -2.00195 32.334 -6.00195 47.001s-10.167 27.5 -18.5 38.5s-19.166 19.667 -32.499 26s-29 9.5 -47 9.5c-32 0 -58.833 -9.16699 -80.5 -27.5
s-39.167 -41.333 -52.5 -69s-22.833 -57.5 -28.5 -89.5s-8.5 -61.333 -8.5 -88c0 -17.333 1.33301 -33 4 -47s7.66699 -26 15 -36s17 -17.833 29 -23.5s27.667 -8.5 47 -8.5c32 0 59.167 9.16699 81.5 27.5s40.833 41 55.5 68s25.334 56.167 32.001 87.5
s10 59.666 10 84.999zM291 602.002l14 72h71l-14 -72h-71z" />
    <glyph glyph-name="Gcommaaccent" unicode="&#x122;" horiz-adv-x="580" 
d="M257 55c27.333 0 52.6689 4.66699 76.002 14s44.166 22.333 62.499 39s33.666 36 45.999 58s21.166 46 26.499 72l13 63h-150l12 61h217l-26 -127c-6.66699 -35.333 -18 -67.833 -34 -97.5s-36.333 -55.167 -61 -76.5s-53 -37.833 -85 -49.5s-67.333 -17.5 -106 -17.5
c-41.333 0 -76.166 7 -104.499 21s-50.666 33 -66.999 57s-26.666 51.667 -30.999 83s-2.83301 64 4.5 98l39 198c6.66699 33.333 17.167 65 31.5 95s33 56.333 56 79s50.167 40.667 81.5 54s67.666 20 108.999 20c54 0 98.5 -12.667 133.5 -38s59.5 -59 73.5 -101l-67 -29
c-7.33301 30 -23.166 54.833 -47.499 74.5s-54.5 29.5 -90.5 29.5c-32.667 0 -61.334 -5.33301 -86.001 -16s-45.667 -24.834 -63 -42.501s-31.5 -38.167 -42.5 -61.5s-18.833 -47.333 -23.5 -72l-37 -193c-5.33301 -25.333 -6.83301 -49.666 -4.5 -72.999s9 -44 20 -62
s26.667 -32.5 47 -43.5s46.166 -16.5 77.499 -16.5zM197.003 -247h-39l51 90h-27l17 89h82l-17 -87z" />
    <glyph glyph-name="gcommaaccent" unicode="&#x123;" horiz-adv-x="495" 
d="M484 496l-47.002 -247.999l-48 -248c-6 -32 -15 -60.833 -27 -86.5s-27.333 -47.5 -46 -65.5s-41.167 -31.667 -67.5 -41s-57.166 -14 -92.499 -14c-12 0 -24.667 1.16699 -38 3.5s-26.5 6 -39.5 11s-25.167 11 -36.5 18s-21.333 15.167 -30 24.5l40 46
c16 -13.333 32.667 -24 50 -32s36.333 -12 57 -12c33.333 0 60.5 6.16699 81.5 18.5s38 28.666 51 48.999s23.167 43.833 30.5 70.5s13.666 54.334 18.999 83.001h-2c-41.333 -52 -93.666 -78 -156.999 -78c-26 0 -47.667 4.16699 -65 12.5s-31.166 19.666 -41.499 33.999
s-17.833 31.5 -22.5 51.5s-7 41.667 -7 65c0 36 4 74 12 114s21.167 77 39.5 111s42.333 62.167 72 84.5s66.167 33.5 109.5 33.5c28.667 0 54.167 -6 76.5 -18s39.833 -31.333 52.5 -58h1l14 71h61zM382.998 323.001c0 16.667 -1.66699 32.168 -5 46.501
s-8.83301 26.833 -16.5 37.5s-17.834 19 -30.501 25s-28 9 -46 9c-34 0 -62.167 -9 -84.5 -27s-40.166 -40.667 -53.499 -68s-22.833 -56.833 -28.5 -88.5s-8.5 -60.834 -8.5 -87.501c0 -34 7.33301 -61.5 22 -82.5s40.667 -31.5 78 -31.5c32 0 59 9.16699 81 27.5
s39.833 41 53.5 68s23.5 56 29.5 87s9 59.167 9 84.5zM399.998 753.002l-51 -89h27l-18 -89h-81l19 96l31.5 41l33.5 41h39z" />
    <glyph glyph-name="Hcircumflex" unicode="&#x124;" horiz-adv-x="618" 
d="M436 0l62 322h-333l-63 -322h-67l136 696h66l-61 -314h334l61 314h67l-136 -696h-66zM431 822l-161 -87l-17 30l165 120h45l111 -119l-30 -29z" />
    <glyph glyph-name="hcircumflex" unicode="&#x125;" horiz-adv-x="512" 
d="M343 0l60 306.999c7.33301 38.667 3.83301 70.334 -10.5 95.001s-42.166 37 -83.499 37c-18.667 0 -36.834 -3.33301 -54.501 -10s-33.667 -16 -48 -28s-26.833 -26.5 -37.5 -43.5s-18 -36.167 -22 -57.5l-59 -300h-61l141 727h61l-59 -303h3
c21.333 26.667 46.333 46.167 75 58.5s56.667 18.5 84 18.5c22.667 0 43.667 -3.66699 63 -11s35.333 -18.5 48 -33.5s21.5 -33.667 26.5 -56s4.5 -48.5 -1.5 -78.5l-62 -322h-63zM220 821.999l-161 -87l-17 30l165 120h45l111 -119l-30 -29z" />
    <glyph glyph-name="Hbar" unicode="&#x126;" horiz-adv-x="618" 
d="M436 0l62 322h-333l-63 -322h-67l107 548h-61l9 47h61l20 101h66l-20 -101h334l20 101h67l-20 -101h55l-9 -47h-55l-107 -548h-66zM510 382l32 166h-334l-32 -166h334z" />
    <glyph glyph-name="hbar" unicode="&#x127;" horiz-adv-x="512" 
d="M343 0l60 306.999c7.33301 38.667 3.83301 70.334 -10.5 95.001s-42.166 37 -83.499 37c-18.667 0 -36.834 -3.33301 -54.501 -10s-33.667 -16 -48 -28s-26.833 -26.5 -37.5 -43.5s-18 -36.167 -22 -57.5l-59 -300h-61l113 583h-76l10 48h75l19 96h61l-19 -96h247l-9 -48
h-247l-31 -159h3c21.333 26.667 46.333 46.167 75 58.5s56.667 18.5 84 18.5c22.667 0 43.667 -3.66699 63 -11s35.333 -18.5 48 -33.5s21.5 -33.667 26.5 -56s4.5 -48.5 -1.5 -78.5l-62 -322h-63z" />
    <glyph glyph-name="Itilde" unicode="&#x128;" horiz-adv-x="222" 
d="M37 0l136 696h66l-135 -696h-67zM159 845c12 0 23.833 -2.33105 35.5 -6.99805s23.167 -9.66699 34.5 -15l33 -15c10.667 -4.66699 21 -7 31 -7s19.833 3 29.5 9s20.834 16.667 33.501 32l36 -23c-14.667 -28 -31.167 -47.5 -49.5 -58.5s-37.166 -16.5 -56.499 -16.5
c-12 0 -23.833 2.16699 -35.5 6.5s-23.334 9.16602 -35.001 14.499s-22.834 10.166 -33.501 14.499s-20.667 6.5 -30 6.5c-12 0 -22.333 -2.66699 -31 -8s-20 -14.666 -34 -27.999l-34 23c16 25.333 33 43.666 51 54.999s36.333 17 55 17z" />
    <glyph glyph-name="itilde" unicode="&#x129;" horiz-adv-x="263" 
d="M81 0l96 495h62l-96 -495h-62zM165 689c12 0 23.833 -2.33105 35.5 -6.99805s23.167 -9.66699 34.5 -15l33 -15c10.667 -4.66699 21 -7 31 -7s19.833 3 29.5 9s20.834 16.667 33.501 32l36 -23c-14.667 -28 -31.167 -47.5 -49.5 -58.5s-37.166 -16.5 -56.499 -16.5
c-12 0 -23.833 2.16699 -35.5 6.5s-23.334 9.16602 -35.001 14.499s-22.834 10.166 -33.501 14.499s-20.667 6.5 -30 6.5c-12 0 -22.333 -2.66699 -31 -8s-20 -14.666 -34 -27.999l-34 23c16 25.333 33 43.666 51 54.999s36.333 17 55 17z" />
    <glyph glyph-name="Imacron" unicode="&#x12a;" horiz-adv-x="222" 
d="M37 0l136 696h66l-135 -696h-67zM86 768l12 57h261l-11 -57h-262z" />
    <glyph glyph-name="imacron" unicode="&#x12b;" horiz-adv-x="208" 
d="M33 0l96 495h62l-96 -495h-62zM58 603l12 59h261l-11 -59h-262z" />
    <glyph glyph-name="Ibreve" unicode="&#x12c;" horiz-adv-x="222" 
d="M151 857c-2.66699 -19.333 1.83203 -35.5 13.499 -48.5s28.5 -19.5 50.5 -19.5c25.333 0 46 7 62 21s26.333 29.667 31 47h59c-3.33301 -14 -9 -28 -17 -42s-18.5 -26.833 -31.5 -38.5s-28.667 -21.167 -47 -28.5s-39.5 -11 -63.5 -11
c-23.333 0 -42.666 3.83301 -57.999 11.5s-27.333 17.5 -36 29.5s-14.5 25 -17.5 39s-3.5 27.333 -1.5 40h56zM36.999 0l136 696h66l-135 -696h-67z" />
    <glyph glyph-name="ibreve" unicode="&#x12d;" horiz-adv-x="246" 
d="M64 0l96 495h62l-96 -495h-62zM140 709c-1.33301 -16.667 3.83203 -32.667 15.499 -48s29.167 -23 52.5 -23s43.5 7.16699 60.5 21.5s27.833 30.833 32.5 49.5h59c-4 -14.667 -10 -29.5 -18 -44.5s-18.333 -28.5 -31 -40.5s-27.667 -21.667 -45 -29
s-37.666 -11 -60.999 -11c-45.333 0 -77.5 12 -96.5 36s-26.833 53.667 -23.5 89h55z" />
    <glyph glyph-name="Iogonek" unicode="&#x12e;" horiz-adv-x="222" 
d="M65 -177c-24 0 -42.668 6.66797 -56.001 20.001s-20 29.666 -20 48.999c0 14.667 4.16699 30.834 12.5 48.501s23.5 37.5 45.5 59.5h-10l136 696h66l-135 -696h-9c-17.333 -18 -30.166 -35 -38.499 -51s-12.5 -30.667 -12.5 -44c0 -23.333 14.333 -35 43 -35
c8 0 17 1.16699 27 3.5s20.667 6.16602 32 11.499l9 -39c-13.333 -7.33301 -27.833 -13 -43.5 -17s-31.167 -6 -46.5 -6z" />
    <glyph glyph-name="iogonek" unicode="&#x12f;" horiz-adv-x="208" 
d="M59 -177c-24 0 -42.668 6.66797 -56.001 20.001s-20 29.666 -20 48.999c0 14.667 4.33301 30.834 13 48.501s23.667 37.5 45 59.5h-8l96 495h62l-96 -495h-6c-17.333 -18 -30.166 -35 -38.499 -51s-12.5 -30.667 -12.5 -44c0 -23.333 14.333 -35 43 -35
c8 0 17 1.16699 27 3.5s20.667 6.16602 32 11.499l9 -39c-13.333 -7.33301 -27.833 -13 -43.5 -17s-31.167 -6 -46.5 -6zM153.999 631.001l13 65h64l-13 -65h-64z" />
    <glyph glyph-name="Idotaccent" unicode="&#x130;" horiz-adv-x="222" 
d="M37 0l136 696h66l-135 -696h-67zM181 752l14 72h71l-14 -72h-71z" />
    <glyph glyph-name="dotlessi" unicode="&#x131;" horiz-adv-x="208" 
d="M33 0l96 495h62l-96 -495h-62z" />
    <glyph glyph-name="IJ" unicode="&#x132;" horiz-adv-x="650" 
d="M37 0l136 696h66l-135 -696h-67zM589 205c-8 -40 -19.167 -73.499 -33.5 -100.499s-31.833 -48.667 -52.5 -65s-43.667 -28 -69 -35s-53 -10.5 -83 -10.5c-30.667 0 -58.667 5.83301 -84 17.5s-45.333 27.167 -60 46.5l49 45c26 -31.333 56.667 -47 92 -47
c20 0 39.5 2.5 58.5 7.5s36.167 14 51.5 27s29 30.167 41 51.5s21 48.666 27 81.999l92 472h66z" />
    <glyph glyph-name="ij" unicode="&#x133;" horiz-adv-x="392" 
d="M288 -72c-7.33301 -40 -23.998 -71.833 -49.998 -95.5s-59 -35.5 -99 -35.5h-30l10 57c1.33301 0 5.5 -0.166992 12.5 -0.5s10.833 -0.166016 11.5 0.500977c21.333 0.666992 39.166 7.66699 53.499 21s24.166 32.666 29.499 57.999l109 562h63zM33.002 0l96 495h62
l-96 -495h-62zM362.002 631c0 2 0.667969 6.16699 2.00098 12.5s2.66602 13 3.99902 20s2.5 13.667 3.5 20s1.83301 10.5 2.5 12.5h65l-13 -65h-64zM154.003 631l13 65h64l-13 -65h-64z" />
    <glyph glyph-name="Jcircumflex" unicode="&#x134;" horiz-adv-x="449" 
d="M381 206c-8 -40 -19.167 -73.499 -33.5 -100.499s-31.833 -48.667 -52.5 -65s-43.667 -28 -69 -35s-53 -10.5 -83 -10.5c-30.667 0 -58.667 5.83301 -84 17.5s-45.333 27.167 -60 46.5l49 45c26 -31.333 56.667 -47 92 -47c20 0 39.5 2.5 58.5 7.5s36.167 14 51.5 27
s29 30.167 41 51.5s21 48.666 27 81.999l92 472h66zM469 824.001l-161 -87l-17 30l165 120h45l111 -119l-30 -29z" />
    <glyph glyph-name="jcircumflex" unicode="&#x135;" horiz-adv-x="276" 
d="M-39 -146c1.33301 0 3.66797 -0.166992 7.00098 -0.5s6.66602 -0.5 9.99902 -0.5c23.333 0 42.833 6.66699 58.5 20s26.167 33.333 31.5 60l109 562h63l-55 -284l-55 -283c-7.33301 -40 -24 -71.833 -50 -95.5s-59 -35.5 -99 -35.5h-30zM244.002 665l-78.5 -52.5
l-77.5 -52.5l-26 30l168 138h45l108 -137l-36 -30z" />
    <glyph glyph-name="Kcommaaccent" unicode="&#x136;" horiz-adv-x="600" 
d="M469 0l-70.5 188l-70.5 188l-191 -190l-36 -186h-66l136 696h65l-39.5 -205l-39.5 -205h2l27 27l156 160l223 223h80l-266 -268l82 -214l81 -214h-73zM236 -231h-39l51 90h-27l17 89h82l-17 -87z" />
    <glyph glyph-name="kcommaaccent" unicode="&#x137;" horiz-adv-x="483" 
d="M249 265l-67 -63l-66 -63l-27 -139h-61l141 727h61l-97 -500h2l23 22l56.5 54l74 69l74 69l56.5 54h75l-198 -190l68.5 -153l68.5 -152h-66zM176 -247h-39l51 90h-27l17 89h82l-17 -87z" />
    <glyph glyph-name="kgreenlandic" unicode="&#x138;" horiz-adv-x="479" 
d="M249 265l-133.001 -126l-27 -139h-61l96 495h61l-52 -263c0.666992 0 1.33398 0.333008 2.00098 1l20 18l261 244h78l-199 -189l69.5 -153l69.5 -153h-69z" />
    <glyph glyph-name="Lacute" unicode="&#x139;" horiz-adv-x="525" 
d="M182 767l163 115l38 -50l-178 -98zM35 0l136 696h66l-124 -634h357l-11 -62h-424z" />
    <glyph glyph-name="lacute" unicode="&#x13a;" horiz-adv-x="226" 
d="M142 0c-30 0 -53.832 6.66699 -71.499 20s-26.5 34.333 -26.5 63c0 8.66699 1 18.667 3 30l121 611h61l-58.5 -302.5l-59.5 -302.5c-0.666992 -3.33301 -1.16699 -6.33301 -1.5 -9s-0.5 -5.66699 -0.5 -9c0 -13.333 4.16699 -24 12.5 -32s22.166 -12 41.499 -12h15
l-11 -57h-25zM195.001 746l-10.5 16.5c-3.66699 5.66699 -7.5 11.167 -11.5 16.5l81 57.5l81 57.5c6.66699 -8 13 -16.167 19 -24.5l19 -25.5z" />
    <glyph glyph-name="Lcommaaccent" unicode="&#x13b;" horiz-adv-x="525" 
d="M35 0l136 696h66l-124 -634h357l-11 -62h-424zM202 -247h-39l51 90h-27l17 89h82l-17 -87z" />
    <glyph glyph-name="lcommaaccent" unicode="&#x13c;" horiz-adv-x="226" 
d="M143 0c-35.333 0 -61.999 9.16699 -79.999 27.5s-23 47.166 -15 86.499l120 611h62l-118 -605c-4 -19.333 -2.33301 -34.666 5 -45.999s22.666 -17 45.999 -17h16l-12 -57h-24zM49.001 -247h-39l51 90h-27l17 89h82l-17 -87z" />
    <glyph glyph-name="Lcaron" unicode="&#x13d;" horiz-adv-x="525" 
d="M35 0l136 696h66l-124 -634h357l-11 -62h-424zM356 517h-39l51 90h-27l17 89h82l-17 -87z" />
    <glyph glyph-name="lcaron" unicode="&#x13e;" horiz-adv-x="285" 
d="M143 0c-35.333 0 -61.999 9.16699 -79.999 27.5s-23 47.166 -15 86.499l120 611h62l-118 -605c-4 -19.333 -2.33301 -34.666 5 -45.999s22.666 -17 45.999 -17h16l-12 -57h-24zM296.001 547h-39l51 90h-27l17 89h82l-17 -87z" />
    <glyph glyph-name="Ldot" unicode="&#x13f;" horiz-adv-x="525" 
d="M35 0l136 696h66l-124 -634h357l-11 -62h-424zM340 329l14 72h71l-14 -72h-71z" />
    <glyph glyph-name="ldot" unicode="&#x140;" horiz-adv-x="278" 
d="M228 347l14 72h71l-14 -72h-71zM143 0c-35.333 0 -61.999 9.16699 -79.999 27.5s-23 47.166 -15 86.499l120 611h62l-118 -605c-4 -19.333 -2.33301 -34.666 5 -45.999s22.666 -17 45.999 -17h16l-12 -57h-24z" />
    <glyph glyph-name="Lslash" unicode="&#x141;" horiz-adv-x="547" 
d="M58 0l50 256l-95 -49l-17 46l124 64l74 379h65l-67 -341l145 76l17 -46l-174 -91l-45 -232h357l-12 -62h-422z" />
    <glyph glyph-name="lslash" unicode="&#x142;" horiz-adv-x="236" 
d="M157 0c-30 0 -53.833 6.66699 -71.5 20s-26.5 34.333 -26.5 63c0 8.66699 1 18.667 3 30l37 192l-76 -40c-3.33301 7.33301 -6.16602 15 -8.49902 23s-4.83301 15.667 -7.5 23l105 54l71 359h61l-63 -324l101 52l17 -45l-129 -66l-22 -111l-22 -111
c-0.666992 -3.33301 -1.16699 -6.33301 -1.5 -9s-0.5 -5.66699 -0.5 -9c0 -13.333 4.16699 -24 12.5 -32s22.166 -12 41.499 -12h15l-11 -57h-25v0z" />
    <glyph glyph-name="Nacute" unicode="&#x143;" horiz-adv-x="655" 
d="M475 0l-88.5 198.5l-88.5 198.5l-82 189h-2l-112 -586h-66l136 696h65l30 -68.5l47.5 -107l55.5 -125l54.5 -124l44.5 -102l26 -59.5l2 -1l56.5 293.5l56.5 293.5h64l-135 -696h-64zM382 766l81 57.5l81 57.5l19 -25.5c6 -8.33301 12.333 -16.5 19 -24.5l-178 -98z" />
    <glyph glyph-name="nacute" unicode="&#x144;" horiz-adv-x="506" 
d="M339 0l59.999 306.997c4 19.333 5.83301 37.166 5.5 53.499s-4 30.333 -11 42s-17.833 20.834 -32.5 27.501s-34.667 10 -60 10c-18 0 -35.667 -3.33301 -53 -10s-33.166 -16.167 -47.499 -28.5s-26.5 -27.166 -36.5 -44.499s-17 -36.333 -21 -57l-58 -300h-61l96 495h61
l-13 -69h2c21.333 26.667 46.5 45.834 75.5 57.501s57.167 17.5 84.5 17.5c22.667 0 43.5 -3.83301 62.5 -11.5s34.833 -18.667 47.5 -33s21.5 -32.166 26.5 -53.499s4.83301 -45.333 -0.5 -72l-64 -331h-63zM264.999 572.997l98 166l61 -22l-122 -160z" />
    <glyph glyph-name="Ncommaaccent" unicode="&#x145;" horiz-adv-x="655" 
d="M475 0l-21 47.5l-31 70l-36 81l-36 81l-31 69.5l-22 48l-81 189h-2l-14 -72.5l-20 -103l-22.5 -118l-22.5 -118l-19.5 -102.5l-13.5 -72h-67l136 696h66l20.5 -46.5l30 -68.5l35 -79l35 -79l30 -68.5c9 -20.333 16.167 -35.833 21.5 -46.5l85 -198h2l14 72l20 102.5
l23 118l23 118l19.5 103l13.5 72.5h65l-135 -696h-65zM246 -221h-39l51 90h-27l17 89h82l-17 -87z" />
    <glyph glyph-name="ncommaaccent" unicode="&#x146;" horiz-adv-x="506" 
d="M339 0l59.999 306.997c4 19.333 5.83301 37.166 5.5 53.499s-4 30.333 -11 42s-17.833 20.834 -32.5 27.501s-34.667 10 -60 10c-18 0 -35.667 -3.33301 -53 -10s-33.166 -16.167 -47.499 -28.5s-26.5 -27.166 -36.5 -44.499s-17 -36.333 -21 -57l-58 -300h-61l96 495h61
l-13 -69h2c21.333 26.667 46.5 45.834 75.5 57.501s57.167 17.5 84.5 17.5c22.667 0 43.5 -3.83301 62.5 -11.5s34.833 -18.667 47.5 -33s21.5 -32.166 26.5 -53.499s4.83301 -45.333 -0.5 -72l-64 -331h-63zM158.999 -247.003h-39l51 90h-27l17 89h82l-17 -87z" />
    <glyph glyph-name="Ncaron" unicode="&#x147;" horiz-adv-x="655" 
d="M475 0l-21 47.5l-31 70l-36 81l-36 81l-31 69.5l-22 48l-81 189h-2l-14 -72.5l-20 -103l-22.5 -118l-22.5 -118l-19.5 -102.5l-13.5 -72h-67l136 696h66l20.5 -46.5l30 -68.5l35 -79l35 -79l30 -68.5c9 -20.333 16.167 -35.833 21.5 -46.5l85 -198h2l14 72l20 102.5
l23 118l23 118l19.5 103l13.5 72.5h65l-135 -696h-65zM436 799l163 87l18 -30l-165 -120h-45l-112 119l29 27z" />
    <glyph glyph-name="ncaron" unicode="&#x148;" horiz-adv-x="506" 
d="M339 0l59.999 306.997c4 19.333 5.83301 37.166 5.5 53.499s-4 30.333 -11 42s-17.833 20.834 -32.5 27.501s-34.667 10 -60 10c-18 0 -35.667 -3.33301 -53 -10s-33.166 -16.167 -47.499 -28.5s-26.5 -27.166 -36.5 -44.499s-17 -36.333 -21 -57l-58 -300h-61l96 495h61
l-13 -69h2c21.333 26.667 46.5 45.834 75.5 57.501s57.167 17.5 84.5 17.5c22.667 0 43.5 -3.83301 62.5 -11.5s34.833 -18.667 47.5 -33s21.5 -32.166 26.5 -53.499s4.83301 -45.333 -0.5 -72l-64 -331h-63zM461.999 721.997l24 -29l-161 -138h-45l-114 139l36 29l108 -104
z" />
    <glyph glyph-name="napostrophe" unicode="&#x149;" horiz-adv-x="590" 
d="M423 0l59.999 306.997c4 19.333 5.83301 37.166 5.5 53.499s-4 30.333 -11 42s-17.833 20.834 -32.5 27.501s-34.667 10 -60 10c-18 0 -35.667 -3.33301 -53 -10s-33.166 -16.167 -47.499 -28.5s-26.5 -27.166 -36.5 -44.499s-17 -36.333 -21 -57l-58 -300h-61l96 495h61
l-13 -69h2c21.333 26.667 46.5 45.834 75.5 57.501s57.167 17.5 84.5 17.5c22.667 0 43.5 -3.83301 62.5 -11.5s34.833 -18.667 47.5 -33s21.5 -32.166 26.5 -53.499s4.83301 -45.333 -0.5 -72l-64 -331h-63zM96.999 479.997h-39l51 90h-27l17 89h82l-17 -87z" />
    <glyph glyph-name="Eng" unicode="&#x14a;" horiz-adv-x="664" 
d="M479 -3l-95.501 212l-95.5 213c-2.66699 5.33301 -7.33398 15.833 -14.001 31.5l-21 50.5l-21 50.5c-6.66699 15.667 -11.334 26.167 -14.001 31.5h-2l-113 -586h-65l135 696h65l33 -76l41 -91.5l45.5 -101.5l46.5 -105l54 -123c16.667 -38 29.334 -67.667 38.001 -89
c0.666992 0 1.33398 -0.333008 2.00098 -1l57 293.5l56 293.5h64l-148 -769c-7.33301 -36 -20.333 -61.667 -39 -77s-41 -23 -67 -23c-13.333 0 -27.166 1.66699 -41.499 5s-27.5 8.33301 -39.5 15l22 47c10 -4 19.333 -7.33301 28 -10s16.667 -4 24 -4
c28.667 0 46 16 52 48l13 69v0z" />
    <glyph glyph-name="eng" unicode="&#x14b;" horiz-adv-x="500" 
d="M387 -73c-7.33301 -36 -20.333 -61.8359 -39 -77.5029s-41 -23.5 -67 -23.5c-12.667 0 -26.334 1.83301 -41.001 5.5s-28 8.83398 -40 15.501l23 46c10 -4 19 -7.16699 27 -9.5s15.667 -3.5 23 -3.5c13.333 0 24.333 4.16699 33 12.5s14.667 20.166 18 35.499l75 379
c4 19.333 5.33301 37.166 4 53.499s-5.66602 30.333 -12.999 42s-18.5 20.834 -33.5 27.501s-34.5 10 -58.5 10c-18 0 -35.5 -3.33301 -52.5 -10s-32.5 -16.167 -46.5 -28.5s-25.833 -27.166 -35.5 -44.499s-16.5 -36.333 -20.5 -57l-58 -300h-61l96 495h61l-13 -69h2
c21.333 26.667 46.5 45.834 75.5 57.501s57.167 17.5 84.5 17.5c22.667 0 43.5 -3.83301 62.5 -11.5s34.833 -18.667 47.5 -33s21.5 -32.166 26.5 -53.499s4.83301 -45.333 -0.5 -72z" />
    <glyph glyph-name="Omacron" unicode="&#x14c;" horiz-adv-x="573" 
d="M361 701c41.333 0 77.165 -6.99902 107.498 -20.999s54.5 -32.833 72.5 -56.5s30 -50.834 36 -81.501s5.66699 -63 -1 -97l-19 -98l-20 -99c-8 -38 -19 -72.667 -33 -104s-31.833 -58.166 -53.5 -80.499s-47.667 -39.5 -78 -51.5s-66.166 -18 -107.499 -18
c-36 0 -67.667 5.16699 -95 15.5s-50.166 24.5 -68.499 42.5s-32.166 39.167 -41.499 63.5s-14 50.5 -14 78.5c0 16.667 1.5 35.5 4.5 56.5s6.66699 42.833 11 65.5s9.16602 45.5 14.499 68.5l15 65.5c6.66699 33.333 16.667 65.166 30 95.499s30.666 57 51.999 80
s47.333 41.333 78 55s67.334 20.5 110.001 20.5zM354.999 640.001c-31.333 0 -58.501 -5.50098 -81.501 -16.501s-42.5 -25.667 -58.5 -44s-29 -39.166 -39 -62.499s-17.333 -47 -22 -71l-38 -196c-4.66699 -25.333 -5.66699 -49.666 -3 -72.999s10 -44.333 22 -63
s29.333 -33.5 52 -44.5s51.334 -16.5 86.001 -16.5c28.667 0 54 5 76 15s41 23.833 57 41.5s29.5 38.667 40.5 63s19.5 50.833 25.5 79.5l12.5 56l12.5 58c4 19.333 7.5 38 10.5 56s5.16699 35 6.5 51c3.33301 22.667 1.83301 44.167 -4.5 64.5s-16.5 38.166 -30.5 53.499
s-31.667 27.333 -53 36s-45 13 -71 13zM266.998 768l12 57h261l-11 -57h-262z" />
    <glyph glyph-name="omacron" unicode="&#x14d;" horiz-adv-x="489" 
d="M291 500c30 0 56.501 -5.33008 79.501 -15.9971s41.5 -25.5 55.5 -44.5s23.5 -41.167 28.5 -66.5s4.5 -53 -1.5 -83l-15 -84c-24.667 -141.333 -99 -212 -223 -212c-33.333 0 -61.833 5.33301 -85.5 16s-42.5 25.667 -56.5 45s-23.167 42.166 -27.5 68.499
s-3.5 55.5 2.5 87.5l15 79c5.33301 27.333 13.666 53.666 24.999 78.999s26.333 47.666 45 66.999s41 34.833 67 46.5s56.333 17.5 91 17.5zM281.001 443.003c-24 0 -44.999 -4.33398 -62.999 -13.001s-33.333 -20.167 -46 -34.5s-22.834 -30.666 -30.501 -48.999
s-13.167 -36.833 -16.5 -55.5l-17 -89c-4 -20.667 -4.83301 -40.167 -2.5 -58.5s7.83301 -34.333 16.5 -48s20.834 -24.5 36.501 -32.5s34.5 -12 56.5 -12c22.667 0 42.834 3.66699 60.501 11s33 17.5 46 30.5s23.833 28.5 32.5 46.5s15 37.333 19 58l19 97
c4 20.667 4.33301 40 1 58s-9.83301 33.667 -19.5 47s-22.334 24 -38.001 32s-33.834 12 -54.501 12zM193.002 603.002l11 59h262l-12 -59h-261z" />
    <glyph glyph-name="Obreve" unicode="&#x14e;" horiz-adv-x="573" 
d="M361 701c41.333 0 77.165 -6.99902 107.498 -20.999s54.5 -32.833 72.5 -56.5s30 -50.834 36 -81.501s5.66699 -63 -1 -97l-19 -98l-20 -99c-8 -38 -19 -72.667 -33 -104s-31.833 -58.166 -53.5 -80.499s-47.667 -39.5 -78 -51.5s-66.166 -18 -107.499 -18
c-36 0 -67.667 5.16699 -95 15.5s-50.166 24.5 -68.499 42.5s-32.166 39.167 -41.499 63.5s-14 50.5 -14 78.5c0 16.667 1.5 35.5 4.5 56.5s6.66699 42.833 11 65.5s9.16602 45.5 14.499 68.5l15 65.5c6.66699 33.333 16.667 65.166 30 95.499s30.666 57 51.999 80
s47.333 41.333 78 55s67.334 20.5 110.001 20.5zM354.999 640.001c-31.333 0 -58.501 -5.50098 -81.501 -16.501s-42.5 -25.667 -58.5 -44s-29 -39.166 -39 -62.499s-17.333 -47 -22 -71l-38 -196c-4.66699 -25.333 -5.66699 -49.666 -3 -72.999s10 -44.333 22 -63
s29.333 -33.5 52 -44.5s51.334 -16.5 86.001 -16.5c28.667 0 54 5 76 15s41 23.833 57 41.5s29.5 38.667 40.5 63s19.5 50.833 25.5 79.5l12.5 56l12.5 58c4 19.333 7.5 38 10.5 56s5.16699 35 6.5 51c3.33301 22.667 1.83301 44.167 -4.5 64.5s-16.5 38.166 -30.5 53.499
s-31.667 27.333 -53 36s-45 13 -71 13zM329.998 857c-2.66699 -19.333 1.83203 -35.5 13.499 -48.5s28.5 -19.5 50.5 -19.5c25.333 0 46 7 62 21s26.333 29.667 31 47h59c-3.33301 -14 -9 -28 -17 -42s-18.5 -26.833 -31.5 -38.5s-28.667 -21.167 -47 -28.5
s-39.5 -11 -63.5 -11c-23.333 0 -42.666 3.83301 -57.999 11.5s-27.333 17.5 -36 29.5s-14.5 25 -17.5 39s-3.5 27.333 -1.5 40h56z" />
    <glyph glyph-name="obreve" unicode="&#x14f;" horiz-adv-x="489" 
d="M291 500c30 0 56.501 -5.33008 79.501 -15.9971s41.5 -25.5 55.5 -44.5s23.5 -41.167 28.5 -66.5s4.5 -53 -1.5 -83l-15 -84c-24.667 -141.333 -99 -212 -223 -212c-33.333 0 -61.833 5.33301 -85.5 16s-42.5 25.667 -56.5 45s-23.167 42.166 -27.5 68.499
s-3.5 55.5 2.5 87.5l15 79c5.33301 27.333 13.666 53.666 24.999 78.999s26.333 47.666 45 66.999s41 34.833 67 46.5s56.333 17.5 91 17.5zM281.001 443.003c-24 0 -44.999 -4.33398 -62.999 -13.001s-33.333 -20.167 -46 -34.5s-22.834 -30.666 -30.501 -48.999
s-13.167 -36.833 -16.5 -55.5l-17 -89c-4 -20.667 -4.83301 -40.167 -2.5 -58.5s7.83301 -34.333 16.5 -48s20.834 -24.5 36.501 -32.5s34.5 -12 56.5 -12c22.667 0 42.834 3.66699 60.501 11s33 17.5 46 30.5s23.833 28.5 32.5 46.5s15 37.333 19 58l19 97
c4 20.667 4.33301 40 1 58s-9.83301 33.667 -19.5 47s-22.334 24 -38.001 32s-33.834 12 -54.501 12zM255.002 703.002c-1.33301 -16.667 3.83203 -32.667 15.499 -48s29.167 -23 52.5 -23s43.5 7.16699 60.5 21.5s27.833 30.833 32.5 49.5h59
c-4 -14.667 -10 -29.5 -18 -44.5s-18.333 -28.5 -31 -40.5s-27.667 -21.667 -45 -29s-37.666 -11 -60.999 -11c-45.333 0 -77.5 12 -96.5 36s-26.833 53.667 -23.5 89h55z" />
    <glyph glyph-name="Ohungarumlaut" unicode="&#x150;" horiz-adv-x="573" 
d="M361 701c41.333 0 77.165 -6.99902 107.498 -20.999s54.5 -32.833 72.5 -56.5s30 -50.834 36 -81.501s5.66699 -63 -1 -97l-19 -98l-20 -99c-8 -38 -19 -72.667 -33 -104s-31.833 -58.166 -53.5 -80.499s-47.667 -39.5 -78 -51.5s-66.166 -18 -107.499 -18
c-36 0 -67.667 5.16699 -95 15.5s-50.166 24.5 -68.499 42.5s-32.166 39.167 -41.499 63.5s-14 50.5 -14 78.5c0 16.667 1.5 35.5 4.5 56.5s6.66699 42.833 11 65.5s9.16602 45.5 14.499 68.5l15 65.5c6.66699 33.333 16.667 65.166 30 95.499s30.666 57 51.999 80
s47.333 41.333 78 55s67.334 20.5 110.001 20.5zM354.999 640.001c-31.333 0 -58.501 -5.50098 -81.501 -16.501s-42.5 -25.667 -58.5 -44s-29 -39.166 -39 -62.499s-17.333 -47 -22 -71l-38 -196c-4.66699 -25.333 -5.66699 -49.666 -3 -72.999s10 -44.333 22 -63
s29.333 -33.5 52 -44.5s51.334 -16.5 86.001 -16.5c28.667 0 54 5 76 15s41 23.833 57 41.5s29.5 38.667 40.5 63s19.5 50.833 25.5 79.5l12.5 56l12.5 58c4 19.333 7.5 38 10.5 56s5.16699 35 6.5 51c3.33301 22.667 1.83301 44.167 -4.5 64.5s-16.5 38.166 -30.5 53.499
s-31.667 27.333 -53 36s-45 13 -71 13zM263.998 767l147 115l46 -50l-164 -98zM412.998 767l163 115l38 -50l-178 -98z" />
    <glyph glyph-name="ohungarumlaut" unicode="&#x151;" horiz-adv-x="489" 
d="M291 500c30 0 56.501 -5.33008 79.501 -15.9971s41.5 -25.5 55.5 -44.5s23.5 -41.167 28.5 -66.5s4.5 -53 -1.5 -83l-15 -84c-24.667 -141.333 -99 -212 -223 -212c-33.333 0 -61.833 5.33301 -85.5 16s-42.5 25.667 -56.5 45s-23.167 42.166 -27.5 68.499
s-3.5 55.5 2.5 87.5l15 79c5.33301 27.333 13.666 53.666 24.999 78.999s26.333 47.666 45 66.999s41 34.833 67 46.5s56.333 17.5 91 17.5zM281.001 443.003c-24 0 -44.999 -4.33398 -62.999 -13.001s-33.333 -20.167 -46 -34.5s-22.834 -30.666 -30.501 -48.999
s-13.167 -36.833 -16.5 -55.5l-17 -89c-4 -20.667 -4.83301 -40.167 -2.5 -58.5s7.83301 -34.333 16.5 -48s20.834 -24.5 36.501 -32.5s34.5 -12 56.5 -12c22.667 0 42.834 3.66699 60.501 11s33 17.5 46 30.5s23.833 28.5 32.5 46.5s15 37.333 19 58l19 97
c4 20.667 4.33301 40 1 58s-9.83301 33.667 -19.5 47s-22.334 24 -38.001 32s-33.834 12 -54.501 12zM330.002 573.002l100 166l61 -22l-122 -160zM215.002 573.002l98 166l62 -22l-123 -160z" />
    <glyph glyph-name="OE" unicode="&#x152;" horiz-adv-x="804" 
d="M334 0c-12 -2.66699 -24.668 -4.33105 -38.001 -4.99805s-27.333 -1 -42 -1c-34.667 0 -65 5.16699 -91 15.5s-47.667 24.5 -65 42.5s-30.333 39.167 -39 63.5s-13 50.5 -13 78.5c0 16.667 1.5 35.5 4.5 56.5s6.66699 42.833 11 65.5s9.16602 45.5 14.499 68.5l15 65.5
c6.66699 33.333 17.167 65.166 31.5 95.499s32.833 57.166 55.5 80.499s50 41.833 82 55.5s69.333 20.5 112 20.5c30.667 0 57.334 -2.33301 80.001 -7l420 1c-1.33301 -10.667 -3.16602 -21.167 -5.49902 -31.5s-4.5 -20.5 -6.5 -30.5h-356l-48 -253h303l-11 -59h-304
l-51 -261h356l-12 -61h-403zM261.999 53.0029c11.333 0 22.333 0.329102 33 0.996094s20.667 2.33398 30 5.00098l112 572c-19.333 6.66699 -43.333 10 -72 10c-32 0 -60.167 -5.66699 -84.5 -17s-45 -26.166 -62 -44.499s-30.833 -39.166 -41.5 -62.499
s-18.334 -47 -23.001 -71l-38 -196c-4.66699 -25.333 -5.66699 -49.666 -3 -72.999s9.83398 -44.333 21.501 -63s28 -33.5 49 -44.5s47.167 -16.5 78.5 -16.5z" />
    <glyph glyph-name="oe" unicode="&#x153;" horiz-adv-x="809" 
d="M284 501c38.667 0 72.335 -9.99902 101.002 -29.999s48 -46 58 -78l2 -1c19.333 32 44 58.167 74 78.5s67 30.5 111 30.5c54 0 95.5 -12 124.5 -36s43.5 -56 43.5 -96c0 -21.333 -4.33301 -41.833 -13 -61.5s-23.834 -37 -45.501 -52s-51.167 -27 -88.5 -36
s-85 -13.5 -143 -13.5c-8 0 -17.5 0.166992 -28.5 0.5s-21.167 0.833008 -30.5 1.5c-1.33301 -8.66699 -2.16602 -16 -2.49902 -22s-0.5 -11.333 -0.5 -16c0 -43.333 9.5 -74 28.5 -92s46.833 -27 83.5 -27c10 0 21 1.16699 33 3.5s24.167 5.5 36.5 9.5
s24.166 8.66699 35.499 14s21.666 10.666 30.999 15.999l30 -45c-24 -17.333 -51.5 -30.833 -82.5 -40.5s-61.5 -14.5 -91.5 -14.5c-83.333 0 -134.333 33 -153 99c-8.66699 -12.667 -19 -24.834 -31 -36.501s-25.5 -22.167 -40.5 -31.5s-31.667 -16.833 -50 -22.5
s-37.833 -8.5 -58.5 -8.5c-57.333 0 -101.333 14.167 -132 42.5s-46 69.5 -46 123.5c0 44.667 5 87.5 15 128.5s25.167 77.333 45.5 109s45.833 56.834 76.5 75.501s66.667 28 108 28zM276.001 445.001c-33.333 0 -61.3311 -9.16406 -83.998 -27.4971
s-40.667 -41.5 -54 -69.5s-22.833 -58.333 -28.5 -91s-8.5 -62.667 -8.5 -90c0 -11.333 1.5 -23.833 4.5 -37.5s8.66699 -26.334 17 -38.001s19.666 -21.5 33.999 -29.5s32.833 -12 55.5 -12c35.333 0 64.666 8.16699 87.999 24.5s41.833 37.666 55.5 63.999
s23.334 55.666 29.001 87.999s8.5 64.5 8.5 96.5c0 42 -11.333 72.833 -34 92.5s-50.334 29.5 -83.001 29.5zM627.003 443.004c-27.333 0 -50.667 -5.33203 -70 -15.999s-35.666 -24.5 -48.999 -41.5s-23.833 -36.167 -31.5 -57.5s-13.5 -43 -17.5 -65
c11.333 -1.33301 22.666 -2 33.999 -2h29c46.667 0 84 3.5 112 10.5s49.5 15.5 64.5 25.5s25 20.833 30 32.5s7.5 22.5 7.5 32.5c0 25.333 -9.33301 45.166 -28 59.499s-45.667 21.5 -81 21.5z" />
    <glyph glyph-name="Racute" unicode="&#x154;" horiz-adv-x="580" 
d="M319 767l163 115l38 -50l-178 -98zM434 0l-95.001 314h-175l-61 -314h-67l136 696h263c26.667 0 50.834 -4 72.501 -12s40 -19.667 55 -35s26 -34 33 -56s9.5 -47 7.5 -75c-4 -56.667 -23.667 -101.667 -59 -135s-80 -54.333 -134 -63l101 -320h-77zM535.999 518
c1.33301 20.667 -0.835938 38.668 -6.50293 54.001s-14.167 27.666 -25.5 36.999s-25.166 16.333 -41.499 21s-33.833 7 -52.5 7h-183l-52 -263h192c21.333 0 41.833 3.16699 61.5 9.5s37.334 15.5 53.001 27.5s28.334 27 38.001 45s15.167 38.667 16.5 62z" />
    <glyph glyph-name="racute" unicode="&#x155;" horiz-adv-x="349" 
d="M365 424c-9.33301 5.33301 -19.998 9.33301 -31.998 12s-22 4 -30 4c-19.333 0 -37.5 -3.5 -54.5 -10.5s-32.333 -17 -46 -30s-25.334 -28.5 -35.001 -46.5s-16.5 -38 -20.5 -60l-57 -293h-62l96 495h62l-15 -76h3c21.333 32 46.333 53.833 75 65.5s57 17.167 85 16.5
c29.333 -1.33301 50.666 -6.33301 63.999 -15zM195.002 573l98 166l61 -22l-122 -160z" />
    <glyph glyph-name="Rcommaaccent" unicode="&#x156;" horiz-adv-x="580" 
d="M434 0l-95.001 314h-175l-61 -314h-67l136 696h263c26.667 0 50.834 -4 72.501 -12s40 -19.667 55 -35s26 -34 33 -56s9.5 -47 7.5 -75c-4 -56.667 -23.667 -101.667 -59 -135s-80 -54.333 -134 -63l101 -320h-77zM535.999 518
c1.33301 20.667 -0.835938 38.668 -6.50293 54.001s-14.167 27.666 -25.5 36.999s-25.166 16.333 -41.499 21s-33.833 7 -52.5 7h-183l-52 -263h192c21.333 0 41.833 3.16699 61.5 9.5s37.334 15.5 53.001 27.5s28.334 27 38.001 45s15.167 38.667 16.5 62z
M215.997 -226.999h-39l51 90h-27l17 89h82l-17 -87z" />
    <glyph glyph-name="rcommaaccent" unicode="&#x157;" horiz-adv-x="349" 
d="M365 424c-9.33301 5.33301 -19.998 9.33301 -31.998 12s-22 4 -30 4c-19.333 0 -37.5 -3.5 -54.5 -10.5s-32.333 -17 -46 -30s-25.334 -28.5 -35.001 -46.5s-16.5 -38 -20.5 -60l-57 -293h-62l96 495h62l-15 -76h3c21.333 32 46.333 53.833 75 65.5s57 17.167 85 16.5
c29.333 -1.33301 50.666 -6.33301 63.999 -15zM8.00195 -247h-39l51 90h-27l17 89h82l-17 -87z" />
    <glyph glyph-name="Rcaron" unicode="&#x158;" horiz-adv-x="580" 
d="M434 0l-95.001 314h-175l-61 -314h-67l136 696h263c26.667 0 50.834 -4 72.501 -12s40 -19.667 55 -35s26 -34 33 -56s9.5 -47 7.5 -75c-4 -56.667 -23.667 -101.667 -59 -135s-80 -54.333 -134 -63l101 -320h-77zM535.999 518
c1.33301 20.667 -0.835938 38.668 -6.50293 54.001s-14.167 27.666 -25.5 36.999s-25.166 16.333 -41.499 21s-33.833 7 -52.5 7h-183l-52 -263h192c21.333 0 41.833 3.16699 61.5 9.5s37.334 15.5 53.001 27.5s28.334 27 38.001 45s15.167 38.667 16.5 62zM366.997 799.001
l163 87l18 -30l-165 -120h-45l-112 119l29 27z" />
    <glyph glyph-name="rcaron" unicode="&#x159;" horiz-adv-x="349" 
d="M365 424c-9.33301 5.33301 -19.998 9.33301 -31.998 12s-22 4 -30 4c-19.333 0 -37.5 -3.5 -54.5 -10.5s-32.333 -17 -46 -30s-25.334 -28.5 -35.001 -46.5s-16.5 -38 -20.5 -60l-57 -293h-62l96 495h62l-15 -76h3c21.333 32 46.333 53.833 75 65.5s57 17.167 85 16.5
c29.333 -1.33301 50.666 -6.33301 63.999 -15zM388.002 722l24 -29l-161 -138h-45l-114 139l36 29l108 -104z" />
    <glyph glyph-name="Sacute" unicode="&#x15a;" horiz-adv-x="543" 
d="M358 702c36 0 71.1621 -4.83594 105.495 -14.5029s65.166 -23.167 92.499 -40.5l-21 -28.5c-7.33301 -9.66699 -14.666 -18.834 -21.999 -27.501c-23.333 15.333 -49.666 27 -78.999 35s-59.333 12 -90 12c-20.667 0 -41.167 -3.16699 -61.5 -9.5
s-38.5 -15.833 -54.5 -28.5s-29 -28.334 -39 -47.001s-15 -40 -15 -64c0 -19.333 4.66699 -35.166 14 -47.499s20.833 -22.333 34.5 -30s28 -13.5 43 -17.5s28.5 -7 40.5 -9c26 -6 51.5 -12.333 76.5 -19s47.333 -16.167 67 -28.5s35.667 -28.5 48 -48.5
s18.5 -45.667 18.5 -77c0 -35.333 -7.33301 -66.666 -22 -93.999s-34.667 -50.166 -60 -68.499s-54.833 -32.166 -88.5 -41.499s-69.167 -14 -106.5 -14c-48 0 -91.167 6.5 -129.5 19.5s-73.5 33.5 -105.5 61.5l47 49c25.333 -21.333 54.833 -37.666 88.5 -48.999
s69.5 -17 107.5 -17c26.667 0 51.5 3.33301 74.5 10s43.167 16.334 60.5 29.001s31 28.5 41 47.5s15 40.5 15 64.5c0 19.333 -4.33301 35.333 -13 48s-19.667 23 -33 31s-28.166 14.167 -44.499 18.5s-32.166 8.16602 -47.499 11.499c-24 4 -47.667 9.33301 -71 16
s-44.166 16 -62.499 28s-33.166 27.333 -44.499 46s-17 42.667 -17 72c0 32.667 6.33301 62.5 19 89.5s30.167 50.333 52.5 70s49 35 80 46s64.833 16.5 101.5 16.5zM308.995 766.997l163 115l38 -50l-178 -98z" />
    <glyph glyph-name="sacute" unicode="&#x15b;" horiz-adv-x="457" 
d="M192 -6c-17.333 0 -34.834 1.49609 -52.501 4.49609s-35 7.33301 -52 13s-33.167 12.834 -48.5 21.501s-29 18.667 -41 30l42 48c18.667 -20.667 41.667 -35.667 69 -45s55.333 -14 84 -14c16.667 0 33.167 1.5 49.5 4.5s30.833 7.83301 43.5 14.5
s22.834 15.334 30.501 26.001s11.5 24 11.5 40c0 26.667 -8.66699 46 -26 58s-40 21.667 -68 29c-17.333 4 -35.166 8.5 -53.499 13.5s-35.166 12 -50.499 21s-28 21 -38 36s-15 34.833 -15 59.5c0 26.667 5.33301 49.334 16 68.001s24.667 33.834 42 45.501
s37.5 20.167 60.5 25.5s46.5 8 70.5 8c27.333 0 55.166 -3.83301 83.499 -11.5s53.166 -21.167 74.499 -40.5l-39 -49c-19.333 14.667 -38.833 25.5 -58.5 32.5s-41.167 10.5 -64.5 10.5c-14 0 -28.167 -1.33301 -42.5 -4s-27.333 -7.5 -39 -14.5
s-21.167 -16.167 -28.5 -27.5s-11 -25.333 -11 -42c0 -12 3.16699 -22.167 9.5 -30.5s14.833 -15.166 25.5 -20.499s22.667 -10 36 -14s27 -7.66699 41 -11c17.333 -4 34.333 -8.83301 51 -14.5s31.5 -13.334 44.5 -23.001s23.5 -22 31.5 -37s12 -33.833 12 -56.5
c0 -26 -5.16699 -48.667 -15.5 -68s-24.5 -35.333 -42.5 -48s-39.167 -22.167 -63.5 -28.5s-50.5 -9.5 -78.5 -9.5zM242.999 572.996l98 166l61 -22l-122 -160z" />
    <glyph glyph-name="Scircumflex" unicode="&#x15c;" horiz-adv-x="543" 
d="M346 702c35.333 0 70.3301 -4.83594 104.997 -14.5029s65 -23.5 91 -41.5l-40 -55c-22 15.333 -47.167 27 -75.5 35s-57.5 12 -87.5 12c-19.333 0 -38.833 -2.66699 -58.5 -8s-37.5 -13.666 -53.5 -24.999s-29.167 -25.833 -39.5 -43.5s-15.5 -38.5 -15.5 -62.5
c0 -18.667 4.5 -34.5 13.5 -47.5s20 -23.667 33 -32s26.833 -15 41.5 -20s27.667 -8.83301 39 -11.5c24 -6 48 -13.167 72 -21.5s45.833 -19.166 65.5 -32.499s35.667 -30.5 48 -51.5s18.5 -46.833 18.5 -77.5c0 -35.333 -7.16699 -66.333 -21.5 -93
s-33.666 -48.667 -57.999 -66s-52.666 -30.333 -84.999 -39s-66.5 -13 -102.5 -13c-44.667 0 -87 6.33301 -127 19s-75 33 -105 61l45 50c24.667 -21.333 53.334 -37.666 86.001 -48.999s67 -17 103 -17c24.667 0 48.667 2.83301 72 8.5s43.833 14.167 61.5 25.5
s31.834 26 42.501 44s16 39 16 63c0 19.333 -4 35.833 -12 49.5s-18.5 25.167 -31.5 34.5s-27.833 17 -44.5 23s-33.334 11 -50.001 15c-21.333 4.66699 -43.166 10.667 -65.499 18s-42.5 17.333 -60.5 30s-32.667 28.5 -44 47.5s-17 42.833 -17 71.5
c0 32.667 5.83301 62.167 17.5 88.5s28.167 48.833 49.5 67.5s46.666 33 75.999 43s62 15 98 15zM384.997 821.997l-161 -87l-17 30l165 120h45l111 -119l-30 -29z" />
    <glyph glyph-name="scircumflex" unicode="&#x15d;" horiz-adv-x="457" 
d="M192 -6c-17.333 0 -34.834 1.49609 -52.501 4.49609s-35 7.33301 -52 13s-33.167 12.834 -48.5 21.501s-29 18.667 -41 30l42 48c18.667 -20.667 41.667 -35.667 69 -45s55.333 -14 84 -14c16.667 0 33.167 1.5 49.5 4.5s30.833 7.83301 43.5 14.5
s22.834 15.334 30.501 26.001s11.5 24 11.5 40c0 26.667 -8.66699 46 -26 58s-40 21.667 -68 29c-17.333 4 -35.166 8.5 -53.499 13.5s-35.166 12 -50.499 21s-28 21 -38 36s-15 34.833 -15 59.5c0 26.667 5.33301 49.334 16 68.001s24.667 33.834 42 45.501
s37.5 20.167 60.5 25.5s46.5 8 70.5 8c27.333 0 55.166 -3.83301 83.499 -11.5s53.166 -21.167 74.499 -40.5l-39 -49c-19.333 14.667 -38.833 25.5 -58.5 32.5s-41.167 10.5 -64.5 10.5c-14 0 -28.167 -1.33301 -42.5 -4s-27.333 -7.5 -39 -14.5
s-21.167 -16.167 -28.5 -27.5s-11 -25.333 -11 -42c0 -12 3.16699 -22.167 9.5 -30.5s14.833 -15.166 25.5 -20.499s22.667 -10 36 -14s27 -7.66699 41 -11c17.333 -4 34.333 -8.83301 51 -14.5s31.5 -13.334 44.5 -23.001s23.5 -22 31.5 -37s12 -33.833 12 -56.5
c0 -26 -5.16699 -48.667 -15.5 -68s-24.5 -35.333 -42.5 -48s-39.167 -22.167 -63.5 -28.5s-50.5 -9.5 -78.5 -9.5zM306.999 664.996l-157 -105l-25 30l168 139h46l108 -137l-37 -31z" />
    <glyph glyph-name="Scedilla" unicode="&#x15e;" horiz-adv-x="543" 
d="M269 -117c0 16 -7.49707 27.332 -22.4971 33.999s-30.5 9.66699 -46.5 9l-13 12l27 57c-40.667 1.33301 -79 8.5 -115 21.5s-67.667 32.167 -95 57.5l45 50c24.667 -21.333 53.334 -37.666 86.001 -48.999s67 -17 103 -17c24.667 0 48.667 2.83301 72 8.5
s43.833 14.167 61.5 25.5s31.834 26 42.501 44s16 39 16 63c0 19.333 -4 35.833 -12 49.5s-18.5 25.167 -31.5 34.5s-27.833 17 -44.5 23s-33.334 11 -50.001 15c-21.333 4.66699 -43.166 10.667 -65.499 18s-42.5 17.333 -60.5 30s-32.667 28.5 -44 47.5
s-17 42.833 -17 71.5c0 32.667 5.83301 62.167 17.5 88.5s28.167 48.833 49.5 67.5s46.666 33 75.999 43s62 15 98 15c35.333 0 70.333 -4.83301 105 -14.5s65 -23.5 91 -41.5l-40 -55c-22 15.333 -47.167 27 -75.5 35s-57.5 12 -87.5 12
c-19.333 0 -38.833 -2.66699 -58.5 -8s-37.5 -13.666 -53.5 -24.999s-29.167 -25.833 -39.5 -43.5s-15.5 -38.5 -15.5 -62.5c0 -18.667 4.5 -34.5 13.5 -47.5s20 -23.667 33 -32s26.833 -15 41.5 -20s27.667 -8.83301 39 -11.5c24 -6 48 -13.167 72 -21.5
s45.833 -19.166 65.5 -32.499s35.667 -30.5 48 -51.5s18.5 -46.833 18.5 -77.5c0 -34 -6.66699 -63.833 -20 -89.5s-31.333 -47.334 -54 -65.001s-49.334 -31 -80.001 -40s-63 -14.167 -97 -15.5l-17 -36c16 -1.33301 29.5 -4.33301 40.5 -9s19.833 -10.334 26.5 -17.001
s11.5 -14 14.5 -22s4.5 -15.667 4.5 -23c0 -10 -2.33301 -20.333 -7 -31s-11.834 -20.167 -21.501 -28.5s-21.667 -15.333 -36 -21s-31.5 -8.5 -51.5 -8.5c-8.66699 0 -21.334 0.666992 -38.001 2s-32.667 5.33301 -48 12l16 37c12.667 -5.33301 25.5 -8.83301 38.5 -10.5
s24.167 -2.5 33.5 -2.5c6 0 12.5 0.833008 19.5 2.5s13.667 4.16699 20 7.5s11.666 8 15.999 14s6.5 13.333 6.5 22z" />
    <glyph glyph-name="scedilla" unicode="&#x15f;" horiz-adv-x="457" 
d="M224 -117c0 16 -7.49707 27.333 -22.4971 34s-30.5 9.66699 -46.5 9l-13 12l27 57c-31.333 2 -62.333 8.66699 -93 20s-56.667 27.333 -78 48l42 48c18.667 -20.667 41.667 -35.667 69 -45s55.333 -14 84 -14c16.667 0 33.167 1.5 49.5 4.5s30.833 7.83301 43.5 14.5
s22.834 15.334 30.501 26.001s11.5 24 11.5 40c0 26.667 -8.66699 46 -26 58s-40 21.667 -68 29c-17.333 4 -35.166 8.5 -53.499 13.5s-35.166 12 -50.499 21s-28 21 -38 36s-15 34.833 -15 59.5c0 26.667 5.33301 49.334 16 68.001s24.667 33.834 42 45.501
s37.5 20.167 60.5 25.5s46.5 8 70.5 8c27.333 0 55.166 -3.83301 83.499 -11.5s53.166 -21.167 74.499 -40.5l-39 -49c-19.333 14.667 -38.833 25.5 -58.5 32.5s-41.167 10.5 -64.5 10.5c-14 0 -28.167 -1.33301 -42.5 -4s-27.333 -7.5 -39 -14.5
s-21.167 -16.167 -28.5 -27.5s-11 -25.333 -11 -42c0 -12 3.16699 -22.167 9.5 -30.5s14.833 -15.166 25.5 -20.499s22.667 -10 36 -14s27 -7.66699 41 -11c17.333 -4 34.333 -8.83301 51 -14.5s31.5 -13.334 44.5 -23.001s23.5 -22 31.5 -37s12 -33.833 12 -56.5
c0 -24.667 -4.66699 -46.334 -14 -65.001s-22.333 -34.334 -39 -47.001s-36.334 -22.5 -59.001 -29.5s-47 -10.833 -73 -11.5l-17 -36c16 -1.33301 29.5 -4.33301 40.5 -9s19.833 -10.334 26.5 -17.001s11.5 -14 14.5 -22s4.5 -15.667 4.5 -23
c0 -10 -2.33301 -20.333 -7 -31s-11.834 -20.167 -21.501 -28.5s-21.667 -15.333 -36 -21s-31.5 -8.5 -51.5 -8.5c-8.66699 0 -21.334 0.666992 -38.001 2s-32.667 5.33301 -48 12l16 37c12.667 -5.33301 25.5 -8.83301 38.5 -10.5s24.167 -2.5 33.5 -2.5
c6 0 12.5 0.833008 19.5 2.5s13.667 4.16699 20 7.5s11.666 8 15.999 14s6.5 13.333 6.5 22z" />
    <glyph glyph-name="Scaron" unicode="&#x160;" horiz-adv-x="543" 
d="M346 702c35.333 0 70.3301 -4.83594 104.997 -14.5029s65 -23.5 91 -41.5l-40 -55c-22 15.333 -47.167 27 -75.5 35s-57.5 12 -87.5 12c-19.333 0 -38.833 -2.66699 -58.5 -8s-37.5 -13.666 -53.5 -24.999s-29.167 -25.833 -39.5 -43.5s-15.5 -38.5 -15.5 -62.5
c0 -18.667 4.5 -34.5 13.5 -47.5s20 -23.667 33 -32s26.833 -15 41.5 -20s27.667 -8.83301 39 -11.5c24 -6 48 -13.167 72 -21.5s45.833 -19.166 65.5 -32.499s35.667 -30.5 48 -51.5s18.5 -46.833 18.5 -77.5c0 -35.333 -7.16699 -66.333 -21.5 -93
s-33.666 -48.667 -57.999 -66s-52.666 -30.333 -84.999 -39s-66.5 -13 -102.5 -13c-44.667 0 -87 6.33301 -127 19s-75 33 -105 61l45 50c24.667 -21.333 53.334 -37.666 86.001 -48.999s67 -17 103 -17c24.667 0 48.667 2.83301 72 8.5s43.833 14.167 61.5 25.5
s31.834 26 42.501 44s16 39 16 63c0 19.333 -4 35.833 -12 49.5s-18.5 25.167 -31.5 34.5s-27.833 17 -44.5 23s-33.334 11 -50.001 15c-21.333 4.66699 -43.166 10.667 -65.499 18s-42.5 17.333 -60.5 30s-32.667 28.5 -44 47.5s-17 42.833 -17 71.5
c0 32.667 5.83301 62.167 17.5 88.5s28.167 48.833 49.5 67.5s46.666 33 75.999 43s62 15 98 15zM369.997 798.997l163 87l18 -30l-165 -120h-45l-112 119l29 27z" />
    <glyph glyph-name="scaron" unicode="&#x161;" horiz-adv-x="457" 
d="M192 -6c-17.333 0 -34.834 1.49609 -52.501 4.49609s-35 7.33301 -52 13s-33.167 12.834 -48.5 21.501s-29 18.667 -41 30l42 48c18.667 -20.667 41.667 -35.667 69 -45s55.333 -14 84 -14c16.667 0 33.167 1.5 49.5 4.5s30.833 7.83301 43.5 14.5
s22.834 15.334 30.501 26.001s11.5 24 11.5 40c0 26.667 -8.66699 46 -26 58s-40 21.667 -68 29c-17.333 4 -35.166 8.5 -53.499 13.5s-35.166 12 -50.499 21s-28 21 -38 36s-15 34.833 -15 59.5c0 26.667 5.33301 49.334 16 68.001s24.667 33.834 42 45.501
s37.5 20.167 60.5 25.5s46.5 8 70.5 8c27.333 0 55.166 -3.83301 83.499 -11.5s53.166 -21.167 74.499 -40.5l-39 -49c-19.333 14.667 -38.833 25.5 -58.5 32.5s-41.167 10.5 -64.5 10.5c-14 0 -28.167 -1.33301 -42.5 -4s-27.333 -7.5 -39 -14.5
s-21.167 -16.167 -28.5 -27.5s-11 -25.333 -11 -42c0 -12 3.16699 -22.167 9.5 -30.5s14.833 -15.166 25.5 -20.499s22.667 -10 36 -14s27 -7.66699 41 -11c17.333 -4 34.333 -8.83301 51 -14.5s31.5 -13.334 44.5 -23.001s23.5 -22 31.5 -37s12 -33.833 12 -56.5
c0 -26 -5.16699 -48.667 -15.5 -68s-24.5 -35.333 -42.5 -48s-39.167 -22.167 -63.5 -28.5s-50.5 -9.5 -78.5 -9.5zM448.999 721.996l24 -29l-161 -138h-45l-114 139l36 29l108 -104z" />
    <glyph glyph-name="Tcommaaccent" unicode="&#x162;" horiz-adv-x="473" 
d="M354 637l-124 -637h-66l123 637h-199l11 59h465l-11 -59h-199zM141 -247h-39l51 90h-27l17 89h82l-17 -87z" />
    <glyph glyph-name="tcommaaccent" unicode="&#x163;" horiz-adv-x="266" 
d="M152 0c-27.333 0 -48.999 6.66797 -64.999 20.001s-24.333 33 -25 59c0 9.33301 1 19.666 3 30.999l32.5 165.5c10.333 55 21.166 109.833 32.499 164.5h-64l11 55h63c4.66699 21.333 9 42.666 13 63.999l12 64h62c-4.66699 -21.333 -9 -42.666 -13 -63.999l-12 -64h83
l-10 -55h-84l-61 -312c-2 -10 -3 -19.667 -3 -29c0 -12.667 3.5 -23.167 10.5 -31.5s20.167 -12.5 39.5 -12.5h36l-11 -55h-50zM53.001 -246.999h-39l51 90h-27l17 89h82l-17 -87z" />
    <glyph glyph-name="Tcaron" unicode="&#x164;" horiz-adv-x="473" 
d="M354 637l-124 -637h-66l123 637h-199l11 59h465l-11 -59h-199zM344 799l163 87l18 -30l-165 -120h-45l-112 119l29 27z" />
    <glyph glyph-name="tcaron" unicode="&#x165;" horiz-adv-x="313" 
d="M152 0c-27.333 0 -48.999 6.66797 -64.999 20.001s-24.333 33 -25 59c0 9.33301 1 19.666 3 30.999l32.5 165.5c10.333 55 21.166 109.833 32.499 164.5h-64l11 55h63c4.66699 21.333 9 42.666 13 63.999l12 64h62c-4.66699 -21.333 -9 -42.666 -13 -63.999l-12 -64h83
l-10 -55h-84l-61 -312c-2 -10 -3 -19.667 -3 -29c0 -12.667 3.5 -23.167 10.5 -31.5s20.167 -12.5 39.5 -12.5h36l-11 -55h-50zM317.001 562.001h-39l51 90h-27l17 89h82l-17 -87z" />
    <glyph glyph-name="Tbar" unicode="&#x166;" horiz-adv-x="473" 
d="M354 637l-47 -240h150l-11 -54h-149l-67 -343h-66l66 343h-151l10 54h151l47 240h-199l11 59h465l-11 -59h-199z" />
    <glyph glyph-name="tbar" unicode="&#x167;" horiz-adv-x="266" 
d="M35 304l68 0.000976562l27 136h-64l11 55h63c4.66699 21.333 9 42.666 13 63.999l12 64h62c-4.66699 -21.333 -9 -42.666 -13 -63.999l-12 -64h83l-10 -55h-84l-27 -136h81l-9 -51h-82l-24 -125c-2 -10 -3 -19.667 -3 -29c0 -12.667 3.5 -23.167 10.5 -31.5
s20.167 -12.5 39.5 -12.5h36l-11 -55h-50c-27.333 0 -49 6.66699 -65 20s-24.333 33 -25 59c0 9.33301 1 19.666 3 30.999l28 143h-68z" />
    <glyph glyph-name="Utilde" unicode="&#x168;" horiz-adv-x="600" 
d="M542 229c-7.33301 -35.333 -18.833 -67.499 -34.5 -96.499s-35.167 -53.667 -58.5 -74s-50.5 -36.166 -81.5 -47.499s-64.833 -17 -101.5 -17c-33.333 0 -63.666 5.83301 -90.999 17.5s-50 28.167 -68 49.5s-30.667 47 -38 77s-7.33301 63.667 0 101l89 457h66l-87 -445
c-5.33301 -28 -6.5 -53.833 -3.5 -77.5s10.333 -44.334 22 -62.001s27.167 -31.334 46.5 -41.001s42.666 -14.5 69.999 -14.5c52 0 96.333 16.5 133 49.5s60.667 78.167 72 135.5l89 455h67zM343 845.001c12 0 23.833 -2.33105 35.5 -6.99805s23.167 -9.66699 34.5 -15
l33 -15c10.667 -4.66699 21 -7 31 -7s19.833 3 29.5 9s20.834 16.667 33.501 32l36 -23c-14.667 -28 -31.167 -47.5 -49.5 -58.5s-37.166 -16.5 -56.499 -16.5c-12 0 -23.833 2.16699 -35.5 6.5s-23.334 9.16602 -35.001 14.499s-22.834 10.166 -33.501 14.499
s-20.667 6.5 -30 6.5c-12 0 -22.333 -2.66699 -31 -8s-20 -14.666 -34 -27.999l-34 23c16 25.333 33 43.666 51 54.999s36.333 17 55 17z" />
    <glyph glyph-name="utilde" unicode="&#x169;" horiz-adv-x="515" 
d="M343 0l14.0029 68.001h-3c-21.333 -26.667 -46 -45.667 -74 -57s-55.333 -17 -82 -17c-50.667 0 -88.834 16 -114.501 48s-32.834 78 -21.501 138l61 315h61l-59 -306c-8 -42.667 -4.33301 -75.834 11 -99.501s45.666 -35.5 90.999 -35.5c18 0 35.333 3.33301 52 10
s32 16.334 46 29.001s26 27.667 36 45s17 36.666 21 57.999l58 299h62l-96 -495h-63zM274.003 689.001c12 0 23.833 -2.33105 35.5 -6.99805s23.167 -9.66699 34.5 -15l33 -15c10.667 -4.66699 21 -7 31 -7s19.833 3 29.5 9s20.834 16.667 33.501 32l36 -23
c-14.667 -28 -31.167 -47.5 -49.5 -58.5s-37.166 -16.5 -56.499 -16.5c-12 0 -23.833 2.16699 -35.5 6.5s-23.334 9.16602 -35.001 14.499s-22.834 10.166 -33.501 14.499s-20.667 6.5 -30 6.5c-12 0 -22.333 -2.66699 -31 -8s-20 -14.666 -34 -27.999l-34 23
c16 25.333 33 43.666 51 54.999s36.333 17 55 17z" />
    <glyph glyph-name="Umacron" unicode="&#x16a;" horiz-adv-x="600" 
d="M542 229c-7.33301 -35.333 -18.833 -67.499 -34.5 -96.499s-35.167 -53.667 -58.5 -74s-50.5 -36.166 -81.5 -47.499s-64.833 -17 -101.5 -17c-33.333 0 -63.666 5.83301 -90.999 17.5s-50 28.167 -68 49.5s-30.667 47 -38 77s-7.33301 63.667 0 101l89 457h66l-87 -445
c-5.33301 -28 -6.5 -53.833 -3.5 -77.5s10.333 -44.334 22 -62.001s27.167 -31.334 46.5 -41.001s42.666 -14.5 69.999 -14.5c52 0 96.333 16.5 133 49.5s60.667 78.167 72 135.5l89 455h67zM266 768.001l12 57h261l-11 -57h-262z" />
    <glyph glyph-name="umacron" unicode="&#x16b;" horiz-adv-x="515" 
d="M343 0l14.0029 68.001h-3c-21.333 -26.667 -46 -45.667 -74 -57s-55.333 -17 -82 -17c-50.667 0 -88.834 16 -114.501 48s-32.834 78 -21.501 138l61 315h61l-59 -306c-8 -42.667 -4.33301 -75.834 11 -99.501s45.666 -35.5 90.999 -35.5c18 0 35.333 3.33301 52 10
s32 16.334 46 29.001s26 27.667 36 45s17 36.666 21 57.999l58 299h62l-96 -495h-63zM188.003 603.001l11 59h262l-12 -59h-261z" />
    <glyph glyph-name="Ubreve" unicode="&#x16c;" horiz-adv-x="600" 
d="M542 229c-7.33301 -35.333 -18.833 -67.499 -34.5 -96.499s-35.167 -53.667 -58.5 -74s-50.5 -36.166 -81.5 -47.499s-64.833 -17 -101.5 -17c-33.333 0 -63.666 5.83301 -90.999 17.5s-50 28.167 -68 49.5s-30.667 47 -38 77s-7.33301 63.667 0 101l89 457h66l-87 -445
c-5.33301 -28 -6.5 -53.833 -3.5 -77.5s10.333 -44.334 22 -62.001s27.167 -31.334 46.5 -41.001s42.666 -14.5 69.999 -14.5c52 0 96.333 16.5 133 49.5s60.667 78.167 72 135.5l89 455h67zM337 848.001c-1.33301 -16.667 3.83301 -32.666 15.5 -47.999
s29.167 -23 52.5 -23s43.5 7 60.5 21s27.833 30.667 32.5 50h60c-4 -14.667 -10.167 -29.334 -18.5 -44.001s-18.833 -28 -31.5 -40s-27.834 -21.667 -45.501 -29s-38.167 -11 -61.5 -11c-45.333 0 -77.166 11.833 -95.499 35.5s-25.833 53.167 -22.5 88.5h54z" />
    <glyph glyph-name="ubreve" unicode="&#x16d;" horiz-adv-x="515" 
d="M343 0l14.0029 68.001h-3c-21.333 -26.667 -46 -45.667 -74 -57s-55.333 -17 -82 -17c-50.667 0 -88.834 16 -114.501 48s-32.834 78 -21.501 138l61 315h61l-59 -306c-8 -42.667 -4.33301 -75.834 11 -99.501s45.666 -35.5 90.999 -35.5c18 0 35.333 3.33301 52 10
s32 16.334 46 29.001s26 27.667 36 45s17 36.666 21 57.999l58 299h62l-96 -495h-63zM264.003 703.001c-1.33301 -16.667 3.83203 -32.667 15.499 -48s29.167 -23 52.5 -23s43.5 7.16699 60.5 21.5s27.833 30.833 32.5 49.5h59c-4 -14.667 -10 -29.5 -18 -44.5
s-18.333 -28.5 -31 -40.5s-27.667 -21.667 -45 -29s-37.666 -11 -60.999 -11c-45.333 0 -77.5 12 -96.5 36s-26.833 53.667 -23.5 89h55z" />
    <glyph glyph-name="Uring" unicode="&#x16e;" horiz-adv-x="600" 
d="M542 229c-7.33301 -35.333 -18.833 -67.499 -34.5 -96.499s-35.167 -53.667 -58.5 -74s-50.5 -36.166 -81.5 -47.499s-64.833 -17 -101.5 -17c-33.333 0 -63.666 5.83301 -90.999 17.5s-50 28.167 -68 49.5s-30.667 47 -38 77s-7.33301 63.667 0 101l89 457h66l-87 -445
c-5.33301 -28 -6.5 -53.833 -3.5 -77.5s10.333 -44.334 22 -62.001s27.167 -31.334 46.5 -41.001s42.666 -14.5 69.999 -14.5c52 0 96.333 16.5 133 49.5s60.667 78.167 72 135.5l89 455h67zM385 711.001c-23.333 0 -42.332 7.33496 -56.999 22.002s-22 32.667 -22 54
c0 15.333 3 29.833 9 43.5s14 25.667 24 36s22 18.5 36 24.5s29 9 45 9c23.333 0 42.5 -7.5 57.5 -22.5s22.5 -33.5 22.5 -55.5c0 -16.667 -3.33301 -31.834 -10 -45.501s-15.334 -25.334 -26.001 -35.001s-23 -17.167 -37 -22.5s-28 -8 -42 -8zM413.001 864.003
c-18.667 0 -35.0029 -7 -49.0029 -21s-21 -30.333 -21 -49c0 -13.333 4.33301 -24.5 13 -33.5s20.334 -13.5 35.001 -13.5c8.66699 0 17.334 1.83301 26.001 5.5s16.334 8.83398 23.001 15.501s12 14.167 16 22.5s6 17.166 6 26.499c0 13.333 -4.5 24.5 -13.5 33.5
s-20.833 13.5 -35.5 13.5z" />
    <glyph glyph-name="uring" unicode="&#x16f;" horiz-adv-x="515" 
d="M343 0l14.0029 68.001h-3c-21.333 -26.667 -46 -45.667 -74 -57s-55.333 -17 -82 -17c-50.667 0 -88.834 16 -114.501 48s-32.834 78 -21.501 138l61 315h61l-59 -306c-8 -42.667 -4.33301 -75.834 11 -99.501s45.666 -35.5 90.999 -35.5c18 0 35.333 3.33301 52 10
s32 16.334 46 29.001s26 27.667 36 45s17 36.666 21 57.999l58 299h62l-96 -495h-63zM319.003 549.001c-23.333 0 -42.332 7.33496 -56.999 22.002s-22 32.667 -22 54c0 15.333 3 29.833 9 43.5s14 25.667 24 36s22 18.5 36 24.5s29 9 45 9c23.333 0 42.5 -7.5 57.5 -22.5
s22.5 -33.5 22.5 -55.5c0 -16.667 -3.33301 -31.834 -10 -45.501s-15.334 -25.334 -26.001 -35.001s-23 -17.167 -37 -22.5s-28 -8 -42 -8zM347.004 702.003c-18.667 0 -35.0029 -7 -49.0029 -21s-21 -30.333 -21 -49c0 -13.333 4.33301 -24.5 13 -33.5
s20.334 -13.5 35.001 -13.5c8.66699 0 17.334 1.83301 26.001 5.5s16.334 8.83398 23.001 15.501s12 14.167 16 22.5s6 17.166 6 26.499c0 13.333 -4.5 24.5 -13.5 33.5s-20.833 13.5 -35.5 13.5z" />
    <glyph glyph-name="Uhungarumlaut" unicode="&#x170;" horiz-adv-x="600" 
d="M542 229c-7.33301 -35.333 -18.833 -67.499 -34.5 -96.499s-35.167 -53.667 -58.5 -74s-50.5 -36.166 -81.5 -47.499s-64.833 -17 -101.5 -17c-33.333 0 -63.666 5.83301 -90.999 17.5s-50 28.167 -68 49.5s-30.667 47 -38 77s-7.33301 63.667 0 101l89 457h66l-87 -445
c-5.33301 -28 -6.5 -53.833 -3.5 -77.5s10.333 -44.334 22 -62.001s27.167 -31.334 46.5 -41.001s42.666 -14.5 69.999 -14.5c52 0 96.333 16.5 133 49.5s60.667 78.167 72 135.5l89 455h67zM281 767.001l147 115l46 -50l-164 -98zM430 767.001l163 115l38 -50l-178 -98z
" />
    <glyph glyph-name="uhungarumlaut" unicode="&#x171;" horiz-adv-x="515" 
d="M343 0l14.0029 68.001h-3c-21.333 -26.667 -46 -45.667 -74 -57s-55.333 -17 -82 -17c-50.667 0 -88.834 16 -114.501 48s-32.834 78 -21.501 138l61 315h61l-59 -306c-8 -42.667 -4.33301 -75.834 11 -99.501s45.666 -35.5 90.999 -35.5c18 0 35.333 3.33301 52 10
s32 16.334 46 29.001s26 27.667 36 45s17 36.666 21 57.999l58 299h62l-96 -495h-63zM358.003 573.001l100 166l61 -22l-122 -160zM243.003 573.001l98 166l62 -22l-123 -160z" />
    <glyph glyph-name="Uogonek" unicode="&#x172;" horiz-adv-x="600" 
d="M264 -175c-24 0 -42.6621 6.66895 -55.9951 20.002s-20 29.666 -20 48.999c0 13.333 3.66699 28.333 11 45s20.666 35.667 39.999 57c-29.333 2.66699 -56 10.334 -80 23.001s-43.833 29.5 -59.5 50.5s-26.334 45.833 -32.001 74.5s-5.16699 60.334 1.5 95.001l89 457h66
l-87 -445c-5.33301 -28 -6.5 -53.833 -3.5 -77.5s10.333 -44.334 22 -62.001s27.167 -31.334 46.5 -41.001s42.666 -14.5 69.999 -14.5c52 0 96.333 16.5 133 49.5s60.667 78.167 72 135.5l89 455h67l-91 -467c-6.66699 -34 -17.334 -64.833 -32.001 -92.5
s-32.834 -51.667 -54.501 -72s-46.667 -36.5 -75 -48.5s-59.5 -19 -93.5 -21c-15.333 -16.667 -26.5 -32.5 -33.5 -47.5s-10.5 -28.5 -10.5 -40.5c0 -23.333 14.333 -35 43 -35c8 0 17 1.16699 27 3.5s20.667 6.16602 32 11.499l9 -39
c-13.333 -7.33301 -27.833 -13 -43.5 -17s-31.167 -6 -46.5 -6z" />
    <glyph glyph-name="uogonek" unicode="&#x173;" horiz-adv-x="515" 
d="M360 -177c-24 0 -42.665 6.66797 -55.998 20.001s-20 29.666 -20 48.999c0 14.667 4.16699 30.834 12.5 48.501s23.833 37.834 46.5 60.501l14 67h-3c-21.333 -26.667 -46 -45.667 -74 -57s-55.333 -17 -82 -17c-50.667 0 -88.834 16 -114.501 48s-32.834 78 -21.501 138
l61 315h61l-59 -306c-8 -42.667 -4.33301 -75.834 11 -99.501s45.666 -35.5 90.999 -35.5c18 0 35.333 3.33301 52 10s32 16.334 46 29.001s26 27.667 36 45s17 36.666 21 57.999l58 299h62l-96 -495h-16c-17.333 -18 -30.166 -35 -38.499 -51s-12.5 -30.667 -12.5 -44
c0 -23.333 14.333 -35 43 -35c8 0 17 1.16699 27 3.5s20.667 6.16602 32 11.499l9 -39c-13.333 -7.33301 -27.833 -13 -43.5 -17s-31.167 -6 -46.5 -6z" />
    <glyph glyph-name="Wcircumflex" unicode="&#x174;" horiz-adv-x="800" 
d="M573 0l-60.001 -0.000976562l-27 361l-15 212h-2l-87 -190l-88.5 -192l-88.5 -191h-60l-16.5 348l-17.5 348h66c2.66699 -85.333 5.16699 -157.5 7.5 -216.5l6 -152c1.66699 -42.333 3 -78.666 4 -108.999s2.16699 -59.833 3.5 -88.5h3l103 227l79.5 169.5l78.5 169.5h61
l26 -332c2 -24 3.83301 -47.667 5.5 -71s3.33398 -45.333 5.00098 -66s3 -39.5 4 -56.5s2.16699 -30.833 3.5 -41.5h3l77 186l80.5 190l79.5 191h70zM528.999 821.999l-161 -87l-17 30l165 120h45l111 -119l-30 -29z" />
    <glyph glyph-name="wcircumflex" unicode="&#x175;" horiz-adv-x="697" 
d="M368 416l-49.002 -111.5l-49 -103c-16.667 -33.667 -34 -67 -52 -100l-57 -101.5h-61l-56 496h64l26 -291c1.33301 -19.333 2.66602 -40.666 3.99902 -63.999l4 -68h3c35.333 62.667 68.833 129.167 100.5 199.5l100.5 223.5h71l31 -278c2.66699 -21.333 5 -44.333 7 -69
s3 -50.667 3 -78h2c36.667 66.667 72 136.667 106 210s65.333 145 94 215h66c-19.333 -47.333 -38.666 -91.833 -57.999 -133.5s-39.166 -82.334 -59.499 -122.001l-63.5 -118.5l-70 -122h-60l-33 275c-1.33301 16 -3.16602 36.5 -5.49902 61.5s-3.83301 51.5 -4.5 79.5h-4z
M426.998 665l-157 -105l-25 30l168 139h46l108 -137l-37 -31z" />
    <glyph glyph-name="Ycircumflex" unicode="&#x176;" horiz-adv-x="482" 
d="M231 0h-63l56 287l-62 204.5l-63 204.5h65c9.33301 -33.333 19.333 -67.333 30 -102l36 -120l19 -69c6.66699 -24 11.667 -43 15 -57l96 143l15 22l25 36.5l30 44l30 44l24.5 36.5l14.5 22h71l-141 -204.5l-142 -204.5zM366 822l-161 -87l-17 30l165 120h45l111 -119
l-30 -29z" />
    <glyph glyph-name="ycircumflex" unicode="&#x177;" horiz-adv-x="409" 
d="M453 495c-38 -103.333 -76.333 -197.167 -115 -281.5s-78 -158.833 -118 -223.5c-14.667 -23.333 -31 -45.833 -49 -67.5s-38 -41 -60 -58s-46.5 -31 -73.5 -42s-56.833 -17.5 -89.5 -19.5l-2 55c34.667 4 68.167 15 100.5 33s62.5 46.667 90.5 86l-82 518h66l34 -238
l14.5 -108c5 -38.667 8.16699 -77 9.5 -115h3c44 74.667 82.833 151.667 116.5 231s63.5 156 89.5 230h65zM280 664.999l-157 -105l-25 30l168 139h46l108 -137l-37 -31z" />
    <glyph glyph-name="Ydieresis" unicode="&#x178;" horiz-adv-x="482" 
d="M231 0h-63l56 287l-62 204.5l-63 204.5h65c9.33301 -33.333 19.333 -67.333 30 -102l36 -120l19 -69c6.66699 -24 11.667 -43 15 -57l96 143l15 22l25 36.5l30 44l30 44l24.5 36.5l14.5 22h71l-141 -204.5l-142 -204.5zM224 751l14 71h72l-14 -71h-72zM403 751l14 71h72
l-14 -71h-72z" />
    <glyph glyph-name="Zacute" unicode="&#x179;" horiz-adv-x="487" 
d="M301 767l163 115l38 -50l-178 -98zM-8 0l12 60l459 577h-333l11 59h409l-11 -55l-460 -579h348l-12 -62h-423z" />
    <glyph glyph-name="zacute" unicode="&#x17a;" horiz-adv-x="419" 
d="M-14 0l11 52l353 388h-263l10 55h337l-10 -54l-349 -383h274l-11 -58h-352zM239 573l98 166l61 -22l-122 -160z" />
    <glyph glyph-name="Zdotaccent" unicode="&#x17b;" horiz-adv-x="487" 
d="M-8 0l12 60l459 577h-333l11 59h409l-11 -55l-460 -579h348l-12 -62h-423zM315 752l14 72h71l-14 -72h-71z" />
    <glyph glyph-name="zdotaccent" unicode="&#x17c;" horiz-adv-x="419" 
d="M-14 0l11 52l353 388h-263l10 55h337l-10 -54l-349 -383h274l-11 -58h-352zM240 602l14 72h71l-14 -72h-71z" />
    <glyph glyph-name="Zcaron" unicode="&#x17d;" horiz-adv-x="487" 
d="M-8 0l12 60l459 577h-333l11 59h409l-11 -55l-460 -579h348l-12 -62h-423zM374 799l163 87l18 -30l-165 -120h-45l-112 119l29 27z" />
    <glyph glyph-name="zcaron" unicode="&#x17e;" horiz-adv-x="419" 
d="M-14 0l11 52l353 388h-263l10 55h337l-10 -54l-349 -383h274l-11 -58h-352zM426 722l24 -29l-161 -138h-45l-114 139l36 29l108 -104z" />
    <glyph glyph-name="florin" unicode="&#x192;" horiz-adv-x="484" 
d="M156 417l98.0029 0.000976562l20 90c5.33301 24 12.833 47.5 22.5 70.5s22 43.667 37 62s33.333 33 55 44s47.5 16.5 77.5 16.5c13.333 0 26.666 -1.16699 39.999 -3.5s25.333 -5.16602 36 -8.49902l-10.5 -28.5c-3.66699 -10.333 -6.83398 -20.166 -9.50098 -29.499
c-10 3.33301 -20.833 6 -32.5 8s-22.167 3 -31.5 3c-30 0 -54.5 -11.833 -73.5 -35.5s-33.167 -55.834 -42.5 -96.501l-21 -92h109l-6 -57h-116l-57 -249c-7.33301 -30.667 -15.833 -58.334 -25.5 -83.001s-21.667 -45.834 -36 -63.501s-31.333 -31.334 -51 -41.001
s-42.834 -14.5 -69.501 -14.5c-12.667 0 -26.667 1.33301 -42 4s-29.333 6.33398 -42 11.001c3.33301 9.33301 7 18.333 11 27l12 26c20 -8 39.667 -12 59 -12c30 0 54 12 72 36s32.333 60 43 108l58 251h-89z" />
    </font>
</defs>
</svg>
