<?xml version="1.0" standalone="no"?>
<!DOCTYPE svg PUBLIC "-//W3C//DTD SVG 1.1//EN" "http://www.w3.org/Graphics/SVG/1.1/DTD/svg11.dtd" >
<svg>
<metadata>
Created by FontForge 20090914 at Fri Jun 17 18:32:15 2016
 By www-data
Copyright (c) 2002, 2005 Parachute&#194;&#168;, www.parachute.gr.  All rights reserved.
</metadata>
<defs>
<font id="PFDinTextPro-BoldItalic" horiz-adv-x="1818" >
  <font-face 
    font-family="PF DinText Pro"
    font-weight="700"
    font-style="italic"
    font-stretch="normal"
    units-per-em="1000"
    panose-1="2 0 8 6 3 0 0 9 0 4"
    ascent="750"
    descent="-250"
    x-height="495"
    cap-height="696"
    bbox="-358.333 -313.007 1760 953"
    underline-thickness="90"
    underline-position="-25"
    slope="-12"
    unicode-range="U+0020-U+FB05"
  />
<missing-glyph horiz-adv-x="456" 
d="M0 700h456v-700h-456v700zM331 86l-103 185l-101 -185h204zM330 614h-204l103 -183zM86 181l95 169l-95 174v-343zM370 181v339l-95 -170z" />
    <glyph glyph-name="fj" unicode="fj" horiz-adv-x="563" 
d="M130 494l11 60c6.66699 32.667 17.334 60.667 32.001 84s32.5 42.5 53.5 57.5s44.5 26 70.5 33s53.667 10.5 83 10.5c34 0 67 -5.33301 99 -16s60.333 -29.667 85 -57l-92 -95c-11.333 14.667 -25.333 25.667 -42 33s-36.667 11 -60 11c-17.333 0 -31.5 -2.5 -42.5 -7.5
s-19.833 -11 -26.5 -18s-11.667 -14.5 -15 -22.5s-5.33301 -14.667 -6 -20l-10 -53h279l-107 -546c-8.66699 -44.667 -28.834 -80.5 -60.501 -107.5s-74.5 -40.5 -128.5 -40.5h-59l24 124h26c24 0 40 5.33301 48 16s13.333 22.667 16 36l79 408h-139l-103 -533h-140l103 533
h-54l22 110h54z" />
    <glyph glyph-name="ffj" unicode="ffj" horiz-adv-x="841" 
d="M143 -149h-139.001l103 533h-55l22 110h55l7 40c6.66699 32.667 17.834 60.667 33.501 84s34.5 42.5 56.5 57.5s46.5 26 73.5 33s55.167 10.5 84.5 10.5c21.333 0 42.333 -1.83301 63 -5.5s40.667 -10.5 60 -20.5c22 15.333 45.167 26.833 69.5 34.5s51.5 11.5 81.5 11.5
c34 0 67 -5.16699 99 -15.5s60.667 -29.5 86 -57.5l-93 -95c-22 29.333 -56 44 -102 44c-17.333 0 -31.5 -2.5 -42.5 -7.5s-19.833 -11 -26.5 -18s-11.667 -14.5 -15 -22.5s-5.33301 -14.667 -6 -20l-10 -53h279l-107 -546c-8.66699 -44.667 -28.667 -80.5 -60 -107.5
s-74 -40.5 -128 -40.5h-59l24 124h25c24 0 40 5.33301 48 16s13.333 22.667 16 36l79 408h-139l-103 -533h-139l103 533h-141zM408.999 494l11 60.001c2 11.333 4.33301 20.666 7 27.999c-9.33301 4 -19 7.16699 -29 9.5s-21.333 3.5 -34 3.5
c-17.333 0 -31.5 -2.5 -42.5 -7.5s-19.833 -11 -26.5 -18s-11.667 -14.5 -15 -22.5s-5.33301 -14.667 -6 -20l-6 -33h141z" />
    <glyph glyph-name="ff" unicode="ff" horiz-adv-x="610" 
d="M392 732c18.667 0 37.334 -1.33398 56.001 -4.00098s36.334 -7.66699 53.001 -15c10.667 7.33301 26 14.833 46 22.5s44.333 11.834 73 12.501c12.667 0 26.667 -0.666992 42 -2s30.666 -4 45.999 -8l-22 -115c-8.66699 2 -17.834 3.16699 -27.501 3.5
s-17.5 0.5 -23.5 0.5c-14 -0.666992 -25.333 -3.16699 -34 -7.5s-15.5 -9.66602 -20.5 -15.999s-8.5 -12.833 -10.5 -19.5s-3.33301 -12.667 -4 -18l-15 -71h95l-22 -111h-95l-103 -533h-139l103 533h-139l-103 -533h-140l103 533h-54l22 111h54l8 42
c6 32.667 16.667 61.167 32 85.5s34 44.666 56 60.999s46.833 28.5 74.5 36.5s57.167 12 88.5 12zM412 494.999l19.998 102c-9.33301 3.33301 -18.666 6 -27.999 8s-20 3 -32 3c-18 0 -32.667 -2.5 -44 -7.5s-20.166 -11 -26.499 -18s-11 -14.5 -14 -22.5
s-5.16699 -14.667 -6.5 -20l-8 -45h139z" />
    <glyph glyph-name="fi" unicode="fi" horiz-adv-x="563" 
d="M130 494l10.999 60c6.66699 32.667 17.334 60.667 32.001 84s32.5 42.5 53.5 57.5s44.5 26 70.5 33s53.667 10.5 83 10.5c34 0 66.5 -5.16699 97.5 -15.5s59.167 -29.5 84.5 -57.5l-90 -95c-11.333 14.667 -25.333 25.667 -42 33s-36.667 11 -60 11
c-17.333 0 -31.5 -2.5 -42.5 -7.5s-19.833 -11 -26.5 -18s-11.667 -14.5 -15 -22.5s-5.33301 -14.667 -6 -20l-10 -53h279l-96 -494h-140l74 384h-139l-103 -533h-140l103 533h-54l22 110h54z" />
    <glyph glyph-name="fl" unicode="fl" horiz-adv-x="574" 
d="M464 0c-19.333 0 -37.1641 3.33301 -53.4971 10s-29.833 16.5 -40.5 29.5s-18 29.333 -22 49s-3.33301 42.5 2 68.5l86 441c-13.333 4.66699 -26.333 7.66699 -39 9s-22 2 -28 2c-18.667 0 -33.5 -2.5 -44.5 -7.5s-19.667 -11 -26 -18s-10.833 -14.5 -13.5 -22.5
s-4.33398 -14.667 -5.00098 -20l-10 -47h96l-22 -110h-96l-103 -533h-140l103 533h-54l22 110h54l11 54c6 32.667 16.333 60.667 31 84s32.5 42.5 53.5 57.5s44.5 26 70.5 33s53.667 10.5 83 10.5c8 0 19.333 -0.666992 34 -2s31.5 -3.5 50.5 -6.5s39.667 -7 62 -12
s45.166 -11.5 68.499 -19.5l-101 -519c-4 -22 -1.83301 -36.333 6.5 -43s19.166 -10 32.499 -10h20l-24 -121h-64z" />
    <glyph glyph-name="ffi" unicode="ffi" horiz-adv-x="832" 
d="M145 -149h-140l103 533h-54l22 110h54l7 40c6.66699 32.667 17.834 60.667 33.501 84s34.667 42.5 57 57.5s47 26 74 33s55.167 10.5 84.5 10.5c21.333 0 42.333 -1.83301 63 -5.5s40.667 -10.5 60 -20.5c43.333 30.667 94.666 46 153.999 46
c34 0 66.5 -5.16699 97.5 -15.5s58.833 -29.5 83.5 -57.5l-92 -95c-22 29.333 -56 44 -102 44c-17.333 0 -31.5 -2.5 -42.5 -7.5s-19.833 -11 -26.5 -18s-11.667 -14.5 -15 -22.5s-5.33301 -14.667 -6 -20l-10 -53h279l-96 -494h-140l74 384h-139l-103 -533h-139l103 533
h-141zM411 494l11 60.001c2 11.333 4.33301 20.666 7 27.999c-9.33301 4 -19 7.16699 -29 9.5s-21.333 3.5 -34 3.5c-17.333 0 -31.5 -2.5 -42.5 -7.5s-19.833 -11 -26.5 -18s-11.667 -14.5 -15 -22.5s-5.33301 -14.667 -6 -20l-6 -33h141z" />
    <glyph glyph-name="ffl" unicode="ffl" horiz-adv-x="848" 
d="M411 494l11 60.001c2 11.333 4.33301 20.666 7 27.999c-9.33301 4 -19 7.16699 -29 9.5s-21.333 3.5 -34 3.5c-17.333 0 -31.5 -2.5 -42.5 -7.5s-19.833 -11 -26.5 -18s-11.667 -14.5 -15 -22.5s-5.33301 -14.667 -6 -20l-6 -33h141zM650 615.001
c-17.333 0 -31.502 -2.5 -42.502 -7.5s-19.833 -11 -26.5 -18s-11.667 -14.5 -15 -22.5s-5.33301 -14.667 -6 -20l-10 -53h89l-22 -110h-89l-103 -533h-139l103 533h-141l-103 -533h-140l103 533h-54l22 110h54l7 40c6.66699 32.667 17 60.667 31 84s31.167 42.5 51.5 57.5
s43.5 26 69.5 33s54.333 10.5 85 10.5c40.667 0 85.334 -9.66699 134.001 -29c22 15.333 45.833 27.333 71.5 36s53.5 13 83.5 13c16 0 42.5 -2.66699 79.5 -8s78.833 -16 125.5 -32l-102 -525c-4 -22 -1.83301 -36.333 6.5 -43s19.166 -10 32.499 -10h20l-24 -121h-64
c-19.333 0 -37.166 3.33301 -53.499 10s-29.833 16.5 -40.5 29.5s-18 29.333 -22 49s-3.33301 42.5 2 68.5l87 447c-13.333 4.66699 -25.166 7.66699 -35.499 9s-18.5 2 -24.5 2z" />
    <glyph glyph-name="ft" unicode="ft" horiz-adv-x="597" 
d="M148 582c4 20.667 10.335 40.3311 19.002 58.998s20.5 35 35.5 49s33.667 25.167 56 33.5s49.5 12.5 81.5 12.5c12 0 24.5 -0.666992 37.5 -2s26.5 -3.66602 40.5 -6.99902l-22 -117c-10.667 2.66699 -19.334 4.16699 -26.001 4.5s-13 0.5 -19 0.5
c-12 0 -22 -1.66699 -30 -5s-14.5 -7.33301 -19.5 -12s-8.83301 -10 -11.5 -16s-4.33398 -11.333 -5.00098 -16l-15 -71h139l26 137h136l-26 -136h74l-22 -112h-72l-40 -209c-4.66699 -21.333 -4 -35.166 2 -41.499s16 -9.5 30 -9.5h31l-24 -124h-76
c-39.333 0 -69.833 11.667 -91.5 35s-28.5 56 -20.5 98l49 251h-137l-103 -533h-140l103 533h-54l22 111h54z" />
    <glyph glyph-name=".notdef" horiz-adv-x="456" 
d="M0 700h456v-700h-456v700zM331 86l-103 185l-101 -185h204zM330 614h-204l103 -183zM86 181l95 169l-95 174v-343zM370 181v339l-95 -170z" />
    <glyph glyph-name="space" unicode=" " horiz-adv-x="269" 
 />
    <glyph glyph-name="exclam" unicode="!" horiz-adv-x="288" 
d="M202 191h-121l87 505h142zM32 0l25 128h144l-25 -128h-144z" />
    <glyph glyph-name="quotedbl" unicode="&#x22;" horiz-adv-x="401" 
d="M270 469l44 227h121l-44 -227h-121zM104 469l44 227h121l-44 -227h-121z" />
    <glyph glyph-name="numbersign" unicode="#" horiz-adv-x="550" 
d="M457 301h90l-19 -98h-104l-68 -203h-119l69 203h-81l-69 -203h-119l69 203h-84l19 98h99l33 95h-86l19 99h100l68 201h116l-67 -201h83l69 201h115l-67 -201h89l-19 -99h-104zM257 301h83l33 95h-84z" />
    <glyph glyph-name="dollar" unicode="$" horiz-adv-x="550" 
d="M206 -3c-40.667 2.66699 -77.1699 11.8369 -109.503 27.5039s-64.5 38.834 -96.5 69.501l104 117c21.333 -21.333 42 -37.666 62 -48.999s42.667 -18.333 68 -21l27 138c-21.333 6 -42.166 14.333 -62.499 25s-38.166 23.667 -53.499 39s-27.666 33 -36.999 53
s-14 42.667 -14 68c0 33.333 6.33301 64.166 19 92.499s30 52.666 52 72.999s48.167 36.666 78.5 48.999s63.166 19.166 98.499 20.499l13 67h55l-12 -66c34 -1.33301 65.833 -7.83301 95.5 -19.5s59.834 -29.834 90.501 -54.501l-91 -127c-24 18 -45.167 31.667 -63.5 41
s-38.166 15 -59.499 17l-26 -131c30 -10.667 56.833 -22.167 80.5 -34.5s43.667 -26.333 60 -42s28.666 -33.5 36.999 -53.5s12.5 -42.667 12.5 -68c0 -38.667 -7.33301 -72.5 -22 -101.5s-34.5 -53 -59.5 -72s-54 -33.333 -87 -43s-67.833 -14.834 -104.5 -15.501l-20 -102
h-55zM288.997 142.003c46.667 8.66699 70 31 70 67c0 12.667 -4 23 -12 31s-19.667 15.333 -35 22zM258.997 501.003c0 -11.333 2.5 -21.1699 7.5 -29.5029s14.167 -16.166 27.5 -23.499l20 106c-13.333 -3.33301 -25 -9.16602 -35 -17.499s-16.667 -20.166 -20 -35.499z
" />
    <glyph glyph-name="percent" unicode="%" horiz-adv-x="925" 
d="M833 123c-8 -42.667 -25.334 -74.333 -52.001 -95s-61.667 -31 -105 -31c-20 0 -38.833 3.33301 -56.5 10s-32.667 15.667 -45 27s-21.5 25 -27.5 41s-7.33301 33.333 -4 52l32 166c7.33301 40.667 25.333 72 54 94s63.667 33 105 33c19.333 0 37.833 -3 55.5 -9
s32.834 -14.5 45.501 -25.5s22.167 -24.667 28.5 -41s7.5 -34.833 3.5 -55.5zM758.999 293.001c2 11.333 -0.333008 20 -7 26s-15.667 9 -27 9s-20.833 -3.5 -28.5 -10.5s-12.5 -16.5 -14.5 -28.5l-33 -165c-1.33301 -10.667 1.5 -19 8.5 -25s16.167 -9 27.5 -9
c22 0 35.667 12.667 41 38zM411.999 402.001c-8 -42.667 -25.334 -74.333 -52.001 -95s-61.667 -31 -105 -31c-20 0 -38.833 3.33301 -56.5 10s-32.667 15.667 -45 27s-21.5 25 -27.5 41s-7.33301 33.333 -4 52l32 166c7.33301 40.667 25.333 72 54 94s63.667 33 105 33
c19.333 0 37.833 -3 55.5 -9s32.834 -14.5 45.501 -25.5s22.167 -24.667 28.5 -41s7.5 -34.833 3.5 -55.5zM337.998 572.002c2 11.333 -0.333008 20 -7 26s-15.667 9 -27 9s-20.833 -3.5 -28.5 -10.5s-12.5 -16.5 -14.5 -28.5l-33 -165c-1.33301 -10.667 1.5 -19 8.5 -25
s16.167 -9 27.5 -9c22 0 35.667 12.667 41 38zM267.998 -16.998h-117l565 730h118z" />
    <glyph glyph-name="ampersand" unicode="&#x26;" horiz-adv-x="662" 
d="M409 57c-28 -20 -57.0039 -35.5049 -87.0039 -46.5049s-60.333 -16.5 -91 -16.5c-32 0 -59 4.66699 -81 14s-39.833 21.666 -53.5 36.999s-23.5 33.333 -29.5 54s-9 42 -9 64c0 40.667 14.333 81.167 43 121.5s67.334 74.833 116.001 103.5l-10 16
c-7.33301 12.667 -14.5 29.334 -21.5 50.001s-10.5 42.334 -10.5 65.001c0 56.667 18.667 101.167 56 133.5s92 48.5 164 48.5c14 0 29.167 -1.16699 45.5 -3.5s32.5 -6.16602 48.5 -11.499s31.667 -12.333 47 -21s29.333 -19.667 42 -33l-84 -106
c-21.333 21.333 -41.166 34.833 -59.499 40.5s-36.166 8.5 -53.499 8.5c-20 0 -36 -6.16699 -48 -18.5s-18 -26.5 -18 -42.5c0 -7.33301 1.16699 -14.166 3.5 -20.499s6.16602 -14.166 11.499 -23.499l119 -208c8 12.667 15.833 27.334 23.5 44.001s14.5 33.667 20.5 51
l119 -33c-11.333 -30 -25.666 -60.5 -42.999 -91.5s-35.666 -58.167 -54.999 -81.5l92 -151h-165zM272.996 288.995c-23.333 -14.667 -42.833 -32.168 -58.5 -52.501s-23.5 -41.166 -23.5 -62.499c0 -15.333 5.5 -28 16.5 -38s27.833 -15 50.5 -15c16 0 32 3.33301 48 10
s31 14.667 45 24z" />
    <glyph glyph-name="quotesingle" unicode="'" horiz-adv-x="255" 
d="M117 469l44 227h122l-44 -227h-122z" />
    <glyph glyph-name="parenleft" unicode="(" horiz-adv-x="373" 
d="M201 -142c-37.333 51.333 -68.166 107.834 -92.499 169.501s-35.833 126.834 -34.5 195.501c0.666992 52 9.5 102.333 26.5 151s39.333 95.167 67 139.5s59.167 86.166 94.5 125.499s71.666 75.666 108.999 108.999l75 -55c-31.333 -32.667 -60.5 -68 -87.5 -106
s-50.5 -78 -70.5 -120s-35.667 -85.167 -47 -129.5s-17 -89.5 -17 -135.5c0 -48 6.16699 -96 18.5 -144s30.5 -93.667 54.5 -137z" />
    <glyph glyph-name="parenright" unicode=")" horiz-adv-x="373" 
d="M-3 -79c30 32 58.5 66.5 85.5 103.5s50.667 75.833 71 116.5s36.5 82.834 48.5 126.501s18 88.167 18 133.5c0 48 -5.33301 97 -16 147s-29.334 98.333 -56.001 145l96 55c36 -50 66 -104 90 -162s36 -120.333 36 -187c0 -54 -8.5 -106 -25.5 -156
s-39.667 -97.833 -68 -143.5s-60.666 -88.834 -96.999 -129.501s-73.5 -78 -111.5 -112z" />
    <glyph glyph-name="asterisk" unicode="*" horiz-adv-x="464" 
d="M424 404l-104 -65l-39 103l-83 -103l-77 65l99 89l-109 26l52 102l102 -46l10 119h113l-37 -119l119 46l12 -102l-121 -26z" />
    <glyph glyph-name="plus" unicode="+" horiz-adv-x="550" 
d="M343 240l-36 -186h-124l36 186h-194l23 116h194l35 183h124l-35 -183h194l-23 -116h-194z" />
    <glyph glyph-name="comma" unicode="," horiz-adv-x="293" 
d="M-8 -151l67 150h-36l33 166h165l-30 -158l-127 -158h-72z" />
    <glyph glyph-name="hyphen" unicode="-" horiz-adv-x="431" 
d="M44 192l25 131h339l-26 -131h-338z" />
    <glyph glyph-name="period" unicode="." horiz-adv-x="291" 
d="M-17 0l32 165h165l-32 -165h-165z" />
    <glyph glyph-name="slash" unicode="/" horiz-adv-x="368" 
d="M54 -42h-118l401 767h120z" />
    <glyph glyph-name="zero" unicode="0" horiz-adv-x="550" 
d="M463 204c-14 -71.333 -41.4971 -123.999 -82.4971 -157.999s-93.5 -51 -157.5 -51c-30.667 0 -59.167 4.66699 -85.5 14s-48.5 22.833 -66.5 40.5s-31 39.5 -39 65.5s-8.66699 55.667 -2 89l55 287c13.333 67.333 41.666 119.166 84.999 155.499
s95.666 54.5 156.999 54.5c28.667 0 56 -4.66699 82 -14s48.333 -23 67 -41s32.167 -40 40.5 -66s9.16602 -55.667 2.49902 -89zM374.003 491.001c5.33301 26 1.49902 45.333 -11.501 58s-30.5 19 -52.5 19c-43.333 0 -70.333 -25.667 -81 -77l-55 -286
c-5.33301 -26 -1.16602 -45.333 12.501 -58s31.167 -19 52.5 -19c42.667 0 69 25.667 79 77z" />
    <glyph glyph-name="one" unicode="1" horiz-adv-x="550" 
d="M141 0l103 531l-115 -72l29 154l134 83h129l-136 -696h-144z" />
    <glyph glyph-name="two" unicode="2" horiz-adv-x="550" 
d="M106 512c8.66699 30 21.5 56.833 38.5 80.5s36.333 43.5 58 59.5s45.167 28.167 70.5 36.5s51 12.5 77 12.5c26.667 0 51.834 -3 75.501 -9s44.5 -15.5 62.5 -28.5s32.167 -29.5 42.5 -49.5s15.5 -43.667 15.5 -71c0 -18 -2.33301 -35.833 -7 -53.5
s-10.834 -34.167 -18.501 -49.5s-16.167 -29.5 -25.5 -42.5s-19 -24.167 -29 -33.5l-238 -226h240l-27 -138h-435l24 123l334 319c10.667 10 18.167 21 22.5 33s6.5 24 6.5 36c0 15.333 -4.83301 27.833 -14.5 37.5s-23.834 14.5 -42.501 14.5s-36.667 -5.5 -54 -16.5
s-30.666 -32.5 -39.999 -64.5z" />
    <glyph glyph-name="three" unicode="3" horiz-adv-x="550" 
d="M160 205c0.666992 -29.333 7.83105 -48.668 21.498 -58.001s30.5 -14 50.5 -14c13.333 0 26 2.5 38 7.5s22.333 12 31 21s15.5 19.333 20.5 31s7.5 24.167 7.5 37.5c0 21.333 -6 39.166 -18 53.499s-28 21.5 -48 21.5h-78l22 110h70c12.667 0 25 2.33301 37 7
s22.5 11 31.5 19s16.167 17.5 21.5 28.5s8 23.167 8 36.5c0 16.667 -5.83301 30.334 -17.5 41.001s-26.5 16 -44.5 16c-7.33301 0 -15.5 -1.16699 -24.5 -3.5s-17.667 -6.16602 -26 -11.499s-16 -12.5 -23 -21.5s-12.5 -20.167 -16.5 -33.5l-137 25
c10 31.333 23.167 58.5 39.5 81.5s35.333 42 57 57s45.334 26.167 71.001 33.5s52.5 11 80.5 11c31.333 0 59.166 -4.83301 83.499 -14.5s44.833 -22.5 61.5 -38.5s29.334 -34.833 38.001 -56.5s13 -44.5 13 -68.5c0 -36 -10.5 -69 -31.5 -99s-48.833 -51 -83.5 -63l-1 -5
c26.667 -11.333 44.834 -28.5 54.501 -51.5s14.5 -46.167 14.5 -69.5c0 -36 -7 -68.667 -21 -98s-32.833 -54.5 -56.5 -75.5s-51 -37.333 -82 -49s-63.5 -17.5 -97.5 -17.5c-24.667 0 -49 3.5 -73 10.5s-45.833 18.167 -65.5 33.5s-35.667 34.833 -48 58.5
s-18.833 52.5 -19.5 86.5z" />
    <glyph glyph-name="four" unicode="4" horiz-adv-x="550" 
d="M446 97l-19 -97h-144l19 97h-284l22 115l330 484h161l-321 -466h118l32 173h144l-32 -173h55l-26 -133h-55z" />
    <glyph glyph-name="five" unicode="5" horiz-adv-x="550" 
d="M185 202c-0.666992 -13.333 1.16895 -24.332 5.50195 -32.999s10 -15.667 17 -21s14.333 -9.16602 22 -11.499s14.834 -3.5 21.501 -3.5c20 0 36.667 5.83301 50 17.5s23.666 25.834 30.999 42.501s12.5 34 15.5 52s4.5 33 4.5 45c0 19.333 -4.33301 35.333 -13 48
s-24.667 19 -48 19c-13.333 0 -27.5 -4.33301 -42.5 -13s-29.167 -23.667 -42.5 -45h-129l78 397h398l-27 -138h-260l-20 -98l4 -3c15.333 10 31.333 17.5 48 22.5s32.667 7.5 48 7.5c29.333 0 54 -4.33301 74 -13s36.167 -20.334 48.5 -35.001s21.166 -31.5 26.499 -50.5
s8 -38.833 8 -59.5c0 -46 -5.5 -89.333 -16.5 -130s-27.667 -76 -50 -106s-50.5 -53.833 -84.5 -71.5s-74 -26.5 -120 -26.5c-23.333 0 -46 3.66699 -68 11s-41.667 18.666 -59 33.999s-31.333 34.666 -42 57.999s-16.334 51.333 -17.001 84z" />
    <glyph glyph-name="six" unicode="6" horiz-adv-x="550" 
d="M219 -5c-31.333 0 -58.499 4.66699 -81.499 14s-42 21.833 -57 37.5s-26 34 -33 55s-10.5 43.167 -10.5 66.5c0 28 4.83301 56.333 14.5 85s23.5 55.667 41.5 81l259 362h162l-198 -278l1 -2c5.33301 0.666992 10.166 1.16699 14.499 1.5s8.83301 0.5 13.5 0.5
c46.667 0 82.167 -14.667 106.5 -44s36.5 -66 36.5 -110c0 -49.333 -8.33301 -91 -25 -125s-38.167 -61.667 -64.5 -83s-55.333 -36.833 -87 -46.5s-62.5 -14.5 -92.5 -14.5zM277.001 302c-10.667 0 -21.501 -2.33398 -32.501 -7.00098s-21 -11.667 -30 -21
s-16.333 -20.666 -22 -33.999s-8.5 -28.666 -8.5 -45.999c0 -21.333 5.83301 -36.833 17.5 -46.5s25.834 -14.5 42.501 -14.5c8.66699 0 18.334 2 29.001 6s20.667 10.167 30 18.5s17.166 19.166 23.499 32.499s9.5 29.333 9.5 48c0 20.667 -5.83301 36.5 -17.5 47.5
s-25.5 16.5 -41.5 16.5z" />
    <glyph glyph-name="seven" unicode="7" horiz-adv-x="550" 
d="M161 0h-153l339 558h-123l-18 -94h-145l46 232h434l-24 -123z" />
    <glyph glyph-name="eight" unicode="8" horiz-adv-x="550" 
d="M342 701c30 0 56.502 -4.33203 79.502 -12.999s42.5 -20.667 58.5 -36s28.167 -33.5 36.5 -54.5s12.5 -43.833 12.5 -68.5c0 -39.333 -10.333 -72.833 -31 -100.5s-48 -50.167 -82 -67.5c10.667 -5.33301 20.334 -13 29.001 -23s16 -21 22 -33s10.667 -24.833 14 -38.5
s5 -26.834 5 -39.501c0 -35.333 -7.66699 -67.333 -23 -96s-35.5 -53 -60.5 -73s-53.333 -35.5 -85 -46.5s-63.834 -16.5 -96.501 -16.5c-30 0 -57.333 4.33301 -82 13s-45.834 20.834 -63.501 36.501s-31.334 34.667 -41.001 57s-14.5 47.166 -14.5 74.499
c0 18 2.16699 36.167 6.5 54.5s11.333 35.666 21 51.999s22.167 31.333 37.5 45s33.666 24.834 54.999 33.501c-19.333 11.333 -33 25.833 -41 43.5s-12 37.167 -12 58.5c0 32.667 6.33301 63.5 19 92.5s30.334 54.167 53.001 75.5s49.5 38.333 80.5 51s65.167 19 102.5 19z
M323.002 570.001c-24.667 0 -45.832 -8.66797 -63.499 -26.001s-26.5 -40 -26.5 -68c0 -17.333 5.83301 -30.666 17.5 -39.999s26.167 -14 43.5 -14c10.667 0 21.5 2.16699 32.5 6.5s20.667 10.333 29 18s15.166 16.834 20.499 27.501s8 22.667 8 36
c0 17.333 -5.16699 31.666 -15.5 42.999s-25.5 17 -45.5 17zM269.004 294c-13.333 0 -26.168 -2.5 -38.501 -7.5s-23.333 -12 -33 -21s-17.5 -19.333 -23.5 -31s-9 -24.167 -9 -37.5c0 -19.333 6.33301 -35.5 19 -48.5s30.334 -19.5 53.001 -19.5
c14 0 27.5 2.83301 40.5 8.5s24.167 13 33.5 22s16.833 19.5 22.5 31.5s8.5 24.667 8.5 38c0 19.333 -6.83301 35 -20.5 47s-31.167 18 -52.5 18z" />
    <glyph glyph-name="nine" unicode="9" horiz-adv-x="550" 
d="M322 700c31.333 0 58.833 -4.66699 82.5 -14s43.5 -21.833 59.5 -37.5s28 -34 36 -55s12 -43.167 12 -66.5c0 -28 -4.83301 -56.333 -14.5 -85s-23.5 -55.667 -41.5 -81l-259 -362h-162l198 278l-1 2c-5.33301 -0.666992 -10.166 -1.16699 -14.499 -1.5
s-8.83301 -0.5 -13.5 -0.5c-46.667 0 -82.167 14.667 -106.5 44s-36.5 66 -36.5 110c0 44.667 7.66699 83.667 23 117s35.333 61.333 60 84s52.667 39.667 84 51s62.666 17 93.999 17zM272 393c10.667 0 21.501 2.33398 32.501 7.00098s21 11.667 30 21
s16.333 20.666 22 33.999s8.5 28.666 8.5 45.999c0 21.333 -5.83301 36.833 -17.5 46.5s-25.834 14.5 -42.501 14.5c-8.66699 0 -18.334 -2 -29.001 -6s-20.667 -10.167 -30 -18.5s-17.166 -19.166 -23.499 -32.499s-9.5 -29.333 -9.5 -48
c0 -20.667 5.83301 -36.5 17.5 -47.5s25.5 -16.5 41.5 -16.5z" />
    <glyph glyph-name="colon" unicode=":" horiz-adv-x="297" 
d="M26 0l32 165h165l-32 -165h-165zM78 268l32 165h165l-32 -165h-165z" />
    <glyph glyph-name="semicolon" unicode=";" horiz-adv-x="297" 
d="M78 268l32 165h165l-32 -165h-165zM-6 -151l67 150h-36l33 166h165l-30 -158l-127 -158h-72z" />
    <glyph glyph-name="less" unicode="&#x3c;" horiz-adv-x="550" 
d="M25 242l21 112l555 223l-26 -134l-382 -149l324 -149l-25 -128z" />
    <glyph glyph-name="equal" unicode="=" horiz-adv-x="550" 
d="M47 357l21 111h514l-21 -111h-514zM2 128l22 111h514l-22 -111h-514z" />
    <glyph glyph-name="greater" unicode="&#x3e;" horiz-adv-x="550" 
d="M-18 17l24 136l382 149l-324 149l27 126l467 -223l-21 -112z" />
    <glyph glyph-name="question" unicode="?" horiz-adv-x="485" 
d="M61 492c13.333 68.667 43.335 120.668 90.002 156.001s104.334 53 173.001 53c27.333 0 52.833 -4 76.5 -12s44 -19.167 61 -33.5s30.333 -31.333 40 -51s14.5 -41.167 14.5 -64.5c0 -25.333 -4.33301 -48 -13 -68s-19.667 -38.5 -33 -55.5s-28.333 -33 -45 -48
s-32.667 -30.333 -48 -46s-29.5 -32 -42.5 -49s-22.5 -36.167 -28.5 -57.5l-5 -22h-144l5 27c3.33301 19.333 8.16602 36.833 14.499 52.5s14.666 31.167 24.999 46.5s23 31.333 38 48l52.5 57c6 6.66699 12.833 13.5 20.5 20.5s14.667 14.333 21 22
s11.666 15.5 15.999 23.5s6.5 16.333 6.5 25c0 14.667 -6 26.167 -18 34.5s-25.667 12.5 -41 12.5c-9.33301 0 -18.833 -1.16699 -28.5 -3.5s-18.667 -6.83301 -27 -13.5s-15.833 -15.834 -22.5 -27.501s-12 -26.5 -16 -44.5zM119.002 0.000976562l25 128h144l-24 -128h-145
z" />
    <glyph glyph-name="at" unicode="@" horiz-adv-x="926" 
d="M606 241c-1.33301 -7.33301 1 -13.3311 7 -17.998s12.333 -7 19 -7c18 0 34.667 4.33301 50 13s28.666 20.667 39.999 36s20.5 33 27.5 53s11.5 41.667 13.5 65c2.66699 40 -1.5 76.167 -12.5 108.5s-27.667 59.833 -50 82.5s-49.5 40.167 -81.5 52.5
s-67.667 18.5 -107 18.5c-48 0 -91.833 -8.5 -131.5 -25.5s-74 -39.667 -103 -68s-52.167 -61.5 -69.5 -99.5s-28 -78 -32 -120c-3.33301 -45.333 1 -86.666 13 -123.999s30.5 -69.5 55.5 -96.5s55.833 -47.833 92.5 -62.5s77.667 -22 123 -22
c24.667 0 47.5 1.16699 68.5 3.5s41 5.83301 60 10.5s37.5 10.167 55.5 16.5s36.333 13.5 55 21.5l22 -87l-65 -23.5c-20 -7 -40 -12.833 -60 -17.5s-40.5 -8.16699 -61.5 -10.5s-43.833 -3.5 -68.5 -3.5c-60 0 -115 8.66699 -165 26s-92.333 42.833 -127 76.5
s-61 75 -79 124s-25 105.167 -21 168.5c4 58 17.667 111.333 41 160s54.5 90.667 93.5 126s84.5 63 136.5 83s109 30 171 30c52.667 0 101 -8 145 -24s81.5 -38.833 112.5 -68.5s54.5 -65.667 70.5 -108s22 -89.833 18 -142.5c-2.66699 -36 -9.5 -70.333 -20.5 -103
s-26 -61.334 -45 -86.001s-42.167 -44.334 -69.5 -59.001s-58.333 -22 -93 -22c-10 0 -21 1.5 -33 4.5s-23.5 7.33301 -34.5 13s-20.833 12.834 -29.5 21.501s-14.667 18.667 -18 30h-3c-10.667 -15.333 -26.834 -29.833 -48.501 -43.5s-45.5 -20.5 -71.5 -20.5
c-23.333 0 -43.166 3.66699 -59.499 11s-29.666 17.166 -39.999 29.499s-17.833 26.333 -22.5 42s-7 31.5 -7 47.5c0 30.667 3.33301 62.667 10 96s18 63.833 34 91.5s36.833 50.5 62.5 68.5s57.5 27 95.5 27c12.667 0 25.5 -2.33301 38.5 -7s24.833 -13.334 35.5 -26.001
l2 1l6 28h113zM387 277.002c0 -12 3.16797 -22.832 9.50098 -32.499s18.5 -14.5 36.5 -14.5c16 0 29.333 5.33301 40 16s19.167 23.334 25.5 38.001s11 30 14 46s4.5 29.667 4.5 41c0 15.333 -2.5 28.666 -7.5 39.999s-17.167 17 -36.5 17c-16.667 0 -30.5 -5.5 -41.5 -16.5
s-19.833 -24.167 -26.5 -39.5s-11.334 -31.833 -14.001 -49.5s-4 -32.834 -4 -45.501z" />
    <glyph glyph-name="A" unicode="A" horiz-adv-x="646" 
d="M449 0l-22 149h-224l-83 -149h-162l392 696h131l125 -696h-157zM397 365l-14 138h-3l-65 -136l-43 -89h136z" />
    <glyph glyph-name="B" unicode="B" horiz-adv-x="625" 
d="M431 696c67.333 0 118.166 -14.667 152.499 -44s51.5 -71.333 51.5 -126c0 -14.667 -1.83301 -29.667 -5.5 -45s-9.66699 -30.333 -18 -45s-19.5 -28.334 -33.5 -41.001s-31.333 -23.334 -52 -32.001l-1 -4c26 -12.667 45.333 -32.167 58 -58.5s19 -53.5 19 -81.5
c0 -36 -7.66699 -67.667 -23 -95s-35.166 -50.166 -59.499 -68.499s-51.5 -32.166 -81.5 -41.499s-59.333 -14 -88 -14h-325l135 696h271zM290 561l-29 -142h110c35.333 0 61.333 8.5 78 25.5s25 36.167 25 57.5c0 16 -5.5 29.833 -16.5 41.5s-30.167 17.5 -57.5 17.5h-110z
M236 292l-29.998 -154h131c18 0 33.667 2.66699 47 8s24.166 12.5 32.499 21.5s14.666 19 18.999 30s6.5 22.5 6.5 34.5c0 16 -5.5 30 -16.5 42s-30.5 18 -58.5 18h-131z" />
    <glyph glyph-name="C" unicode="C" horiz-adv-x="600" 
d="M572 167c-25.333 -54 -62.3252 -96.332 -110.992 -126.999s-108.334 -46 -179.001 -46c-45.333 0 -83.833 7.33301 -115.5 22s-56.834 34.5 -75.501 59.5s-31 54 -37 87s-5.33301 67.5 2 103.5l32 164c6.66699 36 17.667 70.333 33 103s35.333 61.5 60 86.5
s54.667 44.833 90 59.5s76.666 22 123.999 22c66 0 117.5 -15.5 154.5 -46.5s63.167 -73.833 78.5 -128.5l-142 -55c-2 10 -5.66699 20.333 -11 31s-12.333 20.167 -21 28.5s-19 15.333 -31 21s-26 8.5 -42 8.5c-22 0 -40.833 -3.33301 -56.5 -10
s-28.834 -15.5 -39.501 -26.5s-19.167 -23.5 -25.5 -37.5s-10.833 -28 -13.5 -42l-37 -189c-3.33301 -15.333 -3.83301 -30 -1.5 -44s7.16602 -26.333 14.499 -37s17.666 -19.334 30.999 -26.001s29.666 -10 48.999 -10c31.333 0 57.666 7.83301 78.999 23.5
s37.333 36.167 48 61.5z" />
    <glyph glyph-name="D" unicode="D" horiz-adv-x="657" 
d="M210 138h101c26 0 48.167 3.5 66.5 10.5s33.833 17 46.5 30s23 28.667 31 47s14 38.833 18 61.5l25 127c9.33301 48 5.83301 84.833 -10.5 110.5s-48.833 38.5 -97.5 38.5h-98zM437 696c29.333 0 57.333 -3.33398 84 -10.001s50.167 -17.334 70.5 -32.001
s36.5 -33.667 48.5 -57s18 -51.333 18 -84c0 -30 -2.66699 -64.167 -8 -102.5s-12 -75.666 -20 -111.999s-16.833 -69.666 -26.5 -99.999s-18.5 -52.5 -26.5 -66.5c-16 -26.667 -33.333 -48.5 -52 -65.5s-38.5 -30.5 -59.5 -40.5s-43 -16.833 -66 -20.5
s-46.5 -5.5 -70.5 -5.5h-299l135 696h272z" />
    <glyph glyph-name="E" unicode="E" horiz-adv-x="573" 
d="M29 0l135 696h470l-26 -135h-319l-29 -144h283l-26 -133h-283l-28 -146h335l-26 -138h-486z" />
    <glyph glyph-name="F" unicode="F" horiz-adv-x="555" 
d="M286 563l-27 -152h283l-26 -133h-283l-54 -278h-150l135 696h472l-29 -133h-321z" />
    <glyph glyph-name="G" unicode="G" horiz-adv-x="625" 
d="M279 -6c-45.333 0 -83.832 7.33301 -115.499 22s-56.834 34.5 -75.501 59.5s-31 54 -37 87s-5.33301 67.5 2 103.5l32 164c6.66699 36 17.667 70.333 33 103s35.333 61.5 60 86.5s54.667 44.833 90 59.5s76.666 22 123.999 22c60.667 0 110.834 -15.5 150.501 -46.5
s67.167 -73.833 82.5 -128.5l-142 -55c-2 10 -5.66699 20.167 -11 30.5s-12.333 19.5 -21 27.5s-19 14.667 -31 20s-26 8 -42 8c-19.333 0 -36.666 -3.16699 -51.999 -9.5s-28.666 -14.833 -39.999 -25.5s-20.666 -22.834 -27.999 -36.501s-12.333 -27.5 -15 -41.5l-37 -189
c-3.33301 -15.333 -3.83301 -30.166 -1.5 -44.499s7.16602 -27.333 14.499 -39s17.666 -21 30.999 -28s29.666 -10.5 48.999 -10.5c17.333 0 33.833 3.33301 49.5 10s29.667 15.667 42 27s22.5 24.166 30.5 38.499s13.667 29.5 17 45.5l1 5h-138l24 128h292l-27 -139
c-8 -41.333 -21.667 -77.666 -41 -108.999s-42.5 -57.833 -69.5 -79.5s-57.667 -38 -92 -49s-70.5 -16.5 -108.5 -16.5z" />
    <glyph glyph-name="H" unicode="H" horiz-adv-x="661" 
d="M402 0l56 284h-224l-55 -284h-150l135 696h150l-54 -279h224l54 279h149l-135 -696h-150z" />
    <glyph glyph-name="I" unicode="I" horiz-adv-x="288" 
d="M26 0l135 696h151l-136 -696h-150z" />
    <glyph glyph-name="J" unicode="J" horiz-adv-x="501" 
d="M443 225c-7.33301 -36 -17.333 -68.499 -30 -97.499s-29 -53.5 -49 -73.5s-44.5 -35.333 -73.5 -46s-62.833 -16 -101.5 -16c-18 0 -36.5 2.5 -55.5 7.5s-37.333 12 -55 21s-34.167 19.833 -49.5 32.5s-28 26.667 -38 42l105 91c10 -14.667 23.167 -27.334 39.5 -38.001
s36.833 -16 61.5 -16c30.667 0 53 8.16699 67 24.5s24.333 41.5 31 75.5l90 464h150l-92 -471v0z" />
    <glyph glyph-name="K" unicode="K" horiz-adv-x="644" 
d="M455 0l-124 301l-114 -107l-38 -194h-150l135 696h150l-55 -289l2 -2l131 134l170 157h183l-294 -282l173 -414h-169z" />
    <glyph glyph-name="L" unicode="L" horiz-adv-x="573" 
d="M29 0l135 696h150l-108 -558h331l-26 -138h-482z" />
    <glyph glyph-name="M" unicode="M" horiz-adv-x="767" 
d="M517 0l64 331l-3 1l-89 -141l-65 -98h-116l-28 103l-33 136l-4 -3l-64 -329h-150l135 696h136l53 -202l47 -209h4l126 209l130 202h142l-135 -696h-150z" />
    <glyph glyph-name="N" unicode="N" horiz-adv-x="696" 
d="M456 0l-125 271l-68 159l-2 -1l-82 -429h-150l135 696h134l101 -226l91 -208h2l83 434h150l-135 -696h-134z" />
    <glyph glyph-name="O" unicode="O" horiz-adv-x="624" 
d="M380 701c44 0 82.999 -6.83105 116.999 -20.498s61.833 -32.5 83.5 -56.5s36.5 -52.667 44.5 -86s8.33301 -69.333 1 -108l-32 -164c-8 -41.333 -19.333 -78.833 -34 -112.5s-33.834 -62.334 -57.501 -86.001s-52.167 -41.834 -85.5 -54.501s-72.333 -19 -117 -19
c-50 0 -92.333 7.33301 -127 22s-62.167 34.5 -82.5 59.5s-33.666 54 -39.999 87s-5.83301 67.5 1.5 103.5l32 164c6.66699 36 16.834 70.333 30.501 103s32 61.5 55 86.5s51.667 44.833 86 59.5s75.833 22 124.5 22zM369.999 566.002
c-21.333 0 -39.3311 -3.50098 -53.998 -10.501s-26.834 -16.167 -36.501 -27.5s-17.334 -24.166 -23.001 -38.499s-9.83398 -28.5 -12.501 -42.5l-40 -198c-2.66699 -13.333 -3.5 -26.833 -2.5 -40.5s5.16699 -26.167 12.5 -37.5s18.333 -20.666 33 -27.999
s34.667 -11 60 -11c20 0 37.333 3 52 9s27 14.333 37 25s18 23.167 24 37.5s10.667 29.5 14 45.5l40 202c2.66699 15.333 2.33398 30 -0.999023 44s-9.5 26.167 -18.5 36.5s-20.667 18.666 -35 24.999s-30.833 9.5 -49.5 9.5z" />
    <glyph glyph-name="P" unicode="P" horiz-adv-x="597" 
d="M432 696c65.333 0 116.833 -16.168 154.5 -48.501s56.5 -77.166 56.5 -134.499c0 -41.333 -7 -78 -21 -110s-33.167 -59 -57.5 -81s-53 -38.833 -86 -50.5s-68.5 -17.5 -106.5 -17.5h-143l-50 -254h-150l135 696h268zM290 560.999l-35.001 -168.997h134
c14 0 27.167 2.16699 39.5 6.5s23.333 10.666 33 18.999s17.334 18.666 23.001 30.999s8.5 26.166 8.5 41.499c0 47.333 -28.333 71 -85 71h-118z" />
    <glyph glyph-name="Q" unicode="Q" horiz-adv-x="625" 
d="M376 701c44 0 83.332 -6.83301 117.999 -20.5s63 -32.5 85 -56.5s37.167 -52.667 45.5 -86s8.83301 -69.333 1.5 -108l-32 -164c-5.33301 -26 -12 -51.667 -20 -77s-17.667 -47.333 -29 -66l63 -59l-94 -95l-62 62c-19.333 -11.333 -41.333 -20.333 -66 -27
s-52 -10 -82 -10c-50 0 -92.5 7.33301 -127.5 22s-63 34.5 -84 59.5s-34.833 54 -41.5 87s-6.33398 67.5 0.999023 103.5l32 164c6.66699 36 16.667 70.333 30 103s31.333 61.5 54 86.5s50.834 44.833 84.501 59.5s74.834 22 123.501 22zM366.999 557
c-21.333 0 -39.3301 -3.50098 -53.9971 -10.501s-26.834 -16.167 -36.501 -27.5s-17.334 -24.166 -23.001 -38.499s-9.83398 -28.5 -12.501 -42.5l-36 -183c-2.66699 -13.333 -3.5 -26.833 -2.5 -40.5s5.16699 -26.167 12.5 -37.5s18.333 -20.666 33 -27.999
s34.667 -11 60 -11c4 0 7.83301 0.166992 11.5 0.5s7.16699 0.833008 10.5 1.5l-56 59l95 93l59 -57c1.33301 2.66699 2.66602 6 3.99902 10s2.33301 7.33301 3 10l36 187c2.66699 15.333 2.33398 30 -0.999023 44s-9.5 26.167 -18.5 36.5s-20.667 18.666 -35 24.999
s-30.833 9.5 -49.5 9.5z" />
    <glyph glyph-name="R" unicode="R" horiz-adv-x="639" 
d="M414 0l-80.999 277.998h-100l-54 -278h-150l135 696h279c67.333 0 118.666 -17.5 153.999 -52.5s51 -85.833 47 -152.5c-2.66699 -47.333 -18.667 -87.666 -48 -120.999s-67 -56.666 -113 -69.999l96 -300h-165zM486.001 490.998
c1.33301 27.333 -5.33203 46.167 -19.999 56.5s-34.667 15.5 -60 15.5h-117l-30 -152h119c32 0 57.667 6.83301 77 20.5s29.666 33.5 30.999 59.5z" />
    <glyph glyph-name="S" unicode="S" horiz-adv-x="600" 
d="M366 701c44 0 86.002 -5.00391 126.002 -15.0039s78.333 -28.667 115 -56l-80 -124c-23.333 16.667 -49.333 30.167 -78 40.5s-56.667 15.5 -84 15.5c-10.667 0 -22 -0.833008 -34 -2.5s-23 -5 -33 -10s-18.167 -11.833 -24.5 -20.5s-9.5 -19.667 -9.5 -33
c0 -12 4.16699 -22.167 12.5 -30.5s19.333 -15.666 33 -21.999s29.5 -12 47.5 -17s37 -9.83301 57 -14.5c32 -8 58.5 -18.667 79.5 -32s37.667 -28.5 50 -45.5s21 -35.167 26 -54.5s7.5 -39.333 7.5 -60c0 -40 -7.83301 -74.167 -23.5 -102.5s-36.667 -51.5 -63 -69.5
s-56.833 -31.333 -91.5 -40s-71 -13 -109 -13c-51.333 0 -99.833 7.66699 -145.5 23s-88.167 43 -127.5 83l96 110c55.333 -48.667 114.666 -73 177.999 -73c42 0 72.5 7.33301 91.5 22s28.5 32.334 28.5 53.001c0 21.333 -12.333 38.333 -37 51s-56 23.667 -94 33
c-22 5.33301 -43.5 12.5 -64.5 21.5s-39.667 20.333 -56 34s-29.5 30.334 -39.5 50.001s-15 42.834 -15 69.501c0 36 6.66699 68.167 20 96.5s31.666 52.333 54.999 72s50.833 34.667 82.5 45s66.167 15.5 103.5 15.5z" />
    <glyph glyph-name="T" unicode="T" horiz-adv-x="545" 
d="M414 563l-110 -563h-149l109 563h-187l26 133h523l-26 -133h-186z" />
    <glyph glyph-name="U" unicode="U" horiz-adv-x="644" 
d="M595 243c-7.33301 -37.333 -18.9971 -71.167 -34.9971 -101.5s-36.333 -56.333 -61 -78s-53.667 -38.5 -87 -50.5s-71.333 -18 -114 -18c-36.667 0 -70.834 6.16699 -102.501 18.5s-58.334 29.666 -80.001 51.999s-37.334 49.333 -47.001 81s-10.5 66.834 -2.5 105.501
l86 444h150l-84 -436c-7.33301 -40 -2 -70.833 16 -92.5s43 -32.5 75 -32.5c33.333 0 62.833 9.66699 88.5 29s42.167 48.333 49.5 87l86 445h150l-88 -453v0z" />
    <glyph glyph-name="V" unicode="V" horiz-adv-x="595" 
d="M318 0h-119l-104 696h158l32 -282l15 -177h5l84 174l141 285h164z" />
    <glyph glyph-name="W" unicode="W" horiz-adv-x="837" 
d="M613 0h-121l-20 226l-11 190h-3l-86 -193l-107 -223h-122l-47 696h157l9 -206l4 -198h3l90 198l99 206h110l19 -205l14 -199h4l80 198l88 206h157z" />
    <glyph glyph-name="X" unicode="X" horiz-adv-x="625" 
d="M406 0l-91 231l-181 -231h-174l301 356l-153 340h175l81 -214l164 214h175l-285 -340l164 -356h-176z" />
    <glyph glyph-name="Y" unicode="Y" horiz-adv-x="593" 
d="M386 285l-55 -285h-145l56 285l-139 411h161l41 -150l32 -135h4l84 134l99 151h162z" />
    <glyph glyph-name="Z" unicode="Z" horiz-adv-x="538" 
d="M-12 0l25 128l384 435h-287l25 133h470l-24 -123l-384 -435h299l-27 -138h-481z" />
    <glyph glyph-name="bracketleft" unicode="[" horiz-adv-x="308" 
d="M7 -95l155 794h224l-21 -106h-91l-113 -583h91l-20 -105h-225z" />
    <glyph glyph-name="backslash" unicode="\" horiz-adv-x="368" 
d="M85 725h120l104 -767h-119z" />
    <glyph glyph-name="bracketright" unicode="]" horiz-adv-x="308" 
d="M-31 -95l20 105h91l113 583h-90l20 106h224l-155 -794h-223z" />
    <glyph glyph-name="asciicircum" unicode="^" horiz-adv-x="550" 
d="M402 237l-60 300l-178 -302h-135l284 460h112l102 -458h-125z" />
    <glyph glyph-name="underscore" unicode="_" horiz-adv-x="500" 
d="M-71 -160l18 91h499l-18 -91h-499z" />
    <glyph glyph-name="grave" unicode="`" horiz-adv-x="516" 
d="M418 537l-175 188l124 45l121 -190z" />
    <glyph glyph-name="a" unicode="a" horiz-adv-x="523" 
d="M274 500c15.333 0 32.333 -3 51 -9s34.667 -16.667 48 -32l2 1l7 35h140l-96 -495h-140l8 39l-3 1c-6 -6 -13.333 -11.833 -22 -17.5s-18 -10.5 -28 -14.5s-20 -7.33301 -30 -10s-19 -4 -27 -4c-30 0 -54.5 4.5 -73.5 13.5s-33.667 21 -44 36s-17.333 32 -21 51
s-5.5 38.5 -5.5 58.5c0 38 3.83301 77.333 11.5 118s20.667 78 39 112s42.5 62 72.5 84s67 33 111 33zM184 183c0 -15.333 4 -28.834 12 -40.501s22.667 -17.5 44 -17.5c18.667 0 34.5 6.5 47.5 19.5s23.5 28.667 31.5 47s13.667 37.333 17 57s5 36.167 5 49.5
c0 9.33301 -0.666992 18.333 -2 27s-3.83301 16.167 -7.5 22.5s-9 11.333 -16 15s-16.167 5.5 -27.5 5.5c-20 0 -36.667 -6.66699 -50 -20s-24 -29.666 -32 -48.999s-13.667 -39.5 -17 -60.5s-5 -39.5 -5 -55.5z" />
    <glyph glyph-name="b" unicode="b" horiz-adv-x="523" 
d="M254 -5c-17.333 0 -33.5 3 -48.5 9s-28.167 16.667 -39.5 32l-3 -2l-7 -35h-140l142 728h140l-53 -272l2 -1c14 13.333 31 24.333 51 33s38.333 13 55 13c30 0 54.5 -4.5 73.5 -13.5s34.167 -20.833 45.5 -35.5s19 -31.5 23 -50.5s6 -38.833 6 -59.5
c-0.666992 -40 -5.5 -80.667 -14.5 -122s-23.333 -78.5 -43 -111.5s-45 -60 -76 -81s-68.833 -31.5 -113.5 -31.5zM354 307c0 16.667 -3.99902 30.998 -11.999 42.998s-22.667 18 -44 18c-19.333 0 -35.333 -6.5 -48 -19.5s-22.834 -28.667 -30.501 -47
s-13.167 -37.833 -16.5 -58.5s-5 -38.667 -5 -54c0 -7.33301 0.833008 -14.666 2.5 -21.999s4.5 -14 8.5 -20s9.5 -10.833 16.5 -14.5s15.5 -5.5 25.5 -5.5c20 0 36.667 6.33301 50 19s23.833 28.167 31.5 46.5s13.167 37.833 16.5 58.5s5 39.334 5 56.001z" />
    <glyph glyph-name="c" unicode="c" horiz-adv-x="440" 
d="M409 68c-32 -24.667 -63.335 -43.001 -94.002 -55.001s-63 -18 -97 -18c-25.333 0 -49.5 3.83301 -72.5 11.5s-43.167 19.667 -60.5 36s-31.166 37.166 -41.499 62.499s-15.5 56 -15.5 92c0 52.667 7.83301 98.167 23.5 136.5s36 69.833 61 94.5s53.5 42.834 85.5 54.501
s64.667 17.5 98 17.5s64.5 -6.16699 93.5 -18.5s54.167 -30.166 75.5 -53.499l-100 -97c-11.333 14.667 -23.333 25.167 -36 31.5s-25 9.5 -37 9.5c-15.333 0 -30.166 -3.16699 -44.499 -9.5s-27 -16.166 -38 -29.499s-19.833 -30.833 -26.5 -52.5s-10 -47.5 -10 -77.5
c0 -28 6.16699 -48.167 18.5 -60.5s31.166 -18.5 56.499 -18.5c12.667 0 25.834 3.16699 39.501 9.5s29.5 17.166 47.5 32.499l74 -98v0z" />
    <glyph glyph-name="d" unicode="d" horiz-adv-x="523" 
d="M293 -1l7 35.002l-2 2c-17.333 -15.333 -34.666 -26 -51.999 -32s-35 -9 -53 -9c-29.333 0 -53.333 4.66699 -72 14s-33.334 21.666 -44.001 36.999s-18.167 33.166 -22.5 53.499s-6.5 41.166 -6.5 62.499c0 37.333 3.83301 76 11.5 116s20.5 76.5 38.5 109.5
s41.5 60 70.5 81s64.833 31.5 107.5 31.5c16.667 0 34 -3.16699 52 -9.5s35 -18.166 51 -35.499l3 1l53 271h139l-141 -728h-140zM348 302.002c0 17.333 -3.50195 32.665 -10.502 45.998s-21.167 20 -42.5 20c-19.333 0 -35.666 -6.16699 -48.999 -18.5s-24 -27.5 -32 -45.5
s-13.667 -37.333 -17 -58s-5 -39 -5 -55c0 -6.66699 0.833008 -13.667 2.5 -21s4.66699 -14.166 9 -20.499s10 -11.666 17 -15.999s16.167 -6.5 27.5 -6.5c19.333 0 35.333 6.5 48 19.5s22.834 28.667 30.501 47s13.167 37.5 16.5 57.5s5 37 5 51z" />
    <glyph glyph-name="e" unicode="e" horiz-adv-x="505" 
d="M298 501c35.333 0 64.999 -3.99902 88.999 -11.999s43.5 -18.5 58.5 -31.5s25.667 -27.833 32 -44.5s9.5 -33.334 9.5 -50.001c0 -33.333 -8 -60.833 -24 -82.5s-36.5 -39 -61.5 -52s-53 -22.167 -84 -27.5s-61.5 -8 -91.5 -8h-21c-6.66699 0 -13.334 0.333008 -20.001 1
c-0.666992 -3.33301 -1 -6.16602 -1 -8.49902v-7.5c0 -11.333 2 -20.666 6 -27.999s9.33301 -13 16 -17s14.5 -6.83301 23.5 -8.5s18.833 -2.5 29.5 -2.5c12.667 0 28.834 2.5 48.501 7.5s42.5 15.167 68.5 30.5l60 -105c-22 -14 -43 -25 -63 -33s-39 -14 -57 -18
s-35.167 -6.5 -51.5 -7.5s-32.166 -1.5 -47.499 -1.5c-23.333 0 -46 2.83301 -68 8.5s-41.333 15.5 -58 29.5s-30 32.667 -40 56s-15 52.666 -15 87.999c0 40.667 4.66699 80.5 14 119.5s24.5 73.667 45.5 104s48 54.666 81 72.999s73.5 27.5 121.5 27.5zM291.999 373.001
c-18 0 -34.833 -6.66504 -50.5 -19.998s-27.5 -31 -35.5 -53c6 -0.666992 11.667 -1 17 -1h16c19.333 0 35.5 1.33301 48.5 4s23.333 6.16699 31 10.5s13 9.16602 16 14.499s4.5 10.333 4.5 15c0 9.33301 -3.5 16.666 -10.5 21.999s-19.167 8 -36.5 8z" />
    <glyph glyph-name="f" unicode="f" horiz-adv-x="319" 
d="M109 384l-58.9971 -0.000976562l22 111h58l18 87c4 20.667 10.333 40.334 19 59.001s20.5 35 35.5 49s33.667 25.167 56 33.5s49.5 12.5 81.5 12.5c12 0 24.5 -0.666992 37.5 -2s26.5 -3.66602 40.5 -6.99902l-22 -117c-10.667 2.66699 -19.334 4.16699 -26.001 4.5
s-13 0.5 -19 0.5c-12 0 -22 -1.66699 -30 -5s-14.5 -7.33301 -19.5 -12s-8.83301 -10 -11.5 -16s-4.33398 -11.333 -5.00098 -16l-15 -71h88l-22 -111h-87l-87 -435c-4 -20.667 -10.667 -40.334 -20 -59.001s-21.833 -35 -37.5 -49s-34.334 -25.167 -56.001 -33.5
s-46.5 -12.5 -74.5 -12.5c-11.333 0 -23.333 0.666992 -36 2s-25.667 3.66602 -39 6.99902l22 118c9.33301 -1.33301 16.833 -2.16602 22.5 -2.49902s11.167 -0.5 16.5 -0.5c12.667 0 23 1.83301 31 5.5s14.5 8.16699 19.5 13.5s8.5 11.333 10.5 18s3.66699 12.667 5 18z
" />
    <glyph glyph-name="g" unicode="g" horiz-adv-x="523" 
d="M521 495l-42.502 -218.5l-26 -137l-14 -75.5c-3 -16 -5 -27.5 -6 -34.5s-1.66699 -11.5 -2 -13.5s-1.16602 -6 -2.49902 -12c-28 -144.667 -115 -214.667 -261 -210c-28 1.33301 -56.167 6.5 -84.5 15.5s-55.166 24.5 -80.499 46.5l74 106
c17.333 -13.333 36.833 -23.5 58.5 -30.5s38.834 -10.5 51.501 -10.5c27.333 0 49.166 8.33301 65.499 25s26.5 36.667 30.5 60c0.666992 2.66699 1.33398 5.66699 2.00098 9s1.16699 7 1.5 11s1.16602 8.66699 2.49902 14l-2 1c-14 -14 -32 -25.333 -54 -34
s-41 -13 -57 -13c-30.667 0 -55.167 4.5 -73.5 13.5s-32.333 21 -42 36s-16 32.167 -19 51.5s-4.5 39.666 -4.5 60.999c0 36.667 4.16699 75.334 12.5 116.001s22 77.667 41 111s43.667 61 74 83s67.833 33 112.5 33c17.333 0 34.833 -2.83301 52.5 -8.5
s32.167 -16.167 43.5 -31.5l2 1l7 35h140zM338.998 292c0 9.33301 -0.5 18.499 -1.5 27.499s-3.33301 17 -7 24s-9 12.667 -16 17s-16.5 6.5 -28.5 6.5c-20 0 -36.5 -6.33301 -49.5 -19s-23.5 -28.167 -31.5 -46.5s-13.5 -37.833 -16.5 -58.5s-4.5 -39 -4.5 -55
c0 -15.333 3.83301 -29.5 11.5 -42.5s22.167 -19.5 43.5 -19.5c18 0 33.333 6.5 46 19.5s23 28.333 31 46s13.833 35.834 17.5 54.501s5.5 34 5.5 46z" />
    <glyph glyph-name="h" unicode="h" horiz-adv-x="540" 
d="M300 -1l56.999 293c10 50.667 -8.33301 76 -55 76c-20.667 0 -39 -6.33301 -55 -19s-26.667 -31.667 -32 -57l-57 -293h-140l144 728h140l-54 -267l4 -1c15.333 11.333 33 21 53 29s39.333 12 58 12c24.667 0 47 -3.83301 67 -11.5s36.333 -19 49 -34
s21.334 -33.667 26.001 -56s4 -47.833 -2 -76.5l-61 -323h-142z" />
    <glyph glyph-name="i" unicode="i" horiz-adv-x="263" 
d="M133 571l24 125h140l-24 -125h-140zM22 0l96 495h140l-96 -495h-140z" />
    <glyph glyph-name="j" unicode="j" horiz-adv-x="280" 
d="M142 571l24 125h140l-24 -125h-140zM161 -52c-8.66699 -44.667 -29.166 -80.5 -61.499 -107.5s-71.5 -40.5 -117.5 -40.5h-70l24 124h33c10 0 18.5 2.33301 25.5 7s12.833 10.167 17.5 16.5s8.16699 13 10.5 20s4.16602 12.833 5.49902 17.5l99 511h140z" />
    <glyph glyph-name="k" unicode="k" horiz-adv-x="523" 
d="M331 -1l-92 197l-59 -53l-28 -144h-140l142 728h140l-78 -401l2 -1l79 78l101 92h176l-225 -203l142 -293h-160z" />
    <glyph glyph-name="l" unicode="l" horiz-adv-x="280" 
d="M163 0c-19.333 0 -37.166 3.33301 -53.499 10s-29.833 16.5 -40.5 29.5s-18 29.333 -22 49s-3.33301 42.5 2 68.5l111 570h140l-108 -553c-4 -22 -1.83301 -36.333 6.5 -43s19.166 -10 32.499 -10h20l-24 -121h-64z" />
    <glyph glyph-name="m" unicode="m" horiz-adv-x="832" 
d="M590 0l57.0029 294c5.33301 28 3.16602 47.667 -6.50098 59s-25.834 17 -48.501 17c-21.333 0 -39.833 -6.33301 -55.5 -19s-26.167 -31.667 -31.5 -57l-57 -294h-141l58 294c9.33301 50.667 -9.33398 76 -56.001 76c-20.667 0 -39 -6.33301 -55 -19
s-26.333 -31.667 -31 -57l-58 -294h-139l96 495h140l-8 -40l4 -1c16 13.333 34.667 24.333 56 33s40.333 13 57 13c29.333 0 55.166 -6 77.499 -18s39.5 -29.667 51.5 -53c21.333 19.333 44.833 36 70.5 50s52.834 21 81.501 21c50.667 0 89.5 -15 116.5 -45
s34.833 -74.333 23.5 -133l-62 -322h-140z" />
    <glyph glyph-name="n" unicode="n" horiz-adv-x="540" 
d="M300 0l56.9971 293.001c5.33301 25.333 2.33301 44.333 -9 57s-26.666 19 -45.999 19c-20.667 0 -39 -6.33301 -55 -19s-26.667 -31.667 -32 -57l-57 -293h-140l97 496h140l-7 -37h2c15.333 11.333 33.333 21.166 54 29.499s40.334 12.5 59.001 12.5
c24.667 0 47 -3.83301 67 -11.5s36.333 -19 49 -34s21.334 -33.667 26.001 -56s4 -47.833 -2 -76.5l-63 -323h-140z" />
    <glyph glyph-name="o" unicode="o" horiz-adv-x="516" 
d="M306 500c31.333 0 59.001 -4.83105 83.001 -14.498s44.333 -22.834 61 -39.501s29.167 -36.334 37.5 -59.001s12.5 -47 12.5 -73c0 -38 -4.5 -76 -13.5 -114s-24 -72.333 -45 -103s-49.333 -55.5 -85 -74.5s-79.834 -28.5 -132.501 -28.5
c-62.667 0 -109.667 15.833 -141 47.5s-47 72.5 -47 122.5c0 44 5.16699 86.333 15.5 127s26.333 76.5 48 107.5s49.5 55.667 83.5 74s75 27.5 123 27.5zM292.001 372.002c-22 0 -40.166 -6.33398 -54.499 -19.001s-25.833 -28.334 -34.5 -47.001s-14.667 -38.667 -18 -60
s-5 -40.666 -5 -57.999c0 -5.33301 0.5 -11.666 1.5 -18.999s3.66699 -14.333 8 -21s10.666 -12.334 18.999 -17.001s19.833 -7 34.5 -7c19.333 0 36 5.83301 50 17.5s25.5 26.834 34.5 45.501s15.5 39 19.5 61s6 43.667 6 65c0 19.333 -5.83301 34 -17.5 44
s-26.167 15 -43.5 15z" />
    <glyph glyph-name="p" unicode="p" horiz-adv-x="523" 
d="M257 495l-5.99707 -35.001l2 -1c17.333 15.333 34.666 25.833 51.999 31.5s34.666 8.5 51.999 8.5c28.667 0 52.667 -4.33301 72 -13s34.5 -20.167 45.5 -34.5s18.833 -30.833 23.5 -49.5s7 -38 7 -58c0 -40.667 -4.16699 -81.667 -12.5 -123
s-21.833 -78.833 -40.5 -112.5s-43.167 -61.167 -73.5 -82.5s-67.5 -32 -111.5 -32c-16.667 0 -34.334 3.33301 -53.001 10s-33 18.334 -43 35.001l-2 -1l-47 -240h-140l136 697h139zM303.003 368.999c-22.667 0 -40.667 -7.99902 -54 -23.999s-23.5 -34.167 -30.5 -54.5
s-11.5 -40 -13.5 -59s-3 -31.167 -3 -36.5c0 -8 0.666992 -16.333 2 -25s4 -16.334 8 -23.001s9.33301 -12.167 16 -16.5s15.667 -6.5 27 -6.5c20 0 36.5 6.66699 49.5 20s23.5 29.5 31.5 48.5s13.667 39 17 60s5 39.167 5 54.5c0 17.333 -3.83301 32 -11.5 44
s-22.167 18 -43.5 18z" />
    <glyph glyph-name="q" unicode="q" horiz-adv-x="523" 
d="M275 499c17.333 0 35 -3.16797 53 -9.50098s32.667 -17.166 44 -32.499l3 1l7 37h140l-136 -697h-140l47 241l-2 1c-14 -13.333 -31 -24.333 -51 -33s-38 -13 -54 -13c-30 0 -54.667 4.66699 -74 14s-34.5 21.5 -45.5 36.5s-18.667 31.833 -23 50.5s-6.5 37.667 -6.5 57
c0 37.333 4.16699 76.333 12.5 117s22 78 41 112s43.5 62.167 73.5 84.5s67 33.5 111 33.5zM287 367.999c-23.333 0 -41.668 -7.49805 -55.001 -22.498s-23.666 -32.667 -30.999 -53s-12 -40.666 -14 -60.999s-3 -35.5 -3 -45.5c0 -16.667 4.5 -31 13.5 -43
s23.167 -18 42.5 -18c22.667 0 40.5 7.66699 53.5 23s23 33.166 30 53.499s11.5 40.666 13.5 60.999s3 35.166 3 44.499c0 17.333 -3.66699 31.833 -11 43.5s-21.333 17.5 -42 17.5z" />
    <glyph glyph-name="r" unicode="r" horiz-adv-x="402" 
d="M305 368c-24.667 0 -43.999 -7.5 -57.999 -22.5s-23.333 -33.5 -28 -55.5l-59 -291h-143l97 496h140l-11 -56l3 -1c16 18 34.833 32.833 56.5 44.5s43.5 17.5 65.5 17.5c20.667 0 38.167 -2.16699 52.5 -6.5s28.166 -12.5 41.499 -24.5l-70 -127
c-15.333 10.667 -30.333 17.667 -45 21s-28.667 5 -42 5z" />
    <glyph glyph-name="s" unicode="s" horiz-adv-x="472" 
d="M267 500c16 0 32.665 -0.835938 49.998 -2.50293s34.833 -4.66699 52.5 -9s34.834 -10.5 51.501 -18.5s32.334 -18 47.001 -30l-75 -102c-12 8.66699 -24 15.834 -36 21.501s-23.833 9.83398 -35.5 12.501s-22.5 4.5 -32.5 5.5s-18.333 1.5 -25 1.5
c-26.667 0 -44 -3.66699 -52 -11s-12 -14.666 -12 -21.999c0 -6 3.33301 -11.333 10 -16s14.834 -8.5 24.501 -11.5s20 -5.5 31 -7.5s20.833 -3.66699 29.5 -5c15.333 -2.66699 31.5 -6.5 48.5 -11.5s32.833 -12.667 47.5 -23s26.667 -23.5 36 -39.5s14 -36.333 14 -61
c0 -31.333 -6.66699 -58 -20 -80s-30.5 -40.167 -51.5 -54.5s-44.5 -24.833 -70.5 -31.5s-51.333 -10 -76 -10c-44 0 -84.5 5 -121.5 15s-71.5 31 -103.5 63l79 94c22.667 -21.333 45.334 -36 68.001 -44s48 -12 76 -12c8 0 16.167 0.833008 24.5 2.5s16 4.16699 23 7.5
s12.833 7.66602 17.5 12.999s7 11.666 7 18.999c0 8 -3.83301 14.833 -11.5 20.5s-22.167 10.5 -43.5 14.5c-16 3.33301 -34.167 7.5 -54.5 12.5s-39.5 12.5 -57.5 22.5s-33 23.333 -45 40s-18 38.334 -18 65.001c0 30.667 5.83301 56.834 17.5 78.501
s27.167 39.5 46.5 53.5s41.166 24.167 65.499 30.5s49.166 9.5 74.499 9.5z" />
    <glyph glyph-name="t" unicode="t" horiz-adv-x="328" 
d="M243 384l-40 -209.001c-4 -21.333 -3.33301 -35.166 2 -41.499s15.333 -9.5 30 -9.5h31l-24 -124h-76c-39.333 0 -69.833 11.667 -91.5 35s-28.167 56 -19.5 98l48 251h-53l22 112h53l27 136h140l-27 -136h72l-22 -112h-72z" />
    <glyph glyph-name="u" unicode="u" horiz-adv-x="540" 
d="M251 496l-57 -293c-5.33301 -25.333 -2.33301 -44.333 9 -57s26.666 -19 45.999 -19c20.667 0 39 6.33301 55 19s26.667 31.667 32 57l57 293h140l-96 -496h-140l11 45h-2c-15.333 -14.667 -34.166 -26.667 -56.499 -36s-42.5 -14 -60.5 -14
c-22.667 0 -43.834 3.83301 -63.501 11.5s-36.167 19 -49.5 34s-22.666 33.5 -27.999 55.5s-5.33301 47.667 0 77l63 323h140z" />
    <glyph glyph-name="v" unicode="v" horiz-adv-x="498" 
d="M537 495c-20.667 -50 -41.6709 -97.166 -63.0039 -141.499s-43.166 -86.5 -65.499 -126.5s-45.166 -78.667 -68.499 -116s-47.666 -74.333 -72.999 -111h-127l-94 495h149l18 -133c4.66699 -32.667 7.83398 -65.834 9.50098 -99.501l4.5 -94.5h4
c30.667 51.333 58.167 103.333 82.5 156s48.5 109.667 72.5 171h151z" />
    <glyph glyph-name="w" unicode="w" horiz-adv-x="737" 
d="M773 495c-20.667 -50.667 -40.8311 -97.665 -60.498 -140.998s-40 -84.833 -61 -124.5s-43 -78.334 -66 -116.001s-47.833 -75.5 -74.5 -113.5h-117l-13 122c-2.66699 22 -4.5 44.833 -5.5 68.5s-1.83301 50.5 -2.5 80.5h-4c-21.333 -52 -43.333 -100 -66 -144
s-46.667 -86.333 -72 -127h-123l-65 495h144l10 -123c2.66699 -31.333 4.5 -61.5 5.5 -90.5s0.5 -61.833 -1.5 -98.5h4c12.667 22 25.167 45.833 37.5 71.5s24.166 52.167 35.499 79.5l32.5 82c10.333 27.333 19.5 53.666 27.5 78.999h127l14 -123
c2 -15.333 3.66699 -29.333 5 -42s2.5 -25.5 3.5 -38.5s1.66699 -26.667 2 -41s0.5 -30.833 0.5 -49.5h6c21.333 36.667 42.666 81.167 63.999 133.5s41 105.833 59 160.5h154z" />
    <glyph glyph-name="x" unicode="x" horiz-adv-x="504" 
d="M296 0l-60 142l-115 -142h-169l235 252l-132 243h168l55 -136l107 136h169l-227 -243l138 -252h-169z" />
    <glyph glyph-name="y" unicode="y" horiz-adv-x="476" 
d="M516 495l-113.999 -260.5c-36.667 -81 -77.334 -157.167 -122.001 -228.5c-17.333 -27.333 -35.833 -53.833 -55.5 -79.5s-42.167 -48.5 -67.5 -68.5s-53.833 -35.833 -85.5 -47.5s-68.167 -17.5 -109.5 -17.5l-5 114c48.667 6 86.834 19.5 114.501 40.5
s50.5 49.5 68.5 85.5l-92 462h150l21 -125c1.33301 -8 2.83301 -19.833 4.5 -35.5s3.16699 -33 4.5 -52s2.16602 -38.5 2.49902 -58.5s-0.166992 -38.333 -1.5 -55h4c23.333 38.667 45.833 86.5 67.5 143.5s43.5 117.5 65.5 181.5z" />
    <glyph glyph-name="z" unicode="z" horiz-adv-x="469" 
d="M-12 0l23 119l273 254h-210l23 122h384l-22 -114l-272 -253h223l-25 -128h-397z" />
    <glyph glyph-name="braceleft" unicode="{" horiz-adv-x="308" 
d="M169 299c19.333 -9.33301 33.1641 -23.667 41.4971 -43s9.83301 -43.333 4.5 -72l-23 -118c-1.33301 -6 -2.5 -12.5 -3.5 -19.5s-0.833008 -13.5 0.5 -19.5s4.33301 -10.833 9 -14.5s12 -5.5 22 -5.5h40l-20 -100h-85c-21.333 0 -39.166 3.66699 -53.499 11
s-25.666 17.166 -33.999 29.499s-13.5 26.833 -15.5 43.5s-1 34.334 3 53.001l23 118c10.667 58 -8.66602 87 -57.999 87l20 104c50 2 81 32 93 90l25 129c3.33301 18.667 9.5 35.667 18.5 51s19.833 28.333 32.5 39s26.667 19 42 25s31 9 47 9h96l-20 -101h-40
c-14.667 0 -26.167 -6.5 -34.5 -19.5s-13.5 -25.833 -15.5 -38.5l-23 -117c-5.33301 -29.333 -17 -53.5 -35 -72.5s-36.667 -33.5 -56 -43.5z" />
    <glyph glyph-name="bar" unicode="|" horiz-adv-x="259" 
d="M67 -228v958h124v-958h-124z" />
    <glyph glyph-name="braceright" unicode="}" horiz-adv-x="308" 
d="M176 305c-15.333 10 -27.833 24.5 -37.5 43.5s-11.834 42.833 -6.50098 71.5l22 117c1.33301 6 2.16602 12.5 2.49902 19.5s-0.5 13.333 -2.5 19s-6 10.334 -12 14.001s-14.333 5.5 -25 5.5h-31l20 101h96c38 0 64.667 -11.167 80 -33.5s19.333 -52.5 12 -90.5l-25 -129
c-12 -58 7.33301 -88 58 -90l-21 -104c-49.333 0 -80 -29 -92 -87l-25 -131c-4 -18.667 -10.5 -35.667 -19.5 -51s-19.833 -28.333 -32.5 -39s-26.667 -19 -42 -25s-31 -9 -47 -9h-95l19 100h40c10 0 18 1.83301 24 5.5s10.833 8.5 14.5 14.5s6.33398 12.5 8.00098 19.5
l4.5 19.5l23 118c5.33301 28 15.833 51.667 31.5 71s34.834 33.666 57.501 42.999z" />
    <glyph glyph-name="asciitilde" unicode="~" horiz-adv-x="550" 
d="M207 350c15.333 0 30 -2.99902 44 -8.99902s27.333 -12.333 40 -19l36 -18.5c11.333 -5.66699 21.666 -8.5 30.999 -8.5c13.333 0 28.166 5.16699 44.499 15.5s33.166 26.166 50.499 47.499l65 -54c-24.667 -44 -50.5 -75.333 -77.5 -94s-54.5 -28 -82.5 -28
c-16 0 -31.167 2.83301 -45.5 8.5s-28.166 11.667 -41.499 18l-38 18c-12 5.66699 -23.333 8.5 -34 8.5c-13.333 0 -27.666 -4.5 -42.999 -13.5s-33.666 -24.5 -54.999 -46.5l-66 51c26 45.333 53.167 77.333 81.5 96s58.5 28 90.5 28z" />
    <glyph glyph-name="exclamdown" unicode="&#xa1;" horiz-adv-x="294" 
d="M106 304h123l-88 -505h-144zM278 495l-25 -128h-147l25 128h147z" />
    <glyph glyph-name="cent" unicode="&#xa2;" horiz-adv-x="440" 
d="M413 68c-28.667 -26 -57.834 -44.0039 -87.501 -54.0039s-59.5 -16 -89.5 -18l-25 -131h-52l26 133c-22 2.66699 -42.5 8.66699 -61.5 18s-35.5 22 -49.5 38s-25.167 35.833 -33.5 59.5s-12.5 51.5 -12.5 83.5c0 50.667 7.33301 94.834 22 132.501
s33.834 68.834 57.501 93.501s50.667 43.334 81 56.001s61.5 19.667 93.5 21l27 136h52l-27 -139c25.333 -4 49.166 -11.667 71.499 -23s42.166 -26.666 59.499 -45.999l-100 -97c-10 15.333 -21.667 26 -35 32s-26 9 -38 9c-15.333 0 -30.166 -3.16699 -44.499 -9.5
s-27 -16.166 -38 -29.499s-19.833 -30.833 -26.5 -52.5s-10 -47.5 -10 -77.5c0 -28 6.16699 -48.167 18.5 -60.5s31.166 -18.5 56.499 -18.5c12.667 0 26.834 3.16699 42.501 9.5s31.834 17.166 48.501 32.499l74 -98v0z" />
    <glyph glyph-name="sterling" unicode="&#xa3;" horiz-adv-x="550" 
d="M461 492c-8.66699 16.667 -20.668 32.166 -36.001 46.499s-36.333 21.5 -63 21.5c-27.333 0 -48.5 -6.5 -63.5 -19.5s-22.5 -31.167 -22.5 -54.5c0 -16 2.66699 -32.667 8 -50s8.33301 -39 9 -65h141l-21 -104h-140c-7.33301 -25.333 -16.5 -50.333 -27.5 -75
s-23.833 -47 -38.5 -67h284l-24 -125h-472l20 108c25.333 26 45.833 51 61.5 75s28.167 52 37.5 84h-73l21 104h65c-2.66699 21.333 -5.66699 41.5 -9 60.5s-5 37.167 -5 54.5c0 20 3.83301 42.5 11.5 67.5s20.834 48.333 39.501 70s44 39.834 76 54.501s72 22 120 22
c58 0 106.833 -11.5 146.5 -34.5s69.167 -55.833 88.5 -98.5z" />
    <glyph glyph-name="currency" unicode="&#xa4;" horiz-adv-x="556" 
d="M168 321c0 -14.667 2.83301 -28.5 8.5 -41.5s13.334 -24.333 23.001 -34s21 -17.334 34 -23.001s26.833 -8.5 41.5 -8.5s28.5 2.83301 41.5 8.5s24.5 13.334 34.5 23.001s17.833 21 23.5 34s8.5 26.833 8.5 41.5c0 15.333 -2.83301 29.5 -8.5 42.5s-13.5 24.333 -23.5 34
s-21.5 17.167 -34.5 22.5s-26.833 8 -41.5 8s-28.5 -2.66699 -41.5 -8s-24.333 -12.833 -34 -22.5s-17.334 -21 -23.001 -34s-8.5 -27.167 -8.5 -42.5zM26 496l73 74l68 -68c18 10 35.833 17.833 53.5 23.5s36.167 8.5 55.5 8.5c20 0 38.833 -2.5 56.5 -7.5
s35.167 -12.5 52.5 -22.5l33.5 33l33.5 33l73 -74l-68 -67c10 -18 17.833 -36 23.5 -54s8.5 -36 8.5 -54c0 -20 -2.33301 -38.5 -7 -55.5s-12.667 -34.833 -24 -53.5c9.33301 -8 20.666 -18.667 33.999 -32l33 -33l-73 -74l-66 67
c-17.333 -10 -35.166 -17.833 -53.499 -23.5s-37.166 -8.5 -56.499 -8.5s-38.333 3 -57 9s-36.334 13.667 -53.001 23l-67 -67l-73 73l67 66c-20 36 -30 72.333 -30 109c0 34.667 10.333 70.667 31 108z" />
    <glyph glyph-name="yen" unicode="&#xa5;" horiz-adv-x="550" 
d="M207 241l9 42h-142l15 82h98l-105 331h165l42 -165l23 -124h4l70 126l107 163h165l-236 -331h101l-15 -82h-145l-9 -42h145l-16 -82h-145l-30 -159h-147l30 159h-142l16 82h142z" />
    <glyph glyph-name="brokenbar" unicode="&#xa6;" horiz-adv-x="259" 
d="M67 284v446h124v-446h-124zM191 219v-447h-124v447h124z" />
    <glyph glyph-name="section" unicode="&#xa7;" horiz-adv-x="510" 
d="M401 189c12 -9.33301 21.835 -21.167 29.502 -35.5s11.5 -29.166 11.5 -44.499c0 -35.333 -6.83301 -65.166 -20.5 -89.499s-31.5 -44.333 -53.5 -60s-47.167 -27 -75.5 -34s-57.166 -10.5 -86.499 -10.5c-40 0 -78.333 7.33301 -115 22s-66.667 35.334 -90 62.001l87 94
c16.667 -18.667 36 -33.5 58 -44.5s43.667 -16.5 65 -16.5c30 0 53 5.66699 69 17s24 26 24 44c0 10 -6 19.167 -18 27.5s-34.667 17.5 -68 27.5c-21.333 6 -41.166 13.5 -59.499 22.5s-34.333 19.667 -48 32s-24.334 26.333 -32.001 42s-11.5 33.5 -11.5 53.5
c0 13.333 2.16699 26.833 6.5 40.5s10.5 26.334 18.5 38.001s17.667 21.834 29 30.501s24 15 38 19c-12 11.333 -21.667 25.666 -29 42.999s-11 34.666 -11 51.999c0 28 6 53.167 18 75.5s28.167 41 48.5 56s43.5 26.5 69.5 34.5s53 12 81 12
c40 0 77.167 -3.83301 111.5 -11.5s65.166 -23.5 92.499 -47.5l-77 -97c-23.333 15.333 -46.333 25.666 -69 30.999s-45 8 -67 8c-26 0 -44.667 -5.66699 -56 -17s-17 -23 -17 -35c0 -9.33301 4.66699 -17.333 14 -24s20.5 -12.334 33.5 -17.001s26 -8.83398 39 -12.501
s23.5 -7.16699 31.5 -10.5c10.667 -5.33301 23 -11.166 37 -17.499s27.167 -14.833 39.5 -25.5s22.666 -24 30.999 -40s12.5 -36 12.5 -60c0 -16 -2.83301 -31.333 -8.5 -46s-12.834 -27.834 -21.501 -39.501s-18.5 -21.667 -29.5 -30s-21.5 -14.5 -31.5 -18.5z
M273.002 353.999l-21.501 6.00098c-7 2 -13.5 4.33301 -19.5 7c-11.333 -4 -19.666 -9.83301 -24.999 -17.5s-8 -16.167 -8 -25.5s4.16699 -17 12.5 -23s19 -11.333 32 -16s27.5 -9.33398 43.5 -14.001s31.667 -10 47 -16c7.33301 4 13.333 9.5 18 16.5s7 16.167 7 27.5
c0 10 -6 19.333 -18 28s-34.667 17.667 -68 27z" />
    <glyph glyph-name="dieresis" unicode="&#xa8;" horiz-adv-x="505" 
d="M359 569l25 130h146l-25 -130h-146zM145 569l25 130h145l-25 -130h-145z" />
    <glyph glyph-name="copyright" unicode="&#xa9;" horiz-adv-x="820" 
d="M411 -16c-50 0 -96.667 8.66797 -140 26.001s-81 41.666 -113 72.999s-57 69 -75 113s-27 92.667 -27 146c0 52 9 100 27 144s43 82 75 114s69.667 57 113 75s90 27 140 27s96.667 -8.83301 140 -26.5s81 -42.5 113 -74.5s57 -70 75 -114s27 -92.333 27 -145
c0 -52 -9 -99.833 -27 -143.5s-43 -81.5 -75 -113.5s-69.667 -56.833 -113 -74.5s-90 -26.5 -140 -26.5zM411 623.001c-38 0 -73.333 -7.16992 -106 -21.5029s-60.834 -34.166 -84.501 -59.499s-42.334 -55 -56.001 -89s-20.5 -71 -20.5 -111s6.83301 -77 20.5 -111
s32.334 -63.5 56.001 -88.5s51.834 -44.667 84.501 -59s68 -21.5 106 -21.5s73.333 7.16699 106 21.5s60.834 34 84.501 59s42.334 54.5 56.001 88.5s20.5 71 20.5 111c0 41.333 -6.83301 79.333 -20.5 114s-32.334 64.334 -56.001 89.001s-51.834 43.834 -84.501 57.501
s-68 20.5 -106 20.5zM576 220.998c-10.667 -35.333 -30.168 -62.666 -58.501 -81.999s-63.5 -29 -105.5 -29c-28.667 0 -53.667 4.33301 -75 13s-39 20.5 -53 35.5s-24.5 33 -31.5 54s-10.5 44.167 -10.5 69.5v103c0 22.667 3.5 44.334 10.5 65.001s17.5 39 31.5 55
s31.667 28.667 53 38s46.333 14 75 14c42 0 77.167 -10.167 105.5 -30.5s47.833 -47.5 58.5 -81.5l-92 -33c-3.33301 15.333 -11.166 28.166 -23.499 38.499s-28.833 15.5 -49.5 15.5c-24.667 0 -42.667 -7.33301 -54 -22s-17 -31.334 -17 -50.001v-119
c0 -19.333 5.66699 -36.5 17 -51.5s29.333 -22.5 54 -22.5c19.333 0 35.5 5.16699 48.5 15.5s21.167 23.833 24.5 40.5z" />
    <glyph glyph-name="ordfeminine" unicode="&#xaa;" horiz-adv-x="361" 
d="M231 610c9.33301 0 19.332 -1.5 29.999 -4.5s20.667 -8.16699 30 -15.5l4 17h105l-61 -328h-106l6 34c-10 -13.333 -21 -23 -33 -29s-24.333 -9 -37 -9c-19.333 0 -35.666 3 -48.999 9s-24 14 -32 24s-13.833 21.5 -17.5 34.5s-5.5 26.167 -5.5 39.5
c-0.666992 25.333 1.66602 51.5 6.99902 78.5s14.333 51.5 27 73.5s29.834 40.167 51.501 54.5s48.5 21.5 80.5 21.5zM173.999 402c0 -8.66699 2.33203 -16.167 6.99902 -22.5s13 -9.5 25 -9.5s21.833 4 29.5 12s13.834 17.5 18.501 28.5s8 22.667 10 35s3 22.5 3 30.5
c-0.666992 10 -2.66699 18.833 -6 26.5s-11.333 11.5 -24 11.5s-23 -4 -31 -12s-14.5 -17.833 -19.5 -29.5s-8.33301 -24 -10 -37s-2.5 -24.167 -2.5 -33.5z" />
    <glyph glyph-name="guillemotleft" unicode="&#xab;" horiz-adv-x="591" 
d="M381 10l-104 214l178 214h150l-184 -214l100 -214h-140zM153 10l-104 214l178 214h140l-175 -214l101 -214h-140z" />
    <glyph glyph-name="logicalnot" unicode="&#xac;" horiz-adv-x="550" 
d="M502 54h-124l36 186h-389l23 116h512z" />
    <glyph glyph-name="sfthyphen" unicode="&#xad;" horiz-adv-x="431" 
d="M44 192l25 131h339l-26 -131h-338z" />
    <glyph glyph-name="registered" unicode="&#xae;" horiz-adv-x="526" 
d="M263 457l-28.999 0.000976562v-93h-52v244h97c21.333 0 39.666 -6.5 54.999 -19.5s23 -31.167 23 -54.5c0 -13.333 -3.16699 -25.833 -9.5 -37.5s-16.5 -21.834 -30.5 -30.501l47 -102h-59zM234.001 558.001l0.000976562 -52h43c9.33301 0 16.666 2.5 21.999 7.5
s8 11.833 8 20.5c0 16 -9.33301 24 -28 24h-45zM265.002 269.001c-31.333 0 -60.332 5.5 -86.999 16.5s-49.834 26 -69.501 45s-35.167 41.667 -46.5 68s-17 54.833 -17 85.5s6 59.334 18 86.001s28 49.667 48 69s43.333 34.5 70 45.5s54.667 16.5 84 16.5
c31.333 0 60.5 -5.5 87.5 -16.5s50.333 -26.167 70 -45.5s35.167 -42.333 46.5 -69s17 -55.334 17 -86.001s-6 -59.167 -18 -85.5s-28.167 -49 -48.5 -68s-43.833 -34 -70.5 -45s-54.667 -16.5 -84 -16.5zM265.003 650.001c-23.333 0 -45 -4.16699 -65 -12.5
s-37.5 -20 -52.5 -35s-26.667 -32.667 -35 -53s-12.5 -42.166 -12.5 -65.499s4.16699 -45 12.5 -65s20 -37.5 35 -52.5s32.5 -26.833 52.5 -35.5s41.667 -13 65 -13s45 4.33301 65 13s37.333 20.5 52 35.5s26.167 32.5 34.5 52.5s12.5 41.667 12.5 65
s-4.16699 45.166 -12.5 65.499s-19.833 38 -34.5 53s-32 26.667 -52 35s-41.667 12.5 -65 12.5z" />
    <glyph glyph-name="macron" unicode="&#xaf;" horiz-adv-x="516" 
d="M164 578l23 118h333l-23 -118h-333z" />
    <glyph glyph-name="degree" unicode="&#xb0;" horiz-adv-x="433" 
d="M380 548c0 -21.333 -4.33301 -41.333 -13 -60s-20.334 -35 -35.001 -49s-32 -25 -52 -33s-41.333 -12 -64 -12s-43.834 4 -63.501 12s-36.834 19 -51.501 33s-26.334 30.333 -35.001 49s-13 38.667 -13 60c0 20.667 4.33301 40.334 13 59.001s20.334 35 35.001 49
s31.834 25 51.501 33s40.834 12 63.501 12s44 -4 64 -12s37.333 -19 52 -33s26.334 -30.333 35.001 -49s13 -38.334 13 -59.001zM281 548c0 17.333 -6.33301 31.833 -19 43.5s-28 17.5 -46 17.5c-17.333 0 -32.5 -5.83301 -45.5 -17.5s-19.5 -26.167 -19.5 -43.5
s6.5 -32 19.5 -44s28.167 -18 45.5 -18c18 0 33.333 6 46 18s19 26.667 19 44z" />
    <glyph glyph-name="plusminus" unicode="&#xb1;" horiz-adv-x="550" 
d="M359 320l-34 -173h-124l34 173h-195l22 116h195l36 182h124l-36 -182h195l-22 -116h-195zM-26 0l21 113h522l-21 -113h-522z" />
    <glyph glyph-name="twosuperior" unicode="&#xb2;" horiz-adv-x="343" 
d="M109 666c6 19.333 14.668 36.668 26.001 52.001s24.333 28.166 39 38.499s30.5 18.333 47.5 24s34.167 8.5 51.5 8.5c18 0 35 -2 51 -6s30.167 -10 42.5 -18s22.166 -18.167 29.499 -30.5s11 -27.166 11 -44.499c0 -10 -1.33301 -20.167 -4 -30.5s-6.5 -20.333 -11.5 -30
s-10.667 -18.667 -17 -27s-12.833 -15.5 -19.5 -21.5l-35.5 -32.5l-32 -28l-31.5 -27l-34 -29.5h142l-19 -95h-292l15 83l212 186c6 5.33301 10 10.666 12 15.999s2.66699 11 2 17c0 6.66699 -2.33301 12.167 -7 16.5s-11.667 6.5 -21 6.5s-19 -3.33301 -29 -10
s-18 -19.667 -24 -39z" />
    <glyph glyph-name="threesuperior" unicode="&#xb3;" horiz-adv-x="346" 
d="M162 504c0.666992 -17.333 4.66602 -28.833 11.999 -34.5s16.333 -8.5 27 -8.5c15.333 0 28 4.66699 38 14s14.667 21 14 35c0 9.33301 -3 17.5 -9 24.5s-14.333 10.5 -25 10.5h-58l14 79h52c14 0 26.5 4.33301 37.5 13s16.167 19.334 15.5 32.001
c0 7.33301 -3 13.333 -9 18s-13.667 7 -23 7c-8 0 -17.333 -2.83301 -28 -8.5s-18 -16.5 -22 -32.5l-105 17c13.333 41.333 35 71.5 65 90.5s64 28.5 102 28.5c20.667 0 39.334 -3 56.001 -9s30.667 -14 42 -24s20.166 -21.667 26.499 -35s9.5 -27.333 9.5 -42
c0.666992 -20 -4.5 -38.5 -15.5 -55.5s-26.167 -30.833 -45.5 -41.5c13.333 -8 22.333 -18.333 27 -31s7 -25.334 7 -38.001c0.666992 -22 -3.5 -42 -12.5 -60s-21.333 -33.5 -37 -46.5s-33.667 -23 -54 -30s-41.833 -10.5 -64.5 -10.5c-16 0 -32.333 2.33301 -49 7
s-31.667 12 -45 22s-24.166 22.833 -32.499 38.5s-12.833 34.5 -13.5 56.5z" />
    <glyph glyph-name="acute" unicode="&#xb4;" horiz-adv-x="516" 
d="M253 567l124 203l125 -43l-172 -190z" />
    <glyph glyph-name="mu" unicode="&#xb5;" horiz-adv-x="540" 
d="M301 1l6.00098 34l-3 2c-15.333 -13.333 -32.333 -23.5 -51 -30.5s-37 -10.5 -55 -10.5c-10.667 0 -23.334 1.66699 -38.001 5l-39 -201h-141l136 695h140l-57 -293c-5.33301 -25.333 -2.33301 -44.166 9 -56.499s26.666 -18.5 45.999 -18.5
c20.667 0 38.834 6.16699 54.501 18.5s26.167 31.166 31.5 56.499l57 293h141l-96 -494h-141z" />
    <glyph glyph-name="mu" unicode="&#x3bc;" horiz-adv-x="540" 
d="M301 1l6.00098 34l-3 2c-15.333 -13.333 -32.333 -23.5 -51 -30.5s-37 -10.5 -55 -10.5c-10.667 0 -23.334 1.66699 -38.001 5l-39 -201h-141l136 695h140l-57 -293c-5.33301 -25.333 -2.33301 -44.166 9 -56.499s26.666 -18.5 45.999 -18.5
c20.667 0 38.834 6.16699 54.501 18.5s26.167 31.166 31.5 56.499l57 293h141l-96 -494h-141z" />
    <glyph glyph-name="paragraph" unicode="&#xb6;" horiz-adv-x="563" 
d="M190 311l-24 0.000976562c-22 0 -41 3.83301 -57 11.5s-29.333 18 -40 31s-18.667 28.167 -24 45.5s-8 36 -8 56c0 26.667 5.16699 54.667 15.5 84s25.333 56.166 45 80.499s43.667 44.5 72 60.5s60.833 24 97.5 24h79c25.333 0 50.833 0.166992 76.5 0.5
s51.5 0.5 77.5 0.5h82l-17 -86h-43l-136 -698h-99l136 698h-71l-136 -698h-102z" />
    <glyph glyph-name="periodcentered" unicode="&#xb7;" horiz-adv-x="297" 
d="M70 200l32 165h165l-32 -165h-165z" />
    <glyph glyph-name="cedilla" unicode="&#xb8;" horiz-adv-x="463" 
d="M218 50h72.0049l-44 -86c30.667 -3.33301 51.5 -12.5 62.5 -27.5s16.5 -31.833 16.5 -50.5c0 -14 -3.16699 -27.333 -9.5 -40s-15.333 -24 -27 -34s-25.834 -17.833 -42.501 -23.5s-35.334 -8.5 -56.001 -8.5c-21.333 0 -41.833 2.5 -61.5 7.5s-36.167 12.167 -49.5 21.5
l37 62c15.333 -8 28.166 -13 38.499 -15s21.166 -3 32.499 -3s21.833 2.5 31.5 7.5s14.5 13.833 14.5 26.5c0 7.33301 -2.5 12.5 -7.5 15.5s-10.5 4.5 -16.5 4.5c-6.66699 0 -13.334 -1.33301 -20.001 -4l-35 20z" />
    <glyph glyph-name="onesuperior" unicode="&#xb9;" horiz-adv-x="259" 
d="M112 369l59 299l-74 -42l22 110l89 50h94l-82 -417h-108z" />
    <glyph glyph-name="ordmasculine" unicode="&#xba;" horiz-adv-x="356" 
d="M255 610c44.667 0 78.332 -12.001 100.999 -36.001s34.334 -53.667 35.001 -89c0.666992 -25.333 -1.83301 -50.5 -7.5 -75.5s-15.667 -47.5 -30 -67.5s-33.833 -36.167 -58.5 -48.5s-55.334 -18.5 -92.001 -18.5c-45.333 0 -79.666 10.667 -102.999 32s-35 49 -35 83
c0 28.667 3.5 56.334 10.5 83.001s18 50.167 33 70.5s34.667 36.5 59 48.5s53.5 18 87.5 18zM243.998 516.999c-13.333 0 -24.499 -3.83301 -33.499 -11.5s-16 -17.167 -21 -28.5s-8.5 -23.5 -10.5 -36.5s-3 -24.833 -3 -35.5c0 -2.66699 0.5 -6 1.5 -10
s2.83301 -7.83301 5.5 -11.5s6.33398 -6.83398 11.001 -9.50098s11 -4 19 -4c12 0 22.167 3.66699 30.5 11s15.166 16.5 20.499 27.5s9.16602 23.167 11.499 36.5s3.5 26.333 3.5 39c0 10.667 -3.33301 18.834 -10 24.501s-15 8.5 -25 8.5z" />
    <glyph glyph-name="guillemotright" unicode="&#xbb;" horiz-adv-x="591" 
d="M7 10l184 214l-100 214h140l104 -214l-178 -214h-150zM235 10l185 214l-101 214h140l104 -214l-178 -214h-150z" />
    <glyph glyph-name="onequarter" unicode="&#xbc;" horiz-adv-x="925" 
d="M174 279l59 299l-74 -42l22 110l89 50h94l-82 -417h-108zM245 -17h-117l565 730h118zM802 417l-200 -268h52l15 64h109l-15 -64h35l-17 -93h-36l-10 -56h-109l12 56h-180l14 77l208 284h122z" />
    <glyph glyph-name="onehalf" unicode="&#xbd;" horiz-adv-x="925" 
d="M151 279l59 299l-74 -42l22 110l89 50h94l-82 -417h-108zM229 -17h-117l565 730h118zM571 297c6 19.333 14.668 36.668 26.001 52.001s24.333 28.166 39 38.499s30.5 18.333 47.5 24s34.167 8.5 51.5 8.5c18 0 35 -2 51 -6s30.167 -10 42.5 -18
s22.166 -18.167 29.499 -30.5s11 -27.166 11 -44.499c0 -10 -1.33301 -20.167 -4 -30.5s-6.5 -20.333 -11.5 -30s-10.667 -18.667 -17 -27s-12.833 -15.5 -19.5 -21.5l-35.5 -32.5l-32 -28l-31.5 -27l-34 -29.5h142l-19 -95h-292l15 83l212 186
c6 5.33301 10 10.666 12 15.999s2.66699 11 2 17c0 6.66699 -2.33301 12.167 -7 16.5s-11.667 6.5 -21 6.5s-19 -3.33301 -29 -10s-18 -19.667 -24 -39z" />
    <glyph glyph-name="threequarters" unicode="&#xbe;" horiz-adv-x="925" 
d="M205 414c0.666992 -17.333 4.66602 -28.833 11.999 -34.5s16.333 -8.5 27 -8.5c15.333 0 28 4.66699 38 14s14.667 21 14 35c0 9.33301 -3 17.5 -9 24.5s-14.333 10.5 -25 10.5h-58l14 79h52c14 0 26.5 4.33301 37.5 13s16.167 19.334 15.5 32.001
c0 7.33301 -3 13.333 -9 18s-13.667 7 -23 7c-8 0 -17.333 -2.83301 -28 -8.5s-18 -16.5 -22 -32.5l-105 17c13.333 41.333 35 71.5 65 90.5s64 28.5 102 28.5c20.667 0 39.334 -3 56.001 -9s30.667 -14 42 -24s20.166 -21.667 26.499 -35s9.5 -27.333 9.5 -42
c0.666992 -20 -4.5 -38.5 -15.5 -55.5s-26.167 -30.833 -45.5 -41.5c13.333 -8 22.333 -18.333 27 -31s7 -25.334 7 -38.001c0.666992 -22 -3.5 -42 -12.5 -60s-21.333 -33.5 -37 -46.5s-33.667 -23 -54 -30s-41.833 -10.5 -64.5 -10.5c-16 0 -32.333 2.33301 -49 7
s-31.667 12 -45 22s-24.166 22.833 -32.499 38.5s-12.833 34.5 -13.5 56.5zM291.999 -17h-117l565 730h118zM842.999 417l-200 -268h52l15 64h109l-15 -64h35l-17 -93h-36l-10 -56h-109l12 56h-180l14 77l208 284h122z" />
    <glyph glyph-name="questiondown" unicode="&#xbf;" horiz-adv-x="495" 
d="M472 2c-13.333 -68.667 -43.335 -120.668 -90.002 -156.001s-104.334 -53 -173.001 -53c-27.333 0 -52.833 4 -76.5 12s-44 19.167 -61 33.5s-30.333 31.333 -40 51s-14.5 41.167 -14.5 64.5c0 25.333 4.33301 48 13 68s19.667 38.5 33 55.5s28.333 33 45 48
s32.667 30.333 48 46s29.5 32 42.5 49s22.5 36.167 28.5 57.5l5 22h144l-5 -27c-3.33301 -19.333 -8.16602 -36.833 -14.499 -52.5s-14.666 -31.167 -24.999 -46.5s-23 -31.333 -38 -48l-52.5 -57c-6 -6.66699 -12.833 -13.5 -20.5 -20.5s-14.667 -14.333 -21 -22
s-11.666 -15.5 -15.999 -23.5s-6.5 -16.333 -6.5 -25c0 -14.667 6 -26.167 18 -34.5s25.667 -12.5 41 -12.5c9.33301 0 18.666 1.16699 27.999 3.5s18.333 6.83301 27 13.5s16.334 15.834 23.001 27.501s12 26.5 16 44.5zM413.998 493.999l-25 -128h-144l24 128h145z" />
    <glyph glyph-name="Agrave" unicode="&#xc0;" horiz-adv-x="660" 
d="M427 726l-209 107l98 89l170 -139zM449 0l-22 149h-224l-83 -149h-162l392 696h131l125 -696h-157zM397 365l-14 138h-3l-65 -136l-43 -89h136z" />
    <glyph glyph-name="Aacute" unicode="&#xc1;" horiz-adv-x="646" 
d="M449 0l-22 149h-224l-83 -149h-162l392 696h131l125 -696h-157zM397 365l-14 138h-3l-65 -136l-43 -89h136zM358 783l194 139l98 -89l-233 -107z" />
    <glyph glyph-name="Acircumflex" unicode="&#xc2;" horiz-adv-x="646" 
d="M449 0l-22 149h-224l-83 -149h-162l392 696h131l125 -696h-157zM397 365l-14 138h-3l-65 -136l-43 -89h136zM430 805l-165 -78l-37 58l172 120h98l128 -120l-62 -59z" />
    <glyph glyph-name="Atilde" unicode="&#xc3;" horiz-adv-x="646" 
d="M449 0l-22 149h-224l-83 -149h-162l392 696h131l125 -696h-157zM397 365l-14 138h-3l-65 -136l-43 -89h136zM371 882c12.667 0 25.5 -2.66797 38.5 -8.00098s25.333 -11 37 -17l33 -16.5c10.333 -5 19.5 -7.5 27.5 -7.5c11.333 0 22.666 3.66699 33.999 11
s25.333 19.666 42 36.999l62 -38c-21.333 -41.333 -42.833 -70.166 -64.5 -86.499s-46.167 -24.5 -73.5 -24.5c-13.333 0 -26.333 2.5 -39 7.5s-24.667 10.333 -36 16l-32.5 16c-10.333 5 -20.166 7.5 -29.499 7.5c-11.333 0 -23.5 -3.5 -36.5 -10.5
s-28.5 -20.167 -46.5 -39.5l-59 39c22.667 42.667 45.667 72.334 69 89.001s48 25 74 25z" />
    <glyph glyph-name="Adieresis" unicode="&#xc4;" horiz-adv-x="646" 
d="M449 0l-22 149h-224l-83 -149h-162l392 696h131l125 -696h-157zM397 365l-14 138h-3l-65 -136l-43 -89h136zM464 744l26 133h152l-26 -133h-152zM249 744l26 133h153l-26 -133h-153z" />
    <glyph glyph-name="Aring" unicode="&#xc5;" horiz-adv-x="646" 
d="M449 0l-22 149h-224l-83 -149h-162l392 696h131l125 -696h-157zM397 365l-14 138h-3l-65 -136l-43 -89h136zM436 783c11.333 0 22.333 4.16895 33 12.502s16 19.166 16 32.499c0 8.66699 -3.16699 15.834 -9.5 21.501s-14.5 8.5 -24.5 8.5
c-14 0 -25.667 -4.33301 -35 -13s-14 -19.334 -14 -32.001c0 -8.66699 3.16699 -15.834 9.5 -21.501s14.5 -8.5 24.5 -8.5zM426 705.002c-15.333 0 -29.4971 2.3291 -42.4971 6.99609s-24.5 11.334 -34.5 20.001s-17.833 18.834 -23.5 30.501s-8.5 24.167 -8.5 37.5
c0 18 3.33301 35.333 10 52s16.167 31.334 28.5 44.001s27.166 22.667 44.499 30s36.666 11 57.999 11c15.333 0 29.833 -2.5 43.5 -7.5s25.5 -11.667 35.5 -20s18 -18.333 24 -30s9 -24.5 9 -38.5c0 -18 -3.33301 -35.333 -10 -52s-16.167 -31.167 -28.5 -43.5
s-27.333 -22.166 -45 -29.499s-37.834 -11 -60.501 -11z" />
    <glyph glyph-name="AE" unicode="&#xc6;" horiz-adv-x="1069" 
d="M1059 696l-19 -138h-338l-20 -141h288l-19 -133h-288l-20 -146h338l-19 -138h-492l20 149h-247l-117 -149h-163l521 696h575zM542 554l-200 -276h167l38 275z" />
    <glyph glyph-name="Ccedilla" unicode="&#xc7;" horiz-adv-x="600" 
d="M244 -4c-38 4 -70.4893 14.001 -97.4893 30.001s-48.167 36.167 -63.5 60.5s-25.333 51.833 -30 82.5s-3.66699 63 3 97l32 164c6.66699 36 17.667 70.333 33 103s35.333 61.5 60 86.5s54.667 44.833 90 59.5s76.666 22 123.999 22c66 0 117.5 -15.5 154.5 -46.5
s63.167 -73.833 78.5 -128.5l-142 -55c-2 10 -5.66699 20.333 -11 31s-12.333 20.167 -21 28.5s-19 15.333 -31 21s-26 8.5 -42 8.5c-22 0 -40.833 -3.33301 -56.5 -10s-28.834 -15.5 -39.501 -26.5s-19.167 -23.5 -25.5 -37.5s-10.833 -28 -13.5 -42l-37 -189
c-3.33301 -15.333 -3.83301 -30 -1.5 -44s7.16602 -26.333 14.499 -37s17.666 -19.334 30.999 -26.001s29.666 -10 48.999 -10c31.333 0 57.666 7.83301 78.999 23.5s37.333 36.167 48 61.5l143 -56c-23.333 -50 -56.5 -90 -99.5 -120s-95.5 -47.333 -157.5 -52l-16 -31
c30.667 -3.33301 51.5 -12.5 62.5 -27.5s16.5 -31.833 16.5 -50.5c0 -14 -3.16699 -27.333 -9.5 -40s-15.333 -24 -27 -34s-25.834 -17.833 -42.501 -23.5s-35.334 -8.5 -56.001 -8.5c-21.333 0 -41.833 2.5 -61.5 7.5s-36.167 12.167 -49.5 21.5l37 62
c15.333 -8 28.166 -13 38.499 -15s21.166 -3 32.499 -3s21.833 2.5 31.5 7.5s14.5 13.833 14.5 26.5c0 7.33301 -2.5 12.5 -7.5 15.5s-10.5 4.5 -16.5 4.5c-6.66699 0 -13.334 -1.33301 -20.001 -4l-35 20z" />
    <glyph glyph-name="Egrave" unicode="&#xc8;" horiz-adv-x="573" 
d="M29 0l135 696h470l-26 -135h-319l-29 -144h283l-26 -133h-283l-28 -146h335l-26 -138h-486zM429 726l-209 107l98 89l170 -139z" />
    <glyph glyph-name="Eacute" unicode="&#xc9;" horiz-adv-x="573" 
d="M29 0l135 696h470l-26 -135h-319l-29 -144h283l-26 -133h-283l-28 -146h335l-26 -138h-486zM323 783l194 139l98 -89l-233 -107z" />
    <glyph glyph-name="Ecircumflex" unicode="&#xca;" horiz-adv-x="573" 
d="M29 0l135 696h470l-26 -135h-319l-29 -144h283l-26 -133h-283l-28 -146h335l-26 -138h-486zM417 805l-165 -78l-37 58l172 120h98l128 -120l-62 -59z" />
    <glyph glyph-name="Edieresis" unicode="&#xcb;" horiz-adv-x="573" 
d="M29 0l135 696h470l-26 -135h-319l-29 -144h283l-26 -133h-283l-28 -146h335l-26 -138h-486zM444 744l26 133h152l-26 -133h-152zM229 744l26 133h153l-26 -133h-153z" />
    <glyph glyph-name="Igrave" unicode="&#xcc;" horiz-adv-x="288" 
d="M26 0l135 696h151l-136 -696h-150zM258 726l-209 107l98 89l170 -139z" />
    <glyph glyph-name="Iacute" unicode="&#xcd;" horiz-adv-x="288" 
d="M26 0l135 696h151l-136 -696h-150zM161 783l194 139l98 -89l-233 -107z" />
    <glyph glyph-name="Icircumflex" unicode="&#xce;" horiz-adv-x="288" 
d="M26 0l135 696h151l-136 -696h-150zM267 805l-165 -78l-37 58l172 120h98l128 -120l-62 -59z" />
    <glyph glyph-name="Idieresis" unicode="&#xcf;" horiz-adv-x="288" 
d="M26 0l135 696h151l-136 -696h-150zM283 744l26 133h152l-26 -133h-152zM68 744l26 133h153l-26 -133h-153z" />
    <glyph glyph-name="Eth" unicode="&#xd0;" horiz-adv-x="657" 
d="M44 406l65 -0.000976562l56 290h272c29.333 0 57.333 -3.33301 84 -10s50.167 -17.334 70.5 -32.001s36.5 -33.667 48.5 -57s18 -51.333 18 -84c0 -30 -2.66699 -64.167 -8 -102.5s-12 -75.666 -20 -111.999s-16.833 -69.666 -26.5 -99.999s-18.5 -52.5 -26.5 -66.5
c-16 -26.667 -33.333 -48.5 -52 -65.5s-38.5 -30.5 -59.5 -40.5s-43 -16.833 -66 -20.5s-46.5 -5.5 -70.5 -5.5h-299l58 299h-64zM261 405.999h103l-21 -107h-102l-31 -161h101c26 0 48.167 3.5 66.5 10.5s33.833 17 46.5 30s23 28.667 31 47s14 38.833 18 61.5l25 127
c9.33301 48 5.83301 84.833 -10.5 110.5s-48.833 38.5 -97.5 38.5h-98z" />
    <glyph glyph-name="Ntilde" unicode="&#xd1;" horiz-adv-x="696" 
d="M456 0l-125 271l-68 159l-2 -1l-82 -429h-150l135 696h134l101 -226l91 -208h2l83 434h150l-135 -696h-134zM398 883c12.667 0 25.5 -2.66797 38.5 -8.00098s25.333 -11 37 -17l33 -16.5c10.333 -5 19.5 -7.5 27.5 -7.5c11.333 0 22.666 3.66699 33.999 11
s25.333 19.666 42 36.999l62 -38c-21.333 -41.333 -42.833 -70.166 -64.5 -86.499s-46.167 -24.5 -73.5 -24.5c-13.333 0 -26.333 2.5 -39 7.5s-24.667 10.333 -36 16l-32.5 16c-10.333 5 -20.166 7.5 -29.499 7.5c-11.333 0 -23.5 -3.5 -36.5 -10.5
s-28.5 -20.167 -46.5 -39.5l-59 39c22.667 42.667 45.667 72.334 69 89.001s48 25 74 25z" />
    <glyph glyph-name="Ograve" unicode="&#xd2;" horiz-adv-x="624" 
d="M380 701c44 0 82.999 -6.83105 116.999 -20.498s61.833 -32.5 83.5 -56.5s36.5 -52.667 44.5 -86s8.33301 -69.333 1 -108l-32 -164c-8 -41.333 -19.333 -78.833 -34 -112.5s-33.834 -62.334 -57.501 -86.001s-52.167 -41.834 -85.5 -54.501s-72.333 -19 -117 -19
c-50 0 -92.333 7.33301 -127 22s-62.167 34.5 -82.5 59.5s-33.666 54 -39.999 87s-5.83301 67.5 1.5 103.5l32 164c6.66699 36 16.834 70.333 30.501 103s32 61.5 55 86.5s51.667 44.833 86 59.5s75.833 22 124.5 22zM369.999 566.002
c-21.333 0 -39.3311 -3.50098 -53.998 -10.501s-26.834 -16.167 -36.501 -27.5s-17.334 -24.166 -23.001 -38.499s-9.83398 -28.5 -12.501 -42.5l-40 -198c-2.66699 -13.333 -3.5 -26.833 -2.5 -40.5s5.16699 -26.167 12.5 -37.5s18.333 -20.666 33 -27.999
s34.667 -11 60 -11c20 0 37.333 3 52 9s27 14.333 37 25s18 23.167 24 37.5s10.667 29.5 14 45.5l40 202c2.66699 15.333 2.33398 30 -0.999023 44s-9.5 26.167 -18.5 36.5s-20.667 18.666 -35 24.999s-30.833 9.5 -49.5 9.5zM451.001 726.001l-209 107l98 89l170 -139z" />
    <glyph glyph-name="Oacute" unicode="&#xd3;" horiz-adv-x="624" 
d="M380 701c44 0 82.999 -6.83105 116.999 -20.498s61.833 -32.5 83.5 -56.5s36.5 -52.667 44.5 -86s8.33301 -69.333 1 -108l-32 -164c-8 -41.333 -19.333 -78.833 -34 -112.5s-33.834 -62.334 -57.501 -86.001s-52.167 -41.834 -85.5 -54.501s-72.333 -19 -117 -19
c-50 0 -92.333 7.33301 -127 22s-62.167 34.5 -82.5 59.5s-33.666 54 -39.999 87s-5.83301 67.5 1.5 103.5l32 164c6.66699 36 16.834 70.333 30.501 103s32 61.5 55 86.5s51.667 44.833 86 59.5s75.833 22 124.5 22zM369.999 566.002
c-21.333 0 -39.3311 -3.50098 -53.998 -10.501s-26.834 -16.167 -36.501 -27.5s-17.334 -24.166 -23.001 -38.499s-9.83398 -28.5 -12.501 -42.5l-40 -198c-2.66699 -13.333 -3.5 -26.833 -2.5 -40.5s5.16699 -26.167 12.5 -37.5s18.333 -20.666 33 -27.999
s34.667 -11 60 -11c20 0 37.333 3 52 9s27 14.333 37 25s18 23.167 24 37.5s10.667 29.5 14 45.5l40 202c2.66699 15.333 2.33398 30 -0.999023 44s-9.5 26.167 -18.5 36.5s-20.667 18.666 -35 24.999s-30.833 9.5 -49.5 9.5zM338.001 783.001l194 139l98 -89l-233 -107z
" />
    <glyph glyph-name="Ocircumflex" unicode="&#xd4;" horiz-adv-x="624" 
d="M380 701c44 0 82.999 -6.83105 116.999 -20.498s61.833 -32.5 83.5 -56.5s36.5 -52.667 44.5 -86s8.33301 -69.333 1 -108l-32 -164c-8 -41.333 -19.333 -78.833 -34 -112.5s-33.834 -62.334 -57.501 -86.001s-52.167 -41.834 -85.5 -54.501s-72.333 -19 -117 -19
c-50 0 -92.333 7.33301 -127 22s-62.167 34.5 -82.5 59.5s-33.666 54 -39.999 87s-5.83301 67.5 1.5 103.5l32 164c6.66699 36 16.834 70.333 30.501 103s32 61.5 55 86.5s51.667 44.833 86 59.5s75.833 22 124.5 22zM369.999 566.002
c-21.333 0 -39.3311 -3.50098 -53.998 -10.501s-26.834 -16.167 -36.501 -27.5s-17.334 -24.166 -23.001 -38.499s-9.83398 -28.5 -12.501 -42.5l-40 -198c-2.66699 -13.333 -3.5 -26.833 -2.5 -40.5s5.16699 -26.167 12.5 -37.5s18.333 -20.666 33 -27.999
s34.667 -11 60 -11c20 0 37.333 3 52 9s27 14.333 37 25s18 23.167 24 37.5s10.667 29.5 14 45.5l40 202c2.66699 15.333 2.33398 30 -0.999023 44s-9.5 26.167 -18.5 36.5s-20.667 18.666 -35 24.999s-30.833 9.5 -49.5 9.5zM434.001 805.001l-165 -78l-37 58l172 120h98
l128 -120l-62 -59z" />
    <glyph glyph-name="Otilde" unicode="&#xd5;" horiz-adv-x="624" 
d="M380 701c44 0 82.999 -6.83105 116.999 -20.498s61.833 -32.5 83.5 -56.5s36.5 -52.667 44.5 -86s8.33301 -69.333 1 -108l-32 -164c-8 -41.333 -19.333 -78.833 -34 -112.5s-33.834 -62.334 -57.501 -86.001s-52.167 -41.834 -85.5 -54.501s-72.333 -19 -117 -19
c-50 0 -92.333 7.33301 -127 22s-62.167 34.5 -82.5 59.5s-33.666 54 -39.999 87s-5.83301 67.5 1.5 103.5l32 164c6.66699 36 16.834 70.333 30.501 103s32 61.5 55 86.5s51.667 44.833 86 59.5s75.833 22 124.5 22zM369.999 566.002
c-21.333 0 -39.3311 -3.50098 -53.998 -10.501s-26.834 -16.167 -36.501 -27.5s-17.334 -24.166 -23.001 -38.499s-9.83398 -28.5 -12.501 -42.5l-40 -198c-2.66699 -13.333 -3.5 -26.833 -2.5 -40.5s5.16699 -26.167 12.5 -37.5s18.333 -20.666 33 -27.999
s34.667 -11 60 -11c20 0 37.333 3 52 9s27 14.333 37 25s18 23.167 24 37.5s10.667 29.5 14 45.5l40 202c2.66699 15.333 2.33398 30 -0.999023 44s-9.5 26.167 -18.5 36.5s-20.667 18.666 -35 24.999s-30.833 9.5 -49.5 9.5zM365.001 882.001
c12.667 0 25.5 -2.66797 38.5 -8.00098s25.333 -11 37 -17l33 -16.5c10.333 -5 19.5 -7.5 27.5 -7.5c11.333 0 22.666 3.66699 33.999 11s25.333 19.666 42 36.999l62 -38c-21.333 -41.333 -42.833 -70.166 -64.5 -86.499s-46.167 -24.5 -73.5 -24.5
c-13.333 0 -26.333 2.5 -39 7.5s-24.667 10.333 -36 16l-32.5 16c-10.333 5 -20.166 7.5 -29.499 7.5c-11.333 0 -23.5 -3.5 -36.5 -10.5s-28.5 -20.167 -46.5 -39.5l-59 39c22.667 42.667 45.667 72.334 69 89.001s48 25 74 25z" />
    <glyph glyph-name="Odieresis" unicode="&#xd6;" horiz-adv-x="624" 
d="M380 701c44 0 82.999 -6.83105 116.999 -20.498s61.833 -32.5 83.5 -56.5s36.5 -52.667 44.5 -86s8.33301 -69.333 1 -108l-32 -164c-8 -41.333 -19.333 -78.833 -34 -112.5s-33.834 -62.334 -57.501 -86.001s-52.167 -41.834 -85.5 -54.501s-72.333 -19 -117 -19
c-50 0 -92.333 7.33301 -127 22s-62.167 34.5 -82.5 59.5s-33.666 54 -39.999 87s-5.83301 67.5 1.5 103.5l32 164c6.66699 36 16.834 70.333 30.501 103s32 61.5 55 86.5s51.667 44.833 86 59.5s75.833 22 124.5 22zM369.999 566.002
c-21.333 0 -39.3311 -3.50098 -53.998 -10.501s-26.834 -16.167 -36.501 -27.5s-17.334 -24.166 -23.001 -38.499s-9.83398 -28.5 -12.501 -42.5l-40 -198c-2.66699 -13.333 -3.5 -26.833 -2.5 -40.5s5.16699 -26.167 12.5 -37.5s18.333 -20.666 33 -27.999
s34.667 -11 60 -11c20 0 37.333 3 52 9s27 14.333 37 25s18 23.167 24 37.5s10.667 29.5 14 45.5l40 202c2.66699 15.333 2.33398 30 -0.999023 44s-9.5 26.167 -18.5 36.5s-20.667 18.666 -35 24.999s-30.833 9.5 -49.5 9.5zM450.001 744.001l26 133h152l-26 -133h-152z
M235.001 744.001l26 133h153l-26 -133h-153z" />
    <glyph glyph-name="multiply" unicode="&#xd7;" horiz-adv-x="550" 
d="M287 213l-191 -160l-70 87l191 160l-134 166l98 82l134 -166l187 158l71 -88l-188 -157l134 -166l-98 -82z" />
    <glyph glyph-name="Oslash" unicode="&#xd8;" horiz-adv-x="624" 
d="M380 701c35.333 0 67.166 -4.49805 95.499 -13.498s53.166 -21.167 74.499 -36.5l44 53l39 -37l-44 -53c18.667 -24 31.334 -51.5 38.001 -82.5s6.33398 -64.833 -0.999023 -101.5l-32 -164c-8 -41.333 -19.333 -78.833 -34 -112.5s-33.834 -62.334 -57.501 -86.001
s-52.167 -41.834 -85.5 -54.501s-72.333 -19 -117 -19c-40 0 -75 4.66699 -105 14s-55.333 22.333 -76 39l-42 -50l-36 35l43 52c-18 24.667 -29.5 52.5 -34.5 83.5s-4.16699 63.833 2.5 98.5l32 164c6.66699 36 16.834 70.333 30.501 103s32 61.5 55 86.5
s51.667 44.833 86 59.5s75.833 22 124.5 22zM474 451.002c1.33301 4.66699 2.00098 9.16699 2.00098 13.5v12.5l-259 -311c8 -10 19.167 -18.167 33.5 -24.5s33.166 -9.5 56.499 -9.5c20 0 37.333 3 52 9s27 14.333 37 25s18 23.167 24 37.5s10.667 29.5 14 45.5z
M370.001 566.002c-21.333 0 -39.3301 -3.50098 -53.9971 -10.501s-26.834 -16.167 -36.501 -27.5s-17.334 -24.166 -23.001 -38.499s-9.83398 -28.5 -12.501 -42.5l-40 -198c-1.33301 -4 -2 -7.83301 -2 -11.5s-0.333008 -7.5 -1 -11.5l252 307c-9.33301 10 -21 18 -35 24
s-30 9 -48 9z" />
    <glyph glyph-name="Ugrave" unicode="&#xd9;" horiz-adv-x="644" 
d="M595 243c-7.33301 -37.333 -18.9971 -71.167 -34.9971 -101.5s-36.333 -56.333 -61 -78s-53.667 -38.5 -87 -50.5s-71.333 -18 -114 -18c-36.667 0 -70.834 6.16699 -102.501 18.5s-58.334 29.666 -80.001 51.999s-37.334 49.333 -47.001 81s-10.5 66.834 -2.5 105.501
l86 444h150l-84 -436c-7.33301 -40 -2 -70.833 16 -92.5s43 -32.5 75 -32.5c33.333 0 62.833 9.66699 88.5 29s42.167 48.333 49.5 87l86 445h150zM449.003 725.999l-209 107l98 89l170 -139z" />
    <glyph glyph-name="Uacute" unicode="&#xda;" horiz-adv-x="644" 
d="M595 243c-7.33301 -37.333 -18.9971 -71.167 -34.9971 -101.5s-36.333 -56.333 -61 -78s-53.667 -38.5 -87 -50.5s-71.333 -18 -114 -18c-36.667 0 -70.834 6.16699 -102.501 18.5s-58.334 29.666 -80.001 51.999s-37.334 49.333 -47.001 81s-10.5 66.834 -2.5 105.501
l86 444h150l-84 -436c-7.33301 -40 -2 -70.833 16 -92.5s43 -32.5 75 -32.5c33.333 0 62.833 9.66699 88.5 29s42.167 48.333 49.5 87l86 445h150zM358.003 782.999l194 139l98 -89l-233 -107z" />
    <glyph glyph-name="Ucircumflex" unicode="&#xdb;" horiz-adv-x="644" 
d="M595 243c-7.33301 -37.333 -18.9971 -71.167 -34.9971 -101.5s-36.333 -56.333 -61 -78s-53.667 -38.5 -87 -50.5s-71.333 -18 -114 -18c-36.667 0 -70.834 6.16699 -102.501 18.5s-58.334 29.666 -80.001 51.999s-37.334 49.333 -47.001 81s-10.5 66.834 -2.5 105.501
l86 444h150l-84 -436c-7.33301 -40 -2 -70.833 16 -92.5s43 -32.5 75 -32.5c33.333 0 62.833 9.66699 88.5 29s42.167 48.333 49.5 87l86 445h150zM451.003 804.999l-165 -78l-37 58l172 120h98l128 -120l-62 -59z" />
    <glyph glyph-name="Udieresis" unicode="&#xdc;" horiz-adv-x="644" 
d="M595 243c-7.33301 -37.333 -18.9971 -71.167 -34.9971 -101.5s-36.333 -56.333 -61 -78s-53.667 -38.5 -87 -50.5s-71.333 -18 -114 -18c-36.667 0 -70.834 6.16699 -102.501 18.5s-58.334 29.666 -80.001 51.999s-37.334 49.333 -47.001 81s-10.5 66.834 -2.5 105.501
l86 444h150l-84 -436c-7.33301 -40 -2 -70.833 16 -92.5s43 -32.5 75 -32.5c33.333 0 62.833 9.66699 88.5 29s42.167 48.333 49.5 87l86 445h150zM464.003 743.999l26 133h152l-26 -133h-152zM249.003 743.999l26 133h153l-26 -133h-153z" />
    <glyph glyph-name="Yacute" unicode="&#xdd;" horiz-adv-x="593" 
d="M386 285l-55 -285h-145l56 285l-139 411h161l41 -150l32 -135h4l84 134l99 151h162zM329 783l194 139l98 -89l-233 -107z" />
    <glyph glyph-name="Thorn" unicode="&#xde;" horiz-adv-x="609" 
d="M209 131l-24.999 -131h-154l135 696h154l-24 -123h123c32.667 0 62.167 -4 88.5 -12s48.833 -19.667 67.5 -35s33.167 -34 43.5 -56s15.5 -46.667 15.5 -74c0 -37.333 -8 -72.166 -24 -104.499s-37.333 -60.333 -64 -84s-57.334 -42.334 -92.001 -56.001
s-70.667 -20.5 -108 -20.5h-136zM368.001 269c14.667 0 28.667 2.5 42 7.5s25 12 35 21s18 19.833 24 32.5s9 27 9 43c0 41.333 -27.333 62 -82 62h-128l-32 -166h132z" />
    <glyph glyph-name="germandbls" unicode="&#xdf;" horiz-adv-x="555" 
d="M220 -3l23 122.003h18c16 0 31 4 45 12s26 19 36 33s18 30.5 24 49.5s9 39.167 9 60.5c0 18 -3.83301 34.5 -11.5 49.5s-23.834 24.167 -48.501 27.5l19 104c22.667 2.66699 40.5 12 53.5 28s19.5 34.667 19.5 56c0 6.66699 -1.16699 13.667 -3.5 21s-6 14 -11 20
s-11.667 11 -20 15s-18.833 6 -31.5 6c-13.333 0 -24.666 -2.16699 -33.999 -6.5s-17.166 -9.83301 -23.499 -16.5s-11.333 -14.334 -15 -23.001s-6.5 -17 -8.5 -25l-100 -530h-143l98 517c13.333 66.667 40.666 117.5 81.999 152.5s94 52.5 158 52.5
c31.333 0 58.833 -4.33301 82.5 -13s43.5 -20.334 59.5 -35.001s28.167 -31.334 36.5 -50.001s12.5 -38.334 12.5 -59.001c0 -32 -8.33301 -61.667 -25 -89s-40 -47.666 -70 -60.999v-3c12.667 -5.33301 23.834 -13 33.501 -23s17.834 -21.5 24.501 -34.5
s11.5 -26.5 14.5 -40.5s4.5 -27.667 4.5 -41c0 -38 -6.83301 -73.833 -20.5 -107.5s-32.334 -63 -56.001 -88s-51.834 -44.667 -84.501 -59s-68 -21.5 -106 -21.5h-41z" />
    <glyph glyph-name="agrave" unicode="&#xe0;" horiz-adv-x="523" 
d="M274 500c15.333 0 32.333 -3 51 -9s34.667 -16.667 48 -32l2 1l7 35h140l-96 -495h-140l8 39l-3 1c-6 -6 -13.333 -11.833 -22 -17.5s-18 -10.5 -28 -14.5s-20 -7.33301 -30 -10s-19 -4 -27 -4c-30 0 -54.5 4.5 -73.5 13.5s-33.667 21 -44 36s-17.333 32 -21 51
s-5.5 38.5 -5.5 58.5c0 38 3.83301 77.333 11.5 118s20.667 78 39 112s42.5 62 72.5 84s67 33 111 33zM184 183c0 -15.333 4 -28.834 12 -40.501s22.667 -17.5 44 -17.5c18.667 0 34.5 6.5 47.5 19.5s23.5 28.667 31.5 47s13.667 37.333 17 57s5 36.167 5 49.5
c0 9.33301 -0.666992 18.333 -2 27s-3.83301 16.167 -7.5 22.5s-9 11.333 -16 15s-16.167 5.5 -27.5 5.5c-20 0 -36.667 -6.66699 -50 -20s-24 -29.666 -32 -48.999s-13.667 -39.5 -17 -60.5s-5 -39.5 -5 -55.5zM334 536.999l-175 188l124 45l121 -190z" />
    <glyph glyph-name="aacute" unicode="&#xe1;" horiz-adv-x="523" 
d="M274 500c15.333 0 32.333 -3 51 -9s34.667 -16.667 48 -32l2 1l7 35h140l-96 -495h-140l8 39l-3 1c-6 -6 -13.333 -11.833 -22 -17.5s-18 -10.5 -28 -14.5s-20 -7.33301 -30 -10s-19 -4 -27 -4c-30 0 -54.5 4.5 -73.5 13.5s-33.667 21 -44 36s-17.333 32 -21 51
s-5.5 38.5 -5.5 58.5c0 38 3.83301 77.333 11.5 118s20.667 78 39 112s42.5 62 72.5 84s67 33 111 33zM184 183c0 -15.333 4 -28.834 12 -40.501s22.667 -17.5 44 -17.5c18.667 0 34.5 6.5 47.5 19.5s23.5 28.667 31.5 47s13.667 37.333 17 57s5 36.167 5 49.5
c0 9.33301 -0.666992 18.333 -2 27s-3.83301 16.167 -7.5 22.5s-9 11.333 -16 15s-16.167 5.5 -27.5 5.5c-20 0 -36.667 -6.66699 -50 -20s-24 -29.666 -32 -48.999s-13.667 -39.5 -17 -60.5s-5 -39.5 -5 -55.5zM296 566.999l124 203l125 -43l-172 -190z" />
    <glyph glyph-name="acircumflex" unicode="&#xe2;" horiz-adv-x="523" 
d="M274 500c15.333 0 32.333 -3 51 -9s34.667 -16.667 48 -32l2 1l7 35h140l-96 -495h-140l8 39l-3 1c-6 -6 -13.333 -11.833 -22 -17.5s-18 -10.5 -28 -14.5s-20 -7.33301 -30 -10s-19 -4 -27 -4c-30 0 -54.5 4.5 -73.5 13.5s-33.667 21 -44 36s-17.333 32 -21 51
s-5.5 38.5 -5.5 58.5c0 38 3.83301 77.333 11.5 118s20.667 78 39 112s42.5 62 72.5 84s67 33 111 33zM184 183c0 -15.333 4 -28.834 12 -40.501s22.667 -17.5 44 -17.5c18.667 0 34.5 6.5 47.5 19.5s23.5 28.667 31.5 47s13.667 37.333 17 57s5 36.167 5 49.5
c0 9.33301 -0.666992 18.333 -2 27s-3.83301 16.167 -7.5 22.5s-9 11.333 -16 15s-16.167 5.5 -27.5 5.5c-20 0 -36.667 -6.66699 -50 -20s-24 -29.666 -32 -48.999s-13.667 -39.5 -17 -60.5s-5 -39.5 -5 -55.5zM338 628.999l-165 -103l-44 48l177 155h103l118 -155l-65 -49
z" />
    <glyph glyph-name="atilde" unicode="&#xe3;" horiz-adv-x="523" 
d="M274 500c15.333 0 32.333 -3 51 -9s34.667 -16.667 48 -32l2 1l7 35h140l-96 -495h-140l8 39l-3 1c-6 -6 -13.333 -11.833 -22 -17.5s-18 -10.5 -28 -14.5s-20 -7.33301 -30 -10s-19 -4 -27 -4c-30 0 -54.5 4.5 -73.5 13.5s-33.667 21 -44 36s-17.333 32 -21 51
s-5.5 38.5 -5.5 58.5c0 38 3.83301 77.333 11.5 118s20.667 78 39 112s42.5 62 72.5 84s67 33 111 33zM184 183c0 -15.333 4 -28.834 12 -40.501s22.667 -17.5 44 -17.5c18.667 0 34.5 6.5 47.5 19.5s23.5 28.667 31.5 47s13.667 37.333 17 57s5 36.167 5 49.5
c0 9.33301 -0.666992 18.333 -2 27s-3.83301 16.167 -7.5 22.5s-9 11.333 -16 15s-16.167 5.5 -27.5 5.5c-20 0 -36.667 -6.66699 -50 -20s-24 -29.666 -32 -48.999s-13.667 -39.5 -17 -60.5s-5 -39.5 -5 -55.5zM279 711.999c12.667 0 25.5 -2.66797 38.5 -8.00098
s25.333 -11 37 -17l33 -16.5c10.333 -5 19.5 -7.5 27.5 -7.5c11.333 0 22.666 3.66699 33.999 11s25.333 19.666 42 36.999l62 -38c-21.333 -41.333 -42.833 -70.166 -64.5 -86.499s-46.167 -24.5 -73.5 -24.5c-13.333 0 -26.333 2.5 -39 7.5s-24.667 10.333 -36 16
l-32.5 16c-10.333 5 -20.166 7.5 -29.499 7.5c-11.333 0 -23.5 -3.5 -36.5 -10.5s-28.5 -20.167 -46.5 -39.5l-59 39c22.667 42.667 45.667 72.334 69 89.001s48 25 74 25z" />
    <glyph glyph-name="adieresis" unicode="&#xe4;" horiz-adv-x="523" 
d="M274 500c15.333 0 32.333 -3 51 -9s34.667 -16.667 48 -32l2 1l7 35h140l-96 -495h-140l8 39l-3 1c-6 -6 -13.333 -11.833 -22 -17.5s-18 -10.5 -28 -14.5s-20 -7.33301 -30 -10s-19 -4 -27 -4c-30 0 -54.5 4.5 -73.5 13.5s-33.667 21 -44 36s-17.333 32 -21 51
s-5.5 38.5 -5.5 58.5c0 38 3.83301 77.333 11.5 118s20.667 78 39 112s42.5 62 72.5 84s67 33 111 33zM184 183c0 -15.333 4 -28.834 12 -40.501s22.667 -17.5 44 -17.5c18.667 0 34.5 6.5 47.5 19.5s23.5 28.667 31.5 47s13.667 37.333 17 57s5 36.167 5 49.5
c0 9.33301 -0.666992 18.333 -2 27s-3.83301 16.167 -7.5 22.5s-9 11.333 -16 15s-16.167 5.5 -27.5 5.5c-20 0 -36.667 -6.66699 -50 -20s-24 -29.666 -32 -48.999s-13.667 -39.5 -17 -60.5s-5 -39.5 -5 -55.5zM359 568.999l25 130h146l-25 -130h-146zM145 568.999l25 130
h145l-25 -130h-145z" />
    <glyph glyph-name="aring" unicode="&#xe5;" horiz-adv-x="523" 
d="M274 500c15.333 0 32.333 -3 51 -9s34.667 -16.667 48 -32l2 1l7 35h140l-96 -495h-140l8 39l-3 1c-6 -6 -13.333 -11.833 -22 -17.5s-18 -10.5 -28 -14.5s-20 -7.33301 -30 -10s-19 -4 -27 -4c-30 0 -54.5 4.5 -73.5 13.5s-33.667 21 -44 36s-17.333 32 -21 51
s-5.5 38.5 -5.5 58.5c0 38 3.83301 77.333 11.5 118s20.667 78 39 112s42.5 62 72.5 84s67 33 111 33zM184 183c0 -15.333 4 -28.834 12 -40.501s22.667 -17.5 44 -17.5c18.667 0 34.5 6.5 47.5 19.5s23.5 28.667 31.5 47s13.667 37.333 17 57s5 36.167 5 49.5
c0 9.33301 -0.666992 18.333 -2 27s-3.83301 16.167 -7.5 22.5s-9 11.333 -16 15s-16.167 5.5 -27.5 5.5c-20 0 -36.667 -6.66699 -50 -20s-24 -29.666 -32 -48.999s-13.667 -39.5 -17 -60.5s-5 -39.5 -5 -55.5zM319 604.999c11.333 0 22.333 4.16895 33 12.502
s16 19.166 16 32.499c0 8.66699 -3.16699 15.834 -9.5 21.501s-14.5 8.5 -24.5 8.5c-14 0 -25.667 -4.33301 -35 -13s-14 -19.334 -14 -32.001c0 -8.66699 3.16699 -15.834 9.5 -21.501s14.5 -8.5 24.5 -8.5zM309 527.001c-15.333 0 -29.4971 2.3291 -42.4971 6.99609
s-24.5 11.334 -34.5 20.001s-17.833 18.834 -23.5 30.501s-8.5 24.167 -8.5 37.5c0 18 3.33301 35.333 10 52s16.167 31.334 28.5 44.001s27.166 22.667 44.499 30s36.666 11 57.999 11c15.333 0 29.833 -2.5 43.5 -7.5s25.5 -11.667 35.5 -20s18 -18.333 24 -30
s9 -24.5 9 -38.5c0 -18 -3.33301 -35.333 -10 -52s-16.167 -31.167 -28.5 -43.5s-27.333 -22.166 -45 -29.499s-37.834 -11 -60.501 -11z" />
    <glyph glyph-name="ae" unicode="&#xe6;" horiz-adv-x="815" 
d="M608 501c35.333 0 64.9961 -4.33496 88.9961 -13.002s43.5 -20 58.5 -34s25.667 -29.833 32 -47.5s9.5 -35.5 9.5 -53.5c0 -32 -7.5 -58.5 -22.5 -79.5s-34.5 -37.5 -58.5 -49.5s-51 -20.333 -81 -25s-60 -7 -90 -7c-8.66699 0 -17.167 0.166992 -25.5 0.5
s-16.5 0.833008 -24.5 1.5c-0.666992 -3.33301 -1 -6.16602 -1 -8.49902v-7.5c0 -11.333 2 -20.666 6 -27.999s9.33301 -13 16 -17s14.5 -6.83301 23.5 -8.5s18.833 -2.5 29.5 -2.5c12.667 0 28.5 3.16699 47.5 9.5s41.167 16.5 66.5 30.5l65 -107c-22 -14 -43 -25 -63 -33
s-39.167 -14 -57.5 -18s-35.833 -6.5 -52.5 -7.5s-32.667 -1.5 -48 -1.5c-32 0 -62.167 5.33301 -90.5 16s-50.5 30.334 -66.5 59.001c-11.333 -8.66699 -24.333 -17.5 -39 -26.5s-30.667 -17 -48 -24s-35.5 -12.833 -54.5 -17.5s-38.5 -7 -58.5 -7
c-44 0 -79.667 10 -107 30s-41 52.333 -41 97c0 18.667 2.83301 39 8.5 61s17.334 42.167 35.001 60.5s42.334 33.666 74.001 45.999s73.5 18.5 125.5 18.5c12 0 24.5 -0.5 37.5 -1.5s26.5 -2.16699 40.5 -3.5l4 13c1.33301 5.33301 2 10 2 14
c0 10.667 -4.16699 21 -12.5 31s-26.166 15 -53.499 15c-28 0 -53.167 -2.5 -75.5 -7.5s-42.166 -14.833 -59.499 -29.5l-60 87c32.667 29.333 67.5 49 104.5 59s73.5 15 109.5 15c32.667 0 62.834 -3.33301 90.501 -10s50.167 -17.667 67.5 -33
c19.333 13.333 41.166 24 65.499 32s51.833 12 82.5 12zM601.996 372.998c-18 0 -34.833 -6.66504 -50.5 -19.998s-27.5 -31 -35.5 -53c6 -0.666992 11.667 -1 17 -1h16c19.333 0 35.5 1.33301 48.5 4s23.333 6.16699 31 10.5s13 9.16602 16 14.499s4.5 10.333 4.5 15
c0 9.33301 -3.5 16.666 -10.5 21.999s-19.167 8 -36.5 8zM323.996 200l-36 3.50195c-10.667 1 -20.667 1.5 -30 1.5c-22.667 0 -40.167 -1.83301 -52.5 -5.5s-21.666 -8 -27.999 -13s-10.333 -10 -12 -15s-2.83398 -9.16699 -3.50098 -12.5
c0 -3.33301 0.333008 -7.5 1 -12.5s2.66699 -10 6 -15s9 -9.33301 17 -13s19.667 -5.5 35 -5.5c10.667 0 21.5 1.16699 32.5 3.5s21.167 6.16602 30.5 11.499s17.333 12.166 24 20.499s11 18.5 13 30.5z" />
    <glyph glyph-name="ccedilla" unicode="&#xe7;" horiz-adv-x="440" 
d="M191 -3c-22.667 2 -43.8281 7.49805 -63.4951 16.498s-36.834 21.667 -51.501 38s-26.334 36.5 -35.001 60.5s-13 52.333 -13 85c0 52.667 7.83301 98.167 23.5 136.5s36 69.833 61 94.5s53.5 42.834 85.5 54.501s64.667 17.5 98 17.5s64.5 -6.16699 93.5 -18.5
s54.167 -30.166 75.5 -53.499l-100 -97c-11.333 14.667 -23.333 25.167 -36 31.5s-25 9.5 -37 9.5c-15.333 0 -30.166 -3.16699 -44.499 -9.5s-27 -16.166 -38 -29.499s-19.833 -30.833 -26.5 -52.5s-10 -47.5 -10 -77.5c0 -28 6.16699 -48.167 18.5 -60.5
s31.166 -18.5 56.499 -18.5c12.667 0 25.834 3.16699 39.501 9.5s29.5 17.166 47.5 32.499l74 -98c-49.333 -38 -97.666 -61 -144.999 -69l-18 -35c30.667 -3.33301 51.5 -12.5 62.5 -27.5s16.5 -31.833 16.5 -50.5c0 -14 -3.16699 -27.333 -9.5 -40s-15.333 -24 -27 -34
s-25.834 -17.833 -42.501 -23.5s-35.334 -8.5 -56.001 -8.5c-21.333 0 -41.833 2.5 -61.5 7.5s-36.167 12.167 -49.5 21.5l37 62c15.333 -8 28.166 -13 38.499 -15s21.166 -3 32.499 -3s21.833 2.5 31.5 7.5s14.5 13.833 14.5 26.5c0 7.33301 -2.5 12.5 -7.5 15.5
s-10.5 4.5 -16.5 4.5c-6.66699 0 -13.334 -1.33301 -20.001 -4l-35 20z" />
    <glyph glyph-name="egrave" unicode="&#xe8;" horiz-adv-x="505" 
d="M298 501c35.333 0 64.999 -3.99902 88.999 -11.999s43.5 -18.5 58.5 -31.5s25.667 -27.833 32 -44.5s9.5 -33.334 9.5 -50.001c0 -33.333 -8 -60.833 -24 -82.5s-36.5 -39 -61.5 -52s-53 -22.167 -84 -27.5s-61.5 -8 -91.5 -8h-21c-6.66699 0 -13.334 0.333008 -20.001 1
c-0.666992 -3.33301 -1 -6.16602 -1 -8.49902v-7.5c0 -11.333 2 -20.666 6 -27.999s9.33301 -13 16 -17s14.5 -6.83301 23.5 -8.5s18.833 -2.5 29.5 -2.5c12.667 0 28.834 2.5 48.501 7.5s42.5 15.167 68.5 30.5l60 -105c-22 -14 -43 -25 -63 -33s-39 -14 -57 -18
s-35.167 -6.5 -51.5 -7.5s-32.166 -1.5 -47.499 -1.5c-23.333 0 -46 2.83301 -68 8.5s-41.333 15.5 -58 29.5s-30 32.667 -40 56s-15 52.666 -15 87.999c0 40.667 4.66699 80.5 14 119.5s24.5 73.667 45.5 104s48 54.666 81 72.999s73.5 27.5 121.5 27.5zM291.999 373.001
c-18 0 -34.833 -6.66504 -50.5 -19.998s-27.5 -31 -35.5 -53c6 -0.666992 11.667 -1 17 -1h16c19.333 0 35.5 1.33301 48.5 4s23.333 6.16699 31 10.5s13 9.16602 16 14.499s4.5 10.333 4.5 15c0 9.33301 -3.5 16.666 -10.5 21.999s-19.167 8 -36.5 8zM326.999 537.003
l-175 188l124 45l121 -190z" />
    <glyph glyph-name="eacute" unicode="&#xe9;" horiz-adv-x="505" 
d="M298 501c35.333 0 64.999 -3.99902 88.999 -11.999s43.5 -18.5 58.5 -31.5s25.667 -27.833 32 -44.5s9.5 -33.334 9.5 -50.001c0 -33.333 -8 -60.833 -24 -82.5s-36.5 -39 -61.5 -52s-53 -22.167 -84 -27.5s-61.5 -8 -91.5 -8h-21c-6.66699 0 -13.334 0.333008 -20.001 1
c-0.666992 -3.33301 -1 -6.16602 -1 -8.49902v-7.5c0 -11.333 2 -20.666 6 -27.999s9.33301 -13 16 -17s14.5 -6.83301 23.5 -8.5s18.833 -2.5 29.5 -2.5c12.667 0 28.834 2.5 48.501 7.5s42.5 15.167 68.5 30.5l60 -105c-22 -14 -43 -25 -63 -33s-39 -14 -57 -18
s-35.167 -6.5 -51.5 -7.5s-32.166 -1.5 -47.499 -1.5c-23.333 0 -46 2.83301 -68 8.5s-41.333 15.5 -58 29.5s-30 32.667 -40 56s-15 52.666 -15 87.999c0 40.667 4.66699 80.5 14 119.5s24.5 73.667 45.5 104s48 54.666 81 72.999s73.5 27.5 121.5 27.5zM291.999 373.001
c-18 0 -34.833 -6.66504 -50.5 -19.998s-27.5 -31 -35.5 -53c6 -0.666992 11.667 -1 17 -1h16c19.333 0 35.5 1.33301 48.5 4s23.333 6.16699 31 10.5s13 9.16602 16 14.499s4.5 10.333 4.5 15c0 9.33301 -3.5 16.666 -10.5 21.999s-19.167 8 -36.5 8zM246.999 567.003
l124 203l125 -43l-172 -190z" />
    <glyph glyph-name="ecircumflex" unicode="&#xea;" horiz-adv-x="505" 
d="M298 501c35.333 0 64.999 -3.99902 88.999 -11.999s43.5 -18.5 58.5 -31.5s25.667 -27.833 32 -44.5s9.5 -33.334 9.5 -50.001c0 -33.333 -8 -60.833 -24 -82.5s-36.5 -39 -61.5 -52s-53 -22.167 -84 -27.5s-61.5 -8 -91.5 -8h-21c-6.66699 0 -13.334 0.333008 -20.001 1
c-0.666992 -3.33301 -1 -6.16602 -1 -8.49902v-7.5c0 -11.333 2 -20.666 6 -27.999s9.33301 -13 16 -17s14.5 -6.83301 23.5 -8.5s18.833 -2.5 29.5 -2.5c12.667 0 28.834 2.5 48.501 7.5s42.5 15.167 68.5 30.5l60 -105c-22 -14 -43 -25 -63 -33s-39 -14 -57 -18
s-35.167 -6.5 -51.5 -7.5s-32.166 -1.5 -47.499 -1.5c-23.333 0 -46 2.83301 -68 8.5s-41.333 15.5 -58 29.5s-30 32.667 -40 56s-15 52.666 -15 87.999c0 40.667 4.66699 80.5 14 119.5s24.5 73.667 45.5 104s48 54.666 81 72.999s73.5 27.5 121.5 27.5zM291.999 373.001
c-18 0 -34.833 -6.66504 -50.5 -19.998s-27.5 -31 -35.5 -53c6 -0.666992 11.667 -1 17 -1h16c19.333 0 35.5 1.33301 48.5 4s23.333 6.16699 31 10.5s13 9.16602 16 14.499s4.5 10.333 4.5 15c0 9.33301 -3.5 16.666 -10.5 21.999s-19.167 8 -36.5 8zM329.999 629.003
l-165 -103l-44 48l177 155h103l118 -155l-65 -49z" />
    <glyph glyph-name="edieresis" unicode="&#xeb;" horiz-adv-x="505" 
d="M298 501c35.333 0 64.999 -3.99902 88.999 -11.999s43.5 -18.5 58.5 -31.5s25.667 -27.833 32 -44.5s9.5 -33.334 9.5 -50.001c0 -33.333 -8 -60.833 -24 -82.5s-36.5 -39 -61.5 -52s-53 -22.167 -84 -27.5s-61.5 -8 -91.5 -8h-21c-6.66699 0 -13.334 0.333008 -20.001 1
c-0.666992 -3.33301 -1 -6.16602 -1 -8.49902v-7.5c0 -11.333 2 -20.666 6 -27.999s9.33301 -13 16 -17s14.5 -6.83301 23.5 -8.5s18.833 -2.5 29.5 -2.5c12.667 0 28.834 2.5 48.501 7.5s42.5 15.167 68.5 30.5l60 -105c-22 -14 -43 -25 -63 -33s-39 -14 -57 -18
s-35.167 -6.5 -51.5 -7.5s-32.166 -1.5 -47.499 -1.5c-23.333 0 -46 2.83301 -68 8.5s-41.333 15.5 -58 29.5s-30 32.667 -40 56s-15 52.666 -15 87.999c0 40.667 4.66699 80.5 14 119.5s24.5 73.667 45.5 104s48 54.666 81 72.999s73.5 27.5 121.5 27.5zM291.999 373.001
c-18 0 -34.833 -6.66504 -50.5 -19.998s-27.5 -31 -35.5 -53c6 -0.666992 11.667 -1 17 -1h16c19.333 0 35.5 1.33301 48.5 4s23.333 6.16699 31 10.5s13 9.16602 16 14.499s4.5 10.333 4.5 15c0 9.33301 -3.5 16.666 -10.5 21.999s-19.167 8 -36.5 8zM358.999 569.003
l25 130h146l-25 -130h-146zM144.999 569.003l25 130h145l-25 -130h-145z" />
    <glyph glyph-name="igrave" unicode="&#xec;" horiz-adv-x="288" 
d="M62 0l96 495h140l-96 -495h-140zM235 537l-175 188l124 45l121 -190z" />
    <glyph glyph-name="iacute" unicode="&#xed;" horiz-adv-x="263" 
d="M22 0l96 495h140l-96 -495h-140zM137 567l124 203l125 -43l-172 -190z" />
    <glyph glyph-name="icircumflex" unicode="&#xee;" horiz-adv-x="312" 
d="M44 0l96 495h140l-96 -495h-140zM244 629l-165 -103l-44 48l177 155h103l118 -155l-65 -49z" />
    <glyph glyph-name="idieresis" unicode="&#xef;" horiz-adv-x="314" 
d="M44 0l96 495h140l-96 -495h-140zM264 569l25 130h146l-25 -130h-146zM50 569l25 130h145l-25 -130h-145z" />
    <glyph glyph-name="eth" unicode="&#xf0;" horiz-adv-x="491" 
d="M399 414c2 10 3.33105 19.498 3.99805 28.498s1 17.833 1 26.5c0 28.667 -5.33301 54.334 -16 77.001l-67 -43l-34 56l57 36c-15.333 11.333 -33.5 19.833 -54.5 25.5s-43.833 9.16699 -68.5 10.5l29 102c45.333 -2.66699 83.833 -10.167 115.5 -22.5
s58.167 -29.166 79.5 -50.499l82 52l34 -55l-77 -50c11.333 -22 19.5 -46 24.5 -72s7.5 -54 7.5 -84c0 -54 -4.83301 -108.167 -14.5 -162.5s-26.167 -103.333 -49.5 -147s-54.666 -79.167 -93.999 -106.5s-88.333 -41 -147 -41c-60 0 -105.833 15.833 -137.5 47.5
s-47.5 72.5 -47.5 122.5c0 33.333 4 68.5 12 105.5s21.333 71 40 102s43.667 56.5 75 76.5s70.333 30 117 30c8.66699 0 18.834 -1 30.501 -3s23.5 -5.33301 35.5 -10s23.167 -11.167 33.5 -19.5s18.833 -18.5 25.5 -30.5zM273.998 350.998
c-20 0 -36.666 -5.16602 -49.999 -15.499s-24 -23.5 -32 -39.5s-13.667 -33.667 -17 -53s-5 -37.666 -5 -54.999c0 -5.33301 0.5 -11.666 1.5 -18.999s3.66699 -14.333 8 -21s10.666 -12.334 18.999 -17.001s19.833 -7 34.5 -7c17.333 0 32.5 4.66699 45.5 14
s23.667 21.666 32 36.999s14.5 32.5 18.5 51.5s6 38.5 6 58.5c0 19.333 -5.33301 35.166 -16 47.499s-25.667 18.5 -45 18.5z" />
    <glyph glyph-name="ntilde" unicode="&#xf1;" horiz-adv-x="540" 
d="M300 0l56.9971 293.001c5.33301 25.333 2.33301 44.333 -9 57s-26.666 19 -45.999 19c-20.667 0 -39 -6.33301 -55 -19s-26.667 -31.667 -32 -57l-57 -293h-140l97 496h140l-7 -37h2c15.333 11.333 33.333 21.166 54 29.499s40.334 12.5 59.001 12.5
c24.667 0 47 -3.83301 67 -11.5s36.333 -19 49 -34s21.334 -33.667 26.001 -56s4 -47.833 -2 -76.5l-63 -323h-140zM249.997 712.001c12.667 0 25.5 -2.66797 38.5 -8.00098s25.333 -11 37 -17l33 -16.5c10.333 -5 19.5 -7.5 27.5 -7.5c11.333 0 22.666 3.66699 33.999 11
s25.333 19.666 42 36.999l62 -38c-21.333 -41.333 -42.833 -70.166 -64.5 -86.499s-46.167 -24.5 -73.5 -24.5c-13.333 0 -26.333 2.5 -39 7.5s-24.667 10.333 -36 16l-32.5 16c-10.333 5 -20.166 7.5 -29.499 7.5c-11.333 0 -23.5 -3.5 -36.5 -10.5
s-28.5 -20.167 -46.5 -39.5l-59 39c22.667 42.667 45.667 72.334 69 89.001s48 25 74 25z" />
    <glyph glyph-name="ograve" unicode="&#xf2;" horiz-adv-x="516" 
d="M306 500c31.333 0 59.001 -4.83105 83.001 -14.498s44.333 -22.834 61 -39.501s29.167 -36.334 37.5 -59.001s12.5 -47 12.5 -73c0 -38 -4.5 -76 -13.5 -114s-24 -72.333 -45 -103s-49.333 -55.5 -85 -74.5s-79.834 -28.5 -132.501 -28.5
c-62.667 0 -109.667 15.833 -141 47.5s-47 72.5 -47 122.5c0 44 5.16699 86.333 15.5 127s26.333 76.5 48 107.5s49.5 55.667 83.5 74s75 27.5 123 27.5zM292.001 372.002c-22 0 -40.166 -6.33398 -54.499 -19.001s-25.833 -28.334 -34.5 -47.001s-14.667 -38.667 -18 -60
s-5 -40.666 -5 -57.999c0 -5.33301 0.5 -11.666 1.5 -18.999s3.66699 -14.333 8 -21s10.666 -12.334 18.999 -17.001s19.833 -7 34.5 -7c19.333 0 36 5.83301 50 17.5s25.5 26.834 34.5 45.501s15.5 39 19.5 61s6 43.667 6 65c0 19.333 -5.83301 34 -17.5 44
s-26.167 15 -43.5 15zM336.002 537.001l-175 188l124 45l121 -190z" />
    <glyph glyph-name="oacute" unicode="&#xf3;" horiz-adv-x="516" 
d="M306 500c31.333 0 59.001 -4.83105 83.001 -14.498s44.333 -22.834 61 -39.501s29.167 -36.334 37.5 -59.001s12.5 -47 12.5 -73c0 -38 -4.5 -76 -13.5 -114s-24 -72.333 -45 -103s-49.333 -55.5 -85 -74.5s-79.834 -28.5 -132.501 -28.5
c-62.667 0 -109.667 15.833 -141 47.5s-47 72.5 -47 122.5c0 44 5.16699 86.333 15.5 127s26.333 76.5 48 107.5s49.5 55.667 83.5 74s75 27.5 123 27.5zM292.001 372.002c-22 0 -40.166 -6.33398 -54.499 -19.001s-25.833 -28.334 -34.5 -47.001s-14.667 -38.667 -18 -60
s-5 -40.666 -5 -57.999c0 -5.33301 0.5 -11.666 1.5 -18.999s3.66699 -14.333 8 -21s10.666 -12.334 18.999 -17.001s19.833 -7 34.5 -7c19.333 0 36 5.83301 50 17.5s25.5 26.834 34.5 45.501s15.5 39 19.5 61s6 43.667 6 65c0 19.333 -5.83301 34 -17.5 44
s-26.167 15 -43.5 15zM271.002 567.001l124 203l125 -43l-172 -190z" />
    <glyph glyph-name="ocircumflex" unicode="&#xf4;" horiz-adv-x="516" 
d="M306 500c31.333 0 59.001 -4.83105 83.001 -14.498s44.333 -22.834 61 -39.501s29.167 -36.334 37.5 -59.001s12.5 -47 12.5 -73c0 -38 -4.5 -76 -13.5 -114s-24 -72.333 -45 -103s-49.333 -55.5 -85 -74.5s-79.834 -28.5 -132.501 -28.5
c-62.667 0 -109.667 15.833 -141 47.5s-47 72.5 -47 122.5c0 44 5.16699 86.333 15.5 127s26.333 76.5 48 107.5s49.5 55.667 83.5 74s75 27.5 123 27.5zM292.001 372.002c-22 0 -40.166 -6.33398 -54.499 -19.001s-25.833 -28.334 -34.5 -47.001s-14.667 -38.667 -18 -60
s-5 -40.666 -5 -57.999c0 -5.33301 0.5 -11.666 1.5 -18.999s3.66699 -14.333 8 -21s10.666 -12.334 18.999 -17.001s19.833 -7 34.5 -7c19.333 0 36 5.83301 50 17.5s25.5 26.834 34.5 45.501s15.5 39 19.5 61s6 43.667 6 65c0 19.333 -5.83301 34 -17.5 44
s-26.167 15 -43.5 15zM338.002 629.001l-165 -103l-44 48l177 155h103l118 -155l-65 -49z" />
    <glyph glyph-name="otilde" unicode="&#xf5;" horiz-adv-x="516" 
d="M306 500c31.333 0 59.001 -4.83105 83.001 -14.498s44.333 -22.834 61 -39.501s29.167 -36.334 37.5 -59.001s12.5 -47 12.5 -73c0 -38 -4.5 -76 -13.5 -114s-24 -72.333 -45 -103s-49.333 -55.5 -85 -74.5s-79.834 -28.5 -132.501 -28.5
c-62.667 0 -109.667 15.833 -141 47.5s-47 72.5 -47 122.5c0 44 5.16699 86.333 15.5 127s26.333 76.5 48 107.5s49.5 55.667 83.5 74s75 27.5 123 27.5zM292.001 372.002c-22 0 -40.166 -6.33398 -54.499 -19.001s-25.833 -28.334 -34.5 -47.001s-14.667 -38.667 -18 -60
s-5 -40.666 -5 -57.999c0 -5.33301 0.5 -11.666 1.5 -18.999s3.66699 -14.333 8 -21s10.666 -12.334 18.999 -17.001s19.833 -7 34.5 -7c19.333 0 36 5.83301 50 17.5s25.5 26.834 34.5 45.501s15.5 39 19.5 61s6 43.667 6 65c0 19.333 -5.83301 34 -17.5 44
s-26.167 15 -43.5 15zM281.002 717.001c12.667 0 25.5 -2.66797 38.5 -8.00098s25.333 -11 37 -17l33 -16.5c10.333 -5 19.5 -7.5 27.5 -7.5c11.333 0 22.666 3.66699 33.999 11s25.333 19.666 42 36.999l62 -38c-21.333 -41.333 -42.833 -70.166 -64.5 -86.499
s-46.167 -24.5 -73.5 -24.5c-13.333 0 -26.333 2.5 -39 7.5s-24.667 10.333 -36 16l-32.5 16c-10.333 5 -20.166 7.5 -29.499 7.5c-11.333 0 -23.5 -3.5 -36.5 -10.5s-28.5 -20.167 -46.5 -39.5l-59 39c22.667 42.667 45.667 72.334 69 89.001s48 25 74 25z" />
    <glyph glyph-name="odieresis" unicode="&#xf6;" horiz-adv-x="516" 
d="M306 500c31.333 0 59.001 -4.83105 83.001 -14.498s44.333 -22.834 61 -39.501s29.167 -36.334 37.5 -59.001s12.5 -47 12.5 -73c0 -38 -4.5 -76 -13.5 -114s-24 -72.333 -45 -103s-49.333 -55.5 -85 -74.5s-79.834 -28.5 -132.501 -28.5
c-62.667 0 -109.667 15.833 -141 47.5s-47 72.5 -47 122.5c0 44 5.16699 86.333 15.5 127s26.333 76.5 48 107.5s49.5 55.667 83.5 74s75 27.5 123 27.5zM292.001 372.002c-22 0 -40.166 -6.33398 -54.499 -19.001s-25.833 -28.334 -34.5 -47.001s-14.667 -38.667 -18 -60
s-5 -40.666 -5 -57.999c0 -5.33301 0.5 -11.666 1.5 -18.999s3.66699 -14.333 8 -21s10.666 -12.334 18.999 -17.001s19.833 -7 34.5 -7c19.333 0 36 5.83301 50 17.5s25.5 26.834 34.5 45.501s15.5 39 19.5 61s6 43.667 6 65c0 19.333 -5.83301 34 -17.5 44
s-26.167 15 -43.5 15zM359.002 572.001l25 130h146l-25 -130h-146zM145.002 572.001l25 130h145l-25 -130h-145z" />
    <glyph glyph-name="divide" unicode="&#xf7;" horiz-adv-x="550" 
d="M317 422c-21.333 0 -39 6.5 -53 19.5s-21 29.167 -21 48.5c0 13.333 3 26 9 38s14 22.5 24 31.5s21.333 16.167 34 21.5s25.667 8 39 8c22 0 40 -6.5 54 -19.5s21 -29.5 21 -49.5c0 -13.333 -3 -25.833 -9 -37.5s-14 -22 -24 -31s-21.5 -16.167 -34.5 -21.5
s-26.167 -8 -39.5 -8zM24 240l23 116h514l-23 -116h-514zM234 -3c-21.333 0 -39 6.5 -53 19.5s-21 29.5 -21 49.5c0 13.333 3 25.833 9 37.5s14 22 24 31s21.333 16.167 34 21.5s25.667 8 39 8c22 0 40 -6.5 54 -19.5s21 -29.167 21 -48.5c0 -13.333 -3 -26 -9 -38
s-14 -22.5 -24 -31.5s-21.5 -16.167 -34.5 -21.5s-26.167 -8 -39.5 -8z" />
    <glyph glyph-name="oslash" unicode="&#xf8;" horiz-adv-x="516" 
d="M306 500c27.333 0 51.833 -3.66797 73.5 -11.001s40.5 -17.666 56.5 -30.999l42 45l26 -27l-42 -45c25.333 -32.667 38 -71.667 38 -117c0 -38 -4.5 -76 -13.5 -114s-24 -72.333 -45 -103s-49.333 -55.5 -85 -74.5s-79.834 -28.5 -132.501 -28.5
c-28 0 -52.667 3.33301 -74 10s-39.666 15.667 -54.999 27l-33 -36l-28 26l34 37c-21.333 28.667 -32 64 -32 106c0 44 5.16699 86.333 15.5 127s26.333 76.5 48 107.5s49.5 55.667 83.5 74s75 27.5 123 27.5zM292 371.999c-22 0 -40.167 -6.33301 -54.5 -19
s-25.833 -28.334 -34.5 -47.001s-14.667 -38.667 -18 -60s-5 -40.666 -5 -57.999v-9l159 173c-11.333 13.333 -27 20 -47 20zM243 123.999c19.333 0 35.834 5.83301 49.501 17.5s25 26.667 34 45s15.667 38.5 20 60.5s6.5 43.333 6.5 64l-158 -171
c5.33301 -5.33301 11.666 -9.33301 18.999 -12s17 -4 29 -4z" />
    <glyph glyph-name="ugrave" unicode="&#xf9;" horiz-adv-x="540" 
d="M256 496l-57 -293c-5.33301 -25.333 -2.33301 -44.333 9 -57s26.666 -19 45.999 -19c20.667 0 39 6.33301 55 19s26.667 31.667 32 57l57 293h140l-96 -496h-140l11 45h-2c-15.333 -14.667 -34.166 -26.667 -56.499 -36s-42.5 -14 -60.5 -14
c-22.667 0 -43.834 3.83301 -63.501 11.5s-36.167 19 -49.5 34s-22.666 33.5 -27.999 55.5s-5.33301 47.667 0 77l63 323h140zM330 537l-175 188l124 45l121 -190z" />
    <glyph glyph-name="uacute" unicode="&#xfa;" horiz-adv-x="540" 
d="M256 496l-57 -293c-5.33301 -25.333 -2.33301 -44.333 9 -57s26.666 -19 45.999 -19c20.667 0 39 6.33301 55 19s26.667 31.667 32 57l57 293h140l-96 -496h-140l11 45h-2c-15.333 -14.667 -34.166 -26.667 -56.499 -36s-42.5 -14 -60.5 -14
c-22.667 0 -43.834 3.83301 -63.501 11.5s-36.167 19 -49.5 34s-22.666 33.5 -27.999 55.5s-5.33301 47.667 0 77l63 323h140zM258 567l124 203l125 -43l-172 -190z" />
    <glyph glyph-name="ucircumflex" unicode="&#xfb;" horiz-adv-x="540" 
d="M256 496l-57 -293c-5.33301 -25.333 -2.33301 -44.333 9 -57s26.666 -19 45.999 -19c20.667 0 39 6.33301 55 19s26.667 31.667 32 57l57 293h140l-96 -496h-140l11 45h-2c-15.333 -14.667 -34.166 -26.667 -56.499 -36s-42.5 -14 -60.5 -14
c-22.667 0 -43.834 3.83301 -63.501 11.5s-36.167 19 -49.5 34s-22.666 33.5 -27.999 55.5s-5.33301 47.667 0 77l63 323h140zM348 629l-165 -103l-44 48l177 155h103l118 -155l-65 -49z" />
    <glyph glyph-name="udieresis" unicode="&#xfc;" horiz-adv-x="540" 
d="M256 496l-57 -293c-5.33301 -25.333 -2.33301 -44.333 9 -57s26.666 -19 45.999 -19c20.667 0 39 6.33301 55 19s26.667 31.667 32 57l57 293h140l-96 -496h-140l11 45h-2c-15.333 -14.667 -34.166 -26.667 -56.499 -36s-42.5 -14 -60.5 -14
c-22.667 0 -43.834 3.83301 -63.501 11.5s-36.167 19 -49.5 34s-22.666 33.5 -27.999 55.5s-5.33301 47.667 0 77l63 323h140zM365 569l25 130h146l-25 -130h-146zM151 569l25 130h145l-25 -130h-145z" />
    <glyph glyph-name="yacute" unicode="&#xfd;" horiz-adv-x="476" 
d="M516 495l-113.999 -260.5c-36.667 -81 -77.334 -157.167 -122.001 -228.5c-17.333 -27.333 -35.833 -53.833 -55.5 -79.5s-42.167 -48.5 -67.5 -68.5s-53.833 -35.833 -85.5 -47.5s-68.167 -17.5 -109.5 -17.5l-5 114c48.667 6 86.834 19.5 114.501 40.5
s50.5 49.5 68.5 85.5l-92 462h150l21 -125c1.33301 -8 2.83301 -19.833 4.5 -35.5s3.16699 -33 4.5 -52s2.16602 -38.5 2.49902 -58.5s-0.166992 -38.333 -1.5 -55h4c23.333 38.667 45.833 86.5 67.5 143.5s43.5 117.5 65.5 181.5zM228.001 567l124 203l125 -43l-172 -190z
" />
    <glyph glyph-name="thorn" unicode="&#xfe;" horiz-adv-x="533" 
d="M306 727l-52.001 -267l3 -1c17.333 15.333 34.666 25.833 51.999 31.5s35 8.5 53 8.5c30 0 54.667 -4.5 74 -13.5s34.833 -20.833 46.5 -35.5s19.667 -31.667 24 -51s6.5 -39.333 6.5 -60c0 -13.333 -1 -31.166 -3 -53.499s-6.16699 -46.333 -12.5 -72
s-15.166 -51.5 -26.499 -77.5s-26.5 -49.5 -45.5 -70.5s-42.167 -38.167 -69.5 -51.5s-59.666 -20 -96.999 -20c-16.667 0 -32.667 4.16699 -48 12.5s-27.333 19.166 -36 32.499l-3 -1l-47 -240h-142l181 929h142zM307.999 369c-23.333 0 -41.832 -8 -55.499 -24
s-24 -34.333 -31 -55s-11.333 -40.5 -13 -59.5s-2.5 -31.833 -2.5 -38.5c0 -18 3.66699 -33.833 11 -47.5s22 -20.5 44 -20.5s39.833 7.33301 53.5 22s24.167 32 31.5 52s12.166 40 14.499 60s3.5 35.667 3.5 47c0 17.333 -3.66699 32.333 -11 45s-22.333 19 -45 19z" />
    <glyph glyph-name="ydieresis" unicode="&#xff;" horiz-adv-x="476" 
d="M516 495l-113.999 -260.5c-36.667 -81 -77.334 -157.167 -122.001 -228.5c-17.333 -27.333 -35.833 -53.833 -55.5 -79.5s-42.167 -48.5 -67.5 -68.5s-53.833 -35.833 -85.5 -47.5s-68.167 -17.5 -109.5 -17.5l-5 114c48.667 6 86.834 19.5 114.501 40.5
s50.5 49.5 68.5 85.5l-92 462h150l21 -125c1.33301 -8 2.83301 -19.833 4.5 -35.5s3.16699 -33 4.5 -52s2.16602 -38.5 2.49902 -58.5s-0.166992 -38.333 -1.5 -55h4c23.333 38.667 45.833 86.5 67.5 143.5s43.5 117.5 65.5 181.5zM319.001 569l25 130h146l-25 -130h-146z
M105.001 569l25 130h145l-25 -130h-145z" />
    <glyph glyph-name="Amacron" unicode="&#x100;" horiz-adv-x="646" 
d="M449 0l-22 149h-224l-83 -149h-162l392 696h131l125 -696h-157zM397 365l-14 138h-3l-65 -136l-43 -89h136zM271 758l23 118h333l-23 -118h-333z" />
    <glyph glyph-name="amacron" unicode="&#x101;" horiz-adv-x="523" 
d="M274 500c15.333 0 32.333 -3 51 -9s34.667 -16.667 48 -32l2 1l7 35h140l-96 -495h-140l8 39l-3 1c-6 -6 -13.333 -11.833 -22 -17.5s-18 -10.5 -28 -14.5s-20 -7.33301 -30 -10s-19 -4 -27 -4c-30 0 -54.5 4.5 -73.5 13.5s-33.667 21 -44 36s-17.333 32 -21 51
s-5.5 38.5 -5.5 58.5c0 38 3.83301 77.333 11.5 118s20.667 78 39 112s42.5 62 72.5 84s67 33 111 33zM184 183c0 -15.333 4 -28.834 12 -40.501s22.667 -17.5 44 -17.5c18.667 0 34.5 6.5 47.5 19.5s23.5 28.667 31.5 47s13.667 37.333 17 57s5 36.167 5 49.5
c0 9.33301 -0.666992 18.333 -2 27s-3.83301 16.167 -7.5 22.5s-9 11.333 -16 15s-16.167 5.5 -27.5 5.5c-20 0 -36.667 -6.66699 -50 -20s-24 -29.666 -32 -48.999s-13.667 -39.5 -17 -60.5s-5 -39.5 -5 -55.5zM164 577.999l23 118h333l-23 -118h-333z" />
    <glyph glyph-name="Abreve" unicode="&#x102;" horiz-adv-x="646" 
d="M449 0l-22 149h-224l-83 -149h-162l392 696h131l125 -696h-157zM397 365l-14 138h-3l-65 -136l-43 -89h136zM427 731c-28.667 0 -52.166 5.5 -70.499 16.5s-32.5 24.667 -42.5 41s-16.5 33.833 -19.5 52.5s-3.83301 35.667 -2.5 51h100
c-1.33301 -6.66699 -1.66602 -13.834 -0.999023 -21.501s2.66699 -15 6 -22s8.16602 -12.833 14.499 -17.5s14.166 -7 23.499 -7s18 2.33301 26 7s15 10.5 21 17.5s10.833 14.333 14.5 22s6.16699 14.834 7.5 21.501h100c-4.66699 -15.333 -11.167 -32.333 -19.5 -51
s-19.333 -36.167 -33 -52.5s-30.667 -30 -51 -41s-44.833 -16.5 -73.5 -16.5z" />
    <glyph glyph-name="abreve" unicode="&#x103;" horiz-adv-x="523" 
d="M274 500c15.333 0 32.333 -3 51 -9s34.667 -16.667 48 -32l2 1l7 35h140l-96 -495h-140l8 39l-3 1c-6 -6 -13.333 -11.833 -22 -17.5s-18 -10.5 -28 -14.5s-20 -7.33301 -30 -10s-19 -4 -27 -4c-30 0 -54.5 4.5 -73.5 13.5s-33.667 21 -44 36s-17.333 32 -21 51
s-5.5 38.5 -5.5 58.5c0 38 3.83301 77.333 11.5 118s20.667 78 39 112s42.5 62 72.5 84s67 33 111 33zM184 183c0 -15.333 4 -28.834 12 -40.501s22.667 -17.5 44 -17.5c18.667 0 34.5 6.5 47.5 19.5s23.5 28.667 31.5 47s13.667 37.333 17 57s5 36.167 5 49.5
c0 9.33301 -0.666992 18.333 -2 27s-3.83301 16.167 -7.5 22.5s-9 11.333 -16 15s-16.167 5.5 -27.5 5.5c-20 0 -36.667 -6.66699 -50 -20s-24 -29.666 -32 -48.999s-13.667 -39.5 -17 -60.5s-5 -39.5 -5 -55.5zM343 560.999c-28.667 0 -51.999 5.49902 -69.999 16.499
s-31.833 24.667 -41.5 41s-16 33.833 -19 52.5s-3.83301 35.667 -2.5 51h100c-1.33301 -6.66699 -1.66602 -13.834 -0.999023 -21.501s2.66699 -15 6 -22s8.16602 -12.833 14.499 -17.5s14.166 -7 23.499 -7s18 2.33301 26 7s15 10.5 21 17.5s10.833 14.333 14.5 22
s6.16699 14.834 7.5 21.501h100c-3.33301 -15.333 -9 -32.166 -17 -50.499s-19.333 -35.833 -34 -52.5s-32.5 -30.5 -53.5 -41.5s-45.833 -16.5 -74.5 -16.5z" />
    <glyph glyph-name="Aogonek" unicode="&#x104;" horiz-adv-x="646" 
d="M387 -104c2.66699 14.667 8.50098 30 17.501 46s23.833 35.333 44.5 58l-22 149h-224l-83 -149h-162l392 696h131l125 -696h-64c-19.333 -21.333 -34 -39 -44 -53s-16 -26 -18 -36c-2.66699 -18 6.33301 -27 27 -27c6 0 14.333 0.833008 25 2.5s24 6.16699 40 13.5
l17 -74c-19.333 -11.333 -39 -18.833 -59 -22.5s-38.667 -5.5 -56 -5.5c-32 0 -55.833 9.66699 -71.5 29s-20.834 42.333 -15.501 69zM397.001 365l-14 138h-3l-65 -136l-43 -89h136z" />
    <glyph glyph-name="aogonek" unicode="&#x105;" horiz-adv-x="523" 
d="M223 -104c2.66699 14.667 8.50098 30.168 17.501 46.501s24.167 36.166 45.5 59.499l8 37l-3 1c-6 -6 -13.333 -11.833 -22 -17.5s-18 -10.5 -28 -14.5s-20 -7.33301 -30 -10s-19 -4 -27 -4c-30 0 -54.5 4.5 -73.5 13.5s-33.667 21 -44 36s-17.333 32 -21 51
s-5.5 38.5 -5.5 58.5c0 38 3.83301 77.333 11.5 118s20.667 78 39 112s42.5 62 72.5 84s67 33 111 33c15.333 0 32.333 -3 51 -9s34.667 -16.667 48 -32l2 1l7 35h140l-96 -495h-48c-19.333 -21.333 -34 -39 -44 -53s-16 -26 -18 -36c-2.66699 -18 6.33301 -27 27 -27
c6 0 14.333 0.833008 25 2.5s24 6.16699 40 13.5l17 -74c-19.333 -11.333 -39 -18.833 -59 -22.5s-38.667 -5.5 -56 -5.5c-32 0 -55.833 9.66699 -71.5 29s-20.834 42.333 -15.501 69zM184.001 183.001c0 -15.333 4 -28.834 12 -40.501s22.667 -17.5 44 -17.5
c18.667 0 34.5 6.5 47.5 19.5s23.5 28.667 31.5 47s13.667 37.333 17 57s5 36.167 5 49.5c0 9.33301 -0.666992 18.333 -2 27s-3.83301 16.167 -7.5 22.5s-9 11.333 -16 15s-16.167 5.5 -27.5 5.5c-20 0 -36.667 -6.66699 -50 -20s-24 -29.666 -32 -48.999
s-13.667 -39.5 -17 -60.5s-5 -39.5 -5 -55.5z" />
    <glyph glyph-name="Cacute" unicode="&#x106;" horiz-adv-x="600" 
d="M572 167c-25.333 -54 -62.3252 -96.332 -110.992 -126.999s-108.334 -46 -179.001 -46c-45.333 0 -83.833 7.33301 -115.5 22s-56.834 34.5 -75.501 59.5s-31 54 -37 87s-5.33301 67.5 2 103.5l32 164c6.66699 36 17.667 70.333 33 103s35.333 61.5 60 86.5
s54.667 44.833 90 59.5s76.666 22 123.999 22c66 0 117.5 -15.5 154.5 -46.5s63.167 -73.833 78.5 -128.5l-142 -55c-2 10 -5.66699 20.333 -11 31s-12.333 20.167 -21 28.5s-19 15.333 -31 21s-26 8.5 -42 8.5c-22 0 -40.833 -3.33301 -56.5 -10
s-28.834 -15.5 -39.501 -26.5s-19.167 -23.5 -25.5 -37.5s-10.833 -28 -13.5 -42l-37 -189c-3.33301 -15.333 -3.83301 -30 -1.5 -44s7.16602 -26.333 14.499 -37s17.666 -19.334 30.999 -26.001s29.666 -10 48.999 -10c31.333 0 57.666 7.83301 78.999 23.5
s37.333 36.167 48 61.5zM337.008 783.001l194 139l98 -89l-233 -107z" />
    <glyph glyph-name="cacute" unicode="&#x107;" horiz-adv-x="440" 
d="M409 68c-32 -24.667 -63.335 -43.001 -94.002 -55.001s-63 -18 -97 -18c-25.333 0 -49.5 3.83301 -72.5 11.5s-43.167 19.667 -60.5 36s-31.166 37.166 -41.499 62.499s-15.5 56 -15.5 92c0 52.667 7.83301 98.167 23.5 136.5s36 69.833 61 94.5s53.5 42.834 85.5 54.501
s64.667 17.5 98 17.5s64.5 -6.16699 93.5 -18.5s54.167 -30.166 75.5 -53.499l-100 -97c-11.333 14.667 -23.333 25.167 -36 31.5s-25 9.5 -37 9.5c-15.333 0 -30.166 -3.16699 -44.499 -9.5s-27 -16.166 -38 -29.499s-19.833 -30.833 -26.5 -52.5s-10 -47.5 -10 -77.5
c0 -28 6.16699 -48.167 18.5 -60.5s31.166 -18.5 56.499 -18.5c12.667 0 25.834 3.16699 39.501 9.5s29.5 17.166 47.5 32.499zM196.998 566.999l124 203l125 -43l-172 -190z" />
    <glyph glyph-name="Ccircumflex" unicode="&#x108;" horiz-adv-x="600" 
d="M572 167c-25.333 -54 -62.3252 -96.332 -110.992 -126.999s-108.334 -46 -179.001 -46c-45.333 0 -83.833 7.33301 -115.5 22s-56.834 34.5 -75.501 59.5s-31 54 -37 87s-5.33301 67.5 2 103.5l32 164c6.66699 36 17.667 70.333 33 103s35.333 61.5 60 86.5
s54.667 44.833 90 59.5s76.666 22 123.999 22c66 0 117.5 -15.5 154.5 -46.5s63.167 -73.833 78.5 -128.5l-142 -55c-2 10 -5.66699 20.333 -11 31s-12.333 20.167 -21 28.5s-19 15.333 -31 21s-26 8.5 -42 8.5c-22 0 -40.833 -3.33301 -56.5 -10
s-28.834 -15.5 -39.501 -26.5s-19.167 -23.5 -25.5 -37.5s-10.833 -28 -13.5 -42l-37 -189c-3.33301 -15.333 -3.83301 -30 -1.5 -44s7.16602 -26.333 14.499 -37s17.666 -19.334 30.999 -26.001s29.666 -10 48.999 -10c31.333 0 57.666 7.83301 78.999 23.5
s37.333 36.167 48 61.5zM432.008 805.001l-165 -78l-37 58l172 120h98l128 -120l-62 -59z" />
    <glyph glyph-name="ccircumflex" unicode="&#x109;" horiz-adv-x="440" 
d="M409 68c-32 -24.667 -63.335 -43.001 -94.002 -55.001s-63 -18 -97 -18c-25.333 0 -49.5 3.83301 -72.5 11.5s-43.167 19.667 -60.5 36s-31.166 37.166 -41.499 62.499s-15.5 56 -15.5 92c0 52.667 7.83301 98.167 23.5 136.5s36 69.833 61 94.5s53.5 42.834 85.5 54.501
s64.667 17.5 98 17.5s64.5 -6.16699 93.5 -18.5s54.167 -30.166 75.5 -53.499l-100 -97c-11.333 14.667 -23.333 25.167 -36 31.5s-25 9.5 -37 9.5c-15.333 0 -30.166 -3.16699 -44.499 -9.5s-27 -16.166 -38 -29.499s-19.833 -30.833 -26.5 -52.5s-10 -47.5 -10 -77.5
c0 -28 6.16699 -48.167 18.5 -60.5s31.166 -18.5 56.499 -18.5c12.667 0 25.834 3.16699 39.501 9.5s29.5 17.166 47.5 32.499zM317.998 628.999l-165 -103l-44 48l177 155h103l118 -155l-65 -49z" />
    <glyph glyph-name="Cdotaccent" unicode="&#x10a;" horiz-adv-x="600" 
d="M572 167c-25.333 -54 -62.3252 -96.332 -110.992 -126.999s-108.334 -46 -179.001 -46c-45.333 0 -83.833 7.33301 -115.5 22s-56.834 34.5 -75.501 59.5s-31 54 -37 87s-5.33301 67.5 2 103.5l32 164c6.66699 36 17.667 70.333 33 103s35.333 61.5 60 86.5
s54.667 44.833 90 59.5s76.666 22 123.999 22c66 0 117.5 -15.5 154.5 -46.5s63.167 -73.833 78.5 -128.5l-142 -55c-2 10 -5.66699 20.333 -11 31s-12.333 20.167 -21 28.5s-19 15.333 -31 21s-26 8.5 -42 8.5c-22 0 -40.833 -3.33301 -56.5 -10
s-28.834 -15.5 -39.501 -26.5s-19.167 -23.5 -25.5 -37.5s-10.833 -28 -13.5 -42l-37 -189c-3.33301 -15.333 -3.83301 -30 -1.5 -44s7.16602 -26.333 14.499 -37s17.666 -19.334 30.999 -26.001s29.666 -10 48.999 -10c31.333 0 57.666 7.83301 78.999 23.5
s37.333 36.167 48 61.5zM330.008 746.001l25 130h148l-25 -130h-148z" />
    <glyph glyph-name="cdotaccent" unicode="&#x10b;" horiz-adv-x="440" 
d="M409 68c-32 -24.667 -63.335 -43.001 -94.002 -55.001s-63 -18 -97 -18c-25.333 0 -49.5 3.83301 -72.5 11.5s-43.167 19.667 -60.5 36s-31.166 37.166 -41.499 62.499s-15.5 56 -15.5 92c0 52.667 7.83301 98.167 23.5 136.5s36 69.833 61 94.5s53.5 42.834 85.5 54.501
s64.667 17.5 98 17.5s64.5 -6.16699 93.5 -18.5s54.167 -30.166 75.5 -53.499l-100 -97c-11.333 14.667 -23.333 25.167 -36 31.5s-25 9.5 -37 9.5c-15.333 0 -30.166 -3.16699 -44.499 -9.5s-27 -16.166 -38 -29.499s-19.833 -30.833 -26.5 -52.5s-10 -47.5 -10 -77.5
c0 -28 6.16699 -48.167 18.5 -60.5s31.166 -18.5 56.499 -18.5c12.667 0 25.834 3.16699 39.501 9.5s29.5 17.166 47.5 32.499zM222.998 565.999l25 130h148l-25 -130h-148z" />
    <glyph glyph-name="Ccaron" unicode="&#x10c;" horiz-adv-x="600" 
d="M572 167c-25.333 -54 -62.3252 -96.332 -110.992 -126.999s-108.334 -46 -179.001 -46c-45.333 0 -83.833 7.33301 -115.5 22s-56.834 34.5 -75.501 59.5s-31 54 -37 87s-5.33301 67.5 2 103.5l32 164c6.66699 36 17.667 70.333 33 103s35.333 61.5 60 86.5
s54.667 44.833 90 59.5s76.666 22 123.999 22c66 0 117.5 -15.5 154.5 -46.5s63.167 -73.833 78.5 -128.5l-142 -55c-2 10 -5.66699 20.333 -11 31s-12.333 20.167 -21 28.5s-19 15.333 -31 21s-26 8.5 -42 8.5c-22 0 -40.833 -3.33301 -56.5 -10
s-28.834 -15.5 -39.501 -26.5s-19.167 -23.5 -25.5 -37.5s-10.833 -28 -13.5 -42l-37 -189c-3.33301 -15.333 -3.83301 -30 -1.5 -44s7.16602 -26.333 14.499 -37s17.666 -19.334 30.999 -26.001s29.666 -10 48.999 -10c31.333 0 57.666 7.83301 78.999 23.5
s37.333 36.167 48 61.5zM597.008 908.001l40 -59l-175 -120h-98l-125 120l59 58l135 -78z" />
    <glyph glyph-name="ccaron" unicode="&#x10d;" horiz-adv-x="440" 
d="M409 68c-32 -24.667 -63.335 -43.001 -94.002 -55.001s-63 -18 -97 -18c-25.333 0 -49.5 3.83301 -72.5 11.5s-43.167 19.667 -60.5 36s-31.166 37.166 -41.499 62.499s-15.5 56 -15.5 92c0 52.667 7.83301 98.167 23.5 136.5s36 69.833 61 94.5s53.5 42.834 85.5 54.501
s64.667 17.5 98 17.5s64.5 -6.16699 93.5 -18.5s54.167 -30.166 75.5 -53.499l-100 -97c-11.333 14.667 -23.333 25.167 -36 31.5s-25 9.5 -37 9.5c-15.333 0 -30.166 -3.16699 -44.499 -9.5s-27 -16.166 -38 -29.499s-19.833 -30.833 -26.5 -52.5s-10 -47.5 -10 -77.5
c0 -28 6.16699 -48.167 18.5 -60.5s31.166 -18.5 56.499 -18.5c12.667 0 25.834 3.16699 39.501 9.5s29.5 17.166 47.5 32.499zM478.998 732.999l47.001 -49l-178 -155h-103l-117 155l62 48c21.333 -16.667 41.666 -33.667 60.999 -51l60 -52z" />
    <glyph glyph-name="Dcaron" unicode="&#x10e;" horiz-adv-x="657" 
d="M210 138h101c26 0 48.167 3.5 66.5 10.5s33.833 17 46.5 30s23 28.667 31 47s14 38.833 18 61.5l25 127c9.33301 48 5.83301 84.833 -10.5 110.5s-48.833 38.5 -97.5 38.5h-98zM437 696c29.333 0 57.333 -3.33398 84 -10.001s50.167 -17.334 70.5 -32.001
s36.5 -33.667 48.5 -57s18 -51.333 18 -84c0 -30 -2.66699 -64.167 -8 -102.5s-12 -75.666 -20 -111.999s-16.833 -69.666 -26.5 -99.999s-18.5 -52.5 -26.5 -66.5c-16 -26.667 -33.333 -48.5 -52 -65.5s-38.5 -30.5 -59.5 -40.5s-43 -16.833 -66 -20.5
s-46.5 -5.5 -70.5 -5.5h-299l135 696h272zM555 907.999l40 -59l-175 -120h-98l-125 120l59 58l135 -78z" />
    <glyph glyph-name="dcaron" unicode="&#x10f;" horiz-adv-x="679" 
d="M583 469l56 108h-33l29 151h154l-28 -143l-111 -116h-67zM293 -1l7 35.002l-2 2c-17.333 -15.333 -34.666 -26 -51.999 -32s-35 -9 -53 -9c-29.333 0 -53.333 4.66699 -72 14s-33.334 21.666 -44.001 36.999s-18.167 33.166 -22.5 53.499s-6.5 41.166 -6.5 62.499
c0 37.333 3.83301 76 11.5 116s20.5 76.5 38.5 109.5s41.5 60 70.5 81s64.833 31.5 107.5 31.5c16.667 0 34 -3.16699 52 -9.5s35 -18.166 51 -35.499l3 1l53 271h139l-141 -728h-140zM348 302.002c0 17.333 -3.50195 32.665 -10.502 45.998s-21.167 20 -42.5 20
c-19.333 0 -35.666 -6.16699 -48.999 -18.5s-24 -27.5 -32 -45.5s-13.667 -37.333 -17 -58s-5 -39 -5 -55c0 -6.66699 0.833008 -13.667 2.5 -21s4.66699 -14.166 9 -20.499s10 -11.666 17 -15.999s16.167 -6.5 27.5 -6.5c19.333 0 35.333 6.5 48 19.5
s22.834 28.667 30.501 47s13.167 37.5 16.5 57.5s5 37 5 51z" />
    <glyph glyph-name="Dcroat" unicode="&#x110;" horiz-adv-x="657" 
d="M44 406l65 -0.000976562l56 290h272c29.333 0 57.333 -3.33301 84 -10s50.167 -17.334 70.5 -32.001s36.5 -33.667 48.5 -57s18 -51.333 18 -84c0 -30 -2.66699 -64.167 -8 -102.5s-12 -75.666 -20 -111.999s-16.833 -69.666 -26.5 -99.999s-18.5 -52.5 -26.5 -66.5
c-16 -26.667 -33.333 -48.5 -52 -65.5s-38.5 -30.5 -59.5 -40.5s-43 -16.833 -66 -20.5s-46.5 -5.5 -70.5 -5.5h-299l58 299h-64zM261 405.999h103l-21 -107h-102l-31 -161h101c26 0 48.167 3.5 66.5 10.5s33.833 17 46.5 30s23 28.667 31 47s14 38.833 18 61.5l25 127
c9.33301 48 5.83301 84.833 -10.5 110.5s-48.833 38.5 -97.5 38.5h-98z" />
    <glyph glyph-name="dcroat" unicode="&#x111;" horiz-adv-x="523" 
d="M310 631l106 0.00195312l19 96h139l-19 -96h62l-17 -87h-62l-105 -545h-140l7 35l-2 2c-17.333 -15.333 -34.666 -26 -51.999 -32s-35 -9 -53 -9c-29.333 0 -53.333 4.66699 -72 14s-33.334 21.666 -44.001 36.999s-18.167 33.166 -22.5 53.499s-6.5 41.166 -6.5 62.499
c0 37.333 3.83301 76 11.5 116s20.5 76.5 38.5 109.5s41.5 60 70.5 81s64.833 31.5 107.5 31.5c16.667 0 34 -3.16699 52 -9.5s35 -18.166 51 -35.499l3 1l17 88h-106zM348 302.002c0 17.333 -3.50195 32.665 -10.502 45.998s-21.167 20 -42.5 20
c-19.333 0 -35.666 -6.16699 -48.999 -18.5s-24 -27.5 -32 -45.5s-13.667 -37.333 -17 -58s-5 -39 -5 -55c0 -6.66699 0.833008 -13.667 2.5 -21s4.66699 -14.166 9 -20.499s10 -11.666 17 -15.999s16.167 -6.5 27.5 -6.5c19.333 0 35.333 6.5 48 19.5
s22.834 28.667 30.501 47s13.167 37.5 16.5 57.5s5 37 5 51z" />
    <glyph glyph-name="Emacron" unicode="&#x112;" horiz-adv-x="573" 
d="M29 0l135 696h470l-26 -135h-319l-29 -144h283l-26 -133h-283l-28 -146h335l-26 -138h-486zM244 758l23 118h333l-23 -118h-333z" />
    <glyph glyph-name="emacron" unicode="&#x113;" horiz-adv-x="505" 
d="M298 501c35.333 0 64.999 -3.99902 88.999 -11.999s43.5 -18.5 58.5 -31.5s25.667 -27.833 32 -44.5s9.5 -33.334 9.5 -50.001c0 -33.333 -8 -60.833 -24 -82.5s-36.5 -39 -61.5 -52s-53 -22.167 -84 -27.5s-61.5 -8 -91.5 -8h-21c-6.66699 0 -13.334 0.333008 -20.001 1
c-0.666992 -3.33301 -1 -6.16602 -1 -8.49902v-7.5c0 -11.333 2 -20.666 6 -27.999s9.33301 -13 16 -17s14.5 -6.83301 23.5 -8.5s18.833 -2.5 29.5 -2.5c12.667 0 28.834 2.5 48.501 7.5s42.5 15.167 68.5 30.5l60 -105c-22 -14 -43 -25 -63 -33s-39 -14 -57 -18
s-35.167 -6.5 -51.5 -7.5s-32.166 -1.5 -47.499 -1.5c-23.333 0 -46 2.83301 -68 8.5s-41.333 15.5 -58 29.5s-30 32.667 -40 56s-15 52.666 -15 87.999c0 40.667 4.66699 80.5 14 119.5s24.5 73.667 45.5 104s48 54.666 81 72.999s73.5 27.5 121.5 27.5zM291.999 373.001
c-18 0 -34.833 -6.66504 -50.5 -19.998s-27.5 -31 -35.5 -53c6 -0.666992 11.667 -1 17 -1h16c19.333 0 35.5 1.33301 48.5 4s23.333 6.16699 31 10.5s13 9.16602 16 14.499s4.5 10.333 4.5 15c0 9.33301 -3.5 16.666 -10.5 21.999s-19.167 8 -36.5 8zM163.999 578.003
l23 118h333l-23 -118h-333z" />
    <glyph glyph-name="Ebreve" unicode="&#x114;" horiz-adv-x="573" 
d="M29 0l135 696h470l-26 -135h-319l-29 -144h283l-26 -133h-283l-28 -146h335l-26 -138h-486zM410 731c-28.667 0 -52.166 5.5 -70.499 16.5s-32.5 24.667 -42.5 41s-16.5 33.833 -19.5 52.5s-3.83301 35.667 -2.5 51h100
c-1.33301 -6.66699 -1.66602 -13.834 -0.999023 -21.501s2.66699 -15 6 -22s8.16602 -12.833 14.499 -17.5s14.166 -7 23.499 -7s18 2.33301 26 7s15 10.5 21 17.5s10.833 14.333 14.5 22s6.16699 14.834 7.5 21.501h100c-4.66699 -15.333 -11.167 -32.333 -19.5 -51
s-19.333 -36.167 -33 -52.5s-30.667 -30 -51 -41s-44.833 -16.5 -73.5 -16.5z" />
    <glyph glyph-name="ebreve" unicode="&#x115;" horiz-adv-x="505" 
d="M298 501c35.333 0 64.999 -3.99902 88.999 -11.999s43.5 -18.5 58.5 -31.5s25.667 -27.833 32 -44.5s9.5 -33.334 9.5 -50.001c0 -33.333 -8 -60.833 -24 -82.5s-36.5 -39 -61.5 -52s-53 -22.167 -84 -27.5s-61.5 -8 -91.5 -8h-21c-6.66699 0 -13.334 0.333008 -20.001 1
c-0.666992 -3.33301 -1 -6.16602 -1 -8.49902v-7.5c0 -11.333 2 -20.666 6 -27.999s9.33301 -13 16 -17s14.5 -6.83301 23.5 -8.5s18.833 -2.5 29.5 -2.5c12.667 0 28.834 2.5 48.501 7.5s42.5 15.167 68.5 30.5l60 -105c-22 -14 -43 -25 -63 -33s-39 -14 -57 -18
s-35.167 -6.5 -51.5 -7.5s-32.166 -1.5 -47.499 -1.5c-23.333 0 -46 2.83301 -68 8.5s-41.333 15.5 -58 29.5s-30 32.667 -40 56s-15 52.666 -15 87.999c0 40.667 4.66699 80.5 14 119.5s24.5 73.667 45.5 104s48 54.666 81 72.999s73.5 27.5 121.5 27.5zM291.999 373.001
c-18 0 -34.833 -6.66504 -50.5 -19.998s-27.5 -31 -35.5 -53c6 -0.666992 11.667 -1 17 -1h16c19.333 0 35.5 1.33301 48.5 4s23.333 6.16699 31 10.5s13 9.16602 16 14.499s4.5 10.333 4.5 15c0 9.33301 -3.5 16.666 -10.5 21.999s-19.167 8 -36.5 8zM322.999 561.003
c-28.667 0 -51.999 5.49902 -69.999 16.499s-31.833 24.667 -41.5 41s-16 33.833 -19 52.5s-3.83301 35.667 -2.5 51h100c-1.33301 -6.66699 -1.66602 -13.834 -0.999023 -21.501s2.66699 -15 6 -22s8.16602 -12.833 14.499 -17.5s14.166 -7 23.499 -7s18 2.33301 26 7
s15 10.5 21 17.5s10.833 14.333 14.5 22s6.16699 14.834 7.5 21.501h100c-3.33301 -15.333 -9 -32.166 -17 -50.499s-19.333 -35.833 -34 -52.5s-32.5 -30.5 -53.5 -41.5s-45.833 -16.5 -74.5 -16.5z" />
    <glyph glyph-name="Edotaccent" unicode="&#x116;" horiz-adv-x="573" 
d="M29 0l135 696h470l-26 -135h-319l-29 -144h283l-26 -133h-283l-28 -146h335l-26 -138h-486zM340 746l25 130h148l-25 -130h-148z" />
    <glyph glyph-name="edotaccent" unicode="&#x117;" horiz-adv-x="505" 
d="M298 501c35.333 0 64.999 -3.99902 88.999 -11.999s43.5 -18.5 58.5 -31.5s25.667 -27.833 32 -44.5s9.5 -33.334 9.5 -50.001c0 -33.333 -8 -60.833 -24 -82.5s-36.5 -39 -61.5 -52s-53 -22.167 -84 -27.5s-61.5 -8 -91.5 -8h-21c-6.66699 0 -13.334 0.333008 -20.001 1
c-0.666992 -3.33301 -1 -6.16602 -1 -8.49902v-7.5c0 -11.333 2 -20.666 6 -27.999s9.33301 -13 16 -17s14.5 -6.83301 23.5 -8.5s18.833 -2.5 29.5 -2.5c12.667 0 28.834 2.5 48.501 7.5s42.5 15.167 68.5 30.5l60 -105c-22 -14 -43 -25 -63 -33s-39 -14 -57 -18
s-35.167 -6.5 -51.5 -7.5s-32.166 -1.5 -47.499 -1.5c-23.333 0 -46 2.83301 -68 8.5s-41.333 15.5 -58 29.5s-30 32.667 -40 56s-15 52.666 -15 87.999c0 40.667 4.66699 80.5 14 119.5s24.5 73.667 45.5 104s48 54.666 81 72.999s73.5 27.5 121.5 27.5zM291.999 373.001
c-18 0 -34.833 -6.66504 -50.5 -19.998s-27.5 -31 -35.5 -53c6 -0.666992 11.667 -1 17 -1h16c19.333 0 35.5 1.33301 48.5 4s23.333 6.16699 31 10.5s13 9.16602 16 14.499s4.5 10.333 4.5 15c0 9.33301 -3.5 16.666 -10.5 21.999s-19.167 8 -36.5 8zM243.999 571.003
l25 130h148l-25 -130h-148z" />
    <glyph glyph-name="Eogonek" unicode="&#x118;" horiz-adv-x="573" 
d="M356 -104c2.66699 14 8.50098 29 17.501 45s23.5 35.667 43.5 59h-388l135 696h470l-26 -135h-319l-29 -144h283l-26 -133h-283l-28 -146h335l-26 -138h-4c-19.333 -21.333 -34 -39 -44 -53s-16 -26 -18 -36c-2.66699 -18 6.33301 -27 27 -27c6 0 14.333 0.833008 25 2.5
s24 6.16699 40 13.5l17 -74c-19.333 -11.333 -39 -18.833 -59 -22.5s-38.667 -5.5 -56 -5.5c-32 0 -55.833 9.66699 -71.5 29s-20.834 42.333 -15.501 69z" />
    <glyph glyph-name="eogonek" unicode="&#x119;" horiz-adv-x="505" 
d="M261 -61c3.33301 18 12 38.001 26 60.001c-12.667 -1.33301 -24.667 -2.33301 -36 -3s-22.666 -1 -33.999 -1c-23.333 0 -46 2.83301 -68 8.5s-41.333 15.5 -58 29.5s-30 32.667 -40 56s-15 52.666 -15 87.999c0 40.667 4.66699 80.5 14 119.5s24.5 73.667 45.5 104
s48 54.666 81 72.999s73.5 27.5 121.5 27.5c35.333 0 65 -4 89 -12s43.5 -18.5 58.5 -31.5s25.667 -27.833 32 -44.5s9.5 -33.334 9.5 -50.001c0 -33.333 -8 -60.833 -24 -82.5s-36.5 -39 -61.5 -52s-53 -22.167 -84 -27.5s-61.5 -8 -91.5 -8h-21
c-6.66699 0 -13.334 0.333008 -20.001 1c-0.666992 -3.33301 -1 -6.16602 -1 -8.49902v-7.5c0 -11.333 2 -20.666 6 -27.999s9.33301 -13 16 -17s14.5 -6.83301 23.5 -8.5s18.833 -2.5 29.5 -2.5c12.667 0 28.834 2.5 48.501 7.5s42.5 15.167 68.5 30.5l60 -105
c-3.33301 -2.66699 -6.83301 -5 -10.5 -7l-10.5 -6c-36.667 -40 -57 -69.333 -61 -88c-2.66699 -18 6.33301 -27 27 -27c6 0 14.333 0.833008 25 2.5s24 6.16699 40 13.5l17 -74c-19.333 -11.333 -39 -18.833 -59 -22.5s-38.667 -5.5 -56 -5.5
c-32 0 -55.833 9.66699 -71.5 29s-20.834 42.333 -15.501 69zM292 373.001c-18 0 -34.833 -6.66504 -50.5 -19.998s-27.5 -31 -35.5 -53c6 -0.666992 11.667 -1 17 -1h16c19.333 0 35.5 1.33301 48.5 4s23.333 6.16699 31 10.5s13 9.16602 16 14.499s4.5 10.333 4.5 15
c0 9.33301 -3.5 16.666 -10.5 21.999s-19.167 8 -36.5 8z" />
    <glyph glyph-name="Ecaron" unicode="&#x11a;" horiz-adv-x="573" 
d="M29 0l135 696h470l-26 -135h-319l-29 -144h283l-26 -133h-283l-28 -146h335l-26 -138h-486zM579 908l40 -59l-175 -120h-98l-125 120l59 58l135 -78z" />
    <glyph glyph-name="ecaron" unicode="&#x11b;" horiz-adv-x="505" 
d="M298 501c35.333 0 64.999 -3.99902 88.999 -11.999s43.5 -18.5 58.5 -31.5s25.667 -27.833 32 -44.5s9.5 -33.334 9.5 -50.001c0 -33.333 -8 -60.833 -24 -82.5s-36.5 -39 -61.5 -52s-53 -22.167 -84 -27.5s-61.5 -8 -91.5 -8h-21c-6.66699 0 -13.334 0.333008 -20.001 1
c-0.666992 -3.33301 -1 -6.16602 -1 -8.49902v-7.5c0 -11.333 2 -20.666 6 -27.999s9.33301 -13 16 -17s14.5 -6.83301 23.5 -8.5s18.833 -2.5 29.5 -2.5c12.667 0 28.834 2.5 48.501 7.5s42.5 15.167 68.5 30.5l60 -105c-22 -14 -43 -25 -63 -33s-39 -14 -57 -18
s-35.167 -6.5 -51.5 -7.5s-32.166 -1.5 -47.499 -1.5c-23.333 0 -46 2.83301 -68 8.5s-41.333 15.5 -58 29.5s-30 32.667 -40 56s-15 52.666 -15 87.999c0 40.667 4.66699 80.5 14 119.5s24.5 73.667 45.5 104s48 54.666 81 72.999s73.5 27.5 121.5 27.5zM291.999 373.001
c-18 0 -34.833 -6.66504 -50.5 -19.998s-27.5 -31 -35.5 -53c6 -0.666992 11.667 -1 17 -1h16c19.333 0 35.5 1.33301 48.5 4s23.333 6.16699 31 10.5s13 9.16602 16 14.499s4.5 10.333 4.5 15c0 9.33301 -3.5 16.666 -10.5 21.999s-19.167 8 -36.5 8zM487.999 733.003
l47.001 -49l-178 -155h-103l-117 155l62 48c21.333 -16.667 41.666 -33.667 60.999 -51l60 -52z" />
    <glyph glyph-name="Gcircumflex" unicode="&#x11c;" horiz-adv-x="625" 
d="M279 -6c-45.333 0 -83.832 7.33301 -115.499 22s-56.834 34.5 -75.501 59.5s-31 54 -37 87s-5.33301 67.5 2 103.5l32 164c6.66699 36 17.667 70.333 33 103s35.333 61.5 60 86.5s54.667 44.833 90 59.5s76.666 22 123.999 22c60.667 0 110.834 -15.5 150.501 -46.5
s67.167 -73.833 82.5 -128.5l-142 -55c-2 10 -5.66699 20.167 -11 30.5s-12.333 19.5 -21 27.5s-19 14.667 -31 20s-26 8 -42 8c-19.333 0 -36.666 -3.16699 -51.999 -9.5s-28.666 -14.833 -39.999 -25.5s-20.666 -22.834 -27.999 -36.501s-12.333 -27.5 -15 -41.5l-37 -189
c-3.33301 -15.333 -3.83301 -30.166 -1.5 -44.499s7.16602 -27.333 14.499 -39s17.666 -21 30.999 -28s29.666 -10.5 48.999 -10.5c17.333 0 33.833 3.33301 49.5 10s29.667 15.667 42 27s22.5 24.166 30.5 38.499s13.667 29.5 17 45.5l1 5h-138l24 128h292l-27 -139
c-8 -41.333 -21.667 -77.666 -41 -108.999s-42.5 -57.833 -69.5 -79.5s-57.667 -38 -92 -49s-70.5 -16.5 -108.5 -16.5zM419.001 805l-165 -78l-37 58l172 120h98l128 -120l-62 -59z" />
    <glyph glyph-name="gcircumflex" unicode="&#x11d;" horiz-adv-x="523" 
d="M521 495l-42.502 -218.5l-26 -137l-14 -75.5c-3 -16 -5 -27.5 -6 -34.5s-1.66699 -11.5 -2 -13.5s-1.16602 -6 -2.49902 -12c-28 -144.667 -115 -214.667 -261 -210c-28 1.33301 -56.167 6.5 -84.5 15.5s-55.166 24.5 -80.499 46.5l74 106
c17.333 -13.333 36.833 -23.5 58.5 -30.5s38.834 -10.5 51.501 -10.5c27.333 0 49.166 8.33301 65.499 25s26.5 36.667 30.5 60c0.666992 2.66699 1.33398 5.66699 2.00098 9s1.16699 7 1.5 11s1.16602 8.66699 2.49902 14l-2 1c-14 -14 -32 -25.333 -54 -34
s-41 -13 -57 -13c-30.667 0 -55.167 4.5 -73.5 13.5s-32.333 21 -42 36s-16 32.167 -19 51.5s-4.5 39.666 -4.5 60.999c0 36.667 4.16699 75.334 12.5 116.001s22 77.667 41 111s43.667 61 74 83s67.833 33 112.5 33c17.333 0 34.833 -2.83301 52.5 -8.5
s32.167 -16.167 43.5 -31.5l2 1l7 35h140zM338.998 292c0 9.33301 -0.5 18.499 -1.5 27.499s-3.33301 17 -7 24s-9 12.667 -16 17s-16.5 6.5 -28.5 6.5c-20 0 -36.5 -6.33301 -49.5 -19s-23.5 -28.167 -31.5 -46.5s-13.5 -37.833 -16.5 -58.5s-4.5 -39 -4.5 -55
c0 -15.333 3.83301 -29.5 11.5 -42.5s22.167 -19.5 43.5 -19.5c18 0 33.333 6.5 46 19.5s23 28.333 31 46s13.833 35.834 17.5 54.501s5.5 34 5.5 46zM347.998 628.999l-165 -103l-44 48l177 155h103l118 -155l-65 -49z" />
    <glyph glyph-name="Gbreve" unicode="&#x11e;" horiz-adv-x="625" 
d="M279 -6c-45.333 0 -83.832 7.33301 -115.499 22s-56.834 34.5 -75.501 59.5s-31 54 -37 87s-5.33301 67.5 2 103.5l32 164c6.66699 36 17.667 70.333 33 103s35.333 61.5 60 86.5s54.667 44.833 90 59.5s76.666 22 123.999 22c60.667 0 110.834 -15.5 150.501 -46.5
s67.167 -73.833 82.5 -128.5l-142 -55c-2 10 -5.66699 20.167 -11 30.5s-12.333 19.5 -21 27.5s-19 14.667 -31 20s-26 8 -42 8c-19.333 0 -36.666 -3.16699 -51.999 -9.5s-28.666 -14.833 -39.999 -25.5s-20.666 -22.834 -27.999 -36.501s-12.333 -27.5 -15 -41.5l-37 -189
c-3.33301 -15.333 -3.83301 -30.166 -1.5 -44.499s7.16602 -27.333 14.499 -39s17.666 -21 30.999 -28s29.666 -10.5 48.999 -10.5c17.333 0 33.833 3.33301 49.5 10s29.667 15.667 42 27s22.5 24.166 30.5 38.499s13.667 29.5 17 45.5l1 5h-138l24 128h292l-27 -139
c-8 -41.333 -21.667 -77.666 -41 -108.999s-42.5 -57.833 -69.5 -79.5s-57.667 -38 -92 -49s-70.5 -16.5 -108.5 -16.5zM415.001 731c-28.667 0 -52.166 5.5 -70.499 16.5s-32.5 24.667 -42.5 41s-16.5 33.833 -19.5 52.5s-3.83301 35.667 -2.5 51h100
c-1.33301 -6.66699 -1.66602 -13.834 -0.999023 -21.501s2.66699 -15 6 -22s8.16602 -12.833 14.499 -17.5s14.166 -7 23.499 -7s18 2.33301 26 7s15 10.5 21 17.5s10.833 14.333 14.5 22s6.16699 14.834 7.5 21.501h100c-4.66699 -15.333 -11.167 -32.333 -19.5 -51
s-19.333 -36.167 -33 -52.5s-30.667 -30 -51 -41s-44.833 -16.5 -73.5 -16.5z" />
    <glyph glyph-name="gbreve" unicode="&#x11f;" horiz-adv-x="523" 
d="M521 495l-42.502 -218.5l-26 -137l-14 -75.5c-3 -16 -5 -27.5 -6 -34.5s-1.66699 -11.5 -2 -13.5s-1.16602 -6 -2.49902 -12c-28 -144.667 -115 -214.667 -261 -210c-28 1.33301 -56.167 6.5 -84.5 15.5s-55.166 24.5 -80.499 46.5l74 106
c17.333 -13.333 36.833 -23.5 58.5 -30.5s38.834 -10.5 51.501 -10.5c27.333 0 49.166 8.33301 65.499 25s26.5 36.667 30.5 60c0.666992 2.66699 1.33398 5.66699 2.00098 9s1.16699 7 1.5 11s1.16602 8.66699 2.49902 14l-2 1c-14 -14 -32 -25.333 -54 -34
s-41 -13 -57 -13c-30.667 0 -55.167 4.5 -73.5 13.5s-32.333 21 -42 36s-16 32.167 -19 51.5s-4.5 39.666 -4.5 60.999c0 36.667 4.16699 75.334 12.5 116.001s22 77.667 41 111s43.667 61 74 83s67.833 33 112.5 33c17.333 0 34.833 -2.83301 52.5 -8.5
s32.167 -16.167 43.5 -31.5l2 1l7 35h140zM338.998 292c0 9.33301 -0.5 18.499 -1.5 27.499s-3.33301 17 -7 24s-9 12.667 -16 17s-16.5 6.5 -28.5 6.5c-20 0 -36.5 -6.33301 -49.5 -19s-23.5 -28.167 -31.5 -46.5s-13.5 -37.833 -16.5 -58.5s-4.5 -39 -4.5 -55
c0 -15.333 3.83301 -29.5 11.5 -42.5s22.167 -19.5 43.5 -19.5c18 0 33.333 6.5 46 19.5s23 28.333 31 46s13.833 35.834 17.5 54.501s5.5 34 5.5 46zM342.998 560.999c-28.667 0 -51.999 5.49902 -69.999 16.499s-31.833 24.667 -41.5 41s-16 33.833 -19 52.5
s-3.83301 35.667 -2.5 51h100c-1.33301 -6.66699 -1.66602 -13.834 -0.999023 -21.501s2.66699 -15 6 -22s8.16602 -12.833 14.499 -17.5s14.166 -7 23.499 -7s18 2.33301 26 7s15 10.5 21 17.5s10.833 14.333 14.5 22s6.16699 14.834 7.5 21.501h100
c-3.33301 -15.333 -9 -32.166 -17 -50.499s-19.333 -35.833 -34 -52.5s-32.5 -30.5 -53.5 -41.5s-45.833 -16.5 -74.5 -16.5z" />
    <glyph glyph-name="Gdotaccent" unicode="&#x120;" horiz-adv-x="625" 
d="M279 -6c-45.333 0 -83.832 7.33301 -115.499 22s-56.834 34.5 -75.501 59.5s-31 54 -37 87s-5.33301 67.5 2 103.5l32 164c6.66699 36 17.667 70.333 33 103s35.333 61.5 60 86.5s54.667 44.833 90 59.5s76.666 22 123.999 22c60.667 0 110.834 -15.5 150.501 -46.5
s67.167 -73.833 82.5 -128.5l-142 -55c-2 10 -5.66699 20.167 -11 30.5s-12.333 19.5 -21 27.5s-19 14.667 -31 20s-26 8 -42 8c-19.333 0 -36.666 -3.16699 -51.999 -9.5s-28.666 -14.833 -39.999 -25.5s-20.666 -22.834 -27.999 -36.501s-12.333 -27.5 -15 -41.5l-37 -189
c-3.33301 -15.333 -3.83301 -30.166 -1.5 -44.499s7.16602 -27.333 14.499 -39s17.666 -21 30.999 -28s29.666 -10.5 48.999 -10.5c17.333 0 33.833 3.33301 49.5 10s29.667 15.667 42 27s22.5 24.166 30.5 38.499s13.667 29.5 17 45.5l1 5h-138l24 128h292l-27 -139
c-8 -41.333 -21.667 -77.666 -41 -108.999s-42.5 -57.833 -69.5 -79.5s-57.667 -38 -92 -49s-70.5 -16.5 -108.5 -16.5zM330.001 746l25 130h148l-25 -130h-148z" />
    <glyph glyph-name="gdotaccent" unicode="&#x121;" horiz-adv-x="523" 
d="M521 495l-42.502 -218.5l-26 -137l-14 -75.5c-3 -16 -5 -27.5 -6 -34.5s-1.66699 -11.5 -2 -13.5s-1.16602 -6 -2.49902 -12c-28 -144.667 -115 -214.667 -261 -210c-28 1.33301 -56.167 6.5 -84.5 15.5s-55.166 24.5 -80.499 46.5l74 106
c17.333 -13.333 36.833 -23.5 58.5 -30.5s38.834 -10.5 51.501 -10.5c27.333 0 49.166 8.33301 65.499 25s26.5 36.667 30.5 60c0.666992 2.66699 1.33398 5.66699 2.00098 9s1.16699 7 1.5 11s1.16602 8.66699 2.49902 14l-2 1c-14 -14 -32 -25.333 -54 -34
s-41 -13 -57 -13c-30.667 0 -55.167 4.5 -73.5 13.5s-32.333 21 -42 36s-16 32.167 -19 51.5s-4.5 39.666 -4.5 60.999c0 36.667 4.16699 75.334 12.5 116.001s22 77.667 41 111s43.667 61 74 83s67.833 33 112.5 33c17.333 0 34.833 -2.83301 52.5 -8.5
s32.167 -16.167 43.5 -31.5l2 1l7 35h140zM338.998 292c0 9.33301 -0.5 18.499 -1.5 27.499s-3.33301 17 -7 24s-9 12.667 -16 17s-16.5 6.5 -28.5 6.5c-20 0 -36.5 -6.33301 -49.5 -19s-23.5 -28.167 -31.5 -46.5s-13.5 -37.833 -16.5 -58.5s-4.5 -39 -4.5 -55
c0 -15.333 3.83301 -29.5 11.5 -42.5s22.167 -19.5 43.5 -19.5c18 0 33.333 6.5 46 19.5s23 28.333 31 46s13.833 35.834 17.5 54.501s5.5 34 5.5 46zM260.998 565.999l25 130h148l-25 -130h-148z" />
    <glyph glyph-name="Gcommaaccent" unicode="&#x122;" horiz-adv-x="625" 
d="M279 -6c-45.333 0 -83.832 7.33301 -115.499 22s-56.834 34.5 -75.501 59.5s-31 54 -37 87s-5.33301 67.5 2 103.5l32 164c6.66699 36 17.667 70.333 33 103s35.333 61.5 60 86.5s54.667 44.833 90 59.5s76.666 22 123.999 22c60.667 0 110.834 -15.5 150.501 -46.5
s67.167 -73.833 82.5 -128.5l-142 -55c-2 10 -5.66699 20.167 -11 30.5s-12.333 19.5 -21 27.5s-19 14.667 -31 20s-26 8 -42 8c-19.333 0 -36.666 -3.16699 -51.999 -9.5s-28.666 -14.833 -39.999 -25.5s-20.666 -22.834 -27.999 -36.501s-12.333 -27.5 -15 -41.5l-37 -189
c-3.33301 -15.333 -3.83301 -30.166 -1.5 -44.499s7.16602 -27.333 14.499 -39s17.666 -21 30.999 -28s29.666 -10.5 48.999 -10.5c17.333 0 33.833 3.33301 49.5 10s29.667 15.667 42 27s22.5 24.166 30.5 38.499s13.667 29.5 17 45.5l1 5h-138l24 128h292l-27 -139
c-8 -41.333 -21.667 -77.666 -41 -108.999s-42.5 -57.833 -69.5 -79.5s-57.667 -38 -92 -49s-70.5 -16.5 -108.5 -16.5zM139.001 -313l56 108h-33l29 151h154l-28 -143l-111 -116h-67z" />
    <glyph glyph-name="gcommaaccent" unicode="&#x123;" horiz-adv-x="523" 
d="M448 857l-56 -108h33l-30 -151h-154l28 143l112 116h67zM521 495l-42.502 -218.5l-26 -137l-14 -75.5c-3 -16 -5 -27.5 -6 -34.5s-1.66699 -11.5 -2 -13.5s-1.16602 -6 -2.49902 -12c-28 -144.667 -115 -214.667 -261 -210c-28 1.33301 -56.167 6.5 -84.5 15.5
s-55.166 24.5 -80.499 46.5l74 106c17.333 -13.333 36.833 -23.5 58.5 -30.5s38.834 -10.5 51.501 -10.5c27.333 0 49.166 8.33301 65.499 25s26.5 36.667 30.5 60c0.666992 2.66699 1.33398 5.66699 2.00098 9s1.16699 7 1.5 11s1.16602 8.66699 2.49902 14l-2 1
c-14 -14 -32 -25.333 -54 -34s-41 -13 -57 -13c-30.667 0 -55.167 4.5 -73.5 13.5s-32.333 21 -42 36s-16 32.167 -19 51.5s-4.5 39.666 -4.5 60.999c0 36.667 4.16699 75.334 12.5 116.001s22 77.667 41 111s43.667 61 74 83s67.833 33 112.5 33
c17.333 0 34.833 -2.83301 52.5 -8.5s32.167 -16.167 43.5 -31.5l2 1l7 35h140zM338.998 292c0 9.33301 -0.5 18.499 -1.5 27.499s-3.33301 17 -7 24s-9 12.667 -16 17s-16.5 6.5 -28.5 6.5c-20 0 -36.5 -6.33301 -49.5 -19s-23.5 -28.167 -31.5 -46.5
s-13.5 -37.833 -16.5 -58.5s-4.5 -39 -4.5 -55c0 -15.333 3.83301 -29.5 11.5 -42.5s22.167 -19.5 43.5 -19.5c18 0 33.333 6.5 46 19.5s23 28.333 31 46s13.833 35.834 17.5 54.501s5.5 34 5.5 46z" />
    <glyph glyph-name="Hcircumflex" unicode="&#x124;" horiz-adv-x="661" 
d="M402 0l56 284h-224l-55 -284h-150l135 696h150l-54 -279h224l54 279h149l-135 -696h-150zM442 805l-165 -78l-37 58l172 120h98l128 -120l-62 -59z" />
    <glyph glyph-name="hcircumflex" unicode="&#x125;" horiz-adv-x="540" 
d="M300 -1l56.999 293c10 50.667 -8.33301 76 -55 76c-20.667 0 -39 -6.33301 -55 -19s-26.667 -31.667 -32 -57l-57 -293h-140l144 728h140l-54 -267l4 -1c15.333 11.333 33 21 53 29s39.333 12 58 12c24.667 0 47 -3.83301 67 -11.5s36.333 -19 49 -34
s21.334 -33.667 26.001 -56s4 -47.833 -2 -76.5l-61 -323h-142zM256.999 805l-165 -78l-37 58l172 120h98l128 -120l-62 -59z" />
    <glyph glyph-name="Hbar" unicode="&#x126;" horiz-adv-x="661" 
d="M402 0l56 284h-224l-55 -284h-150l97 502h-59l18 93h59l20 101h150l-20 -101h224l20 101h149l-20 -101h51l-18 -93h-51l-97 -502h-150zM484 417l16 85h-224l-16 -85h224z" />
    <glyph glyph-name="hbar" unicode="&#x127;" horiz-adv-x="540" 
d="M300 -1l56.999 293c10 50.667 -8.33301 76 -55 76c-20.667 0 -39 -6.33301 -55 -19s-26.667 -31.667 -32 -57l-57 -293h-140l110 559h-73l17 93h75l15 76h140l-16 -76h162l-18 -93h-162l-20 -98l4 -1c15.333 11.333 33 21 53 29s39.333 12 58 12
c24.667 0 47 -3.83301 67 -11.5s36.333 -19 49 -34s21.334 -33.667 26.001 -56s4 -47.833 -2 -76.5l-61 -323h-142z" />
    <glyph glyph-name="Itilde" unicode="&#x128;" horiz-adv-x="288" 
d="M26 0l135 696h151l-136 -696h-150zM195 882c12.667 0 25.5 -2.66797 38.5 -8.00098s25.333 -11 37 -17l33 -16.5c10.333 -5 19.5 -7.5 27.5 -7.5c11.333 0 22.666 3.66699 33.999 11s25.333 19.666 42 36.999l62 -38c-21.333 -41.333 -42.833 -70.166 -64.5 -86.499
s-46.167 -24.5 -73.5 -24.5c-13.333 0 -26.333 2.5 -39 7.5s-24.667 10.333 -36 16l-32.5 16c-10.333 5 -20.166 7.5 -29.499 7.5c-11.333 0 -23.5 -3.5 -36.5 -10.5s-28.5 -20.167 -46.5 -39.5l-59 39c22.667 42.667 45.667 72.334 69 89.001s48 25 74 25z" />
    <glyph glyph-name="itilde" unicode="&#x129;" horiz-adv-x="368" 
d="M198 712c12.667 0 25.5 -2.66797 38.5 -8.00098s25.333 -11 37 -17l33 -16.5c10.333 -5 19.5 -7.5 27.5 -7.5c11.333 0 22.666 3.66699 33.999 11s25.333 19.666 42 36.999l62 -38c-21.333 -41.333 -42.833 -70.166 -64.5 -86.499s-46.167 -24.5 -73.5 -24.5
c-13.333 0 -26.333 2.5 -39 7.5s-24.667 10.333 -36 16l-32.5 16c-10.333 5 -20.166 7.5 -29.499 7.5c-11.333 0 -23.5 -3.5 -36.5 -10.5s-28.5 -20.167 -46.5 -39.5l-59 39c22.667 42.667 45.667 72.334 69 89.001s48 25 74 25zM64 -0.000976562l96 495h140l-96 -495h-140z
" />
    <glyph glyph-name="Imacron" unicode="&#x12a;" horiz-adv-x="288" 
d="M26 0l135 696h151l-136 -696h-150zM87 758l23 118h333l-23 -118h-333z" />
    <glyph glyph-name="imacron" unicode="&#x12b;" horiz-adv-x="342" 
d="M82 578l23 118h333l-23 -118h-333zM68 0l96 495h140l-96 -495h-140z" />
    <glyph glyph-name="Ibreve" unicode="&#x12c;" horiz-adv-x="294" 
d="M247 731c-28.667 0 -52.166 5.5 -70.499 16.5s-32.5 24.667 -42.5 41s-16.5 33.833 -19.5 52.5s-3.83301 35.667 -2.5 51h100c-1.33301 -6.66699 -1.66602 -13.834 -0.999023 -21.501s2.66699 -15 6 -22s8.16602 -12.833 14.499 -17.5s14.166 -7 23.499 -7
s18 2.33301 26 7s15 10.5 21 17.5s10.833 14.333 14.5 22s6.16699 14.834 7.5 21.501h100c-4.66699 -15.333 -11.167 -32.333 -19.5 -51s-19.333 -36.167 -33 -52.5s-30.667 -30 -51 -41s-44.833 -16.5 -73.5 -16.5zM26.001 0l135 696h151l-136 -696h-150z" />
    <glyph glyph-name="ibreve" unicode="&#x12d;" horiz-adv-x="268" 
d="M217 567c-28.667 0 -51.999 5.49902 -69.999 16.499s-31.833 24.667 -41.5 41s-16 33.833 -19 52.5s-3.83301 35.667 -2.5 51h100c-1.33301 -6.66699 -1.66602 -13.834 -0.999023 -21.501s2.66699 -15 6 -22s8.16602 -12.833 14.499 -17.5s14.166 -7 23.499 -7
s18 2.33301 26 7s15 10.5 21 17.5s10.833 14.333 14.5 22s6.16699 14.834 7.5 21.501h100c-3.33301 -15.333 -9 -32.166 -17 -50.499s-19.333 -35.833 -34 -52.5s-32.5 -30.5 -53.5 -41.5s-45.833 -16.5 -74.5 -16.5zM26.001 -0.000976562l96 495h140l-96 -495h-140z" />
    <glyph glyph-name="Iogonek" unicode="&#x12e;" horiz-adv-x="288" 
d="M-7 -104c2.66699 14 8.50098 29 17.501 45s23.5 35.667 43.5 59h-28l135 696h151l-136 -696h-28c-19.333 -21.333 -34 -39 -44 -53s-16 -26 -18 -36c-2.66699 -18 6.33301 -27 27 -27c6 0 14.333 0.833008 25 2.5s24 6.16699 40 13.5l17 -74
c-19.333 -11.333 -39 -18.833 -59 -22.5s-38.667 -5.5 -56 -5.5c-32 0 -55.833 9.66699 -71.5 29s-20.834 42.333 -15.501 69z" />
    <glyph glyph-name="iogonek" unicode="&#x12f;" horiz-adv-x="263" 
d="M-15 -103c2.66699 14 8.50098 29 17.501 45s23.167 35.333 42.5 58h-23l96 495h140l-96 -495h-23c-19.333 -20.667 -33.833 -38 -43.5 -52s-15.5 -26 -17.5 -36c-2.66699 -18 6.33301 -27 27 -27c6 0 14.333 0.833008 25 2.5s24 6.16699 40 13.5l17 -74
c-19.333 -11.333 -39 -18.833 -59 -22.5s-38.667 -5.5 -56 -5.5c-32 0 -55.833 9.66699 -71.5 29s-20.834 42.333 -15.501 69zM133.001 571l24 125h140l-24 -125h-140z" />
    <glyph glyph-name="Idotaccent" unicode="&#x130;" horiz-adv-x="288" 
d="M26 0l135 696h151l-136 -696h-150zM171 746l25 130h148l-25 -130h-148z" />
    <glyph glyph-name="dotlessi" unicode="&#x131;" horiz-adv-x="263" 
d="M22 0l96 495h140l-96 -495h-140z" />
    <glyph glyph-name="IJ" unicode="&#x132;" horiz-adv-x="760" 
d="M26 0l135 696h151l-136 -696h-150zM703 225c-7.33301 -36 -17.333 -68.499 -30 -97.499s-29 -53.5 -49 -73.5s-44.5 -35.333 -73.5 -46s-62.833 -16 -101.5 -16c-18 0 -36.5 2.5 -55.5 7.5s-37.333 12 -55 21s-34.167 19.833 -49.5 32.5s-28 26.667 -38 42l105 91
c10 -14.667 23.167 -27.334 39.5 -38.001s36.833 -16 61.5 -16c30.667 0 53 8.16699 67 24.5s24.333 41.5 31 75.5l90 464h150z" />
    <glyph glyph-name="ij" unicode="&#x133;" horiz-adv-x="554" 
d="M133 571l24 125h140l-24 -125h-140zM22 0l96 495h140l-96 -495h-140zM416 571l24 125h140l-24 -125h-140zM435 -52c-8.66699 -44.667 -29.166 -80.5 -61.499 -107.5s-71.5 -40.5 -117.5 -40.5h-70l24 124h33c10 0 18.5 2.33301 25.5 7s12.833 10.167 17.5 16.5
s8.16699 13 10.5 20s4.16602 12.833 5.49902 17.5l99 511h140z" />
    <glyph glyph-name="Jcircumflex" unicode="&#x134;" horiz-adv-x="501" 
d="M443 226c-7.33301 -36 -17.333 -68.499 -30 -97.499s-29 -53.5 -49 -73.5s-44.5 -35.333 -73.5 -46s-62.833 -16 -101.5 -16c-18 0 -36.5 2.5 -55.5 7.5s-37.333 12 -55 21s-34.167 19.833 -49.5 32.5s-28 26.667 -38 42l105 91c10 -14.667 23.167 -27.334 39.5 -38.001
s36.833 -16 61.5 -16c30.667 0 53 8.16699 67 24.5s24.333 41.5 31 75.5l90 464h150zM487 807.001l-165 -78l-37 58l172 120h98l128 -120l-62 -59z" />
    <glyph glyph-name="jcircumflex" unicode="&#x135;" horiz-adv-x="329" 
d="M185 -52c-8.66699 -44.667 -29.166 -80.5 -61.499 -107.5s-71.5 -40.5 -117.5 -40.5h-70l24 124h33c10 0 18.5 2.33301 25.5 7s12.833 10.167 17.5 16.5s8.16699 13 10.5 20s4.16602 12.833 5.49902 17.5l99 511h140zM246.001 629l-165 -103l-44 48l177 155h103l118 -155
l-65 -49z" />
    <glyph glyph-name="Kcommaaccent" unicode="&#x136;" horiz-adv-x="644" 
d="M455 0l-124 301l-114 -107l-38 -194h-150l135 696h150l-55 -289l2 -2l131 134l170 157h183l-294 -282l173 -414h-169zM183 -293l56 108h-33l29 151h154l-28 -143l-111 -116h-67z" />
    <glyph glyph-name="kcommaaccent" unicode="&#x137;" horiz-adv-x="523" 
d="M331 -1l-92 197l-59 -53l-28 -144h-140l142 728h140l-78 -401l2 -1l79 78l101 92h176l-225 -203l142 -293h-160zM108 -313l56 108h-33l29 151h154l-28 -143l-111 -116h-67z" />
    <glyph glyph-name="kgreenlandic" unicode="&#x138;" horiz-adv-x="523" 
d="M337 0l-92 196l-59 -53l-28 -143h-140l97 495h140l-33 -169l2 -1l79 78l103 92h178l-228 -200l141 -295h-160z" />
    <glyph glyph-name="Lacute" unicode="&#x139;" horiz-adv-x="573" 
d="M29 0l135 696h150l-108 -558h331l-26 -138h-482zM197 783l194 139l98 -89l-233 -107z" />
    <glyph glyph-name="lacute" unicode="&#x13a;" horiz-adv-x="280" 
d="M163 0c-19.333 0 -37.166 3.33301 -53.499 10s-29.833 16.5 -40.5 29.5s-18 29.333 -22 49s-3.33301 42.5 2 68.5l111 570h140l-108 -553c-4 -22 -1.83301 -36.333 6.5 -43s19.166 -10 32.499 -10h20l-24 -121h-64zM177 803l194 139l98 -89l-233 -107z" />
    <glyph glyph-name="Lcommaaccent" unicode="&#x13b;" horiz-adv-x="573" 
d="M29 0l135 696h150l-108 -558h331l-26 -138h-482zM152 -313l56 108h-33l29 151h154l-28 -143l-111 -116h-67z" />
    <glyph glyph-name="lcommaaccent" unicode="&#x13c;" horiz-adv-x="280" 
d="M163 0c-19.333 0 -37.166 3.33301 -53.499 10s-29.833 16.5 -40.5 29.5s-18 29.333 -22 49s-3.33301 42.5 2 68.5l111 570h140l-108 -553c-4 -22 -1.83301 -36.333 6.5 -43s19.166 -10 32.499 -10h20l-24 -121h-64zM-11 -308l56 108h-33l29 151h154l-28 -143l-111 -116
h-67z" />
    <glyph glyph-name="Lcaron" unicode="&#x13d;" horiz-adv-x="573" 
d="M29 0l135 696h150l-108 -558h331l-26 -138h-482zM354 437l56 108h-33l29 151h154l-28 -143l-111 -116h-67z" />
    <glyph glyph-name="lcaron" unicode="&#x13e;" horiz-adv-x="467" 
d="M327 467l56 108h-33l29 151h154l-28 -143l-111 -116h-67zM163 0c-19.333 0 -37.166 3.33301 -53.499 10s-29.833 16.5 -40.5 29.5s-18 29.333 -22 49s-3.33301 42.5 2 68.5l111 570h140l-108 -553c-4 -22 -1.83301 -36.333 6.5 -43s19.166 -10 32.499 -10h20l-24 -121
h-64z" />
    <glyph glyph-name="Ldot" unicode="&#x13f;" horiz-adv-x="573" 
d="M29 0l135 696h150l-108 -558h331l-26 -138h-482zM342 300l25 130h148l-25 -130h-148z" />
    <glyph glyph-name="ldot" unicode="&#x140;" horiz-adv-x="425" 
d="M291 307l25 130h148l-25 -130h-148zM163 0c-19.333 0 -37.166 3.33301 -53.499 10s-29.833 16.5 -40.5 29.5s-18 29.333 -22 49s-3.33301 42.5 2 68.5l111 570h140l-108 -553c-4 -22 -1.83301 -36.333 6.5 -43s19.166 -10 32.499 -10h20l-24 -121h-64z" />
    <glyph glyph-name="Lslash" unicode="&#x141;" horiz-adv-x="573" 
d="M29 0l41 211l-63 -33l-33 87l118 62l72 369h150l-55 -282l97 51l33 -87l-152 -80l-31 -160h331l-26 -138h-482z" />
    <glyph glyph-name="lslash" unicode="&#x142;" horiz-adv-x="376" 
d="M189 0c-19.333 0 -37.166 3.33301 -53.499 10s-29.833 16.5 -40.5 29.5s-18 29.333 -22 49s-3.33301 42.5 2 68.5l19 100l-61 -32l-33 87l117 61l69 354h140l-54 -273l71 37l33 -87l-126 -66l-32 -164c-4 -22 -1.83301 -36.333 6.5 -43s19.166 -10 32.499 -10h20
l-24 -121h-64z" />
    <glyph glyph-name="Nacute" unicode="&#x143;" horiz-adv-x="696" 
d="M456 0l-125 271l-68 159l-2 -1l-82 -429h-150l135 696h134l101 -226l91 -208h2l83 434h150l-135 -696h-134zM369 783l194 139l98 -89l-233 -107z" />
    <glyph glyph-name="nacute" unicode="&#x144;" horiz-adv-x="540" 
d="M300 0l56.9971 293.001c5.33301 25.333 2.33301 44.333 -9 57s-26.666 19 -45.999 19c-20.667 0 -39 -6.33301 -55 -19s-26.667 -31.667 -32 -57l-57 -293h-140l97 496h140l-7 -37h2c15.333 11.333 33.333 21.166 54 29.499s40.334 12.5 59.001 12.5
c24.667 0 47 -3.83301 67 -11.5s36.333 -19 49 -34s21.334 -33.667 26.001 -56s4 -47.833 -2 -76.5l-63 -323h-140zM217.997 567.001l124 203l125 -43l-172 -190z" />
    <glyph glyph-name="Ncommaaccent" unicode="&#x145;" horiz-adv-x="696" 
d="M456 0l-125 271l-68 159l-2 -1l-82 -429h-150l135 696h134l101 -226l91 -208h2l83 434h150l-135 -696h-134zM197 -293l56 108h-33l29 151h154l-28 -143l-111 -116h-67z" />
    <glyph glyph-name="ncommaaccent" unicode="&#x146;" horiz-adv-x="540" 
d="M300 0l56.9971 293.001c5.33301 25.333 2.33301 44.333 -9 57s-26.666 19 -45.999 19c-20.667 0 -39 -6.33301 -55 -19s-26.667 -31.667 -32 -57l-57 -293h-140l97 496h140l-7 -37h2c15.333 11.333 33.333 21.166 54 29.499s40.334 12.5 59.001 12.5
c24.667 0 47 -3.83301 67 -11.5s36.333 -19 49 -34s21.334 -33.667 26.001 -56s4 -47.833 -2 -76.5l-63 -323h-140zM76.9971 -312.999l56 108h-33l29 151h154l-28 -143l-111 -116h-67z" />
    <glyph glyph-name="Ncaron" unicode="&#x147;" horiz-adv-x="696" 
d="M456 0l-125 271l-68 159l-2 -1l-82 -429h-150l135 696h134l101 -226l91 -208h2l83 434h150l-135 -696h-134zM629 908l40 -59l-175 -120h-98l-125 120l59 58l135 -78z" />
    <glyph glyph-name="ncaron" unicode="&#x148;" horiz-adv-x="540" 
d="M300 0l56.9971 293.001c5.33301 25.333 2.33301 44.333 -9 57s-26.666 19 -45.999 19c-20.667 0 -39 -6.33301 -55 -19s-26.667 -31.667 -32 -57l-57 -293h-140l97 496h140l-7 -37h2c15.333 11.333 33.333 21.166 54 29.499s40.334 12.5 59.001 12.5
c24.667 0 47 -3.83301 67 -11.5s36.333 -19 49 -34s21.334 -33.667 26.001 -56s4 -47.833 -2 -76.5l-63 -323h-140zM468.997 733.001l47.001 -49l-178 -155h-103l-117 155l62 48c21.333 -16.667 41.666 -33.667 60.999 -51l60 -52z" />
    <glyph glyph-name="napostrophe" unicode="&#x149;" horiz-adv-x="674" 
d="M434 0l56.9971 293.001c5.33301 25.333 2.33301 44.333 -9 57s-26.666 19 -45.999 19c-20.667 0 -39 -6.33301 -55 -19s-26.667 -31.667 -32 -57l-57 -293h-140l97 496h140l-7 -37h2c15.333 11.333 33.333 21.166 54 29.499s40.334 12.5 59.001 12.5
c24.667 0 47 -3.83301 67 -11.5s36.333 -19 49 -34s21.334 -33.667 26.001 -56s4 -47.833 -2 -76.5l-63 -323h-140zM43.9971 414.001l56 108h-33l29 151h154l-28 -143l-111 -116h-67z" />
    <glyph glyph-name="Eng" unicode="&#x14a;" horiz-adv-x="696" 
d="M577 -66c-3.33301 -17.333 -8.83398 -33.498 -16.501 -48.498s-17.667 -28 -30 -39s-27.166 -19.833 -44.499 -26.5s-37.333 -10 -60 -10c-16.667 0 -34.834 2.5 -54.501 7.5s-37.167 11.167 -52.5 18.5l35 98c28.667 -8.66699 49.834 -10.334 63.501 -5.00098
s22.5 17.666 26.5 36.999l8 42l-121 263l-68 159l-2 -1l-82 -429h-150l135 696h134l101 -226l91 -208h2l83 434h150l-135 -696z" />
    <glyph glyph-name="eng" unicode="&#x14b;" horiz-adv-x="540" 
d="M427 -66c-3.33301 -17.333 -8.83496 -33.498 -16.502 -48.498s-17.667 -28 -30 -39s-27.166 -19.833 -44.499 -26.5s-37.333 -10 -60 -10c-16.667 0 -34.834 2.5 -54.501 7.5s-37.167 11.167 -52.5 18.5l35 98c28.667 -8.66699 49.834 -10.334 63.501 -5.00098
s22.5 17.666 26.5 36.999l63 326c5.33301 25.333 2.33301 44.333 -9 57s-27 19 -47 19c-20.667 0 -38.834 -6.33301 -54.501 -19s-26.167 -31.667 -31.5 -57l-57 -292h-140l97 495h140l-8 -41h2c17.333 14 36.5 25.167 57.5 33.5s40.833 12.5 59.5 12.5
c52.667 0 91.334 -15 116.001 -45s31.334 -74.333 20.001 -133z" />
    <glyph glyph-name="Omacron" unicode="&#x14c;" horiz-adv-x="624" 
d="M380 701c44 0 82.999 -6.83105 116.999 -20.498s61.833 -32.5 83.5 -56.5s36.5 -52.667 44.5 -86s8.33301 -69.333 1 -108l-32 -164c-8 -41.333 -19.333 -78.833 -34 -112.5s-33.834 -62.334 -57.501 -86.001s-52.167 -41.834 -85.5 -54.501s-72.333 -19 -117 -19
c-50 0 -92.333 7.33301 -127 22s-62.167 34.5 -82.5 59.5s-33.666 54 -39.999 87s-5.83301 67.5 1.5 103.5l32 164c6.66699 36 16.834 70.333 30.501 103s32 61.5 55 86.5s51.667 44.833 86 59.5s75.833 22 124.5 22zM369.999 566.002
c-21.333 0 -39.3311 -3.50098 -53.998 -10.501s-26.834 -16.167 -36.501 -27.5s-17.334 -24.166 -23.001 -38.499s-9.83398 -28.5 -12.501 -42.5l-40 -198c-2.66699 -13.333 -3.5 -26.833 -2.5 -40.5s5.16699 -26.167 12.5 -37.5s18.333 -20.666 33 -27.999
s34.667 -11 60 -11c20 0 37.333 3 52 9s27 14.333 37 25s18 23.167 24 37.5s10.667 29.5 14 45.5l40 202c2.66699 15.333 2.33398 30 -0.999023 44s-9.5 26.167 -18.5 36.5s-20.667 18.666 -35 24.999s-30.833 9.5 -49.5 9.5zM254.001 758.001l23 118h333l-23 -118h-333z
" />
    <glyph glyph-name="omacron" unicode="&#x14d;" horiz-adv-x="516" 
d="M306 500c31.333 0 59.001 -4.83105 83.001 -14.498s44.333 -22.834 61 -39.501s29.167 -36.334 37.5 -59.001s12.5 -47 12.5 -73c0 -38 -4.5 -76 -13.5 -114s-24 -72.333 -45 -103s-49.333 -55.5 -85 -74.5s-79.834 -28.5 -132.501 -28.5
c-62.667 0 -109.667 15.833 -141 47.5s-47 72.5 -47 122.5c0 44 5.16699 86.333 15.5 127s26.333 76.5 48 107.5s49.5 55.667 83.5 74s75 27.5 123 27.5zM292.001 372.002c-22 0 -40.166 -6.33398 -54.499 -19.001s-25.833 -28.334 -34.5 -47.001s-14.667 -38.667 -18 -60
s-5 -40.666 -5 -57.999c0 -5.33301 0.5 -11.666 1.5 -18.999s3.66699 -14.333 8 -21s10.666 -12.334 18.999 -17.001s19.833 -7 34.5 -7c19.333 0 36 5.83301 50 17.5s25.5 26.834 34.5 45.501s15.5 39 19.5 61s6 43.667 6 65c0 19.333 -5.83301 34 -17.5 44
s-26.167 15 -43.5 15zM167.002 578.001l23 118h333l-23 -118h-333z" />
    <glyph glyph-name="Obreve" unicode="&#x14e;" horiz-adv-x="624" 
d="M380 701c44 0 82.999 -6.83105 116.999 -20.498s61.833 -32.5 83.5 -56.5s36.5 -52.667 44.5 -86s8.33301 -69.333 1 -108l-32 -164c-8 -41.333 -19.333 -78.833 -34 -112.5s-33.834 -62.334 -57.501 -86.001s-52.167 -41.834 -85.5 -54.501s-72.333 -19 -117 -19
c-50 0 -92.333 7.33301 -127 22s-62.167 34.5 -82.5 59.5s-33.666 54 -39.999 87s-5.83301 67.5 1.5 103.5l32 164c6.66699 36 16.834 70.333 30.501 103s32 61.5 55 86.5s51.667 44.833 86 59.5s75.833 22 124.5 22zM369.999 566.002
c-21.333 0 -39.3311 -3.50098 -53.998 -10.501s-26.834 -16.167 -36.501 -27.5s-17.334 -24.166 -23.001 -38.499s-9.83398 -28.5 -12.501 -42.5l-40 -198c-2.66699 -13.333 -3.5 -26.833 -2.5 -40.5s5.16699 -26.167 12.5 -37.5s18.333 -20.666 33 -27.999
s34.667 -11 60 -11c20 0 37.333 3 52 9s27 14.333 37 25s18 23.167 24 37.5s10.667 29.5 14 45.5l40 202c2.66699 15.333 2.33398 30 -0.999023 44s-9.5 26.167 -18.5 36.5s-20.667 18.666 -35 24.999s-30.833 9.5 -49.5 9.5zM421.001 731.001
c-28.667 0 -52.166 5.5 -70.499 16.5s-32.5 24.667 -42.5 41s-16.5 33.833 -19.5 52.5s-3.83301 35.667 -2.5 51h100c-1.33301 -6.66699 -1.66602 -13.834 -0.999023 -21.501s2.66699 -15 6 -22s8.16602 -12.833 14.499 -17.5s14.166 -7 23.499 -7s18 2.33301 26 7
s15 10.5 21 17.5s10.833 14.333 14.5 22s6.16699 14.834 7.5 21.501h100c-4.66699 -15.333 -11.167 -32.333 -19.5 -51s-19.333 -36.167 -33 -52.5s-30.667 -30 -51 -41s-44.833 -16.5 -73.5 -16.5z" />
    <glyph glyph-name="obreve" unicode="&#x14f;" horiz-adv-x="516" 
d="M306 500c31.333 0 59.001 -4.83105 83.001 -14.498s44.333 -22.834 61 -39.501s29.167 -36.334 37.5 -59.001s12.5 -47 12.5 -73c0 -38 -4.5 -76 -13.5 -114s-24 -72.333 -45 -103s-49.333 -55.5 -85 -74.5s-79.834 -28.5 -132.501 -28.5
c-62.667 0 -109.667 15.833 -141 47.5s-47 72.5 -47 122.5c0 44 5.16699 86.333 15.5 127s26.333 76.5 48 107.5s49.5 55.667 83.5 74s75 27.5 123 27.5zM292.001 372.002c-22 0 -40.166 -6.33398 -54.499 -19.001s-25.833 -28.334 -34.5 -47.001s-14.667 -38.667 -18 -60
s-5 -40.666 -5 -57.999c0 -5.33301 0.5 -11.666 1.5 -18.999s3.66699 -14.333 8 -21s10.666 -12.334 18.999 -17.001s19.833 -7 34.5 -7c19.333 0 36 5.83301 50 17.5s25.5 26.834 34.5 45.501s15.5 39 19.5 61s6 43.667 6 65c0 19.333 -5.83301 34 -17.5 44
s-26.167 15 -43.5 15zM333.002 561.001c-28.667 0 -51.999 5.49902 -69.999 16.499s-31.833 24.667 -41.5 41s-16 33.833 -19 52.5s-3.83301 35.667 -2.5 51h100c-1.33301 -6.66699 -1.66602 -13.834 -0.999023 -21.501s2.66699 -15 6 -22s8.16602 -12.833 14.499 -17.5
s14.166 -7 23.499 -7s18 2.33301 26 7s15 10.5 21 17.5s10.833 14.333 14.5 22s6.16699 14.834 7.5 21.501h100c-3.33301 -15.333 -9 -32.166 -17 -50.499s-19.333 -35.833 -34 -52.5s-32.5 -30.5 -53.5 -41.5s-45.833 -16.5 -74.5 -16.5z" />
    <glyph glyph-name="Ohungarumlaut" unicode="&#x150;" horiz-adv-x="624" 
d="M380 701c44 0 82.999 -6.83105 116.999 -20.498s61.833 -32.5 83.5 -56.5s36.5 -52.667 44.5 -86s8.33301 -69.333 1 -108l-32 -164c-8 -41.333 -19.333 -78.833 -34 -112.5s-33.834 -62.334 -57.501 -86.001s-52.167 -41.834 -85.5 -54.501s-72.333 -19 -117 -19
c-50 0 -92.333 7.33301 -127 22s-62.167 34.5 -82.5 59.5s-33.666 54 -39.999 87s-5.83301 67.5 1.5 103.5l32 164c6.66699 36 16.834 70.333 30.501 103s32 61.5 55 86.5s51.667 44.833 86 59.5s75.833 22 124.5 22zM369.999 566.002
c-21.333 0 -39.3311 -3.50098 -53.998 -10.501s-26.834 -16.167 -36.501 -27.5s-17.334 -24.166 -23.001 -38.499s-9.83398 -28.5 -12.501 -42.5l-40 -198c-2.66699 -13.333 -3.5 -26.833 -2.5 -40.5s5.16699 -26.167 12.5 -37.5s18.333 -20.666 33 -27.999
s34.667 -11 60 -11c20 0 37.333 3 52 9s27 14.333 37 25s18 23.167 24 37.5s10.667 29.5 14 45.5l40 202c2.66699 15.333 2.33398 30 -0.999023 44s-9.5 26.167 -18.5 36.5s-20.667 18.666 -35 24.999s-30.833 9.5 -49.5 9.5zM209.001 784.001l190 151l86 -94l-223 -118z
M429.001 784.001l190 151l86 -94l-223 -118z" />
    <glyph glyph-name="ohungarumlaut" unicode="&#x151;" horiz-adv-x="516" 
d="M306 500c31.333 0 59.001 -4.83105 83.001 -14.498s44.333 -22.834 61 -39.501s29.167 -36.334 37.5 -59.001s12.5 -47 12.5 -73c0 -38 -4.5 -76 -13.5 -114s-24 -72.333 -45 -103s-49.333 -55.5 -85 -74.5s-79.834 -28.5 -132.501 -28.5
c-62.667 0 -109.667 15.833 -141 47.5s-47 72.5 -47 122.5c0 44 5.16699 86.333 15.5 127s26.333 76.5 48 107.5s49.5 55.667 83.5 74s75 27.5 123 27.5zM292.001 372.002c-22 0 -40.166 -6.33398 -54.499 -19.001s-25.833 -28.334 -34.5 -47.001s-14.667 -38.667 -18 -60
s-5 -40.666 -5 -57.999c0 -5.33301 0.5 -11.666 1.5 -18.999s3.66699 -14.333 8 -21s10.666 -12.334 18.999 -17.001s19.833 -7 34.5 -7c19.333 0 36 5.83301 50 17.5s25.5 26.834 34.5 45.501s15.5 39 19.5 61s6 43.667 6 65c0 19.333 -5.83301 34 -17.5 44
s-26.167 15 -43.5 15zM343.002 567.001l124 203l125 -43l-172 -190zM153.002 567.001l124 203l125 -43l-172 -190z" />
    <glyph glyph-name="OE" unicode="&#x152;" horiz-adv-x="876" 
d="M348 0c-22 -4 -45.333 -6 -70 -6c-39.333 0 -73.5 5.5 -102.5 16.5s-53 26.167 -72 45.5s-33.333 41.833 -43 67.5s-14.5 53.5 -14.5 83.5c0 19.333 2 39 6 59l26 164c6.66699 36 17 70.333 31 103s33.167 61.5 57.5 86.5s55.166 44.833 92.499 59.5s83 22 137 22
c12.667 0 24.834 -0.5 36.501 -1.5s23.167 -2.16699 34.5 -3.5h482l-27 -138h-331l-28 -141h283l-26 -133h-283l-28 -146h331l-26 -138h-466zM298 138c23.333 0 44.3311 4.66797 62.998 14.001l76 389c-16 10.667 -36 16 -60 16c-19.333 0 -36.666 -3.16699 -51.999 -9.5
s-28.666 -14.833 -39.999 -25.5s-20.666 -22.834 -27.999 -36.501s-12.333 -27.5 -15 -41.5l-38 -186c-1.33301 -4.66699 -2 -9.66699 -2 -15v-14c0 -25.333 7.66699 -46.833 23 -64.5s39.666 -26.5 72.999 -26.5z" />
    <glyph glyph-name="oe" unicode="&#x153;" horiz-adv-x="812" 
d="M311 500c30 0 56.499 -4.5 79.499 -13.5s42.5 -21.5 58.5 -37.5v1c19.333 16 41.833 28.5 67.5 37.5s55.167 13.5 88.5 13.5c35.333 0 65 -4 89 -12s43.5 -18.5 58.5 -31.5s25.667 -27.833 32 -44.5s9.5 -33.334 9.5 -50.001c0 -33.333 -8 -60.833 -24 -82.5
s-36.5 -39 -61.5 -52s-53 -22.167 -84 -27.5s-61.5 -8 -91.5 -8h-21c-6.66699 0 -13.334 0.333008 -20.001 1c-0.666992 -3.33301 -1 -6.16602 -1 -8.49902v-7.5c0 -11.333 2 -20.666 6 -27.999s9.33301 -13 16 -17s14.5 -6.83301 23.5 -8.5s18.833 -2.5 29.5 -2.5
c12.667 0 28.834 2.5 48.501 7.5s42.5 15.167 68.5 30.5l60 -105c-22 -14 -43 -25 -63 -33s-39 -14 -57 -18s-35.167 -6.5 -51.5 -7.5s-32.166 -1.5 -47.499 -1.5c-25.333 0 -49.833 3.16699 -73.5 9.5s-44.167 18.166 -61.5 35.499v3
c-20.667 -15.333 -44.5 -27.333 -71.5 -36s-58.167 -13 -93.5 -13c-62.667 0 -109.667 15.833 -141 47.5s-47 72.5 -47 122.5c0 44 5.16699 86.333 15.5 127s26.5 76.5 48.5 107.5s50.333 55.667 85 74s76.667 27.5 126 27.5zM291.999 372
c-22 0 -40.167 -6.33398 -54.5 -19.001s-25.833 -28.334 -34.5 -47.001s-14.667 -38.667 -18 -60s-5 -40.666 -5 -57.999c0 -5.33301 0.5 -11.666 1.5 -18.999s3.66699 -14.333 8 -21s10.666 -12.334 18.999 -17.001s19.833 -7 34.5 -7c19.333 0 36 5.83301 50 17.5
s25.333 26.834 34 45.501s15 39 19 61s6 43.667 6 65c0 19.333 -5.66699 34 -17 44s-25.666 15 -42.999 15zM598.999 372.999c-18 0 -34.833 -6.66504 -50.5 -19.998s-27.5 -31 -35.5 -53c6 -0.666992 11.667 -1 17 -1h16c19.333 0 35.5 1.33301 48.5 4
s23.333 6.16699 31 10.5s13 9.16602 16 14.499s4.5 10.333 4.5 15c0 9.33301 -3.5 16.666 -10.5 21.999s-19.167 8 -36.5 8z" />
    <glyph glyph-name="Racute" unicode="&#x154;" horiz-adv-x="639" 
d="M414 0l-80.999 277.998h-100l-54 -278h-150l135 696h279c67.333 0 118.666 -17.5 153.999 -52.5s51 -85.833 47 -152.5c-2.66699 -47.333 -18.667 -87.666 -48 -120.999s-67 -56.666 -113 -69.999l96 -300h-165zM486.001 490.998
c1.33301 27.333 -5.33203 46.167 -19.999 56.5s-34.667 15.5 -60 15.5h-117l-30 -152h119c32 0 57.667 6.83301 77 20.5s29.666 33.5 30.999 59.5zM296.003 782.999l194 139l98 -89l-233 -107z" />
    <glyph glyph-name="racute" unicode="&#x155;" horiz-adv-x="402" 
d="M305 368c-24.667 0 -43.999 -7.5 -57.999 -22.5s-23.333 -33.5 -28 -55.5l-59 -291h-143l97 496h140l-11 -56l3 -1c16 18 34.833 32.833 56.5 44.5s43.5 17.5 65.5 17.5c20.667 0 38.167 -2.16699 52.5 -6.5s28.166 -12.5 41.499 -24.5l-70 -127
c-15.333 10.667 -30.333 17.667 -45 21s-28.667 5 -42 5zM187.001 567l124 203l125 -43l-172 -190z" />
    <glyph glyph-name="Rcommaaccent" unicode="&#x156;" horiz-adv-x="639" 
d="M414 0l-80.999 277.998h-100l-54 -278h-150l135 696h279c67.333 0 118.666 -17.5 153.999 -52.5s51 -85.833 47 -152.5c-2.66699 -47.333 -18.667 -87.666 -48 -120.999s-67 -56.666 -113 -69.999l96 -300h-165zM486.001 490.998
c1.33301 27.333 -5.33203 46.167 -19.999 56.5s-34.667 15.5 -60 15.5h-117l-30 -152h119c32 0 57.667 6.83301 77 20.5s29.666 33.5 30.999 59.5zM167.003 -293.001l56 108h-33l29 151h154l-28 -143l-111 -116h-67z" />
    <glyph glyph-name="rcommaaccent" unicode="&#x157;" horiz-adv-x="402" 
d="M305 368c-24.667 0 -43.999 -7.5 -57.999 -22.5s-23.333 -33.5 -28 -55.5l-59 -291h-143l97 496h140l-11 -56l3 -1c16 18 34.833 32.833 56.5 44.5s43.5 17.5 65.5 17.5c20.667 0 38.167 -2.16699 52.5 -6.5s28.166 -12.5 41.499 -24.5l-70 -127
c-15.333 10.667 -30.333 17.667 -45 21s-28.667 5 -42 5zM-42.999 -313l56 108h-33l29 151h154l-28 -143l-111 -116h-67z" />
    <glyph glyph-name="Rcaron" unicode="&#x158;" horiz-adv-x="639" 
d="M414 0l-80.999 277.998h-100l-54 -278h-150l135 696h279c67.333 0 118.666 -17.5 153.999 -52.5s51 -85.833 47 -152.5c-2.66699 -47.333 -18.667 -87.666 -48 -120.999s-67 -56.666 -113 -69.999l96 -300h-165zM486.001 490.998
c1.33301 27.333 -5.33203 46.167 -19.999 56.5s-34.667 15.5 -60 15.5h-117l-30 -152h119c32 0 57.667 6.83301 77 20.5s29.666 33.5 30.999 59.5zM557.003 907.999l40 -59l-175 -120h-98l-125 120l59 58l135 -78z" />
    <glyph glyph-name="rcaron" unicode="&#x159;" horiz-adv-x="402" 
d="M305 368c-24.667 0 -43.999 -7.5 -57.999 -22.5s-23.333 -33.5 -28 -55.5l-59 -291h-143l97 496h140l-11 -56l3 -1c16 18 34.833 32.833 56.5 44.5s43.5 17.5 65.5 17.5c20.667 0 38.167 -2.16699 52.5 -6.5s28.166 -12.5 41.499 -24.5l-70 -127
c-15.333 10.667 -30.333 17.667 -45 21s-28.667 5 -42 5zM452.001 733l47.001 -49l-178 -155h-103l-117 155l62 48c21.333 -16.667 41.666 -33.667 60.999 -51l60 -52z" />
    <glyph glyph-name="Sacute" unicode="&#x15a;" horiz-adv-x="600" 
d="M366 701c44 0 86.002 -5.00391 126.002 -15.0039s78.333 -28.667 115 -56l-80 -124c-23.333 16.667 -49.333 30.167 -78 40.5s-56.667 15.5 -84 15.5c-10.667 0 -22 -0.833008 -34 -2.5s-23 -5 -33 -10s-18.167 -11.833 -24.5 -20.5s-9.5 -19.667 -9.5 -33
c0 -12 4.16699 -22.167 12.5 -30.5s19.333 -15.666 33 -21.999s29.5 -12 47.5 -17s37 -9.83301 57 -14.5c32 -8 58.5 -18.667 79.5 -32s37.667 -28.5 50 -45.5s21 -35.167 26 -54.5s7.5 -39.333 7.5 -60c0 -40 -7.83301 -74.167 -23.5 -102.5s-36.667 -51.5 -63 -69.5
s-56.833 -31.333 -91.5 -40s-71 -13 -109 -13c-51.333 0 -99.833 7.66699 -145.5 23s-88.167 43 -127.5 83l96 110c55.333 -48.667 114.666 -73 177.999 -73c42 0 72.5 7.33301 91.5 22s28.5 32.334 28.5 53.001c0 21.333 -12.333 38.333 -37 51s-56 23.667 -94 33
c-22 5.33301 -43.5 12.5 -64.5 21.5s-39.667 20.333 -56 34s-29.5 30.334 -39.5 50.001s-15 42.834 -15 69.501c0 36 6.66699 68.167 20 96.5s31.666 52.333 54.999 72s50.833 34.667 82.5 45s66.167 15.5 103.5 15.5zM318.002 782.996l194 139l98 -89l-233 -107z" />
    <glyph glyph-name="sacute" unicode="&#x15b;" horiz-adv-x="472" 
d="M267 500c16 0 32.665 -0.835938 49.998 -2.50293s34.833 -4.66699 52.5 -9s34.834 -10.5 51.501 -18.5s32.334 -18 47.001 -30l-75 -102c-12 8.66699 -24 15.834 -36 21.501s-23.833 9.83398 -35.5 12.501s-22.5 4.5 -32.5 5.5s-18.333 1.5 -25 1.5
c-26.667 0 -44 -3.66699 -52 -11s-12 -14.666 -12 -21.999c0 -6 3.33301 -11.333 10 -16s14.834 -8.5 24.501 -11.5s20 -5.5 31 -7.5s20.833 -3.66699 29.5 -5c15.333 -2.66699 31.5 -6.5 48.5 -11.5s32.833 -12.667 47.5 -23s26.667 -23.5 36 -39.5s14 -36.333 14 -61
c0 -31.333 -6.66699 -58 -20 -80s-30.5 -40.167 -51.5 -54.5s-44.5 -24.833 -70.5 -31.5s-51.333 -10 -76 -10c-44 0 -84.5 5 -121.5 15s-71.5 31 -103.5 63l79 94c22.667 -21.333 45.334 -36 68.001 -44s48 -12 76 -12c8 0 16.167 0.833008 24.5 2.5s16 4.16699 23 7.5
s12.833 7.66602 17.5 12.999s7 11.666 7 18.999c0 8 -3.83301 14.833 -11.5 20.5s-22.167 10.5 -43.5 14.5c-16 3.33301 -34.167 7.5 -54.5 12.5s-39.5 12.5 -57.5 22.5s-33 23.333 -45 40s-18 38.334 -18 65.001c0 30.667 5.83301 56.834 17.5 78.501
s27.167 39.5 46.5 53.5s41.166 24.167 65.499 30.5s49.166 9.5 74.499 9.5zM217.998 566.997l124 203l125 -43l-172 -190z" />
    <glyph glyph-name="Scircumflex" unicode="&#x15c;" horiz-adv-x="600" 
d="M366 701c44 0 86.002 -5.00391 126.002 -15.0039s78.333 -28.667 115 -56l-80 -124c-23.333 16.667 -49.333 30.167 -78 40.5s-56.667 15.5 -84 15.5c-10.667 0 -22 -0.833008 -34 -2.5s-23 -5 -33 -10s-18.167 -11.833 -24.5 -20.5s-9.5 -19.667 -9.5 -33
c0 -12 4.16699 -22.167 12.5 -30.5s19.333 -15.666 33 -21.999s29.5 -12 47.5 -17s37 -9.83301 57 -14.5c32 -8 58.5 -18.667 79.5 -32s37.667 -28.5 50 -45.5s21 -35.167 26 -54.5s7.5 -39.333 7.5 -60c0 -40 -7.83301 -74.167 -23.5 -102.5s-36.667 -51.5 -63 -69.5
s-56.833 -31.333 -91.5 -40s-71 -13 -109 -13c-51.333 0 -99.833 7.66699 -145.5 23s-88.167 43 -127.5 83l96 110c55.333 -48.667 114.666 -73 177.999 -73c42 0 72.5 7.33301 91.5 22s28.5 32.334 28.5 53.001c0 21.333 -12.333 38.333 -37 51s-56 23.667 -94 33
c-22 5.33301 -43.5 12.5 -64.5 21.5s-39.667 20.333 -56 34s-29.5 30.334 -39.5 50.001s-15 42.834 -15 69.501c0 36 6.66699 68.167 20 96.5s31.666 52.333 54.999 72s50.833 34.667 82.5 45s66.167 15.5 103.5 15.5zM412.002 804.996l-165 -78l-37 58l172 120h98l128 -120
l-62 -59z" />
    <glyph glyph-name="scircumflex" unicode="&#x15d;" horiz-adv-x="472" 
d="M267 500c16 0 32.665 -0.835938 49.998 -2.50293s34.833 -4.66699 52.5 -9s34.834 -10.5 51.501 -18.5s32.334 -18 47.001 -30l-75 -102c-12 8.66699 -24 15.834 -36 21.501s-23.833 9.83398 -35.5 12.501s-22.5 4.5 -32.5 5.5s-18.333 1.5 -25 1.5
c-26.667 0 -44 -3.66699 -52 -11s-12 -14.666 -12 -21.999c0 -6 3.33301 -11.333 10 -16s14.834 -8.5 24.501 -11.5s20 -5.5 31 -7.5s20.833 -3.66699 29.5 -5c15.333 -2.66699 31.5 -6.5 48.5 -11.5s32.833 -12.667 47.5 -23s26.667 -23.5 36 -39.5s14 -36.333 14 -61
c0 -31.333 -6.66699 -58 -20 -80s-30.5 -40.167 -51.5 -54.5s-44.5 -24.833 -70.5 -31.5s-51.333 -10 -76 -10c-44 0 -84.5 5 -121.5 15s-71.5 31 -103.5 63l79 94c22.667 -21.333 45.334 -36 68.001 -44s48 -12 76 -12c8 0 16.167 0.833008 24.5 2.5s16 4.16699 23 7.5
s12.833 7.66602 17.5 12.999s7 11.666 7 18.999c0 8 -3.83301 14.833 -11.5 20.5s-22.167 10.5 -43.5 14.5c-16 3.33301 -34.167 7.5 -54.5 12.5s-39.5 12.5 -57.5 22.5s-33 23.333 -45 40s-18 38.334 -18 65.001c0 30.667 5.83301 56.834 17.5 78.501
s27.167 39.5 46.5 53.5s41.166 24.167 65.499 30.5s49.166 9.5 74.499 9.5zM321.998 628.997l-165 -103l-44 48l177 155h103l118 -155l-65 -49z" />
    <glyph glyph-name="Scedilla" unicode="&#x15e;" horiz-adv-x="600" 
d="M263 -4c-46 2 -89.4932 10.9941 -130.493 26.9941s-79.5 42 -115.5 78l96 110c55.333 -48.667 114.666 -73 177.999 -73c42 0 72.5 7.33301 91.5 22s28.5 32.334 28.5 53.001c0 21.333 -12.333 38.333 -37 51s-56 23.667 -94 33c-22 5.33301 -43.5 12.5 -64.5 21.5
s-39.667 20.333 -56 34s-29.5 30.334 -39.5 50.001s-15 42.834 -15 69.501c0 36 6.66699 68.167 20 96.5s31.666 52.333 54.999 72s50.833 34.667 82.5 45s66.167 15.5 103.5 15.5c44 0 86 -5 126 -15s78.333 -28.667 115 -56l-80 -124
c-23.333 16.667 -49.333 30.167 -78 40.5s-56.667 15.5 -84 15.5c-10.667 0 -22 -0.833008 -34 -2.5s-23 -5 -33 -10s-18.167 -11.833 -24.5 -20.5s-9.5 -19.667 -9.5 -33c0 -12 4.16699 -22.167 12.5 -30.5s19.333 -15.666 33 -21.999s29.5 -12 47.5 -17
s37 -9.83301 57 -14.5c32 -8 58.5 -18.667 79.5 -32s37.667 -28.5 50 -45.5s21 -35.167 26 -54.5s7.5 -39.333 7.5 -60c0 -36 -6.33301 -67.167 -19 -93.5s-29.834 -48.666 -51.501 -66.999s-47.167 -32.666 -76.5 -42.999s-60.666 -16.833 -93.999 -19.5l-17 -33
c30.667 -3.33301 51.5 -12.5 62.5 -27.5s16.5 -31.833 16.5 -50.5c0 -14 -3.16699 -27.333 -9.5 -40s-15.333 -24 -27 -34s-25.834 -17.833 -42.501 -23.5s-35.334 -8.5 -56.001 -8.5c-21.333 0 -41.833 2.5 -61.5 7.5s-36.167 12.167 -49.5 21.5l37 62
c15.333 -8 28.166 -13 38.499 -15s21.166 -3 32.499 -3s21.833 2.5 31.5 7.5s14.5 13.833 14.5 26.5c0 7.33301 -2.5 12.5 -7.5 15.5s-10.5 4.5 -16.5 4.5c-6.66699 0 -13.334 -1.33301 -20.001 -4l-35 20z" />
    <glyph glyph-name="scedilla" unicode="&#x15f;" horiz-adv-x="472" 
d="M181 -3c-35.333 2 -68.1631 8.33008 -98.4961 18.9971s-58.5 29.667 -84.5 57l79 94c22.667 -21.333 45.334 -36 68.001 -44s48 -12 76 -12c8 0 16.167 0.833008 24.5 2.5s16 4.16699 23 7.5s12.833 7.66602 17.5 12.999s7 11.666 7 18.999
c0 8 -3.83301 14.833 -11.5 20.5s-22.167 10.5 -43.5 14.5c-16 3.33301 -34.167 7.5 -54.5 12.5s-39.5 12.5 -57.5 22.5s-33 23.333 -45 40s-18 38.334 -18 65.001c0 30.667 5.83301 56.834 17.5 78.501s27.167 39.5 46.5 53.5s41.166 24.167 65.499 30.5
s49.166 9.5 74.499 9.5c16 0 32.667 -0.833008 50 -2.5s34.833 -4.66699 52.5 -9s34.834 -10.5 51.501 -18.5s32.334 -18 47.001 -30l-75 -102c-12 8.66699 -24 15.834 -36 21.501s-23.833 9.83398 -35.5 12.501s-22.5 4.5 -32.5 5.5s-18.333 1.5 -25 1.5
c-26.667 0 -44 -3.66699 -52 -11s-12 -14.666 -12 -21.999c0 -6 3.33301 -11.333 10 -16s14.834 -8.5 24.501 -11.5s20 -5.5 31 -7.5s20.833 -3.66699 29.5 -5c15.333 -2.66699 31.5 -6.5 48.5 -11.5s32.833 -12.667 47.5 -23s26.667 -23.5 36 -39.5s14 -36.333 14 -61
c0 -28 -5.5 -52.333 -16.5 -73s-25.333 -38.167 -43 -52.5s-37.834 -25.5 -60.501 -33.5s-45.667 -13 -69 -15l-16 -33c30.667 -3.33301 51.5 -12.5 62.5 -27.5s16.5 -31.833 16.5 -50.5c0 -14 -3.16699 -27.333 -9.5 -40s-15.333 -24 -27 -34
s-25.834 -17.833 -42.501 -23.5s-35.334 -8.5 -56.001 -8.5c-21.333 0 -41.833 2.5 -61.5 7.5s-36.167 12.167 -49.5 21.5l37 62c15.333 -8 28.166 -13 38.499 -15s21.166 -3 32.499 -3s21.833 2.5 31.5 7.5s14.5 13.833 14.5 26.5c0 7.33301 -2.5 12.5 -7.5 15.5
s-10.5 4.5 -16.5 4.5c-6.66699 0 -13.334 -1.33301 -20.001 -4l-35 20z" />
    <glyph glyph-name="Scaron" unicode="&#x160;" horiz-adv-x="600" 
d="M366 701c44 0 86.002 -5.00391 126.002 -15.0039s78.333 -28.667 115 -56l-80 -124c-23.333 16.667 -49.333 30.167 -78 40.5s-56.667 15.5 -84 15.5c-10.667 0 -22 -0.833008 -34 -2.5s-23 -5 -33 -10s-18.167 -11.833 -24.5 -20.5s-9.5 -19.667 -9.5 -33
c0 -12 4.16699 -22.167 12.5 -30.5s19.333 -15.666 33 -21.999s29.5 -12 47.5 -17s37 -9.83301 57 -14.5c32 -8 58.5 -18.667 79.5 -32s37.667 -28.5 50 -45.5s21 -35.167 26 -54.5s7.5 -39.333 7.5 -60c0 -40 -7.83301 -74.167 -23.5 -102.5s-36.667 -51.5 -63 -69.5
s-56.833 -31.333 -91.5 -40s-71 -13 -109 -13c-51.333 0 -99.833 7.66699 -145.5 23s-88.167 43 -127.5 83l96 110c55.333 -48.667 114.666 -73 177.999 -73c42 0 72.5 7.33301 91.5 22s28.5 32.334 28.5 53.001c0 21.333 -12.333 38.333 -37 51s-56 23.667 -94 33
c-22 5.33301 -43.5 12.5 -64.5 21.5s-39.667 20.333 -56 34s-29.5 30.334 -39.5 50.001s-15 42.834 -15 69.501c0 36 6.66699 68.167 20 96.5s31.666 52.333 54.999 72s50.833 34.667 82.5 45s66.167 15.5 103.5 15.5zM575.002 907.996l40 -59l-175 -120h-98l-125 120l59 58
l135 -78z" />
    <glyph glyph-name="scaron" unicode="&#x161;" horiz-adv-x="472" 
d="M267 500c16 0 32.665 -0.835938 49.998 -2.50293s34.833 -4.66699 52.5 -9s34.834 -10.5 51.501 -18.5s32.334 -18 47.001 -30l-75 -102c-12 8.66699 -24 15.834 -36 21.501s-23.833 9.83398 -35.5 12.501s-22.5 4.5 -32.5 5.5s-18.333 1.5 -25 1.5
c-26.667 0 -44 -3.66699 -52 -11s-12 -14.666 -12 -21.999c0 -6 3.33301 -11.333 10 -16s14.834 -8.5 24.501 -11.5s20 -5.5 31 -7.5s20.833 -3.66699 29.5 -5c15.333 -2.66699 31.5 -6.5 48.5 -11.5s32.833 -12.667 47.5 -23s26.667 -23.5 36 -39.5s14 -36.333 14 -61
c0 -31.333 -6.66699 -58 -20 -80s-30.5 -40.167 -51.5 -54.5s-44.5 -24.833 -70.5 -31.5s-51.333 -10 -76 -10c-44 0 -84.5 5 -121.5 15s-71.5 31 -103.5 63l79 94c22.667 -21.333 45.334 -36 68.001 -44s48 -12 76 -12c8 0 16.167 0.833008 24.5 2.5s16 4.16699 23 7.5
s12.833 7.66602 17.5 12.999s7 11.666 7 18.999c0 8 -3.83301 14.833 -11.5 20.5s-22.167 10.5 -43.5 14.5c-16 3.33301 -34.167 7.5 -54.5 12.5s-39.5 12.5 -57.5 22.5s-33 23.333 -45 40s-18 38.334 -18 65.001c0 30.667 5.83301 56.834 17.5 78.501
s27.167 39.5 46.5 53.5s41.166 24.167 65.499 30.5s49.166 9.5 74.499 9.5zM507.998 732.997l47.001 -49l-178 -155h-103l-117 155l62 48c21.333 -16.667 41.666 -33.667 60.999 -51l60 -52z" />
    <glyph glyph-name="Tcommaaccent" unicode="&#x162;" horiz-adv-x="545" 
d="M414 563l-110 -563h-149l109 563h-187l26 133h523l-26 -133h-186zM94 -313l56 108h-33l29 151h154l-28 -143l-111 -116h-67z" />
    <glyph glyph-name="tcommaaccent" unicode="&#x163;" horiz-adv-x="328" 
d="M243 384l-40 -209.001c-4 -21.333 -3.33301 -35.166 2 -41.499s15.333 -9.5 30 -9.5h31l-24 -124h-76c-39.333 0 -69.833 11.667 -91.5 35s-28.167 56 -19.5 98l48 251h-53l22 112h53l27 136h140l-27 -136h72l-22 -112h-72zM-9 -313.001l56 108h-33l29 151h154l-28 -143
l-111 -116h-67z" />
    <glyph glyph-name="Tcaron" unicode="&#x164;" horiz-adv-x="545" 
d="M414 563l-110 -563h-149l109 563h-187l26 133h523l-26 -133h-186zM559 908l40 -59l-175 -120h-98l-125 120l59 58l135 -78z" />
    <glyph glyph-name="tcaron" unicode="&#x165;" horiz-adv-x="445" 
d="M355 557l56 108h-33l29 151h154l-28 -143l-111 -116h-67zM249 384l-40 -209.001c-4 -21.333 -3.33301 -35.166 2 -41.499s15.333 -9.5 30 -9.5h31l-24 -124h-76c-39.333 0 -69.833 11.667 -91.5 35s-28.167 56 -19.5 98l48 251h-53l22 112h53l27 136h140l-27 -136h72
l-22 -112h-72z" />
    <glyph glyph-name="Tbar" unicode="&#x166;" horiz-adv-x="545" 
d="M414 563l-31 -160h162l-20 -99h-162l-59 -304h-149l59 304h-163l20 99h162l31 160h-187l26 133h523l-26 -133h-186z" />
    <glyph glyph-name="tbar" unicode="&#x167;" horiz-adv-x="328" 
d="M243 384l-14 -73.001h73l-18 -93h-73l-8 -43c-4 -21.333 -3.33301 -35.166 2 -41.499s15.333 -9.5 30 -9.5h31l-24 -124h-76c-39.333 0 -69.833 11.667 -91.5 35s-28.167 56 -19.5 98l16 85h-56l18 93h56l14 73h-53l22 112h53l27 136h140l-27 -136h72l-22 -112h-72z" />
    <glyph glyph-name="Utilde" unicode="&#x168;" horiz-adv-x="644" 
d="M595 243c-7.33301 -37.333 -18.9971 -71.167 -34.9971 -101.5s-36.333 -56.333 -61 -78s-53.667 -38.5 -87 -50.5s-71.333 -18 -114 -18c-36.667 0 -70.834 6.16699 -102.501 18.5s-58.334 29.666 -80.001 51.999s-37.334 49.333 -47.001 81s-10.5 66.834 -2.5 105.501
l86 444h150l-84 -436c-7.33301 -40 -2 -70.833 16 -92.5s43 -32.5 75 -32.5c33.333 0 62.833 9.66699 88.5 29s42.167 48.333 49.5 87l86 445h150zM376.003 881.999c12.667 0 25.5 -2.66797 38.5 -8.00098s25.333 -11 37 -17l33 -16.5c10.333 -5 19.5 -7.5 27.5 -7.5
c11.333 0 22.666 3.66699 33.999 11s25.333 19.666 42 36.999l62 -38c-21.333 -41.333 -42.833 -70.166 -64.5 -86.499s-46.167 -24.5 -73.5 -24.5c-13.333 0 -26.333 2.5 -39 7.5s-24.667 10.333 -36 16l-32.5 16c-10.333 5 -20.166 7.5 -29.499 7.5
c-11.333 0 -23.5 -3.5 -36.5 -10.5s-28.5 -20.167 -46.5 -39.5l-59 39c22.667 42.667 45.667 72.334 69 89.001s48 25 74 25z" />
    <glyph glyph-name="utilde" unicode="&#x169;" horiz-adv-x="540" 
d="M256 496l-57 -293c-5.33301 -25.333 -2.33301 -44.333 9 -57s26.666 -19 45.999 -19c20.667 0 39 6.33301 55 19s26.667 31.667 32 57l57 293h140l-96 -496h-140l11 45h-2c-15.333 -14.667 -34.166 -26.667 -56.499 -36s-42.5 -14 -60.5 -14
c-22.667 0 -43.834 3.83301 -63.501 11.5s-36.167 19 -49.5 34s-22.666 33.5 -27.999 55.5s-5.33301 47.667 0 77l63 323h140zM286 712c12.667 0 25.5 -2.66797 38.5 -8.00098s25.333 -11 37 -17l33 -16.5c10.333 -5 19.5 -7.5 27.5 -7.5c11.333 0 22.666 3.66699 33.999 11
s25.333 19.666 42 36.999l62 -38c-21.333 -41.333 -42.833 -70.166 -64.5 -86.499s-46.167 -24.5 -73.5 -24.5c-13.333 0 -26.333 2.5 -39 7.5s-24.667 10.333 -36 16l-32.5 16c-10.333 5 -20.166 7.5 -29.499 7.5c-11.333 0 -23.5 -3.5 -36.5 -10.5
s-28.5 -20.167 -46.5 -39.5l-59 39c22.667 42.667 45.667 72.334 69 89.001s48 25 74 25z" />
    <glyph glyph-name="Umacron" unicode="&#x16a;" horiz-adv-x="644" 
d="M595 243c-7.33301 -37.333 -18.9971 -71.167 -34.9971 -101.5s-36.333 -56.333 -61 -78s-53.667 -38.5 -87 -50.5s-71.333 -18 -114 -18c-36.667 0 -70.834 6.16699 -102.501 18.5s-58.334 29.666 -80.001 51.999s-37.334 49.333 -47.001 81s-10.5 66.834 -2.5 105.501
l86 444h150l-84 -436c-7.33301 -40 -2 -70.833 16 -92.5s43 -32.5 75 -32.5c33.333 0 62.833 9.66699 88.5 29s42.167 48.333 49.5 87l86 445h150zM264.003 757.999l23 118h333l-23 -118h-333z" />
    <glyph glyph-name="umacron" unicode="&#x16b;" horiz-adv-x="540" 
d="M256 496l-57 -293c-5.33301 -25.333 -2.33301 -44.333 9 -57s26.666 -19 45.999 -19c20.667 0 39 6.33301 55 19s26.667 31.667 32 57l57 293h140l-96 -496h-140l11 45h-2c-15.333 -14.667 -34.166 -26.667 -56.499 -36s-42.5 -14 -60.5 -14
c-22.667 0 -43.834 3.83301 -63.501 11.5s-36.167 19 -49.5 34s-22.666 33.5 -27.999 55.5s-5.33301 47.667 0 77l63 323h140zM174 578l23 118h333l-23 -118h-333z" />
    <glyph glyph-name="Ubreve" unicode="&#x16c;" horiz-adv-x="644" 
d="M595 243c-7.33301 -37.333 -18.9971 -71.167 -34.9971 -101.5s-36.333 -56.333 -61 -78s-53.667 -38.5 -87 -50.5s-71.333 -18 -114 -18c-36.667 0 -70.834 6.16699 -102.501 18.5s-58.334 29.666 -80.001 51.999s-37.334 49.333 -47.001 81s-10.5 66.834 -2.5 105.501
l86 444h150l-84 -436c-7.33301 -40 -2 -70.833 16 -92.5s43 -32.5 75 -32.5c33.333 0 62.833 9.66699 88.5 29s42.167 48.333 49.5 87l86 445h150zM427.003 730.999c-28.667 0 -52.166 5.5 -70.499 16.5s-32.5 24.667 -42.5 41s-16.5 33.833 -19.5 52.5
s-3.83301 35.667 -2.5 51h100c-1.33301 -6.66699 -1.66602 -13.834 -0.999023 -21.501s2.66699 -15 6 -22s8.16602 -12.833 14.499 -17.5s14.166 -7 23.499 -7s18 2.33301 26 7s15 10.5 21 17.5s10.833 14.333 14.5 22s6.16699 14.834 7.5 21.501h100
c-4.66699 -15.333 -11.167 -32.333 -19.5 -51s-19.333 -36.167 -33 -52.5s-30.667 -30 -51 -41s-44.833 -16.5 -73.5 -16.5z" />
    <glyph glyph-name="ubreve" unicode="&#x16d;" horiz-adv-x="540" 
d="M256 496l-57 -293c-5.33301 -25.333 -2.33301 -44.333 9 -57s26.666 -19 45.999 -19c20.667 0 39 6.33301 55 19s26.667 31.667 32 57l57 293h140l-96 -496h-140l11 45h-2c-15.333 -14.667 -34.166 -26.667 -56.499 -36s-42.5 -14 -60.5 -14
c-22.667 0 -43.834 3.83301 -63.501 11.5s-36.167 19 -49.5 34s-22.666 33.5 -27.999 55.5s-5.33301 47.667 0 77l63 323h140zM339 561c-28.667 0 -51.999 5.49902 -69.999 16.499s-31.833 24.667 -41.5 41s-16 33.833 -19 52.5s-3.83301 35.667 -2.5 51h100
c-1.33301 -6.66699 -1.66602 -13.834 -0.999023 -21.501s2.66699 -15 6 -22s8.16602 -12.833 14.499 -17.5s14.166 -7 23.499 -7s18 2.33301 26 7s15 10.5 21 17.5s10.833 14.333 14.5 22s6.16699 14.834 7.5 21.501h100c-3.33301 -15.333 -9 -32.166 -17 -50.499
s-19.333 -35.833 -34 -52.5s-32.5 -30.5 -53.5 -41.5s-45.833 -16.5 -74.5 -16.5z" />
    <glyph glyph-name="Uring" unicode="&#x16e;" horiz-adv-x="644" 
d="M595 243c-7.33301 -37.333 -18.9971 -71.167 -34.9971 -101.5s-36.333 -56.333 -61 -78s-53.667 -38.5 -87 -50.5s-71.333 -18 -114 -18c-36.667 0 -70.834 6.16699 -102.501 18.5s-58.334 29.666 -80.001 51.999s-37.334 49.333 -47.001 81s-10.5 66.834 -2.5 105.501
l86 444h150l-84 -436c-7.33301 -40 -2 -70.833 16 -92.5s43 -32.5 75 -32.5c33.333 0 62.833 9.66699 88.5 29s42.167 48.333 49.5 87l86 445h150zM431.003 774.999c11.333 0 22.333 4.16895 33 12.502s16 19.166 16 32.499c0 8.66699 -3.16699 15.834 -9.5 21.501
s-14.5 8.5 -24.5 8.5c-14 0 -25.667 -4.33301 -35 -13s-14 -19.334 -14 -32.001c0 -8.66699 3.16699 -15.834 9.5 -21.501s14.5 -8.5 24.5 -8.5zM421.003 697.001c-15.333 0 -29.4971 2.3291 -42.4971 6.99609s-24.5 11.334 -34.5 20.001s-17.833 18.834 -23.5 30.501
s-8.5 24.167 -8.5 37.5c0 18 3.33301 35.333 10 52s16.167 31.334 28.5 44.001s27.166 22.667 44.499 30s36.666 11 57.999 11c15.333 0 29.833 -2.5 43.5 -7.5s25.5 -11.667 35.5 -20s18 -18.333 24 -30s9 -24.5 9 -38.5c0 -18 -3.33301 -35.333 -10 -52
s-16.167 -31.167 -28.5 -43.5s-27.333 -22.166 -45 -29.499s-37.834 -11 -60.501 -11z" />
    <glyph glyph-name="uring" unicode="&#x16f;" horiz-adv-x="540" 
d="M256 496l-57 -293c-5.33301 -25.333 -2.33301 -44.333 9 -57s26.666 -19 45.999 -19c20.667 0 39 6.33301 55 19s26.667 31.667 32 57l57 293h140l-96 -496h-140l11 45h-2c-15.333 -14.667 -34.166 -26.667 -56.499 -36s-42.5 -14 -60.5 -14
c-22.667 0 -43.834 3.83301 -63.501 11.5s-36.167 19 -49.5 34s-22.666 33.5 -27.999 55.5s-5.33301 47.667 0 77l63 323h140zM342 605c11.333 0 22.333 4.16895 33 12.502s16 19.166 16 32.499c0 8.66699 -3.16699 15.834 -9.5 21.501s-14.5 8.5 -24.5 8.5
c-14 0 -25.667 -4.33301 -35 -13s-14 -19.334 -14 -32.001c0 -8.66699 3.16699 -15.834 9.5 -21.501s14.5 -8.5 24.5 -8.5zM332 527.002c-15.333 0 -29.4971 2.3291 -42.4971 6.99609s-24.5 11.334 -34.5 20.001s-17.833 18.834 -23.5 30.501s-8.5 24.167 -8.5 37.5
c0 18 3.33301 35.333 10 52s16.167 31.334 28.5 44.001s27.166 22.667 44.499 30s36.666 11 57.999 11c15.333 0 29.833 -2.5 43.5 -7.5s25.5 -11.667 35.5 -20s18 -18.333 24 -30s9 -24.5 9 -38.5c0 -18 -3.33301 -35.333 -10 -52s-16.167 -31.167 -28.5 -43.5
s-27.333 -22.166 -45 -29.499s-37.834 -11 -60.501 -11z" />
    <glyph glyph-name="Uhungarumlaut" unicode="&#x170;" horiz-adv-x="644" 
d="M595 243c-7.33301 -37.333 -18.9971 -71.167 -34.9971 -101.5s-36.333 -56.333 -61 -78s-53.667 -38.5 -87 -50.5s-71.333 -18 -114 -18c-36.667 0 -70.834 6.16699 -102.501 18.5s-58.334 29.666 -80.001 51.999s-37.334 49.333 -47.001 81s-10.5 66.834 -2.5 105.501
l86 444h150l-84 -436c-7.33301 -40 -2 -70.833 16 -92.5s43 -32.5 75 -32.5c33.333 0 62.833 9.66699 88.5 29s42.167 48.333 49.5 87l86 445h150zM237.003 783.999l190 151l86 -94l-223 -118zM457.003 783.999l190 151l86 -94l-223 -118z" />
    <glyph glyph-name="uhungarumlaut" unicode="&#x171;" horiz-adv-x="540" 
d="M256 496l-57 -293c-5.33301 -25.333 -2.33301 -44.333 9 -57s26.666 -19 45.999 -19c20.667 0 39 6.33301 55 19s26.667 31.667 32 57l57 293h140l-96 -496h-140l11 45h-2c-15.333 -14.667 -34.166 -26.667 -56.499 -36s-42.5 -14 -60.5 -14
c-22.667 0 -43.834 3.83301 -63.501 11.5s-36.167 19 -49.5 34s-22.666 33.5 -27.999 55.5s-5.33301 47.667 0 77l63 323h140zM370 567l124 203l125 -43l-172 -190zM180 567l124 203l125 -43l-172 -190z" />
    <glyph glyph-name="Uogonek" unicode="&#x172;" horiz-adv-x="644" 
d="M190 -102c2 14 7.33496 28.8311 16.002 44.498s22.667 34.5 42 56.5c-30.667 4.66699 -58.667 14.167 -84 28.5s-46.5 32.333 -63.5 54s-28.833 47 -35.5 76s-6.33398 60.5 0.999023 94.5l86 444h150l-84 -436c-7.33301 -40 -2 -70.833 16 -92.5s43 -32.5 75 -32.5
c33.333 0 62.833 9.66699 88.5 29s42.167 48.333 49.5 87l86 445h150l-88 -453c-6.66699 -34 -17 -65.167 -31 -93.5s-31.5 -53.166 -52.5 -74.499s-45.833 -38.666 -74.5 -51.999s-61 -22 -97 -26c-18 -19.333 -31.5 -35.833 -40.5 -49.5s-14.5 -25.167 -16.5 -34.5
c-2.66699 -18 6.33301 -27 27 -27c6 0 14.333 0.833008 25 2.5s24 6.16699 40 13.5l17 -74c-19.333 -11.333 -39 -18.833 -59 -22.5s-38.667 -5.5 -56 -5.5c-32 0 -55.833 9.66699 -71.5 29s-20.834 42.333 -15.501 69z" />
    <glyph glyph-name="uogonek" unicode="&#x173;" horiz-adv-x="540" 
d="M242 -102c2.66699 14 8.33301 29.001 17 45.001s23 35.333 43 58l11 44h-2c-15.333 -14.667 -34.166 -26.667 -56.499 -36s-42.5 -14 -60.5 -14c-22.667 0 -43.834 3.83301 -63.501 11.5s-36.167 19 -49.5 34s-22.666 33.5 -27.999 55.5s-5.33301 47.667 0 77l63 323h140
l-57 -293c-5.33301 -25.333 -2.33301 -44.333 9 -57s26.666 -19 45.999 -19c20.667 0 39 6.33301 55 19s26.667 31.667 32 57l57 293h140l-96 -496h-47c-19.333 -20.667 -33.666 -37.834 -42.999 -51.501s-15 -25.5 -17 -35.5c-2.66699 -18 6.33301 -27 27 -27
c6 0 14.333 0.833008 25 2.5s24 6.16699 40 13.5l17 -74c-19.333 -11.333 -39 -18.833 -59 -22.5s-38.667 -5.5 -56 -5.5c-32 0 -55.833 9.66699 -71.5 29s-20.834 42.333 -15.501 69z" />
    <glyph glyph-name="Wcircumflex" unicode="&#x174;" horiz-adv-x="837" 
d="M613 0h-121l-20 226l-11 190h-3l-86 -193l-107 -223h-122l-47 696h157l9 -206l4 -198h3l90 198l99 206h110l19 -205l14 -199h4l80 198l88 206h157zM542 805l-165 -78l-37 58l172 120h98l128 -120l-62 -59z" />
    <glyph glyph-name="wcircumflex" unicode="&#x175;" horiz-adv-x="737" 
d="M773 495c-20.667 -50.667 -40.8311 -97.665 -60.498 -140.998s-40 -84.833 -61 -124.5s-43 -78.334 -66 -116.001s-47.833 -75.5 -74.5 -113.5h-117l-13 122c-2.66699 22 -4.5 44.833 -5.5 68.5s-1.83301 50.5 -2.5 80.5h-4c-21.333 -52 -43.333 -100 -66 -144
s-46.667 -86.333 -72 -127h-123l-65 495h144l10 -123c2.66699 -31.333 4.5 -61.5 5.5 -90.5s0.5 -61.833 -1.5 -98.5h4c12.667 22 25.167 45.833 37.5 71.5s24.166 52.167 35.499 79.5l32.5 82c10.333 27.333 19.5 53.666 27.5 78.999h127l14 -123
c2 -15.333 3.66699 -29.333 5 -42s2.5 -25.5 3.5 -38.5s1.66699 -26.667 2 -41s0.5 -30.833 0.5 -49.5h6c21.333 36.667 42.666 81.167 63.999 133.5s41 105.833 59 160.5h154zM440.003 629.002l-165 -103l-44 48l177 155h103l118 -155l-65 -49z" />
    <glyph glyph-name="Ycircumflex" unicode="&#x176;" horiz-adv-x="593" 
d="M386 285l-55 -285h-145l56 285l-139 411h161l41 -150l32 -135h4l84 134l99 151h162zM420 805l-165 -78l-37 58l172 120h98l128 -120l-62 -59z" />
    <glyph glyph-name="ycircumflex" unicode="&#x177;" horiz-adv-x="476" 
d="M516 495l-113.999 -260.5c-36.667 -81 -77.334 -157.167 -122.001 -228.5c-17.333 -27.333 -35.833 -53.833 -55.5 -79.5s-42.167 -48.5 -67.5 -68.5s-53.833 -35.833 -85.5 -47.5s-68.167 -17.5 -109.5 -17.5l-5 114c48.667 6 86.834 19.5 114.501 40.5
s50.5 49.5 68.5 85.5l-92 462h150l21 -125c1.33301 -8 2.83301 -19.833 4.5 -35.5s3.16699 -33 4.5 -52s2.16602 -38.5 2.49902 -58.5s-0.166992 -38.333 -1.5 -55h4c23.333 38.667 45.833 86.5 67.5 143.5s43.5 117.5 65.5 181.5zM312.001 629l-165 -103l-44 48l177 155
h103l118 -155l-65 -49z" />
    <glyph glyph-name="Ydieresis" unicode="&#x178;" horiz-adv-x="593" 
d="M386 285l-55 -285h-145l56 285l-139 411h161l41 -150l32 -135h4l84 134l99 151h162zM441 744l26 133h152l-26 -133h-152zM226 744l26 133h153l-26 -133h-153z" />
    <glyph glyph-name="Zacute" unicode="&#x179;" horiz-adv-x="538" 
d="M-12 0l25 128l384 435h-287l25 133h470l-24 -123l-384 -435h299l-27 -138h-481zM301 783l194 139l98 -89l-233 -107z" />
    <glyph glyph-name="zacute" unicode="&#x17a;" horiz-adv-x="469" 
d="M-12 0l23 119l273 254h-210l23 122h384l-22 -114l-272 -253h223l-25 -128h-397zM225 567l124 203l125 -43l-172 -190z" />
    <glyph glyph-name="Zdotaccent" unicode="&#x17b;" horiz-adv-x="538" 
d="M-12 0l25 128l384 435h-287l25 133h470l-24 -123l-384 -435h299l-27 -138h-481zM293 746l25 130h148l-25 -130h-148z" />
    <glyph glyph-name="zdotaccent" unicode="&#x17c;" horiz-adv-x="469" 
d="M-12 0l23 119l273 254h-210l23 122h384l-22 -114l-272 -253h223l-25 -128h-397zM217 566l25 130h148l-25 -130h-148z" />
    <glyph glyph-name="Zcaron" unicode="&#x17d;" horiz-adv-x="538" 
d="M-12 0l25 128l384 435h-287l25 133h470l-24 -123l-384 -435h299l-27 -138h-481zM575 908l40 -59l-175 -120h-98l-125 120l59 58l135 -78z" />
    <glyph glyph-name="zcaron" unicode="&#x17e;" horiz-adv-x="469" 
d="M-12 0l23 119l273 254h-210l23 122h384l-22 -114l-272 -253h223l-25 -128h-397zM461 733l47.001 -49l-178 -155h-103l-117 155l62 48c21.333 -16.667 41.666 -33.667 60.999 -51l60 -52z" />
    <glyph glyph-name="florin" unicode="&#x192;" horiz-adv-x="550" 
d="M172 427l94 -0.000976562l12 60c4.66699 24 12 48.667 22 74s23.333 48.333 40 69s37.334 37.5 62.001 50.5s54.667 19.5 90 19.5c17.333 -0.666992 35.5 -3 54.5 -7s35.5 -8.66699 49.5 -14l-39 -112c-9.33301 4 -17.333 7 -24 9s-12.5 3.5 -17.5 4.5s-10 1.5 -15 1.5
h-17.5c-10 0 -18.833 -3 -26.5 -9s-14.334 -13.833 -20.001 -23.5s-10.5 -20.334 -14.5 -32.001s-7.33301 -23.167 -10 -34.5l-12 -56h94l-8 -117h-109l-42 -194c-6.66699 -30 -15 -58.333 -25 -85s-23 -50 -39 -70s-35 -35.833 -57 -47.5s-48.333 -17.5 -79 -17.5
c-8 0 -17.167 0.833008 -27.5 2.5s-21 3.83398 -32 6.50098s-22 5.83398 -33 9.50098s-20.833 7.5 -29.5 11.5l44 110c18 -8 32.167 -13 42.5 -15s19.5 -3 27.5 -3c33.333 0 58 36.333 74 109l39 183h-76z" />
    <glyph glyph-name="Ohorn" unicode="&#x1a0;" horiz-adv-x="658" 
d="M380 701c34.667 0 66.166 -4.3291 94.499 -12.9961s53.166 -20.667 74.499 -36h3c14 0 25.833 1.83301 35.5 5.5s17.834 9.66699 24.501 18s12.334 19.166 17.001 32.499s9 29.666 13 48.999l10 54h108l-16 -84c-8.66699 -43.333 -22.667 -79.666 -42 -108.999
s-47 -49.333 -83 -60c13.333 -38.667 15.666 -81.334 6.99902 -128.001l-32 -164c-8 -41.333 -19.333 -78.833 -34 -112.5s-33.834 -62.334 -57.501 -86.001s-52.167 -41.834 -85.5 -54.501s-72.333 -19 -117 -19c-50 0 -92.333 7.33301 -127 22s-62.167 34.5 -82.5 59.5
s-33.666 54 -39.999 87s-5.83301 67.5 1.5 103.5l32 164c6.66699 36 16.834 70.333 30.501 103s32 61.5 55 86.5s51.667 44.833 86 59.5s75.833 22 124.5 22zM369.999 566.004c-21.333 0 -39.3311 -3.50098 -53.998 -10.501s-26.834 -16.167 -36.501 -27.5
s-17.334 -24.166 -23.001 -38.499s-9.83398 -28.5 -12.501 -42.5l-40 -198c-2.66699 -13.333 -3.5 -26.833 -2.5 -40.5s5.16699 -26.167 12.5 -37.5s18.333 -20.666 33 -27.999s34.667 -11 60 -11c20 0 37.333 3 52 9s27 14.333 37 25s18 23.167 24 37.5
s10.667 29.5 14 45.5l40 202c2.66699 15.333 2.33398 30 -0.999023 44s-9.5 26.167 -18.5 36.5s-20.667 18.666 -35 24.999s-30.833 9.5 -49.5 9.5z" />
    <glyph glyph-name="ohorn" unicode="&#x1a1;" horiz-adv-x="572" 
d="M306 500c32 0 60.002 -4.83398 84.002 -14.501s44.333 -23.167 61 -40.5c21.333 2.66699 37 11.834 47 27.501s18.667 41.167 26 76.5l10 54h108l-16 -84c-8.66699 -44 -22.834 -80.833 -42.501 -110.5s-48.5 -49.5 -86.5 -59.5c2 -11.333 3 -23 3 -35
c0 -38 -4.5 -76 -13.5 -114s-24 -72.333 -45 -103s-49.333 -55.5 -85 -74.5s-79.834 -28.5 -132.501 -28.5c-62.667 0 -109.667 15.833 -141 47.5s-47 72.5 -47 122.5c0 44 5.16699 86.333 15.5 127s26.333 76.5 48 107.5s49.5 55.667 83.5 74s75 27.5 123 27.5z
M292.002 371.999c-22 0 -40.166 -6.33398 -54.499 -19.001s-25.833 -28.334 -34.5 -47.001s-14.667 -38.667 -18 -60s-5 -40.666 -5 -57.999c0 -5.33301 0.5 -11.666 1.5 -18.999s3.66699 -14.333 8 -21s10.666 -12.334 18.999 -17.001s19.833 -7 34.5 -7
c19.333 0 36 5.83301 50 17.5s25.5 26.834 34.5 45.501s15.5 39 19.5 61s6 43.667 6 65c0 19.333 -5.83301 34 -17.5 44s-26.167 15 -43.5 15z" />
    <glyph glyph-name="Uhorn" unicode="&#x1af;" horiz-adv-x="727" 
d="M595 243c-7.33301 -37.333 -19 -71.167 -35 -101.5s-36.333 -56.333 -61 -78s-53.667 -38.5 -87 -50.5s-71.333 -18 -114 -18c-36.667 0 -70.834 6.16699 -102.501 18.5s-58.334 29.666 -80.001 51.999s-37.334 49.333 -47.001 81s-10.5 66.834 -2.5 105.501l86 444h150
l-84 -436c-7.33301 -40 -2 -70.833 16 -92.5s43 -32.5 75 -32.5c33.333 0 62.833 9.66699 88.5 29s42.167 48.333 49.5 87l86 445h150l-9 -44c12.667 0.666992 23.334 3 32.001 7s16 10.167 22 18.5s11.167 19 15.5 32s8.5 28.833 12.5 47.5l10 54h108l-16 -84
c-5.33301 -26.667 -12.666 -50.834 -21.999 -72.501s-21.166 -40.167 -35.499 -55.5s-32 -27.166 -53 -35.499s-45.5 -12.5 -73.5 -12.5h-19l-60 -308v0z" />
    <glyph glyph-name="uhorn" unicode="&#x1b0;" horiz-adv-x="635" 
d="M251 496l-57.001 -293c-5.33301 -25.333 -2.33301 -44.333 9 -57s26.666 -19 45.999 -19c20.667 0 39 6.33301 55 19s26.667 31.667 32 57l57 293h140l-10 -52c24.667 1.33301 42.667 9.83301 54 25.5s20.666 42.167 27.999 79.5l10 54h108l-16 -84
c-5.33301 -26.667 -12.666 -50.834 -21.999 -72.501s-21.166 -40.167 -35.499 -55.5s-32 -27.166 -53 -35.499s-45.5 -12.5 -73.5 -12.5h-20l-66 -343h-140l11 45h-2c-15.333 -14.667 -34.166 -26.667 -56.499 -36s-42.5 -14 -60.5 -14
c-22.667 0 -43.834 3.83301 -63.501 11.5s-36.167 19 -49.5 34s-22.666 33.5 -27.999 55.5s-5.33301 47.667 0 77l63 323h140z" />
    <glyph glyph-name="AEacute" unicode="&#x1fc;" horiz-adv-x="1069" 
d="M1059 696l-19 -138h-338l-20 -141h288l-19 -133h-288l-20 -146h338l-19 -138h-492l20 149h-247l-117 -149h-163l521 696h575zM542 554l-200 -276h167l38 275zM626 783l194 139l98 -89l-233 -107z" />
    <glyph glyph-name="aeacute" unicode="&#x1fd;" horiz-adv-x="815" 
d="M608 501c35.333 0 64.9961 -4.33496 88.9961 -13.002s43.5 -20 58.5 -34s25.667 -29.833 32 -47.5s9.5 -35.5 9.5 -53.5c0 -32 -7.5 -58.5 -22.5 -79.5s-34.5 -37.5 -58.5 -49.5s-51 -20.333 -81 -25s-60 -7 -90 -7c-8.66699 0 -17.167 0.166992 -25.5 0.5
s-16.5 0.833008 -24.5 1.5c-0.666992 -3.33301 -1 -6.16602 -1 -8.49902v-7.5c0 -11.333 2 -20.666 6 -27.999s9.33301 -13 16 -17s14.5 -6.83301 23.5 -8.5s18.833 -2.5 29.5 -2.5c12.667 0 28.5 3.16699 47.5 9.5s41.167 16.5 66.5 30.5l65 -107c-22 -14 -43 -25 -63 -33
s-39.167 -14 -57.5 -18s-35.833 -6.5 -52.5 -7.5s-32.667 -1.5 -48 -1.5c-32 0 -62.167 5.33301 -90.5 16s-50.5 30.334 -66.5 59.001c-11.333 -8.66699 -24.333 -17.5 -39 -26.5s-30.667 -17 -48 -24s-35.5 -12.833 -54.5 -17.5s-38.5 -7 -58.5 -7
c-44 0 -79.667 10 -107 30s-41 52.333 -41 97c0 18.667 2.83301 39 8.5 61s17.334 42.167 35.001 60.5s42.334 33.666 74.001 45.999s73.5 18.5 125.5 18.5c12 0 24.5 -0.5 37.5 -1.5s26.5 -2.16699 40.5 -3.5l4 13c1.33301 5.33301 2 10 2 14
c0 10.667 -4.16699 21 -12.5 31s-26.166 15 -53.499 15c-28 0 -53.167 -2.5 -75.5 -7.5s-42.166 -14.833 -59.499 -29.5l-60 87c32.667 29.333 67.5 49 104.5 59s73.5 15 109.5 15c32.667 0 62.834 -3.33301 90.501 -10s50.167 -17.667 67.5 -33
c19.333 13.333 41.166 24 65.499 32s51.833 12 82.5 12zM601.996 372.998c-18 0 -34.833 -6.66504 -50.5 -19.998s-27.5 -31 -35.5 -53c6 -0.666992 11.667 -1 17 -1h16c19.333 0 35.5 1.33301 48.5 4s23.333 6.16699 31 10.5s13 9.16602 16 14.499s4.5 10.333 4.5 15
c0 9.33301 -3.5 16.666 -10.5 21.999s-19.167 8 -36.5 8zM323.996 200l-36 3.50195c-10.667 1 -20.667 1.5 -30 1.5c-22.667 0 -40.167 -1.83301 -52.5 -5.5s-21.666 -8 -27.999 -13s-10.333 -10 -12 -15s-2.83398 -9.16699 -3.50098 -12.5
c0 -3.33301 0.333008 -7.5 1 -12.5s2.66699 -10 6 -15s9 -9.33301 17 -13s19.667 -5.5 35 -5.5c10.667 0 21.5 1.16699 32.5 3.5s21.167 6.16602 30.5 11.499s17.333 12.166 24 20.499s11 18.5 13 30.5zM402.996 567.002l124 203l125 -43l-172 -190z" />
    <glyph glyph-name="Oslashacute" unicode="&#x1fe;" horiz-adv-x="624" 
d="M380 701c35.333 0 67.166 -4.49805 95.499 -13.498s53.166 -21.167 74.499 -36.5l44 53l39 -37l-44 -53c18.667 -24 31.334 -51.5 38.001 -82.5s6.33398 -64.833 -0.999023 -101.5l-32 -164c-8 -41.333 -19.333 -78.833 -34 -112.5s-33.834 -62.334 -57.501 -86.001
s-52.167 -41.834 -85.5 -54.501s-72.333 -19 -117 -19c-40 0 -75 4.66699 -105 14s-55.333 22.333 -76 39l-42 -50l-36 35l43 52c-18 24.667 -29.5 52.5 -34.5 83.5s-4.16699 63.833 2.5 98.5l32 164c6.66699 36 16.834 70.333 30.501 103s32 61.5 55 86.5
s51.667 44.833 86 59.5s75.833 22 124.5 22zM474 451.002c1.33301 4.66699 2.00098 9.16699 2.00098 13.5v12.5l-259 -311c8 -10 19.167 -18.167 33.5 -24.5s33.166 -9.5 56.499 -9.5c20 0 37.333 3 52 9s27 14.333 37 25s18 23.167 24 37.5s10.667 29.5 14 45.5z
M370.001 566.002c-21.333 0 -39.3301 -3.50098 -53.9971 -10.501s-26.834 -16.167 -36.501 -27.5s-17.334 -24.166 -23.001 -38.499s-9.83398 -28.5 -12.501 -42.5l-40 -198c-1.33301 -4 -2 -7.83301 -2 -11.5s-0.333008 -7.5 -1 -11.5l252 307c-9.33301 10 -21 18 -35 24
s-30 9 -48 9zM337.004 783.001l194 139l98 -89l-233 -107z" />
    <glyph glyph-name="oslashacute" unicode="&#x1ff;" horiz-adv-x="516" 
d="M306 500c27.333 0 51.833 -3.66797 73.5 -11.001s40.5 -17.666 56.5 -30.999l42 45l26 -27l-42 -45c25.333 -32.667 38 -71.667 38 -117c0 -38 -4.5 -76 -13.5 -114s-24 -72.333 -45 -103s-49.333 -55.5 -85 -74.5s-79.834 -28.5 -132.501 -28.5
c-28 0 -52.667 3.33301 -74 10s-39.666 15.667 -54.999 27l-33 -36l-28 26l34 37c-21.333 28.667 -32 64 -32 106c0 44 5.16699 86.333 15.5 127s26.333 76.5 48 107.5s49.5 55.667 83.5 74s75 27.5 123 27.5zM253 566.999l124 203l125 -43l-172 -190zM292 371.999
c-22 0 -40.167 -6.33301 -54.5 -19s-25.833 -28.334 -34.5 -47.001s-14.667 -38.667 -18 -60s-5 -40.666 -5 -57.999v-9l159 173c-11.333 13.333 -27 20 -47 20zM243 123.999c19.333 0 35.834 5.83301 49.501 17.5s25 26.667 34 45s15.667 38.5 20 60.5s6.5 43.333 6.5 64
l-158 -171c5.33301 -5.33301 11.666 -9.33301 18.999 -12s17 -4 29 -4z" />
    <glyph glyph-name="Scommaaccent" unicode="&#x218;" horiz-adv-x="600" 
d="M366 701c44 0 86.002 -5.00391 126.002 -15.0039s78.333 -28.667 115 -56l-80 -124c-23.333 16.667 -49.333 30.167 -78 40.5s-56.667 15.5 -84 15.5c-10.667 0 -22 -0.833008 -34 -2.5s-23 -5 -33 -10s-18.167 -11.833 -24.5 -20.5s-9.5 -19.667 -9.5 -33
c0 -12 4.16699 -22.167 12.5 -30.5s19.333 -15.666 33 -21.999s29.5 -12 47.5 -17s37 -9.83301 57 -14.5c32 -8 58.5 -18.667 79.5 -32s37.667 -28.5 50 -45.5s21 -35.167 26 -54.5s7.5 -39.333 7.5 -60c0 -40 -7.83301 -74.167 -23.5 -102.5s-36.667 -51.5 -63 -69.5
s-56.833 -31.333 -91.5 -40s-71 -13 -109 -13c-51.333 0 -99.833 7.66699 -145.5 23s-88.167 43 -127.5 83l96 110c55.333 -48.667 114.666 -73 177.999 -73c42 0 72.5 7.33301 91.5 22s28.5 32.334 28.5 53.001c0 21.333 -12.333 38.333 -37 51s-56 23.667 -94 33
c-22 5.33301 -43.5 12.5 -64.5 21.5s-39.667 20.333 -56 34s-29.5 30.334 -39.5 50.001s-15 42.834 -15 69.501c0 36 6.66699 68.167 20 96.5s31.666 52.333 54.999 72s50.833 34.667 82.5 45s66.167 15.5 103.5 15.5zM145.002 -313.004l56 108h-33l29 151h154l-28 -143
l-111 -116h-67z" />
    </font>
</defs>
</svg>
